G75*
%MOIN*%
%OFA0B0*%
%FSLAX25Y25*%
%IPPOS*%
%LPD*%
%AMOC8*
5,1,8,0,0,1.08239X$1,22.5*
%
%ADD10C,0.00800*%
%ADD11C,0.00600*%
%ADD12C,0.01000*%
%ADD13R,0.02000X0.10000*%
%ADD14C,0.00500*%
%ADD15R,0.02400X0.03400*%
%ADD16R,0.03400X0.02400*%
%ADD17C,0.00400*%
%ADD18C,0.00300*%
D10*
X0013800Y0281300D02*
X0011300Y0283800D01*
X0011300Y0288800D01*
X0013800Y0291300D01*
X0011300Y0293800D01*
X0011300Y0298800D01*
X0013800Y0301300D01*
X0018800Y0301300D01*
X0021300Y0298800D01*
X0021300Y0293800D01*
X0018800Y0291300D01*
X0021300Y0288800D01*
X0021300Y0283800D01*
X0018800Y0281300D01*
X0013800Y0281300D01*
X0201300Y0373800D02*
X0203800Y0371300D01*
X0208800Y0371300D01*
X0211300Y0373800D01*
X0213800Y0371300D01*
X0218800Y0371300D01*
X0221300Y0373800D01*
X0223800Y0371300D01*
X0228800Y0371300D01*
X0231300Y0373800D01*
X0233800Y0371300D01*
X0238800Y0371300D01*
X0241300Y0373800D01*
X0243800Y0371300D01*
X0248800Y0371300D01*
X0251300Y0373800D01*
X0253800Y0371300D01*
X0258800Y0371300D01*
X0261300Y0373800D01*
X0261300Y0378800D01*
X0258800Y0381300D01*
X0253800Y0381300D01*
X0251300Y0378800D01*
X0248800Y0381300D01*
X0243800Y0381300D01*
X0241300Y0378800D01*
X0238800Y0381300D01*
X0233800Y0381300D01*
X0231300Y0378800D01*
X0228800Y0381300D01*
X0223800Y0381300D01*
X0221300Y0378800D01*
X0218800Y0381300D01*
X0213800Y0381300D01*
X0211300Y0378800D01*
X0208800Y0381300D01*
X0203800Y0381300D01*
X0201300Y0378800D01*
X0201300Y0373800D01*
D11*
X0059800Y0058800D02*
X0052800Y0058800D01*
X0052740Y0058802D01*
X0052679Y0058807D01*
X0052620Y0058816D01*
X0052561Y0058829D01*
X0052502Y0058845D01*
X0052445Y0058865D01*
X0052390Y0058888D01*
X0052335Y0058915D01*
X0052283Y0058944D01*
X0052232Y0058977D01*
X0052183Y0059013D01*
X0052137Y0059051D01*
X0052093Y0059093D01*
X0052051Y0059137D01*
X0052013Y0059183D01*
X0051977Y0059232D01*
X0051944Y0059283D01*
X0051915Y0059335D01*
X0051888Y0059390D01*
X0051865Y0059445D01*
X0051845Y0059502D01*
X0051829Y0059561D01*
X0051816Y0059620D01*
X0051807Y0059679D01*
X0051802Y0059740D01*
X0051800Y0059800D01*
X0051800Y0061300D01*
X0052300Y0061800D01*
X0052300Y0080800D01*
X0051800Y0081300D01*
X0051800Y0082800D01*
X0051802Y0082860D01*
X0051807Y0082921D01*
X0051816Y0082980D01*
X0051829Y0083039D01*
X0051845Y0083098D01*
X0051865Y0083155D01*
X0051888Y0083210D01*
X0051915Y0083265D01*
X0051944Y0083317D01*
X0051977Y0083368D01*
X0052013Y0083417D01*
X0052051Y0083463D01*
X0052093Y0083507D01*
X0052137Y0083549D01*
X0052183Y0083587D01*
X0052232Y0083623D01*
X0052283Y0083656D01*
X0052335Y0083685D01*
X0052390Y0083712D01*
X0052445Y0083735D01*
X0052502Y0083755D01*
X0052561Y0083771D01*
X0052620Y0083784D01*
X0052679Y0083793D01*
X0052740Y0083798D01*
X0052800Y0083800D01*
X0059800Y0083800D01*
X0059860Y0083798D01*
X0059921Y0083793D01*
X0059980Y0083784D01*
X0060039Y0083771D01*
X0060098Y0083755D01*
X0060155Y0083735D01*
X0060210Y0083712D01*
X0060265Y0083685D01*
X0060317Y0083656D01*
X0060368Y0083623D01*
X0060417Y0083587D01*
X0060463Y0083549D01*
X0060507Y0083507D01*
X0060549Y0083463D01*
X0060587Y0083417D01*
X0060623Y0083368D01*
X0060656Y0083317D01*
X0060685Y0083265D01*
X0060712Y0083210D01*
X0060735Y0083155D01*
X0060755Y0083098D01*
X0060771Y0083039D01*
X0060784Y0082980D01*
X0060793Y0082921D01*
X0060798Y0082860D01*
X0060800Y0082800D01*
X0060800Y0081300D01*
X0060300Y0080800D01*
X0060300Y0061800D01*
X0060800Y0061300D01*
X0060800Y0059800D01*
X0060798Y0059740D01*
X0060793Y0059679D01*
X0060784Y0059620D01*
X0060771Y0059561D01*
X0060755Y0059502D01*
X0060735Y0059445D01*
X0060712Y0059390D01*
X0060685Y0059335D01*
X0060656Y0059283D01*
X0060623Y0059232D01*
X0060587Y0059183D01*
X0060549Y0059137D01*
X0060507Y0059093D01*
X0060463Y0059051D01*
X0060417Y0059013D01*
X0060368Y0058977D01*
X0060317Y0058944D01*
X0060265Y0058915D01*
X0060210Y0058888D01*
X0060155Y0058865D01*
X0060098Y0058845D01*
X0060039Y0058829D01*
X0059980Y0058816D01*
X0059921Y0058807D01*
X0059860Y0058802D01*
X0059800Y0058800D01*
X0126300Y0076300D02*
X0126300Y0215800D01*
X0126300Y0216300D02*
X0131300Y0216300D01*
X0131302Y0216160D01*
X0131308Y0216020D01*
X0131318Y0215880D01*
X0131331Y0215740D01*
X0131349Y0215601D01*
X0131371Y0215462D01*
X0131396Y0215325D01*
X0131425Y0215187D01*
X0131458Y0215051D01*
X0131495Y0214916D01*
X0131536Y0214782D01*
X0131581Y0214649D01*
X0131629Y0214517D01*
X0131681Y0214387D01*
X0131736Y0214258D01*
X0131795Y0214131D01*
X0131858Y0214005D01*
X0131924Y0213881D01*
X0131993Y0213760D01*
X0132066Y0213640D01*
X0132143Y0213522D01*
X0132222Y0213407D01*
X0132305Y0213293D01*
X0132391Y0213183D01*
X0132480Y0213074D01*
X0132572Y0212968D01*
X0132667Y0212865D01*
X0132764Y0212764D01*
X0132865Y0212667D01*
X0132968Y0212572D01*
X0133074Y0212480D01*
X0133183Y0212391D01*
X0133293Y0212305D01*
X0133407Y0212222D01*
X0133522Y0212143D01*
X0133640Y0212066D01*
X0133760Y0211993D01*
X0133881Y0211924D01*
X0134005Y0211858D01*
X0134131Y0211795D01*
X0134258Y0211736D01*
X0134387Y0211681D01*
X0134517Y0211629D01*
X0134649Y0211581D01*
X0134782Y0211536D01*
X0134916Y0211495D01*
X0135051Y0211458D01*
X0135187Y0211425D01*
X0135325Y0211396D01*
X0135462Y0211371D01*
X0135601Y0211349D01*
X0135740Y0211331D01*
X0135880Y0211318D01*
X0136020Y0211308D01*
X0136160Y0211302D01*
X0136300Y0211300D01*
X0136440Y0211302D01*
X0136580Y0211308D01*
X0136720Y0211318D01*
X0136860Y0211331D01*
X0136999Y0211349D01*
X0137138Y0211371D01*
X0137275Y0211396D01*
X0137413Y0211425D01*
X0137549Y0211458D01*
X0137684Y0211495D01*
X0137818Y0211536D01*
X0137951Y0211581D01*
X0138083Y0211629D01*
X0138213Y0211681D01*
X0138342Y0211736D01*
X0138469Y0211795D01*
X0138595Y0211858D01*
X0138719Y0211924D01*
X0138840Y0211993D01*
X0138960Y0212066D01*
X0139078Y0212143D01*
X0139193Y0212222D01*
X0139307Y0212305D01*
X0139417Y0212391D01*
X0139526Y0212480D01*
X0139632Y0212572D01*
X0139735Y0212667D01*
X0139836Y0212764D01*
X0139933Y0212865D01*
X0140028Y0212968D01*
X0140120Y0213074D01*
X0140209Y0213183D01*
X0140295Y0213293D01*
X0140378Y0213407D01*
X0140457Y0213522D01*
X0140534Y0213640D01*
X0140607Y0213760D01*
X0140676Y0213881D01*
X0140742Y0214005D01*
X0140805Y0214131D01*
X0140864Y0214258D01*
X0140919Y0214387D01*
X0140971Y0214517D01*
X0141019Y0214649D01*
X0141064Y0214782D01*
X0141105Y0214916D01*
X0141142Y0215051D01*
X0141175Y0215187D01*
X0141204Y0215325D01*
X0141229Y0215462D01*
X0141251Y0215601D01*
X0141269Y0215740D01*
X0141282Y0215880D01*
X0141292Y0216020D01*
X0141298Y0216160D01*
X0141300Y0216300D01*
X0146300Y0216300D01*
X0146300Y0076300D01*
X0126300Y0076300D01*
X0208800Y0064800D02*
X0208800Y0057800D01*
X0208802Y0057740D01*
X0208807Y0057679D01*
X0208816Y0057620D01*
X0208829Y0057561D01*
X0208845Y0057502D01*
X0208865Y0057445D01*
X0208888Y0057390D01*
X0208915Y0057335D01*
X0208944Y0057283D01*
X0208977Y0057232D01*
X0209013Y0057183D01*
X0209051Y0057137D01*
X0209093Y0057093D01*
X0209137Y0057051D01*
X0209183Y0057013D01*
X0209232Y0056977D01*
X0209283Y0056944D01*
X0209335Y0056915D01*
X0209390Y0056888D01*
X0209445Y0056865D01*
X0209502Y0056845D01*
X0209561Y0056829D01*
X0209620Y0056816D01*
X0209679Y0056807D01*
X0209740Y0056802D01*
X0209800Y0056800D01*
X0211300Y0056800D01*
X0211800Y0057300D01*
X0230800Y0057300D01*
X0231300Y0056800D01*
X0232800Y0056800D01*
X0232860Y0056802D01*
X0232921Y0056807D01*
X0232980Y0056816D01*
X0233039Y0056829D01*
X0233098Y0056845D01*
X0233155Y0056865D01*
X0233210Y0056888D01*
X0233265Y0056915D01*
X0233317Y0056944D01*
X0233368Y0056977D01*
X0233417Y0057013D01*
X0233463Y0057051D01*
X0233507Y0057093D01*
X0233549Y0057137D01*
X0233587Y0057183D01*
X0233623Y0057232D01*
X0233656Y0057283D01*
X0233685Y0057335D01*
X0233712Y0057390D01*
X0233735Y0057445D01*
X0233755Y0057502D01*
X0233771Y0057561D01*
X0233784Y0057620D01*
X0233793Y0057679D01*
X0233798Y0057740D01*
X0233800Y0057800D01*
X0233800Y0064800D01*
X0233798Y0064860D01*
X0233793Y0064921D01*
X0233784Y0064980D01*
X0233771Y0065039D01*
X0233755Y0065098D01*
X0233735Y0065155D01*
X0233712Y0065210D01*
X0233685Y0065265D01*
X0233656Y0065317D01*
X0233623Y0065368D01*
X0233587Y0065417D01*
X0233549Y0065463D01*
X0233507Y0065507D01*
X0233463Y0065549D01*
X0233417Y0065587D01*
X0233368Y0065623D01*
X0233317Y0065656D01*
X0233265Y0065685D01*
X0233210Y0065712D01*
X0233155Y0065735D01*
X0233098Y0065755D01*
X0233039Y0065771D01*
X0232980Y0065784D01*
X0232921Y0065793D01*
X0232860Y0065798D01*
X0232800Y0065800D01*
X0231300Y0065800D01*
X0230800Y0065300D01*
X0211800Y0065300D01*
X0211300Y0065800D01*
X0209800Y0065800D01*
X0209740Y0065798D01*
X0209679Y0065793D01*
X0209620Y0065784D01*
X0209561Y0065771D01*
X0209502Y0065755D01*
X0209445Y0065735D01*
X0209390Y0065712D01*
X0209335Y0065685D01*
X0209283Y0065656D01*
X0209232Y0065623D01*
X0209183Y0065587D01*
X0209137Y0065549D01*
X0209093Y0065507D01*
X0209051Y0065463D01*
X0209013Y0065417D01*
X0208977Y0065368D01*
X0208944Y0065317D01*
X0208915Y0065265D01*
X0208888Y0065210D01*
X0208865Y0065155D01*
X0208845Y0065098D01*
X0208829Y0065039D01*
X0208816Y0064980D01*
X0208807Y0064921D01*
X0208802Y0064860D01*
X0208800Y0064800D01*
X0211300Y0076300D02*
X0211300Y0215800D01*
X0211300Y0216300D02*
X0216300Y0216300D01*
X0216302Y0216160D01*
X0216308Y0216020D01*
X0216318Y0215880D01*
X0216331Y0215740D01*
X0216349Y0215601D01*
X0216371Y0215462D01*
X0216396Y0215325D01*
X0216425Y0215187D01*
X0216458Y0215051D01*
X0216495Y0214916D01*
X0216536Y0214782D01*
X0216581Y0214649D01*
X0216629Y0214517D01*
X0216681Y0214387D01*
X0216736Y0214258D01*
X0216795Y0214131D01*
X0216858Y0214005D01*
X0216924Y0213881D01*
X0216993Y0213760D01*
X0217066Y0213640D01*
X0217143Y0213522D01*
X0217222Y0213407D01*
X0217305Y0213293D01*
X0217391Y0213183D01*
X0217480Y0213074D01*
X0217572Y0212968D01*
X0217667Y0212865D01*
X0217764Y0212764D01*
X0217865Y0212667D01*
X0217968Y0212572D01*
X0218074Y0212480D01*
X0218183Y0212391D01*
X0218293Y0212305D01*
X0218407Y0212222D01*
X0218522Y0212143D01*
X0218640Y0212066D01*
X0218760Y0211993D01*
X0218881Y0211924D01*
X0219005Y0211858D01*
X0219131Y0211795D01*
X0219258Y0211736D01*
X0219387Y0211681D01*
X0219517Y0211629D01*
X0219649Y0211581D01*
X0219782Y0211536D01*
X0219916Y0211495D01*
X0220051Y0211458D01*
X0220187Y0211425D01*
X0220325Y0211396D01*
X0220462Y0211371D01*
X0220601Y0211349D01*
X0220740Y0211331D01*
X0220880Y0211318D01*
X0221020Y0211308D01*
X0221160Y0211302D01*
X0221300Y0211300D01*
X0221440Y0211302D01*
X0221580Y0211308D01*
X0221720Y0211318D01*
X0221860Y0211331D01*
X0221999Y0211349D01*
X0222138Y0211371D01*
X0222275Y0211396D01*
X0222413Y0211425D01*
X0222549Y0211458D01*
X0222684Y0211495D01*
X0222818Y0211536D01*
X0222951Y0211581D01*
X0223083Y0211629D01*
X0223213Y0211681D01*
X0223342Y0211736D01*
X0223469Y0211795D01*
X0223595Y0211858D01*
X0223719Y0211924D01*
X0223840Y0211993D01*
X0223960Y0212066D01*
X0224078Y0212143D01*
X0224193Y0212222D01*
X0224307Y0212305D01*
X0224417Y0212391D01*
X0224526Y0212480D01*
X0224632Y0212572D01*
X0224735Y0212667D01*
X0224836Y0212764D01*
X0224933Y0212865D01*
X0225028Y0212968D01*
X0225120Y0213074D01*
X0225209Y0213183D01*
X0225295Y0213293D01*
X0225378Y0213407D01*
X0225457Y0213522D01*
X0225534Y0213640D01*
X0225607Y0213760D01*
X0225676Y0213881D01*
X0225742Y0214005D01*
X0225805Y0214131D01*
X0225864Y0214258D01*
X0225919Y0214387D01*
X0225971Y0214517D01*
X0226019Y0214649D01*
X0226064Y0214782D01*
X0226105Y0214916D01*
X0226142Y0215051D01*
X0226175Y0215187D01*
X0226204Y0215325D01*
X0226229Y0215462D01*
X0226251Y0215601D01*
X0226269Y0215740D01*
X0226282Y0215880D01*
X0226292Y0216020D01*
X0226298Y0216160D01*
X0226300Y0216300D01*
X0231300Y0216300D01*
X0231300Y0076300D01*
X0211300Y0076300D01*
X0251800Y0061300D02*
X0251800Y0051300D01*
X0251802Y0051240D01*
X0251807Y0051179D01*
X0251816Y0051120D01*
X0251829Y0051061D01*
X0251845Y0051002D01*
X0251865Y0050945D01*
X0251888Y0050890D01*
X0251915Y0050835D01*
X0251944Y0050783D01*
X0251977Y0050732D01*
X0252013Y0050683D01*
X0252051Y0050637D01*
X0252093Y0050593D01*
X0252137Y0050551D01*
X0252183Y0050513D01*
X0252232Y0050477D01*
X0252283Y0050444D01*
X0252335Y0050415D01*
X0252390Y0050388D01*
X0252445Y0050365D01*
X0252502Y0050345D01*
X0252561Y0050329D01*
X0252620Y0050316D01*
X0252679Y0050307D01*
X0252740Y0050302D01*
X0252800Y0050300D01*
X0269800Y0050300D01*
X0269860Y0050302D01*
X0269921Y0050307D01*
X0269980Y0050316D01*
X0270039Y0050329D01*
X0270098Y0050345D01*
X0270155Y0050365D01*
X0270210Y0050388D01*
X0270265Y0050415D01*
X0270317Y0050444D01*
X0270368Y0050477D01*
X0270417Y0050513D01*
X0270463Y0050551D01*
X0270507Y0050593D01*
X0270549Y0050637D01*
X0270587Y0050683D01*
X0270623Y0050732D01*
X0270656Y0050783D01*
X0270685Y0050835D01*
X0270712Y0050890D01*
X0270735Y0050945D01*
X0270755Y0051002D01*
X0270771Y0051061D01*
X0270784Y0051120D01*
X0270793Y0051179D01*
X0270798Y0051240D01*
X0270800Y0051300D01*
X0270800Y0061300D01*
X0270798Y0061360D01*
X0270793Y0061421D01*
X0270784Y0061480D01*
X0270771Y0061539D01*
X0270755Y0061598D01*
X0270735Y0061655D01*
X0270712Y0061710D01*
X0270685Y0061765D01*
X0270656Y0061817D01*
X0270623Y0061868D01*
X0270587Y0061917D01*
X0270549Y0061963D01*
X0270507Y0062007D01*
X0270463Y0062049D01*
X0270417Y0062087D01*
X0270368Y0062123D01*
X0270317Y0062156D01*
X0270265Y0062185D01*
X0270210Y0062212D01*
X0270155Y0062235D01*
X0270098Y0062255D01*
X0270039Y0062271D01*
X0269980Y0062284D01*
X0269921Y0062293D01*
X0269860Y0062298D01*
X0269800Y0062300D01*
X0252800Y0062300D01*
X0252740Y0062298D01*
X0252679Y0062293D01*
X0252620Y0062284D01*
X0252561Y0062271D01*
X0252502Y0062255D01*
X0252445Y0062235D01*
X0252390Y0062212D01*
X0252335Y0062185D01*
X0252283Y0062156D01*
X0252232Y0062123D01*
X0252183Y0062087D01*
X0252137Y0062049D01*
X0252093Y0062007D01*
X0252051Y0061963D01*
X0252013Y0061917D01*
X0251977Y0061868D01*
X0251944Y0061817D01*
X0251915Y0061765D01*
X0251888Y0061710D01*
X0251865Y0061655D01*
X0251845Y0061598D01*
X0251829Y0061539D01*
X0251816Y0061480D01*
X0251807Y0061421D01*
X0251802Y0061360D01*
X0251800Y0061300D01*
X0259800Y0056300D02*
X0260300Y0056300D01*
X0262300Y0056300D02*
X0262800Y0056300D01*
X0301800Y0056300D02*
X0301800Y0046300D01*
X0301802Y0046240D01*
X0301807Y0046179D01*
X0301816Y0046120D01*
X0301829Y0046061D01*
X0301845Y0046002D01*
X0301865Y0045945D01*
X0301888Y0045890D01*
X0301915Y0045835D01*
X0301944Y0045783D01*
X0301977Y0045732D01*
X0302013Y0045683D01*
X0302051Y0045637D01*
X0302093Y0045593D01*
X0302137Y0045551D01*
X0302183Y0045513D01*
X0302232Y0045477D01*
X0302283Y0045444D01*
X0302335Y0045415D01*
X0302390Y0045388D01*
X0302445Y0045365D01*
X0302502Y0045345D01*
X0302561Y0045329D01*
X0302620Y0045316D01*
X0302679Y0045307D01*
X0302740Y0045302D01*
X0302800Y0045300D01*
X0319800Y0045300D01*
X0319860Y0045302D01*
X0319921Y0045307D01*
X0319980Y0045316D01*
X0320039Y0045329D01*
X0320098Y0045345D01*
X0320155Y0045365D01*
X0320210Y0045388D01*
X0320265Y0045415D01*
X0320317Y0045444D01*
X0320368Y0045477D01*
X0320417Y0045513D01*
X0320463Y0045551D01*
X0320507Y0045593D01*
X0320549Y0045637D01*
X0320587Y0045683D01*
X0320623Y0045732D01*
X0320656Y0045783D01*
X0320685Y0045835D01*
X0320712Y0045890D01*
X0320735Y0045945D01*
X0320755Y0046002D01*
X0320771Y0046061D01*
X0320784Y0046120D01*
X0320793Y0046179D01*
X0320798Y0046240D01*
X0320800Y0046300D01*
X0320800Y0056300D01*
X0320798Y0056360D01*
X0320793Y0056421D01*
X0320784Y0056480D01*
X0320771Y0056539D01*
X0320755Y0056598D01*
X0320735Y0056655D01*
X0320712Y0056710D01*
X0320685Y0056765D01*
X0320656Y0056817D01*
X0320623Y0056868D01*
X0320587Y0056917D01*
X0320549Y0056963D01*
X0320507Y0057007D01*
X0320463Y0057049D01*
X0320417Y0057087D01*
X0320368Y0057123D01*
X0320317Y0057156D01*
X0320265Y0057185D01*
X0320210Y0057212D01*
X0320155Y0057235D01*
X0320098Y0057255D01*
X0320039Y0057271D01*
X0319980Y0057284D01*
X0319921Y0057293D01*
X0319860Y0057298D01*
X0319800Y0057300D01*
X0302800Y0057300D01*
X0302740Y0057298D01*
X0302679Y0057293D01*
X0302620Y0057284D01*
X0302561Y0057271D01*
X0302502Y0057255D01*
X0302445Y0057235D01*
X0302390Y0057212D01*
X0302335Y0057185D01*
X0302283Y0057156D01*
X0302232Y0057123D01*
X0302183Y0057087D01*
X0302137Y0057049D01*
X0302093Y0057007D01*
X0302051Y0056963D01*
X0302013Y0056917D01*
X0301977Y0056868D01*
X0301944Y0056817D01*
X0301915Y0056765D01*
X0301888Y0056710D01*
X0301865Y0056655D01*
X0301845Y0056598D01*
X0301829Y0056539D01*
X0301816Y0056480D01*
X0301807Y0056421D01*
X0301802Y0056360D01*
X0301800Y0056300D01*
X0309800Y0051300D02*
X0310300Y0051300D01*
X0312300Y0051300D02*
X0312800Y0051300D01*
X0304800Y0100300D02*
X0287800Y0100300D01*
X0287740Y0100302D01*
X0287679Y0100307D01*
X0287620Y0100316D01*
X0287561Y0100329D01*
X0287502Y0100345D01*
X0287445Y0100365D01*
X0287390Y0100388D01*
X0287335Y0100415D01*
X0287283Y0100444D01*
X0287232Y0100477D01*
X0287183Y0100513D01*
X0287137Y0100551D01*
X0287093Y0100593D01*
X0287051Y0100637D01*
X0287013Y0100683D01*
X0286977Y0100732D01*
X0286944Y0100783D01*
X0286915Y0100835D01*
X0286888Y0100890D01*
X0286865Y0100945D01*
X0286845Y0101002D01*
X0286829Y0101061D01*
X0286816Y0101120D01*
X0286807Y0101179D01*
X0286802Y0101240D01*
X0286800Y0101300D01*
X0286800Y0111300D01*
X0286802Y0111360D01*
X0286807Y0111421D01*
X0286816Y0111480D01*
X0286829Y0111539D01*
X0286845Y0111598D01*
X0286865Y0111655D01*
X0286888Y0111710D01*
X0286915Y0111765D01*
X0286944Y0111817D01*
X0286977Y0111868D01*
X0287013Y0111917D01*
X0287051Y0111963D01*
X0287093Y0112007D01*
X0287137Y0112049D01*
X0287183Y0112087D01*
X0287232Y0112123D01*
X0287283Y0112156D01*
X0287335Y0112185D01*
X0287390Y0112212D01*
X0287445Y0112235D01*
X0287502Y0112255D01*
X0287561Y0112271D01*
X0287620Y0112284D01*
X0287679Y0112293D01*
X0287740Y0112298D01*
X0287800Y0112300D01*
X0304800Y0112300D01*
X0304860Y0112298D01*
X0304921Y0112293D01*
X0304980Y0112284D01*
X0305039Y0112271D01*
X0305098Y0112255D01*
X0305155Y0112235D01*
X0305210Y0112212D01*
X0305265Y0112185D01*
X0305317Y0112156D01*
X0305368Y0112123D01*
X0305417Y0112087D01*
X0305463Y0112049D01*
X0305507Y0112007D01*
X0305549Y0111963D01*
X0305587Y0111917D01*
X0305623Y0111868D01*
X0305656Y0111817D01*
X0305685Y0111765D01*
X0305712Y0111710D01*
X0305735Y0111655D01*
X0305755Y0111598D01*
X0305771Y0111539D01*
X0305784Y0111480D01*
X0305793Y0111421D01*
X0305798Y0111360D01*
X0305800Y0111300D01*
X0305800Y0101300D01*
X0305798Y0101240D01*
X0305793Y0101179D01*
X0305784Y0101120D01*
X0305771Y0101061D01*
X0305755Y0101002D01*
X0305735Y0100945D01*
X0305712Y0100890D01*
X0305685Y0100835D01*
X0305656Y0100783D01*
X0305623Y0100732D01*
X0305587Y0100683D01*
X0305549Y0100637D01*
X0305507Y0100593D01*
X0305463Y0100551D01*
X0305417Y0100513D01*
X0305368Y0100477D01*
X0305317Y0100444D01*
X0305265Y0100415D01*
X0305210Y0100388D01*
X0305155Y0100365D01*
X0305098Y0100345D01*
X0305039Y0100329D01*
X0304980Y0100316D01*
X0304921Y0100307D01*
X0304860Y0100302D01*
X0304800Y0100300D01*
X0297800Y0106300D02*
X0297300Y0106300D01*
X0295300Y0106300D02*
X0294800Y0106300D01*
X0284800Y0291800D02*
X0281800Y0294800D01*
X0281800Y0307800D01*
X0284800Y0310800D01*
X0309300Y0310800D01*
X0309376Y0310798D01*
X0309452Y0310792D01*
X0309527Y0310783D01*
X0309602Y0310769D01*
X0309676Y0310752D01*
X0309749Y0310731D01*
X0309821Y0310707D01*
X0309892Y0310678D01*
X0309961Y0310647D01*
X0310028Y0310612D01*
X0310093Y0310573D01*
X0310157Y0310531D01*
X0310218Y0310486D01*
X0310277Y0310438D01*
X0310333Y0310387D01*
X0310387Y0310333D01*
X0310438Y0310277D01*
X0310486Y0310218D01*
X0310531Y0310157D01*
X0310573Y0310093D01*
X0310612Y0310028D01*
X0310647Y0309961D01*
X0310678Y0309892D01*
X0310707Y0309821D01*
X0310731Y0309749D01*
X0310752Y0309676D01*
X0310769Y0309602D01*
X0310783Y0309527D01*
X0310792Y0309452D01*
X0310798Y0309376D01*
X0310800Y0309300D01*
X0310800Y0293300D01*
X0310798Y0293224D01*
X0310792Y0293148D01*
X0310783Y0293073D01*
X0310769Y0292998D01*
X0310752Y0292924D01*
X0310731Y0292851D01*
X0310707Y0292779D01*
X0310678Y0292708D01*
X0310647Y0292639D01*
X0310612Y0292572D01*
X0310573Y0292507D01*
X0310531Y0292443D01*
X0310486Y0292382D01*
X0310438Y0292323D01*
X0310387Y0292267D01*
X0310333Y0292213D01*
X0310277Y0292162D01*
X0310218Y0292114D01*
X0310157Y0292069D01*
X0310093Y0292027D01*
X0310028Y0291988D01*
X0309961Y0291953D01*
X0309892Y0291922D01*
X0309821Y0291893D01*
X0309749Y0291869D01*
X0309676Y0291848D01*
X0309602Y0291831D01*
X0309527Y0291817D01*
X0309452Y0291808D01*
X0309376Y0291802D01*
X0309300Y0291800D01*
X0284800Y0291800D01*
X0293800Y0296500D02*
X0293800Y0301300D01*
X0293800Y0306100D01*
X0295800Y0306100D01*
X0295800Y0296500D01*
X0293800Y0296500D01*
X0293800Y0301300D02*
X0290300Y0301300D01*
X0289300Y0305400D02*
X0289300Y0307900D01*
X0290600Y0306700D02*
X0288000Y0306700D01*
X0298800Y0301300D02*
X0302300Y0301300D01*
X0051300Y0195300D02*
X0051148Y0195302D01*
X0050997Y0195308D01*
X0050846Y0195317D01*
X0050694Y0195331D01*
X0050544Y0195348D01*
X0050394Y0195369D01*
X0050244Y0195394D01*
X0050095Y0195422D01*
X0049947Y0195455D01*
X0049800Y0195491D01*
X0049653Y0195530D01*
X0049508Y0195574D01*
X0049364Y0195621D01*
X0049221Y0195672D01*
X0049080Y0195726D01*
X0048939Y0195784D01*
X0048801Y0195845D01*
X0048664Y0195910D01*
X0048528Y0195979D01*
X0048395Y0196050D01*
X0048263Y0196125D01*
X0048133Y0196204D01*
X0048006Y0196285D01*
X0047880Y0196370D01*
X0047756Y0196458D01*
X0047635Y0196549D01*
X0047516Y0196643D01*
X0047400Y0196741D01*
X0047286Y0196841D01*
X0047174Y0196943D01*
X0047066Y0197049D01*
X0046960Y0197157D01*
X0046856Y0197268D01*
X0046756Y0197382D01*
X0046658Y0197498D01*
X0046564Y0197617D01*
X0051300Y0207300D02*
X0051454Y0207298D01*
X0051608Y0207292D01*
X0051762Y0207282D01*
X0051916Y0207268D01*
X0052069Y0207251D01*
X0052221Y0207229D01*
X0052373Y0207203D01*
X0052525Y0207174D01*
X0052675Y0207140D01*
X0052825Y0207103D01*
X0052973Y0207062D01*
X0053121Y0207017D01*
X0053267Y0206968D01*
X0053412Y0206916D01*
X0053555Y0206860D01*
X0053698Y0206800D01*
X0053838Y0206737D01*
X0053977Y0206670D01*
X0054114Y0206599D01*
X0054249Y0206525D01*
X0054382Y0206448D01*
X0054514Y0206367D01*
X0054643Y0206283D01*
X0054770Y0206195D01*
X0054894Y0206104D01*
X0055016Y0206011D01*
X0055136Y0205913D01*
X0055253Y0205813D01*
X0055368Y0205710D01*
X0055480Y0205604D01*
X0055589Y0205496D01*
X0055695Y0205384D01*
X0055799Y0205270D01*
X0055899Y0205153D01*
X0055997Y0205034D01*
X0056091Y0204912D01*
X0056182Y0204787D01*
X0051300Y0207300D02*
X0051150Y0207298D01*
X0050999Y0207292D01*
X0050849Y0207283D01*
X0050700Y0207270D01*
X0050550Y0207253D01*
X0050401Y0207232D01*
X0050253Y0207208D01*
X0050105Y0207180D01*
X0049958Y0207148D01*
X0049812Y0207113D01*
X0049667Y0207073D01*
X0049523Y0207031D01*
X0049380Y0206984D01*
X0049238Y0206934D01*
X0049097Y0206881D01*
X0048958Y0206824D01*
X0048820Y0206764D01*
X0048684Y0206700D01*
X0048550Y0206633D01*
X0048417Y0206562D01*
X0048286Y0206488D01*
X0048157Y0206411D01*
X0048030Y0206330D01*
X0047905Y0206247D01*
X0047782Y0206160D01*
X0047661Y0206071D01*
X0047543Y0205978D01*
X0047427Y0205882D01*
X0047313Y0205784D01*
X0047202Y0205683D01*
X0047093Y0205578D01*
X0046988Y0205472D01*
X0046884Y0205362D01*
X0046784Y0205250D01*
X0046686Y0205136D01*
X0046592Y0205019D01*
X0046500Y0204900D01*
X0051300Y0195300D02*
X0051452Y0195302D01*
X0051603Y0195308D01*
X0051754Y0195317D01*
X0051906Y0195331D01*
X0052056Y0195348D01*
X0052206Y0195369D01*
X0052356Y0195394D01*
X0052505Y0195422D01*
X0052653Y0195455D01*
X0052800Y0195491D01*
X0052947Y0195530D01*
X0053092Y0195574D01*
X0053236Y0195621D01*
X0053379Y0195672D01*
X0053520Y0195726D01*
X0053661Y0195784D01*
X0053799Y0195845D01*
X0053936Y0195910D01*
X0054072Y0195979D01*
X0054205Y0196050D01*
X0054337Y0196125D01*
X0054467Y0196204D01*
X0054594Y0196285D01*
X0054720Y0196370D01*
X0054844Y0196458D01*
X0054965Y0196549D01*
X0055084Y0196643D01*
X0055200Y0196741D01*
X0055314Y0196841D01*
X0055426Y0196943D01*
X0055534Y0197049D01*
X0055640Y0197157D01*
X0055744Y0197268D01*
X0055844Y0197382D01*
X0055942Y0197498D01*
X0056036Y0197617D01*
D12*
X0051300Y0209300D02*
X0051108Y0209298D01*
X0050916Y0209291D01*
X0050724Y0209279D01*
X0050532Y0209263D01*
X0050341Y0209242D01*
X0050151Y0209217D01*
X0049961Y0209187D01*
X0049772Y0209153D01*
X0049584Y0209114D01*
X0049397Y0209070D01*
X0049211Y0209022D01*
X0049026Y0208970D01*
X0048842Y0208913D01*
X0048660Y0208852D01*
X0048480Y0208786D01*
X0048301Y0208716D01*
X0048123Y0208642D01*
X0047948Y0208564D01*
X0047774Y0208481D01*
X0047603Y0208394D01*
X0047434Y0208304D01*
X0047267Y0208209D01*
X0047102Y0208110D01*
X0046939Y0208007D01*
X0046780Y0207900D01*
X0046622Y0207790D01*
X0046468Y0207676D01*
X0046316Y0207558D01*
X0046167Y0207436D01*
X0046021Y0207311D01*
X0045879Y0207183D01*
X0045739Y0207051D01*
X0045602Y0206916D01*
X0045469Y0206777D01*
X0045339Y0206636D01*
X0045213Y0206491D01*
X0045090Y0206343D01*
X0044971Y0206193D01*
X0044855Y0206039D01*
X0044743Y0205883D01*
X0044635Y0205724D01*
X0044530Y0205563D01*
X0044430Y0205399D01*
X0044334Y0205233D01*
X0044241Y0205065D01*
X0044354Y0197331D02*
X0044453Y0197162D01*
X0044557Y0196996D01*
X0044664Y0196832D01*
X0044775Y0196671D01*
X0044890Y0196513D01*
X0045009Y0196358D01*
X0045132Y0196205D01*
X0045258Y0196056D01*
X0045388Y0195910D01*
X0045522Y0195767D01*
X0045659Y0195627D01*
X0045799Y0195491D01*
X0045943Y0195358D01*
X0046090Y0195229D01*
X0046240Y0195103D01*
X0046393Y0194982D01*
X0046549Y0194863D01*
X0046708Y0194749D01*
X0046869Y0194639D01*
X0047034Y0194533D01*
X0047200Y0194430D01*
X0047370Y0194332D01*
X0047541Y0194238D01*
X0047715Y0194148D01*
X0047891Y0194063D01*
X0048069Y0193981D01*
X0048249Y0193905D01*
X0048431Y0193832D01*
X0048614Y0193764D01*
X0048799Y0193701D01*
X0048986Y0193642D01*
X0049174Y0193588D01*
X0049363Y0193538D01*
X0049553Y0193493D01*
X0049745Y0193453D01*
X0049937Y0193417D01*
X0050130Y0193386D01*
X0050324Y0193360D01*
X0050519Y0193338D01*
X0050714Y0193322D01*
X0050909Y0193310D01*
X0051105Y0193302D01*
X0051300Y0193300D01*
X0051493Y0193302D01*
X0051686Y0193309D01*
X0051878Y0193321D01*
X0052071Y0193337D01*
X0052263Y0193358D01*
X0052454Y0193384D01*
X0052644Y0193414D01*
X0052834Y0193449D01*
X0053023Y0193488D01*
X0053211Y0193532D01*
X0053398Y0193580D01*
X0053584Y0193633D01*
X0053768Y0193690D01*
X0053951Y0193752D01*
X0054132Y0193818D01*
X0054312Y0193889D01*
X0054490Y0193963D01*
X0054666Y0194042D01*
X0054840Y0194126D01*
X0055012Y0194213D01*
X0055182Y0194305D01*
X0055349Y0194401D01*
X0055515Y0194500D01*
X0055678Y0194604D01*
X0055838Y0194711D01*
X0055995Y0194823D01*
X0056150Y0194938D01*
X0056302Y0195057D01*
X0056451Y0195179D01*
X0056598Y0195305D01*
X0056741Y0195435D01*
X0056881Y0195568D01*
X0057017Y0195704D01*
X0057151Y0195844D01*
X0057280Y0195986D01*
X0057407Y0196132D01*
X0057446Y0206422D02*
X0057319Y0206570D01*
X0057189Y0206715D01*
X0057056Y0206856D01*
X0056919Y0206995D01*
X0056779Y0207130D01*
X0056635Y0207261D01*
X0056488Y0207389D01*
X0056339Y0207514D01*
X0056186Y0207635D01*
X0056031Y0207752D01*
X0055872Y0207865D01*
X0055711Y0207974D01*
X0055547Y0208079D01*
X0055381Y0208181D01*
X0055212Y0208278D01*
X0055042Y0208371D01*
X0054868Y0208460D01*
X0054693Y0208545D01*
X0054516Y0208625D01*
X0054337Y0208701D01*
X0054156Y0208773D01*
X0053973Y0208840D01*
X0053789Y0208903D01*
X0053603Y0208961D01*
X0053416Y0209015D01*
X0053228Y0209064D01*
X0053038Y0209109D01*
X0052848Y0209149D01*
X0052656Y0209184D01*
X0052464Y0209215D01*
X0052271Y0209241D01*
X0052077Y0209262D01*
X0051883Y0209279D01*
X0051689Y0209291D01*
X0051495Y0209298D01*
X0051300Y0209300D01*
X0051457Y0287678D02*
X0071143Y0287678D01*
X0071143Y0334922D01*
X0051457Y0334922D01*
X0051457Y0287678D01*
X0026300Y0341300D02*
X0005591Y0341300D01*
X0005591Y0381300D01*
X0026300Y0381300D01*
X0026300Y0341300D01*
X0211300Y0271300D02*
X0211300Y0231300D01*
X0261300Y0231300D01*
X0261300Y0271300D01*
X0211300Y0271300D01*
X0295300Y0109300D02*
X0295300Y0106300D01*
X0295300Y0103300D01*
X0297300Y0103300D02*
X0297300Y0106300D01*
X0297300Y0109300D01*
X0262300Y0059300D02*
X0262300Y0056300D01*
X0262300Y0053300D01*
X0260300Y0053300D02*
X0260300Y0056300D01*
X0260300Y0059300D01*
X0310300Y0054300D02*
X0310300Y0051300D01*
X0310300Y0048300D01*
X0312300Y0048300D02*
X0312300Y0051300D01*
X0312300Y0054300D01*
D13*
X0298300Y0301300D03*
D14*
X0266300Y0281300D02*
X0196300Y0281300D01*
X0196300Y0386300D01*
X0266300Y0386300D01*
X0266300Y0281300D01*
X0266300Y0206300D02*
X0306300Y0206300D01*
X0306300Y0136300D01*
X0266300Y0136300D01*
X0266300Y0206300D01*
X0309300Y0191300D02*
X0309300Y0171300D01*
X0331300Y0171300D01*
X0331300Y0176300D01*
X0326300Y0176300D01*
X0326300Y0186300D01*
X0331300Y0186300D01*
X0331300Y0176300D01*
X0331300Y0186300D02*
X0331300Y0191300D01*
X0309300Y0191300D01*
X0316300Y0148300D02*
X0336300Y0148300D01*
X0336300Y0126300D01*
X0331300Y0126300D01*
X0331300Y0131300D01*
X0321300Y0131300D01*
X0321300Y0126300D01*
X0316300Y0126300D01*
X0316300Y0148300D01*
X0321300Y0126300D02*
X0331300Y0126300D01*
X0188111Y0053111D02*
X0188111Y0029489D01*
X0164489Y0029489D01*
X0164489Y0053111D01*
X0188111Y0053111D01*
X0092800Y0177800D02*
X0089800Y0177800D01*
X0087800Y0179800D01*
X0087800Y0182800D01*
X0088800Y0183800D01*
X0087800Y0184800D01*
X0087800Y0187800D01*
X0088800Y0188800D01*
X0087800Y0189800D01*
X0087800Y0192800D01*
X0088800Y0193800D01*
X0087800Y0194800D01*
X0087800Y0197800D01*
X0088800Y0198800D01*
X0087800Y0199800D01*
X0087800Y0202800D01*
X0089800Y0204800D01*
X0092800Y0204800D01*
X0094800Y0202800D01*
X0094800Y0199800D01*
X0093800Y0198800D01*
X0094800Y0197800D01*
X0094800Y0194800D01*
X0093800Y0193800D01*
X0094800Y0192800D01*
X0094800Y0189800D01*
X0093800Y0188800D01*
X0094800Y0187800D01*
X0094800Y0184800D01*
X0093800Y0183800D01*
X0094800Y0182800D01*
X0094800Y0179800D01*
X0092800Y0177800D01*
D15*
X0056300Y0085500D03*
X0056300Y0057100D03*
D16*
X0207100Y0061300D03*
X0235500Y0061300D03*
D17*
X0207489Y0041100D02*
X0207489Y0036500D01*
X0207489Y0039056D02*
X0204933Y0039056D01*
X0204933Y0041100D02*
X0204933Y0036500D01*
X0202478Y0038417D02*
X0201072Y0039183D01*
X0201583Y0041100D02*
X0201665Y0041098D01*
X0201747Y0041093D01*
X0201829Y0041084D01*
X0201910Y0041072D01*
X0201991Y0041056D01*
X0202071Y0041037D01*
X0202150Y0041014D01*
X0202228Y0040988D01*
X0202305Y0040959D01*
X0202380Y0040926D01*
X0202454Y0040890D01*
X0202527Y0040852D01*
X0202598Y0040810D01*
X0202666Y0040765D01*
X0202733Y0040717D01*
X0201072Y0039184D02*
X0201018Y0039218D01*
X0200967Y0039255D01*
X0200918Y0039295D01*
X0200871Y0039338D01*
X0200828Y0039384D01*
X0200787Y0039432D01*
X0200749Y0039483D01*
X0200714Y0039536D01*
X0200682Y0039591D01*
X0200654Y0039648D01*
X0200630Y0039706D01*
X0200609Y0039766D01*
X0200592Y0039827D01*
X0200578Y0039889D01*
X0200569Y0039952D01*
X0200563Y0040015D01*
X0200561Y0040078D01*
X0200563Y0040140D01*
X0200568Y0040201D01*
X0200578Y0040262D01*
X0200591Y0040323D01*
X0200607Y0040382D01*
X0200627Y0040440D01*
X0200651Y0040497D01*
X0200678Y0040553D01*
X0200708Y0040607D01*
X0200742Y0040659D01*
X0200779Y0040708D01*
X0200818Y0040756D01*
X0200860Y0040801D01*
X0200905Y0040843D01*
X0200953Y0040883D01*
X0201002Y0040919D01*
X0201054Y0040953D01*
X0201108Y0040983D01*
X0201164Y0041010D01*
X0201221Y0041034D01*
X0201279Y0041054D01*
X0201338Y0041070D01*
X0201399Y0041083D01*
X0201460Y0041093D01*
X0201521Y0041098D01*
X0201583Y0041100D01*
X0200434Y0037139D02*
X0200498Y0037076D01*
X0200566Y0037017D01*
X0200635Y0036960D01*
X0200707Y0036906D01*
X0200781Y0036855D01*
X0200857Y0036807D01*
X0200934Y0036763D01*
X0201014Y0036722D01*
X0201095Y0036684D01*
X0201178Y0036649D01*
X0201262Y0036618D01*
X0201348Y0036591D01*
X0201434Y0036567D01*
X0201522Y0036546D01*
X0201610Y0036530D01*
X0201699Y0036517D01*
X0201788Y0036507D01*
X0201877Y0036502D01*
X0201967Y0036500D01*
X0202029Y0036502D01*
X0202090Y0036507D01*
X0202151Y0036517D01*
X0202212Y0036530D01*
X0202271Y0036546D01*
X0202329Y0036566D01*
X0202386Y0036590D01*
X0202442Y0036617D01*
X0202496Y0036647D01*
X0202548Y0036681D01*
X0202597Y0036717D01*
X0202645Y0036757D01*
X0202690Y0036799D01*
X0202732Y0036844D01*
X0202772Y0036892D01*
X0202808Y0036941D01*
X0202842Y0036993D01*
X0202872Y0037047D01*
X0202899Y0037103D01*
X0202923Y0037160D01*
X0202943Y0037218D01*
X0202959Y0037277D01*
X0202972Y0037338D01*
X0202982Y0037399D01*
X0202987Y0037460D01*
X0202989Y0037522D01*
X0202987Y0037585D01*
X0202981Y0037648D01*
X0202972Y0037711D01*
X0202958Y0037773D01*
X0202941Y0037834D01*
X0202920Y0037894D01*
X0202896Y0037952D01*
X0202868Y0038009D01*
X0202836Y0038064D01*
X0202801Y0038117D01*
X0202763Y0038168D01*
X0202722Y0038216D01*
X0202679Y0038262D01*
X0202632Y0038305D01*
X0202583Y0038345D01*
X0202532Y0038382D01*
X0202478Y0038416D01*
X0198489Y0037778D02*
X0198489Y0041100D01*
X0195933Y0041100D02*
X0195933Y0037778D01*
X0195935Y0037708D01*
X0195941Y0037637D01*
X0195950Y0037568D01*
X0195964Y0037499D01*
X0195981Y0037430D01*
X0196002Y0037363D01*
X0196027Y0037297D01*
X0196055Y0037233D01*
X0196087Y0037170D01*
X0196122Y0037109D01*
X0196161Y0037050D01*
X0196202Y0036993D01*
X0196247Y0036939D01*
X0196295Y0036887D01*
X0196345Y0036838D01*
X0196399Y0036791D01*
X0196454Y0036748D01*
X0196512Y0036708D01*
X0196572Y0036671D01*
X0196634Y0036638D01*
X0196698Y0036608D01*
X0196763Y0036581D01*
X0196829Y0036558D01*
X0196897Y0036539D01*
X0196966Y0036524D01*
X0197035Y0036512D01*
X0197105Y0036504D01*
X0197176Y0036500D01*
X0197246Y0036500D01*
X0197317Y0036504D01*
X0197387Y0036512D01*
X0197456Y0036524D01*
X0197525Y0036539D01*
X0197593Y0036558D01*
X0197659Y0036581D01*
X0197724Y0036608D01*
X0197788Y0036638D01*
X0197850Y0036671D01*
X0197910Y0036708D01*
X0197968Y0036748D01*
X0198023Y0036791D01*
X0198077Y0036838D01*
X0198127Y0036887D01*
X0198175Y0036939D01*
X0198220Y0036993D01*
X0198261Y0037050D01*
X0198300Y0037109D01*
X0198335Y0037170D01*
X0198367Y0037233D01*
X0198395Y0037297D01*
X0198420Y0037363D01*
X0198441Y0037430D01*
X0198458Y0037499D01*
X0198472Y0037568D01*
X0198481Y0037637D01*
X0198487Y0037708D01*
X0198489Y0037778D01*
X0192778Y0038544D02*
X0191500Y0038544D01*
X0192778Y0038544D02*
X0192848Y0038546D01*
X0192919Y0038552D01*
X0192988Y0038561D01*
X0193057Y0038575D01*
X0193126Y0038592D01*
X0193193Y0038613D01*
X0193259Y0038638D01*
X0193323Y0038666D01*
X0193386Y0038698D01*
X0193447Y0038733D01*
X0193506Y0038772D01*
X0193563Y0038813D01*
X0193617Y0038858D01*
X0193669Y0038906D01*
X0193718Y0038956D01*
X0193765Y0039010D01*
X0193808Y0039065D01*
X0193848Y0039123D01*
X0193885Y0039183D01*
X0193918Y0039245D01*
X0193948Y0039309D01*
X0193975Y0039374D01*
X0193998Y0039440D01*
X0194017Y0039508D01*
X0194032Y0039577D01*
X0194044Y0039646D01*
X0194052Y0039716D01*
X0194056Y0039787D01*
X0194056Y0039857D01*
X0194052Y0039928D01*
X0194044Y0039998D01*
X0194032Y0040067D01*
X0194017Y0040136D01*
X0193998Y0040204D01*
X0193975Y0040270D01*
X0193948Y0040335D01*
X0193918Y0040399D01*
X0193885Y0040461D01*
X0193848Y0040521D01*
X0193808Y0040579D01*
X0193765Y0040634D01*
X0193718Y0040688D01*
X0193669Y0040738D01*
X0193617Y0040786D01*
X0193563Y0040831D01*
X0193506Y0040872D01*
X0193447Y0040911D01*
X0193386Y0040946D01*
X0193323Y0040978D01*
X0193259Y0041006D01*
X0193193Y0041031D01*
X0193126Y0041052D01*
X0193057Y0041069D01*
X0192988Y0041083D01*
X0192919Y0041092D01*
X0192848Y0041098D01*
X0192778Y0041100D01*
X0191500Y0041100D01*
X0191500Y0036500D01*
X0197128Y0046500D02*
X0197128Y0051100D01*
X0196745Y0050589D02*
X0196692Y0050577D01*
X0196640Y0050562D01*
X0196589Y0050542D01*
X0196540Y0050520D01*
X0196492Y0050494D01*
X0196446Y0050464D01*
X0196403Y0050432D01*
X0196362Y0050396D01*
X0196323Y0050358D01*
X0196288Y0050317D01*
X0196255Y0050273D01*
X0196226Y0050228D01*
X0196200Y0050180D01*
X0196177Y0050130D01*
X0196158Y0050080D01*
X0196143Y0050028D01*
X0196131Y0049974D01*
X0196124Y0049921D01*
X0196120Y0049867D01*
X0196119Y0049812D01*
X0196123Y0049758D01*
X0196131Y0049704D01*
X0196142Y0049651D01*
X0196157Y0049599D01*
X0196176Y0049548D01*
X0196199Y0049499D01*
X0196224Y0049451D01*
X0196254Y0049405D01*
X0196286Y0049362D01*
X0196321Y0049320D01*
X0196360Y0049282D01*
X0196401Y0049246D01*
X0196444Y0049213D01*
X0196489Y0049184D01*
X0196489Y0049183D02*
X0197128Y0048800D01*
X0197767Y0048417D01*
X0198150Y0050333D02*
X0198075Y0050376D01*
X0197999Y0050415D01*
X0197921Y0050452D01*
X0197842Y0050484D01*
X0197761Y0050514D01*
X0197679Y0050540D01*
X0197596Y0050562D01*
X0197512Y0050581D01*
X0197428Y0050597D01*
X0197343Y0050608D01*
X0197257Y0050616D01*
X0197172Y0050621D01*
X0197086Y0050622D01*
X0197000Y0050619D01*
X0196914Y0050613D01*
X0196829Y0050603D01*
X0196744Y0050589D01*
X0196105Y0047267D02*
X0196180Y0047224D01*
X0196256Y0047185D01*
X0196334Y0047148D01*
X0196413Y0047116D01*
X0196494Y0047086D01*
X0196576Y0047060D01*
X0196659Y0047038D01*
X0196743Y0047019D01*
X0196827Y0047003D01*
X0196912Y0046992D01*
X0196998Y0046984D01*
X0197083Y0046979D01*
X0197169Y0046978D01*
X0197255Y0046981D01*
X0197341Y0046987D01*
X0197426Y0046997D01*
X0197511Y0047011D01*
X0197564Y0047023D01*
X0197616Y0047038D01*
X0197667Y0047058D01*
X0197716Y0047080D01*
X0197764Y0047106D01*
X0197810Y0047136D01*
X0197853Y0047168D01*
X0197894Y0047204D01*
X0197933Y0047242D01*
X0197968Y0047283D01*
X0198001Y0047327D01*
X0198030Y0047372D01*
X0198056Y0047420D01*
X0198079Y0047470D01*
X0198098Y0047520D01*
X0198113Y0047572D01*
X0198125Y0047626D01*
X0198132Y0047679D01*
X0198136Y0047733D01*
X0198137Y0047788D01*
X0198133Y0047842D01*
X0198125Y0047896D01*
X0198114Y0047949D01*
X0198099Y0048001D01*
X0198080Y0048052D01*
X0198057Y0048101D01*
X0198032Y0048149D01*
X0198002Y0048195D01*
X0197970Y0048238D01*
X0197935Y0048280D01*
X0197896Y0048318D01*
X0197855Y0048354D01*
X0197812Y0048387D01*
X0197767Y0048416D01*
X0200050Y0047778D02*
X0200050Y0049056D01*
X0201583Y0049056D01*
X0200050Y0049056D02*
X0200052Y0049145D01*
X0200058Y0049234D01*
X0200067Y0049323D01*
X0200081Y0049411D01*
X0200098Y0049498D01*
X0200120Y0049585D01*
X0200145Y0049671D01*
X0200173Y0049755D01*
X0200206Y0049838D01*
X0200242Y0049920D01*
X0200281Y0050000D01*
X0200324Y0050078D01*
X0200370Y0050154D01*
X0200420Y0050228D01*
X0200472Y0050300D01*
X0200528Y0050370D01*
X0200587Y0050437D01*
X0200649Y0050501D01*
X0200713Y0050563D01*
X0200780Y0050622D01*
X0200850Y0050678D01*
X0200922Y0050730D01*
X0200996Y0050780D01*
X0201072Y0050826D01*
X0201150Y0050869D01*
X0201230Y0050908D01*
X0201312Y0050944D01*
X0201395Y0050977D01*
X0201479Y0051005D01*
X0201565Y0051030D01*
X0201652Y0051052D01*
X0201739Y0051069D01*
X0201827Y0051083D01*
X0201916Y0051092D01*
X0202005Y0051098D01*
X0202094Y0051100D01*
X0201583Y0049055D02*
X0201645Y0049053D01*
X0201706Y0049048D01*
X0201767Y0049038D01*
X0201828Y0049025D01*
X0201887Y0049009D01*
X0201945Y0048989D01*
X0202002Y0048965D01*
X0202058Y0048938D01*
X0202112Y0048908D01*
X0202164Y0048874D01*
X0202213Y0048838D01*
X0202261Y0048798D01*
X0202306Y0048756D01*
X0202348Y0048711D01*
X0202388Y0048663D01*
X0202424Y0048614D01*
X0202458Y0048562D01*
X0202488Y0048508D01*
X0202515Y0048452D01*
X0202539Y0048395D01*
X0202559Y0048337D01*
X0202575Y0048278D01*
X0202588Y0048217D01*
X0202598Y0048156D01*
X0202603Y0048095D01*
X0202605Y0048033D01*
X0202606Y0048033D02*
X0202606Y0047778D01*
X0202604Y0047708D01*
X0202598Y0047637D01*
X0202589Y0047568D01*
X0202575Y0047499D01*
X0202558Y0047430D01*
X0202537Y0047363D01*
X0202512Y0047297D01*
X0202484Y0047233D01*
X0202452Y0047170D01*
X0202417Y0047109D01*
X0202378Y0047050D01*
X0202337Y0046993D01*
X0202292Y0046939D01*
X0202244Y0046887D01*
X0202194Y0046838D01*
X0202140Y0046791D01*
X0202085Y0046748D01*
X0202027Y0046708D01*
X0201967Y0046671D01*
X0201905Y0046638D01*
X0201841Y0046608D01*
X0201776Y0046581D01*
X0201710Y0046558D01*
X0201642Y0046539D01*
X0201573Y0046524D01*
X0201504Y0046512D01*
X0201434Y0046504D01*
X0201363Y0046500D01*
X0201293Y0046500D01*
X0201222Y0046504D01*
X0201152Y0046512D01*
X0201083Y0046524D01*
X0201014Y0046539D01*
X0200946Y0046558D01*
X0200880Y0046581D01*
X0200815Y0046608D01*
X0200751Y0046638D01*
X0200689Y0046671D01*
X0200629Y0046708D01*
X0200571Y0046748D01*
X0200516Y0046791D01*
X0200462Y0046838D01*
X0200412Y0046887D01*
X0200364Y0046939D01*
X0200319Y0046993D01*
X0200278Y0047050D01*
X0200239Y0047109D01*
X0200204Y0047170D01*
X0200172Y0047233D01*
X0200144Y0047297D01*
X0200119Y0047363D01*
X0200098Y0047430D01*
X0200081Y0047499D01*
X0200067Y0047568D01*
X0200058Y0047637D01*
X0200052Y0047708D01*
X0200050Y0047778D01*
X0194056Y0047778D02*
X0194056Y0051100D01*
X0191500Y0051100D02*
X0191500Y0047778D01*
X0191502Y0047708D01*
X0191508Y0047637D01*
X0191517Y0047568D01*
X0191531Y0047499D01*
X0191548Y0047430D01*
X0191569Y0047363D01*
X0191594Y0047297D01*
X0191622Y0047233D01*
X0191654Y0047170D01*
X0191689Y0047109D01*
X0191728Y0047050D01*
X0191769Y0046993D01*
X0191814Y0046939D01*
X0191862Y0046887D01*
X0191912Y0046838D01*
X0191966Y0046791D01*
X0192021Y0046748D01*
X0192079Y0046708D01*
X0192139Y0046671D01*
X0192201Y0046638D01*
X0192265Y0046608D01*
X0192330Y0046581D01*
X0192396Y0046558D01*
X0192464Y0046539D01*
X0192533Y0046524D01*
X0192602Y0046512D01*
X0192672Y0046504D01*
X0192743Y0046500D01*
X0192813Y0046500D01*
X0192884Y0046504D01*
X0192954Y0046512D01*
X0193023Y0046524D01*
X0193092Y0046539D01*
X0193160Y0046558D01*
X0193226Y0046581D01*
X0193291Y0046608D01*
X0193355Y0046638D01*
X0193417Y0046671D01*
X0193477Y0046708D01*
X0193535Y0046748D01*
X0193590Y0046791D01*
X0193644Y0046838D01*
X0193694Y0046887D01*
X0193742Y0046939D01*
X0193787Y0046993D01*
X0193828Y0047050D01*
X0193867Y0047109D01*
X0193902Y0047170D01*
X0193934Y0047233D01*
X0193962Y0047297D01*
X0193987Y0047363D01*
X0194008Y0047430D01*
X0194025Y0047499D01*
X0194039Y0047568D01*
X0194048Y0047637D01*
X0194054Y0047708D01*
X0194056Y0047778D01*
X0276500Y0146500D02*
X0279822Y0146500D01*
X0279892Y0146502D01*
X0279963Y0146508D01*
X0280032Y0146517D01*
X0280101Y0146531D01*
X0280170Y0146548D01*
X0280237Y0146569D01*
X0280303Y0146594D01*
X0280367Y0146622D01*
X0280430Y0146654D01*
X0280491Y0146689D01*
X0280550Y0146728D01*
X0280607Y0146769D01*
X0280661Y0146814D01*
X0280713Y0146862D01*
X0280762Y0146912D01*
X0280809Y0146966D01*
X0280852Y0147021D01*
X0280892Y0147079D01*
X0280929Y0147139D01*
X0280962Y0147201D01*
X0280992Y0147265D01*
X0281019Y0147330D01*
X0281042Y0147396D01*
X0281061Y0147464D01*
X0281076Y0147533D01*
X0281088Y0147602D01*
X0281096Y0147672D01*
X0281100Y0147743D01*
X0281100Y0147813D01*
X0281096Y0147884D01*
X0281088Y0147954D01*
X0281076Y0148023D01*
X0281061Y0148092D01*
X0281042Y0148160D01*
X0281019Y0148226D01*
X0280992Y0148291D01*
X0280962Y0148355D01*
X0280929Y0148417D01*
X0280892Y0148477D01*
X0280852Y0148535D01*
X0280809Y0148590D01*
X0280762Y0148644D01*
X0280713Y0148694D01*
X0280661Y0148742D01*
X0280607Y0148787D01*
X0280550Y0148828D01*
X0280491Y0148867D01*
X0280430Y0148902D01*
X0280367Y0148934D01*
X0280303Y0148962D01*
X0280237Y0148987D01*
X0280170Y0149008D01*
X0280101Y0149025D01*
X0280032Y0149039D01*
X0279963Y0149048D01*
X0279892Y0149054D01*
X0279822Y0149056D01*
X0276500Y0149056D01*
X0276500Y0152128D02*
X0281100Y0152128D01*
X0280589Y0152511D02*
X0280577Y0152564D01*
X0280562Y0152616D01*
X0280542Y0152667D01*
X0280520Y0152716D01*
X0280494Y0152764D01*
X0280464Y0152810D01*
X0280432Y0152853D01*
X0280396Y0152894D01*
X0280358Y0152933D01*
X0280317Y0152968D01*
X0280273Y0153001D01*
X0280228Y0153030D01*
X0280180Y0153056D01*
X0280131Y0153079D01*
X0280080Y0153098D01*
X0280028Y0153113D01*
X0279974Y0153125D01*
X0279921Y0153132D01*
X0279867Y0153136D01*
X0279812Y0153137D01*
X0279758Y0153133D01*
X0279704Y0153125D01*
X0279651Y0153114D01*
X0279599Y0153099D01*
X0279548Y0153080D01*
X0279499Y0153057D01*
X0279451Y0153032D01*
X0279405Y0153002D01*
X0279362Y0152970D01*
X0279320Y0152935D01*
X0279282Y0152896D01*
X0279246Y0152855D01*
X0279213Y0152812D01*
X0279184Y0152767D01*
X0279183Y0152767D02*
X0278800Y0152128D01*
X0278417Y0151489D01*
X0280333Y0151105D02*
X0280376Y0151180D01*
X0280415Y0151256D01*
X0280452Y0151334D01*
X0280484Y0151413D01*
X0280514Y0151494D01*
X0280540Y0151576D01*
X0280562Y0151659D01*
X0280581Y0151743D01*
X0280597Y0151827D01*
X0280608Y0151912D01*
X0280616Y0151998D01*
X0280621Y0152083D01*
X0280622Y0152169D01*
X0280619Y0152255D01*
X0280613Y0152341D01*
X0280603Y0152426D01*
X0280589Y0152511D01*
X0277267Y0153150D02*
X0277224Y0153075D01*
X0277185Y0152999D01*
X0277148Y0152921D01*
X0277116Y0152842D01*
X0277086Y0152761D01*
X0277060Y0152679D01*
X0277038Y0152596D01*
X0277019Y0152512D01*
X0277003Y0152428D01*
X0276992Y0152343D01*
X0276984Y0152257D01*
X0276979Y0152172D01*
X0276978Y0152086D01*
X0276981Y0152000D01*
X0276987Y0151914D01*
X0276997Y0151829D01*
X0277011Y0151744D01*
X0277011Y0151745D02*
X0277023Y0151692D01*
X0277038Y0151640D01*
X0277058Y0151589D01*
X0277080Y0151540D01*
X0277106Y0151492D01*
X0277136Y0151446D01*
X0277168Y0151403D01*
X0277204Y0151362D01*
X0277242Y0151323D01*
X0277283Y0151288D01*
X0277327Y0151255D01*
X0277372Y0151226D01*
X0277420Y0151200D01*
X0277470Y0151177D01*
X0277520Y0151158D01*
X0277572Y0151143D01*
X0277626Y0151131D01*
X0277679Y0151123D01*
X0277733Y0151120D01*
X0277788Y0151119D01*
X0277842Y0151123D01*
X0277896Y0151131D01*
X0277949Y0151142D01*
X0278001Y0151157D01*
X0278052Y0151176D01*
X0278101Y0151199D01*
X0278149Y0151224D01*
X0278195Y0151254D01*
X0278238Y0151286D01*
X0278280Y0151321D01*
X0278318Y0151360D01*
X0278354Y0151401D01*
X0278387Y0151444D01*
X0278416Y0151489D01*
X0278033Y0155050D02*
X0277778Y0155050D01*
X0278033Y0155050D02*
X0278095Y0155052D01*
X0278156Y0155057D01*
X0278217Y0155067D01*
X0278278Y0155080D01*
X0278337Y0155096D01*
X0278395Y0155116D01*
X0278452Y0155140D01*
X0278508Y0155167D01*
X0278562Y0155197D01*
X0278614Y0155231D01*
X0278663Y0155267D01*
X0278711Y0155307D01*
X0278756Y0155349D01*
X0278798Y0155394D01*
X0278838Y0155442D01*
X0278874Y0155491D01*
X0278908Y0155543D01*
X0278938Y0155597D01*
X0278965Y0155653D01*
X0278989Y0155710D01*
X0279009Y0155768D01*
X0279025Y0155827D01*
X0279038Y0155888D01*
X0279048Y0155949D01*
X0279053Y0156010D01*
X0279055Y0156072D01*
X0279056Y0156072D02*
X0279056Y0157606D01*
X0277778Y0157606D01*
X0277708Y0157604D01*
X0277637Y0157598D01*
X0277568Y0157589D01*
X0277499Y0157575D01*
X0277430Y0157558D01*
X0277363Y0157537D01*
X0277297Y0157512D01*
X0277233Y0157484D01*
X0277170Y0157452D01*
X0277109Y0157417D01*
X0277050Y0157378D01*
X0276993Y0157337D01*
X0276939Y0157292D01*
X0276887Y0157244D01*
X0276838Y0157194D01*
X0276791Y0157140D01*
X0276748Y0157085D01*
X0276708Y0157027D01*
X0276671Y0156967D01*
X0276638Y0156905D01*
X0276608Y0156841D01*
X0276581Y0156776D01*
X0276558Y0156710D01*
X0276539Y0156642D01*
X0276524Y0156573D01*
X0276512Y0156504D01*
X0276504Y0156434D01*
X0276500Y0156363D01*
X0276500Y0156293D01*
X0276504Y0156222D01*
X0276512Y0156152D01*
X0276524Y0156083D01*
X0276539Y0156014D01*
X0276558Y0155946D01*
X0276581Y0155880D01*
X0276608Y0155815D01*
X0276638Y0155751D01*
X0276671Y0155689D01*
X0276708Y0155629D01*
X0276748Y0155571D01*
X0276791Y0155516D01*
X0276838Y0155462D01*
X0276887Y0155412D01*
X0276939Y0155364D01*
X0276993Y0155319D01*
X0277050Y0155278D01*
X0277109Y0155239D01*
X0277170Y0155204D01*
X0277233Y0155172D01*
X0277297Y0155144D01*
X0277363Y0155119D01*
X0277430Y0155098D01*
X0277499Y0155081D01*
X0277568Y0155067D01*
X0277637Y0155058D01*
X0277708Y0155052D01*
X0277778Y0155050D01*
X0279056Y0157605D02*
X0279145Y0157603D01*
X0279234Y0157597D01*
X0279323Y0157588D01*
X0279411Y0157574D01*
X0279498Y0157557D01*
X0279585Y0157535D01*
X0279671Y0157510D01*
X0279755Y0157482D01*
X0279838Y0157449D01*
X0279920Y0157413D01*
X0280000Y0157374D01*
X0280078Y0157331D01*
X0280154Y0157285D01*
X0280228Y0157235D01*
X0280300Y0157183D01*
X0280370Y0157127D01*
X0280437Y0157068D01*
X0280501Y0157006D01*
X0280563Y0156942D01*
X0280622Y0156875D01*
X0280678Y0156805D01*
X0280730Y0156733D01*
X0280780Y0156659D01*
X0280826Y0156583D01*
X0280869Y0156505D01*
X0280908Y0156425D01*
X0280944Y0156343D01*
X0280977Y0156260D01*
X0281005Y0156176D01*
X0281030Y0156090D01*
X0281052Y0156003D01*
X0281069Y0155916D01*
X0281083Y0155828D01*
X0281092Y0155739D01*
X0281098Y0155650D01*
X0281100Y0155561D01*
X0286500Y0155544D02*
X0291100Y0157078D01*
X0286500Y0158611D01*
X0287522Y0160556D02*
X0287585Y0160558D01*
X0287648Y0160564D01*
X0287710Y0160573D01*
X0287771Y0160587D01*
X0287832Y0160604D01*
X0287891Y0160625D01*
X0287949Y0160650D01*
X0288006Y0160678D01*
X0288060Y0160709D01*
X0288112Y0160744D01*
X0288163Y0160782D01*
X0288211Y0160823D01*
X0288256Y0160867D01*
X0288298Y0160913D01*
X0288338Y0160962D01*
X0288374Y0161013D01*
X0288407Y0161067D01*
X0288437Y0161122D01*
X0288463Y0161180D01*
X0288486Y0161238D01*
X0288505Y0161298D01*
X0288520Y0161359D01*
X0288532Y0161421D01*
X0288540Y0161484D01*
X0288544Y0161547D01*
X0288544Y0161609D01*
X0288540Y0161672D01*
X0288532Y0161735D01*
X0288520Y0161797D01*
X0288505Y0161858D01*
X0288486Y0161918D01*
X0288463Y0161976D01*
X0288437Y0162034D01*
X0288407Y0162089D01*
X0288374Y0162143D01*
X0288338Y0162194D01*
X0288298Y0162243D01*
X0288256Y0162289D01*
X0288211Y0162333D01*
X0288163Y0162374D01*
X0288112Y0162412D01*
X0288060Y0162447D01*
X0288006Y0162478D01*
X0287949Y0162506D01*
X0287891Y0162531D01*
X0287832Y0162552D01*
X0287771Y0162569D01*
X0287710Y0162583D01*
X0287648Y0162592D01*
X0287585Y0162598D01*
X0287522Y0162600D01*
X0287459Y0162598D01*
X0287396Y0162592D01*
X0287334Y0162583D01*
X0287273Y0162569D01*
X0287212Y0162552D01*
X0287153Y0162531D01*
X0287095Y0162506D01*
X0287038Y0162478D01*
X0286984Y0162447D01*
X0286932Y0162412D01*
X0286881Y0162374D01*
X0286833Y0162333D01*
X0286788Y0162289D01*
X0286746Y0162243D01*
X0286706Y0162194D01*
X0286670Y0162143D01*
X0286637Y0162089D01*
X0286607Y0162034D01*
X0286581Y0161976D01*
X0286558Y0161918D01*
X0286539Y0161858D01*
X0286524Y0161797D01*
X0286512Y0161735D01*
X0286504Y0161672D01*
X0286500Y0161609D01*
X0286500Y0161547D01*
X0286504Y0161484D01*
X0286512Y0161421D01*
X0286524Y0161359D01*
X0286539Y0161298D01*
X0286558Y0161238D01*
X0286581Y0161180D01*
X0286607Y0161122D01*
X0286637Y0161067D01*
X0286670Y0161013D01*
X0286706Y0160962D01*
X0286746Y0160913D01*
X0286788Y0160867D01*
X0286833Y0160823D01*
X0286881Y0160782D01*
X0286932Y0160744D01*
X0286984Y0160709D01*
X0287038Y0160678D01*
X0287095Y0160650D01*
X0287153Y0160625D01*
X0287212Y0160604D01*
X0287273Y0160587D01*
X0287334Y0160573D01*
X0287396Y0160564D01*
X0287459Y0160558D01*
X0287522Y0160556D01*
X0289822Y0160300D02*
X0289892Y0160302D01*
X0289963Y0160308D01*
X0290032Y0160317D01*
X0290101Y0160331D01*
X0290170Y0160348D01*
X0290237Y0160369D01*
X0290303Y0160394D01*
X0290367Y0160422D01*
X0290430Y0160454D01*
X0290491Y0160489D01*
X0290550Y0160528D01*
X0290607Y0160569D01*
X0290661Y0160614D01*
X0290713Y0160662D01*
X0290762Y0160712D01*
X0290809Y0160766D01*
X0290852Y0160821D01*
X0290892Y0160879D01*
X0290929Y0160939D01*
X0290962Y0161001D01*
X0290992Y0161065D01*
X0291019Y0161130D01*
X0291042Y0161196D01*
X0291061Y0161264D01*
X0291076Y0161333D01*
X0291088Y0161402D01*
X0291096Y0161472D01*
X0291100Y0161543D01*
X0291100Y0161613D01*
X0291096Y0161684D01*
X0291088Y0161754D01*
X0291076Y0161823D01*
X0291061Y0161892D01*
X0291042Y0161960D01*
X0291019Y0162026D01*
X0290992Y0162091D01*
X0290962Y0162155D01*
X0290929Y0162217D01*
X0290892Y0162277D01*
X0290852Y0162335D01*
X0290809Y0162390D01*
X0290762Y0162444D01*
X0290713Y0162494D01*
X0290661Y0162542D01*
X0290607Y0162587D01*
X0290550Y0162628D01*
X0290491Y0162667D01*
X0290430Y0162702D01*
X0290367Y0162734D01*
X0290303Y0162762D01*
X0290237Y0162787D01*
X0290170Y0162808D01*
X0290101Y0162825D01*
X0290032Y0162839D01*
X0289963Y0162848D01*
X0289892Y0162854D01*
X0289822Y0162856D01*
X0289752Y0162854D01*
X0289681Y0162848D01*
X0289612Y0162839D01*
X0289543Y0162825D01*
X0289474Y0162808D01*
X0289407Y0162787D01*
X0289341Y0162762D01*
X0289277Y0162734D01*
X0289214Y0162702D01*
X0289153Y0162667D01*
X0289094Y0162628D01*
X0289037Y0162587D01*
X0288983Y0162542D01*
X0288931Y0162494D01*
X0288882Y0162444D01*
X0288835Y0162390D01*
X0288792Y0162335D01*
X0288752Y0162277D01*
X0288715Y0162217D01*
X0288682Y0162155D01*
X0288652Y0162091D01*
X0288625Y0162026D01*
X0288602Y0161960D01*
X0288583Y0161892D01*
X0288568Y0161823D01*
X0288556Y0161754D01*
X0288548Y0161684D01*
X0288544Y0161613D01*
X0288544Y0161543D01*
X0288548Y0161472D01*
X0288556Y0161402D01*
X0288568Y0161333D01*
X0288583Y0161264D01*
X0288602Y0161196D01*
X0288625Y0161130D01*
X0288652Y0161065D01*
X0288682Y0161001D01*
X0288715Y0160939D01*
X0288752Y0160879D01*
X0288792Y0160821D01*
X0288835Y0160766D01*
X0288882Y0160712D01*
X0288931Y0160662D01*
X0288983Y0160614D01*
X0289037Y0160569D01*
X0289094Y0160528D01*
X0289153Y0160489D01*
X0289214Y0160454D01*
X0289277Y0160422D01*
X0289341Y0160394D01*
X0289407Y0160369D01*
X0289474Y0160348D01*
X0289543Y0160331D01*
X0289612Y0160317D01*
X0289681Y0160308D01*
X0289752Y0160302D01*
X0289822Y0160300D01*
X0289822Y0164800D02*
X0289892Y0164802D01*
X0289963Y0164808D01*
X0290032Y0164817D01*
X0290101Y0164831D01*
X0290170Y0164848D01*
X0290237Y0164869D01*
X0290303Y0164894D01*
X0290367Y0164922D01*
X0290430Y0164954D01*
X0290491Y0164989D01*
X0290550Y0165028D01*
X0290607Y0165069D01*
X0290661Y0165114D01*
X0290713Y0165162D01*
X0290762Y0165212D01*
X0290809Y0165266D01*
X0290852Y0165321D01*
X0290892Y0165379D01*
X0290929Y0165439D01*
X0290962Y0165501D01*
X0290992Y0165565D01*
X0291019Y0165630D01*
X0291042Y0165696D01*
X0291061Y0165764D01*
X0291076Y0165833D01*
X0291088Y0165902D01*
X0291096Y0165972D01*
X0291100Y0166043D01*
X0291100Y0166113D01*
X0291096Y0166184D01*
X0291088Y0166254D01*
X0291076Y0166323D01*
X0291061Y0166392D01*
X0291042Y0166460D01*
X0291019Y0166526D01*
X0290992Y0166591D01*
X0290962Y0166655D01*
X0290929Y0166717D01*
X0290892Y0166777D01*
X0290852Y0166835D01*
X0290809Y0166890D01*
X0290762Y0166944D01*
X0290713Y0166994D01*
X0290661Y0167042D01*
X0290607Y0167087D01*
X0290550Y0167128D01*
X0290491Y0167167D01*
X0290430Y0167202D01*
X0290367Y0167234D01*
X0290303Y0167262D01*
X0290237Y0167287D01*
X0290170Y0167308D01*
X0290101Y0167325D01*
X0290032Y0167339D01*
X0289963Y0167348D01*
X0289892Y0167354D01*
X0289822Y0167356D01*
X0289752Y0167354D01*
X0289681Y0167348D01*
X0289612Y0167339D01*
X0289543Y0167325D01*
X0289474Y0167308D01*
X0289407Y0167287D01*
X0289341Y0167262D01*
X0289277Y0167234D01*
X0289214Y0167202D01*
X0289153Y0167167D01*
X0289094Y0167128D01*
X0289037Y0167087D01*
X0288983Y0167042D01*
X0288931Y0166994D01*
X0288882Y0166944D01*
X0288835Y0166890D01*
X0288792Y0166835D01*
X0288752Y0166777D01*
X0288715Y0166717D01*
X0288682Y0166655D01*
X0288652Y0166591D01*
X0288625Y0166526D01*
X0288602Y0166460D01*
X0288583Y0166392D01*
X0288568Y0166323D01*
X0288556Y0166254D01*
X0288548Y0166184D01*
X0288544Y0166113D01*
X0288544Y0166043D01*
X0288548Y0165972D01*
X0288556Y0165902D01*
X0288568Y0165833D01*
X0288583Y0165764D01*
X0288602Y0165696D01*
X0288625Y0165630D01*
X0288652Y0165565D01*
X0288682Y0165501D01*
X0288715Y0165439D01*
X0288752Y0165379D01*
X0288792Y0165321D01*
X0288835Y0165266D01*
X0288882Y0165212D01*
X0288931Y0165162D01*
X0288983Y0165114D01*
X0289037Y0165069D01*
X0289094Y0165028D01*
X0289153Y0164989D01*
X0289214Y0164954D01*
X0289277Y0164922D01*
X0289341Y0164894D01*
X0289407Y0164869D01*
X0289474Y0164848D01*
X0289543Y0164831D01*
X0289612Y0164817D01*
X0289681Y0164808D01*
X0289752Y0164802D01*
X0289822Y0164800D01*
X0287522Y0165056D02*
X0287585Y0165058D01*
X0287648Y0165064D01*
X0287710Y0165073D01*
X0287771Y0165087D01*
X0287832Y0165104D01*
X0287891Y0165125D01*
X0287949Y0165150D01*
X0288006Y0165178D01*
X0288060Y0165209D01*
X0288112Y0165244D01*
X0288163Y0165282D01*
X0288211Y0165323D01*
X0288256Y0165367D01*
X0288298Y0165413D01*
X0288338Y0165462D01*
X0288374Y0165513D01*
X0288407Y0165567D01*
X0288437Y0165622D01*
X0288463Y0165680D01*
X0288486Y0165738D01*
X0288505Y0165798D01*
X0288520Y0165859D01*
X0288532Y0165921D01*
X0288540Y0165984D01*
X0288544Y0166047D01*
X0288544Y0166109D01*
X0288540Y0166172D01*
X0288532Y0166235D01*
X0288520Y0166297D01*
X0288505Y0166358D01*
X0288486Y0166418D01*
X0288463Y0166476D01*
X0288437Y0166534D01*
X0288407Y0166589D01*
X0288374Y0166643D01*
X0288338Y0166694D01*
X0288298Y0166743D01*
X0288256Y0166789D01*
X0288211Y0166833D01*
X0288163Y0166874D01*
X0288112Y0166912D01*
X0288060Y0166947D01*
X0288006Y0166978D01*
X0287949Y0167006D01*
X0287891Y0167031D01*
X0287832Y0167052D01*
X0287771Y0167069D01*
X0287710Y0167083D01*
X0287648Y0167092D01*
X0287585Y0167098D01*
X0287522Y0167100D01*
X0287459Y0167098D01*
X0287396Y0167092D01*
X0287334Y0167083D01*
X0287273Y0167069D01*
X0287212Y0167052D01*
X0287153Y0167031D01*
X0287095Y0167006D01*
X0287038Y0166978D01*
X0286984Y0166947D01*
X0286932Y0166912D01*
X0286881Y0166874D01*
X0286833Y0166833D01*
X0286788Y0166789D01*
X0286746Y0166743D01*
X0286706Y0166694D01*
X0286670Y0166643D01*
X0286637Y0166589D01*
X0286607Y0166534D01*
X0286581Y0166476D01*
X0286558Y0166418D01*
X0286539Y0166358D01*
X0286524Y0166297D01*
X0286512Y0166235D01*
X0286504Y0166172D01*
X0286500Y0166109D01*
X0286500Y0166047D01*
X0286504Y0165984D01*
X0286512Y0165921D01*
X0286524Y0165859D01*
X0286539Y0165798D01*
X0286558Y0165738D01*
X0286581Y0165680D01*
X0286607Y0165622D01*
X0286637Y0165567D01*
X0286670Y0165513D01*
X0286706Y0165462D01*
X0286746Y0165413D01*
X0286788Y0165367D01*
X0286833Y0165323D01*
X0286881Y0165282D01*
X0286932Y0165244D01*
X0286984Y0165209D01*
X0287038Y0165178D01*
X0287095Y0165150D01*
X0287153Y0165125D01*
X0287212Y0165104D01*
X0287273Y0165087D01*
X0287334Y0165073D01*
X0287396Y0165064D01*
X0287459Y0165058D01*
X0287522Y0165056D01*
X0286500Y0169300D02*
X0286500Y0170833D01*
X0286502Y0170896D01*
X0286508Y0170959D01*
X0286517Y0171021D01*
X0286531Y0171082D01*
X0286548Y0171143D01*
X0286569Y0171202D01*
X0286594Y0171260D01*
X0286622Y0171317D01*
X0286653Y0171371D01*
X0286688Y0171423D01*
X0286726Y0171474D01*
X0286767Y0171522D01*
X0286811Y0171567D01*
X0286857Y0171609D01*
X0286906Y0171649D01*
X0286957Y0171685D01*
X0287011Y0171718D01*
X0287066Y0171748D01*
X0287124Y0171774D01*
X0287182Y0171797D01*
X0287242Y0171816D01*
X0287303Y0171831D01*
X0287365Y0171843D01*
X0287428Y0171851D01*
X0287491Y0171855D01*
X0287553Y0171855D01*
X0287616Y0171851D01*
X0287679Y0171843D01*
X0287741Y0171831D01*
X0287802Y0171816D01*
X0287862Y0171797D01*
X0287920Y0171774D01*
X0287978Y0171748D01*
X0288033Y0171718D01*
X0288087Y0171685D01*
X0288138Y0171649D01*
X0288187Y0171609D01*
X0288233Y0171567D01*
X0288277Y0171522D01*
X0288318Y0171474D01*
X0288356Y0171423D01*
X0288391Y0171371D01*
X0288422Y0171317D01*
X0288450Y0171260D01*
X0288475Y0171202D01*
X0288496Y0171143D01*
X0288513Y0171082D01*
X0288527Y0171021D01*
X0288536Y0170959D01*
X0288542Y0170896D01*
X0288544Y0170833D01*
X0288544Y0169811D01*
X0288544Y0170578D02*
X0288546Y0170648D01*
X0288552Y0170719D01*
X0288561Y0170788D01*
X0288575Y0170857D01*
X0288592Y0170926D01*
X0288613Y0170993D01*
X0288638Y0171059D01*
X0288666Y0171123D01*
X0288698Y0171186D01*
X0288733Y0171247D01*
X0288772Y0171306D01*
X0288813Y0171363D01*
X0288858Y0171417D01*
X0288906Y0171469D01*
X0288956Y0171518D01*
X0289010Y0171565D01*
X0289065Y0171608D01*
X0289123Y0171648D01*
X0289183Y0171685D01*
X0289245Y0171718D01*
X0289309Y0171748D01*
X0289374Y0171775D01*
X0289440Y0171798D01*
X0289508Y0171817D01*
X0289577Y0171832D01*
X0289646Y0171844D01*
X0289716Y0171852D01*
X0289787Y0171856D01*
X0289857Y0171856D01*
X0289928Y0171852D01*
X0289998Y0171844D01*
X0290067Y0171832D01*
X0290136Y0171817D01*
X0290204Y0171798D01*
X0290270Y0171775D01*
X0290335Y0171748D01*
X0290399Y0171718D01*
X0290461Y0171685D01*
X0290521Y0171648D01*
X0290579Y0171608D01*
X0290634Y0171565D01*
X0290688Y0171518D01*
X0290738Y0171469D01*
X0290786Y0171417D01*
X0290831Y0171363D01*
X0290872Y0171306D01*
X0290911Y0171247D01*
X0290946Y0171186D01*
X0290978Y0171123D01*
X0291006Y0171059D01*
X0291031Y0170993D01*
X0291052Y0170926D01*
X0291069Y0170857D01*
X0291083Y0170788D01*
X0291092Y0170719D01*
X0291098Y0170648D01*
X0291100Y0170578D01*
X0291100Y0169300D01*
X0291100Y0173800D02*
X0291100Y0175333D01*
X0291098Y0175395D01*
X0291093Y0175456D01*
X0291083Y0175517D01*
X0291070Y0175578D01*
X0291054Y0175637D01*
X0291034Y0175695D01*
X0291010Y0175752D01*
X0290983Y0175808D01*
X0290953Y0175862D01*
X0290919Y0175914D01*
X0290883Y0175963D01*
X0290843Y0176011D01*
X0290801Y0176056D01*
X0290756Y0176098D01*
X0290708Y0176138D01*
X0290659Y0176174D01*
X0290607Y0176208D01*
X0290553Y0176238D01*
X0290497Y0176265D01*
X0290440Y0176289D01*
X0290382Y0176309D01*
X0290323Y0176325D01*
X0290262Y0176338D01*
X0290201Y0176348D01*
X0290140Y0176353D01*
X0290078Y0176355D01*
X0289567Y0176355D01*
X0289505Y0176353D01*
X0289444Y0176348D01*
X0289383Y0176338D01*
X0289322Y0176325D01*
X0289263Y0176309D01*
X0289205Y0176289D01*
X0289148Y0176265D01*
X0289092Y0176238D01*
X0289038Y0176208D01*
X0288986Y0176174D01*
X0288937Y0176138D01*
X0288889Y0176098D01*
X0288844Y0176056D01*
X0288802Y0176011D01*
X0288762Y0175963D01*
X0288726Y0175914D01*
X0288692Y0175862D01*
X0288662Y0175808D01*
X0288635Y0175752D01*
X0288611Y0175695D01*
X0288591Y0175637D01*
X0288575Y0175578D01*
X0288562Y0175517D01*
X0288552Y0175456D01*
X0288547Y0175395D01*
X0288545Y0175333D01*
X0288544Y0175333D02*
X0288544Y0173800D01*
X0286500Y0173800D01*
X0286500Y0176355D01*
X0291100Y0153885D02*
X0289056Y0152862D01*
X0289056Y0152607D02*
X0289056Y0151329D01*
X0289056Y0152607D02*
X0289054Y0152677D01*
X0289048Y0152748D01*
X0289039Y0152817D01*
X0289025Y0152886D01*
X0289008Y0152955D01*
X0288987Y0153022D01*
X0288962Y0153088D01*
X0288934Y0153152D01*
X0288902Y0153215D01*
X0288867Y0153276D01*
X0288828Y0153335D01*
X0288787Y0153392D01*
X0288742Y0153446D01*
X0288694Y0153498D01*
X0288644Y0153547D01*
X0288590Y0153594D01*
X0288535Y0153637D01*
X0288477Y0153677D01*
X0288417Y0153714D01*
X0288355Y0153747D01*
X0288291Y0153777D01*
X0288226Y0153804D01*
X0288160Y0153827D01*
X0288092Y0153846D01*
X0288023Y0153861D01*
X0287954Y0153873D01*
X0287884Y0153881D01*
X0287813Y0153885D01*
X0287743Y0153885D01*
X0287672Y0153881D01*
X0287602Y0153873D01*
X0287533Y0153861D01*
X0287464Y0153846D01*
X0287396Y0153827D01*
X0287330Y0153804D01*
X0287265Y0153777D01*
X0287201Y0153747D01*
X0287139Y0153714D01*
X0287079Y0153677D01*
X0287021Y0153637D01*
X0286966Y0153594D01*
X0286912Y0153547D01*
X0286862Y0153498D01*
X0286814Y0153446D01*
X0286769Y0153392D01*
X0286728Y0153335D01*
X0286689Y0153276D01*
X0286654Y0153215D01*
X0286622Y0153152D01*
X0286594Y0153088D01*
X0286569Y0153022D01*
X0286548Y0152955D01*
X0286531Y0152886D01*
X0286517Y0152817D01*
X0286508Y0152748D01*
X0286502Y0152677D01*
X0286500Y0152607D01*
X0286500Y0151329D01*
X0291100Y0151329D01*
X0289822Y0149056D02*
X0287778Y0149056D01*
X0287709Y0149054D01*
X0287640Y0149049D01*
X0287571Y0149039D01*
X0287503Y0149026D01*
X0287436Y0149009D01*
X0287370Y0148989D01*
X0287305Y0148965D01*
X0287241Y0148938D01*
X0287179Y0148907D01*
X0287119Y0148873D01*
X0287061Y0148836D01*
X0287005Y0148795D01*
X0286951Y0148752D01*
X0286899Y0148706D01*
X0286850Y0148657D01*
X0286804Y0148605D01*
X0286761Y0148551D01*
X0286720Y0148495D01*
X0286683Y0148437D01*
X0286649Y0148377D01*
X0286618Y0148315D01*
X0286591Y0148251D01*
X0286567Y0148186D01*
X0286547Y0148120D01*
X0286530Y0148053D01*
X0286517Y0147985D01*
X0286507Y0147916D01*
X0286502Y0147847D01*
X0286500Y0147778D01*
X0286500Y0146500D01*
X0291100Y0146500D01*
X0291100Y0147778D01*
X0291098Y0147847D01*
X0291093Y0147916D01*
X0291083Y0147985D01*
X0291070Y0148053D01*
X0291053Y0148120D01*
X0291033Y0148186D01*
X0291009Y0148251D01*
X0290982Y0148315D01*
X0290951Y0148377D01*
X0290917Y0148437D01*
X0290880Y0148495D01*
X0290839Y0148551D01*
X0290796Y0148605D01*
X0290750Y0148657D01*
X0290701Y0148706D01*
X0290649Y0148752D01*
X0290595Y0148795D01*
X0290539Y0148836D01*
X0290481Y0148873D01*
X0290421Y0148907D01*
X0290359Y0148938D01*
X0290295Y0148965D01*
X0290230Y0148989D01*
X0290164Y0149009D01*
X0290097Y0149026D01*
X0290029Y0149039D01*
X0289960Y0149049D01*
X0289891Y0149054D01*
X0289822Y0149056D01*
X0247661Y0241500D02*
X0246383Y0241500D01*
X0247661Y0241500D02*
X0247731Y0241502D01*
X0247802Y0241508D01*
X0247871Y0241517D01*
X0247940Y0241531D01*
X0248009Y0241548D01*
X0248076Y0241569D01*
X0248142Y0241594D01*
X0248206Y0241622D01*
X0248269Y0241654D01*
X0248330Y0241689D01*
X0248389Y0241728D01*
X0248446Y0241769D01*
X0248500Y0241814D01*
X0248552Y0241862D01*
X0248601Y0241912D01*
X0248648Y0241966D01*
X0248691Y0242021D01*
X0248731Y0242079D01*
X0248768Y0242139D01*
X0248801Y0242201D01*
X0248831Y0242265D01*
X0248858Y0242330D01*
X0248881Y0242396D01*
X0248900Y0242464D01*
X0248915Y0242533D01*
X0248927Y0242602D01*
X0248935Y0242672D01*
X0248939Y0242743D01*
X0248939Y0242813D01*
X0248935Y0242884D01*
X0248927Y0242954D01*
X0248915Y0243023D01*
X0248900Y0243092D01*
X0248881Y0243160D01*
X0248858Y0243226D01*
X0248831Y0243291D01*
X0248801Y0243355D01*
X0248768Y0243417D01*
X0248731Y0243477D01*
X0248691Y0243535D01*
X0248648Y0243590D01*
X0248601Y0243644D01*
X0248552Y0243694D01*
X0248500Y0243742D01*
X0248446Y0243787D01*
X0248389Y0243828D01*
X0248330Y0243867D01*
X0248269Y0243902D01*
X0248206Y0243934D01*
X0248142Y0243962D01*
X0248076Y0243987D01*
X0248009Y0244008D01*
X0247940Y0244025D01*
X0247871Y0244039D01*
X0247802Y0244048D01*
X0247731Y0244054D01*
X0247661Y0244056D01*
X0247917Y0244056D02*
X0246894Y0244056D01*
X0247917Y0244056D02*
X0247980Y0244058D01*
X0248043Y0244064D01*
X0248105Y0244073D01*
X0248166Y0244087D01*
X0248227Y0244104D01*
X0248286Y0244125D01*
X0248344Y0244150D01*
X0248401Y0244178D01*
X0248455Y0244209D01*
X0248507Y0244244D01*
X0248558Y0244282D01*
X0248606Y0244323D01*
X0248651Y0244367D01*
X0248693Y0244413D01*
X0248733Y0244462D01*
X0248769Y0244513D01*
X0248802Y0244567D01*
X0248832Y0244622D01*
X0248858Y0244680D01*
X0248881Y0244738D01*
X0248900Y0244798D01*
X0248915Y0244859D01*
X0248927Y0244921D01*
X0248935Y0244984D01*
X0248939Y0245047D01*
X0248939Y0245109D01*
X0248935Y0245172D01*
X0248927Y0245235D01*
X0248915Y0245297D01*
X0248900Y0245358D01*
X0248881Y0245418D01*
X0248858Y0245476D01*
X0248832Y0245534D01*
X0248802Y0245589D01*
X0248769Y0245643D01*
X0248733Y0245694D01*
X0248693Y0245743D01*
X0248651Y0245789D01*
X0248606Y0245833D01*
X0248558Y0245874D01*
X0248507Y0245912D01*
X0248455Y0245947D01*
X0248401Y0245978D01*
X0248344Y0246006D01*
X0248286Y0246031D01*
X0248227Y0246052D01*
X0248166Y0246069D01*
X0248105Y0246083D01*
X0248043Y0246092D01*
X0247980Y0246098D01*
X0247917Y0246100D01*
X0246383Y0246100D01*
X0244694Y0246100D02*
X0243161Y0241500D01*
X0241628Y0246100D01*
X0238917Y0246100D02*
X0237383Y0246100D01*
X0238917Y0246100D02*
X0238980Y0246098D01*
X0239043Y0246092D01*
X0239105Y0246083D01*
X0239166Y0246069D01*
X0239227Y0246052D01*
X0239286Y0246031D01*
X0239344Y0246006D01*
X0239401Y0245978D01*
X0239455Y0245947D01*
X0239507Y0245912D01*
X0239558Y0245874D01*
X0239606Y0245833D01*
X0239651Y0245789D01*
X0239693Y0245743D01*
X0239733Y0245694D01*
X0239769Y0245643D01*
X0239802Y0245589D01*
X0239832Y0245534D01*
X0239858Y0245476D01*
X0239881Y0245418D01*
X0239900Y0245358D01*
X0239915Y0245297D01*
X0239927Y0245235D01*
X0239935Y0245172D01*
X0239939Y0245109D01*
X0239939Y0245047D01*
X0239935Y0244984D01*
X0239927Y0244921D01*
X0239915Y0244859D01*
X0239900Y0244798D01*
X0239881Y0244738D01*
X0239858Y0244680D01*
X0239832Y0244622D01*
X0239802Y0244567D01*
X0239769Y0244513D01*
X0239733Y0244462D01*
X0239693Y0244413D01*
X0239651Y0244367D01*
X0239606Y0244323D01*
X0239558Y0244282D01*
X0239507Y0244244D01*
X0239455Y0244209D01*
X0239401Y0244178D01*
X0239344Y0244150D01*
X0239286Y0244125D01*
X0239227Y0244104D01*
X0239166Y0244087D01*
X0239105Y0244073D01*
X0239043Y0244064D01*
X0238980Y0244058D01*
X0238917Y0244056D01*
X0237894Y0244056D01*
X0238661Y0244056D02*
X0238731Y0244054D01*
X0238802Y0244048D01*
X0238871Y0244039D01*
X0238940Y0244025D01*
X0239009Y0244008D01*
X0239076Y0243987D01*
X0239142Y0243962D01*
X0239206Y0243934D01*
X0239269Y0243902D01*
X0239330Y0243867D01*
X0239389Y0243828D01*
X0239446Y0243787D01*
X0239500Y0243742D01*
X0239552Y0243694D01*
X0239601Y0243644D01*
X0239648Y0243590D01*
X0239691Y0243535D01*
X0239731Y0243477D01*
X0239768Y0243417D01*
X0239801Y0243355D01*
X0239831Y0243291D01*
X0239858Y0243226D01*
X0239881Y0243160D01*
X0239900Y0243092D01*
X0239915Y0243023D01*
X0239927Y0242954D01*
X0239935Y0242884D01*
X0239939Y0242813D01*
X0239939Y0242743D01*
X0239935Y0242672D01*
X0239927Y0242602D01*
X0239915Y0242533D01*
X0239900Y0242464D01*
X0239881Y0242396D01*
X0239858Y0242330D01*
X0239831Y0242265D01*
X0239801Y0242201D01*
X0239768Y0242139D01*
X0239731Y0242079D01*
X0239691Y0242021D01*
X0239648Y0241966D01*
X0239601Y0241912D01*
X0239552Y0241862D01*
X0239500Y0241814D01*
X0239446Y0241769D01*
X0239389Y0241728D01*
X0239330Y0241689D01*
X0239269Y0241654D01*
X0239206Y0241622D01*
X0239142Y0241594D01*
X0239076Y0241569D01*
X0239009Y0241548D01*
X0238940Y0241531D01*
X0238871Y0241517D01*
X0238802Y0241508D01*
X0238731Y0241502D01*
X0238661Y0241500D01*
X0237383Y0241500D01*
X0235289Y0242778D02*
X0235289Y0246100D01*
X0232733Y0246100D02*
X0232733Y0242778D01*
X0232735Y0242708D01*
X0232741Y0242637D01*
X0232750Y0242568D01*
X0232764Y0242499D01*
X0232781Y0242430D01*
X0232802Y0242363D01*
X0232827Y0242297D01*
X0232855Y0242233D01*
X0232887Y0242170D01*
X0232922Y0242109D01*
X0232961Y0242050D01*
X0233002Y0241993D01*
X0233047Y0241939D01*
X0233095Y0241887D01*
X0233145Y0241838D01*
X0233199Y0241791D01*
X0233254Y0241748D01*
X0233312Y0241708D01*
X0233372Y0241671D01*
X0233434Y0241638D01*
X0233498Y0241608D01*
X0233563Y0241581D01*
X0233629Y0241558D01*
X0233697Y0241539D01*
X0233766Y0241524D01*
X0233835Y0241512D01*
X0233905Y0241504D01*
X0233976Y0241500D01*
X0234046Y0241500D01*
X0234117Y0241504D01*
X0234187Y0241512D01*
X0234256Y0241524D01*
X0234325Y0241539D01*
X0234393Y0241558D01*
X0234459Y0241581D01*
X0234524Y0241608D01*
X0234588Y0241638D01*
X0234650Y0241671D01*
X0234710Y0241708D01*
X0234768Y0241748D01*
X0234823Y0241791D01*
X0234877Y0241838D01*
X0234927Y0241887D01*
X0234975Y0241939D01*
X0235020Y0241993D01*
X0235061Y0242050D01*
X0235100Y0242109D01*
X0235135Y0242170D01*
X0235167Y0242233D01*
X0235195Y0242297D01*
X0235220Y0242363D01*
X0235241Y0242430D01*
X0235258Y0242499D01*
X0235272Y0242568D01*
X0235281Y0242637D01*
X0235287Y0242708D01*
X0235289Y0242778D01*
X0230887Y0241500D02*
X0228842Y0241500D01*
X0228842Y0246100D01*
X0226739Y0244822D02*
X0226739Y0242778D01*
X0226737Y0242708D01*
X0226731Y0242637D01*
X0226722Y0242568D01*
X0226708Y0242499D01*
X0226691Y0242430D01*
X0226670Y0242363D01*
X0226645Y0242297D01*
X0226617Y0242233D01*
X0226585Y0242170D01*
X0226550Y0242109D01*
X0226511Y0242050D01*
X0226470Y0241993D01*
X0226425Y0241939D01*
X0226377Y0241887D01*
X0226327Y0241838D01*
X0226273Y0241791D01*
X0226218Y0241748D01*
X0226160Y0241708D01*
X0226100Y0241671D01*
X0226038Y0241638D01*
X0225974Y0241608D01*
X0225909Y0241581D01*
X0225843Y0241558D01*
X0225775Y0241539D01*
X0225706Y0241524D01*
X0225637Y0241512D01*
X0225567Y0241504D01*
X0225496Y0241500D01*
X0225426Y0241500D01*
X0225355Y0241504D01*
X0225285Y0241512D01*
X0225216Y0241524D01*
X0225147Y0241539D01*
X0225079Y0241558D01*
X0225013Y0241581D01*
X0224948Y0241608D01*
X0224884Y0241638D01*
X0224822Y0241671D01*
X0224762Y0241708D01*
X0224704Y0241748D01*
X0224649Y0241791D01*
X0224595Y0241838D01*
X0224545Y0241887D01*
X0224497Y0241939D01*
X0224452Y0241993D01*
X0224411Y0242050D01*
X0224372Y0242109D01*
X0224337Y0242170D01*
X0224305Y0242233D01*
X0224277Y0242297D01*
X0224252Y0242363D01*
X0224231Y0242430D01*
X0224214Y0242499D01*
X0224200Y0242568D01*
X0224191Y0242637D01*
X0224185Y0242708D01*
X0224183Y0242778D01*
X0224183Y0244822D01*
X0224185Y0244892D01*
X0224191Y0244963D01*
X0224200Y0245032D01*
X0224214Y0245101D01*
X0224231Y0245170D01*
X0224252Y0245237D01*
X0224277Y0245303D01*
X0224305Y0245367D01*
X0224337Y0245430D01*
X0224372Y0245491D01*
X0224411Y0245550D01*
X0224452Y0245607D01*
X0224497Y0245661D01*
X0224545Y0245713D01*
X0224595Y0245762D01*
X0224649Y0245809D01*
X0224704Y0245852D01*
X0224762Y0245892D01*
X0224822Y0245929D01*
X0224884Y0245962D01*
X0224948Y0245992D01*
X0225013Y0246019D01*
X0225079Y0246042D01*
X0225147Y0246061D01*
X0225216Y0246076D01*
X0225285Y0246088D01*
X0225355Y0246096D01*
X0225426Y0246100D01*
X0225496Y0246100D01*
X0225567Y0246096D01*
X0225637Y0246088D01*
X0225706Y0246076D01*
X0225775Y0246061D01*
X0225843Y0246042D01*
X0225909Y0246019D01*
X0225974Y0245992D01*
X0226038Y0245962D01*
X0226100Y0245929D01*
X0226160Y0245892D01*
X0226218Y0245852D01*
X0226273Y0245809D01*
X0226327Y0245762D01*
X0226377Y0245713D01*
X0226425Y0245661D01*
X0226470Y0245607D01*
X0226511Y0245550D01*
X0226550Y0245491D01*
X0226585Y0245430D01*
X0226617Y0245367D01*
X0226645Y0245303D01*
X0226670Y0245237D01*
X0226691Y0245170D01*
X0226708Y0245101D01*
X0226722Y0245032D01*
X0226731Y0244963D01*
X0226737Y0244892D01*
X0226739Y0244822D01*
X0222487Y0241500D02*
X0220442Y0241500D01*
X0220442Y0246100D01*
X0218339Y0244822D02*
X0218339Y0242778D01*
X0218337Y0242708D01*
X0218331Y0242637D01*
X0218322Y0242568D01*
X0218308Y0242499D01*
X0218291Y0242430D01*
X0218270Y0242363D01*
X0218245Y0242297D01*
X0218217Y0242233D01*
X0218185Y0242170D01*
X0218150Y0242109D01*
X0218111Y0242050D01*
X0218070Y0241993D01*
X0218025Y0241939D01*
X0217977Y0241887D01*
X0217927Y0241838D01*
X0217873Y0241791D01*
X0217818Y0241748D01*
X0217760Y0241708D01*
X0217700Y0241671D01*
X0217638Y0241638D01*
X0217574Y0241608D01*
X0217509Y0241581D01*
X0217443Y0241558D01*
X0217375Y0241539D01*
X0217306Y0241524D01*
X0217237Y0241512D01*
X0217167Y0241504D01*
X0217096Y0241500D01*
X0217026Y0241500D01*
X0216955Y0241504D01*
X0216885Y0241512D01*
X0216816Y0241524D01*
X0216747Y0241539D01*
X0216679Y0241558D01*
X0216613Y0241581D01*
X0216548Y0241608D01*
X0216484Y0241638D01*
X0216422Y0241671D01*
X0216362Y0241708D01*
X0216304Y0241748D01*
X0216249Y0241791D01*
X0216195Y0241838D01*
X0216145Y0241887D01*
X0216097Y0241939D01*
X0216052Y0241993D01*
X0216011Y0242050D01*
X0215972Y0242109D01*
X0215937Y0242170D01*
X0215905Y0242233D01*
X0215877Y0242297D01*
X0215852Y0242363D01*
X0215831Y0242430D01*
X0215814Y0242499D01*
X0215800Y0242568D01*
X0215791Y0242637D01*
X0215785Y0242708D01*
X0215783Y0242778D01*
X0215783Y0244822D01*
X0215785Y0244892D01*
X0215791Y0244963D01*
X0215800Y0245032D01*
X0215814Y0245101D01*
X0215831Y0245170D01*
X0215852Y0245237D01*
X0215877Y0245303D01*
X0215905Y0245367D01*
X0215937Y0245430D01*
X0215972Y0245491D01*
X0216011Y0245550D01*
X0216052Y0245607D01*
X0216097Y0245661D01*
X0216145Y0245713D01*
X0216195Y0245762D01*
X0216249Y0245809D01*
X0216304Y0245852D01*
X0216362Y0245892D01*
X0216422Y0245929D01*
X0216484Y0245962D01*
X0216548Y0245992D01*
X0216613Y0246019D01*
X0216679Y0246042D01*
X0216747Y0246061D01*
X0216816Y0246076D01*
X0216885Y0246088D01*
X0216955Y0246096D01*
X0217026Y0246100D01*
X0217096Y0246100D01*
X0217167Y0246096D01*
X0217237Y0246088D01*
X0217306Y0246076D01*
X0217375Y0246061D01*
X0217443Y0246042D01*
X0217509Y0246019D01*
X0217574Y0245992D01*
X0217638Y0245962D01*
X0217700Y0245929D01*
X0217760Y0245892D01*
X0217818Y0245852D01*
X0217873Y0245809D01*
X0217927Y0245762D01*
X0217977Y0245713D01*
X0218025Y0245661D01*
X0218070Y0245607D01*
X0218111Y0245550D01*
X0218150Y0245491D01*
X0218185Y0245430D01*
X0218217Y0245367D01*
X0218245Y0245303D01*
X0218270Y0245237D01*
X0218291Y0245170D01*
X0218308Y0245101D01*
X0218322Y0245032D01*
X0218331Y0244963D01*
X0218337Y0244892D01*
X0218339Y0244822D01*
X0212778Y0243544D02*
X0212848Y0243546D01*
X0212919Y0243552D01*
X0212988Y0243561D01*
X0213057Y0243575D01*
X0213126Y0243592D01*
X0213193Y0243613D01*
X0213259Y0243638D01*
X0213323Y0243666D01*
X0213386Y0243698D01*
X0213447Y0243733D01*
X0213506Y0243772D01*
X0213563Y0243813D01*
X0213617Y0243858D01*
X0213669Y0243906D01*
X0213718Y0243956D01*
X0213765Y0244010D01*
X0213808Y0244065D01*
X0213848Y0244123D01*
X0213885Y0244183D01*
X0213918Y0244245D01*
X0213948Y0244309D01*
X0213975Y0244374D01*
X0213998Y0244440D01*
X0214017Y0244508D01*
X0214032Y0244577D01*
X0214044Y0244646D01*
X0214052Y0244716D01*
X0214056Y0244787D01*
X0214056Y0244857D01*
X0214052Y0244928D01*
X0214044Y0244998D01*
X0214032Y0245067D01*
X0214017Y0245136D01*
X0213998Y0245204D01*
X0213975Y0245270D01*
X0213948Y0245335D01*
X0213918Y0245399D01*
X0213885Y0245461D01*
X0213848Y0245521D01*
X0213808Y0245579D01*
X0213765Y0245634D01*
X0213718Y0245688D01*
X0213669Y0245738D01*
X0213617Y0245786D01*
X0213563Y0245831D01*
X0213506Y0245872D01*
X0213447Y0245911D01*
X0213386Y0245946D01*
X0213323Y0245978D01*
X0213259Y0246006D01*
X0213193Y0246031D01*
X0213126Y0246052D01*
X0213057Y0246069D01*
X0212988Y0246083D01*
X0212919Y0246092D01*
X0212848Y0246098D01*
X0212778Y0246100D01*
X0211500Y0246100D01*
X0211500Y0241500D01*
X0211500Y0243544D02*
X0212778Y0243544D01*
X0217128Y0256500D02*
X0217128Y0261100D01*
X0216745Y0260589D02*
X0216692Y0260577D01*
X0216640Y0260562D01*
X0216589Y0260542D01*
X0216540Y0260520D01*
X0216492Y0260494D01*
X0216446Y0260464D01*
X0216403Y0260432D01*
X0216362Y0260396D01*
X0216323Y0260358D01*
X0216288Y0260317D01*
X0216255Y0260273D01*
X0216226Y0260228D01*
X0216200Y0260180D01*
X0216177Y0260130D01*
X0216158Y0260080D01*
X0216143Y0260028D01*
X0216131Y0259974D01*
X0216124Y0259921D01*
X0216120Y0259867D01*
X0216119Y0259812D01*
X0216123Y0259758D01*
X0216131Y0259704D01*
X0216142Y0259651D01*
X0216157Y0259599D01*
X0216176Y0259548D01*
X0216199Y0259499D01*
X0216224Y0259451D01*
X0216254Y0259405D01*
X0216286Y0259362D01*
X0216321Y0259320D01*
X0216360Y0259282D01*
X0216401Y0259246D01*
X0216444Y0259213D01*
X0216489Y0259184D01*
X0216489Y0259183D02*
X0217128Y0258800D01*
X0217767Y0258417D01*
X0218150Y0260333D02*
X0218075Y0260376D01*
X0217999Y0260415D01*
X0217921Y0260452D01*
X0217842Y0260484D01*
X0217761Y0260514D01*
X0217679Y0260540D01*
X0217596Y0260562D01*
X0217512Y0260581D01*
X0217428Y0260597D01*
X0217343Y0260608D01*
X0217257Y0260616D01*
X0217172Y0260621D01*
X0217086Y0260622D01*
X0217000Y0260619D01*
X0216914Y0260613D01*
X0216829Y0260603D01*
X0216744Y0260589D01*
X0216105Y0257267D02*
X0216180Y0257224D01*
X0216256Y0257185D01*
X0216334Y0257148D01*
X0216413Y0257116D01*
X0216494Y0257086D01*
X0216576Y0257060D01*
X0216659Y0257038D01*
X0216743Y0257019D01*
X0216827Y0257003D01*
X0216912Y0256992D01*
X0216998Y0256984D01*
X0217083Y0256979D01*
X0217169Y0256978D01*
X0217255Y0256981D01*
X0217341Y0256987D01*
X0217426Y0256997D01*
X0217511Y0257011D01*
X0217564Y0257023D01*
X0217616Y0257038D01*
X0217667Y0257058D01*
X0217716Y0257080D01*
X0217764Y0257106D01*
X0217810Y0257136D01*
X0217853Y0257168D01*
X0217894Y0257204D01*
X0217933Y0257242D01*
X0217968Y0257283D01*
X0218001Y0257327D01*
X0218030Y0257372D01*
X0218056Y0257420D01*
X0218079Y0257470D01*
X0218098Y0257520D01*
X0218113Y0257572D01*
X0218125Y0257626D01*
X0218132Y0257679D01*
X0218136Y0257733D01*
X0218137Y0257788D01*
X0218133Y0257842D01*
X0218125Y0257896D01*
X0218114Y0257949D01*
X0218099Y0258001D01*
X0218080Y0258052D01*
X0218057Y0258101D01*
X0218032Y0258149D01*
X0218002Y0258195D01*
X0217970Y0258238D01*
X0217935Y0258280D01*
X0217896Y0258318D01*
X0217855Y0258354D01*
X0217812Y0258387D01*
X0217767Y0258416D01*
X0220050Y0257522D02*
X0221072Y0261100D01*
X0221839Y0258544D02*
X0221839Y0256500D01*
X0222606Y0257522D02*
X0220050Y0257522D01*
X0214056Y0257778D02*
X0214056Y0261100D01*
X0211500Y0261100D02*
X0211500Y0257778D01*
X0211502Y0257708D01*
X0211508Y0257637D01*
X0211517Y0257568D01*
X0211531Y0257499D01*
X0211548Y0257430D01*
X0211569Y0257363D01*
X0211594Y0257297D01*
X0211622Y0257233D01*
X0211654Y0257170D01*
X0211689Y0257109D01*
X0211728Y0257050D01*
X0211769Y0256993D01*
X0211814Y0256939D01*
X0211862Y0256887D01*
X0211912Y0256838D01*
X0211966Y0256791D01*
X0212021Y0256748D01*
X0212079Y0256708D01*
X0212139Y0256671D01*
X0212201Y0256638D01*
X0212265Y0256608D01*
X0212330Y0256581D01*
X0212396Y0256558D01*
X0212464Y0256539D01*
X0212533Y0256524D01*
X0212602Y0256512D01*
X0212672Y0256504D01*
X0212743Y0256500D01*
X0212813Y0256500D01*
X0212884Y0256504D01*
X0212954Y0256512D01*
X0213023Y0256524D01*
X0213092Y0256539D01*
X0213160Y0256558D01*
X0213226Y0256581D01*
X0213291Y0256608D01*
X0213355Y0256638D01*
X0213417Y0256671D01*
X0213477Y0256708D01*
X0213535Y0256748D01*
X0213590Y0256791D01*
X0213644Y0256838D01*
X0213694Y0256887D01*
X0213742Y0256939D01*
X0213787Y0256993D01*
X0213828Y0257050D01*
X0213867Y0257109D01*
X0213902Y0257170D01*
X0213934Y0257233D01*
X0213962Y0257297D01*
X0213987Y0257363D01*
X0214008Y0257430D01*
X0214025Y0257499D01*
X0214039Y0257568D01*
X0214048Y0257637D01*
X0214054Y0257708D01*
X0214056Y0257778D01*
X0079822Y0309994D02*
X0076500Y0309994D01*
X0076500Y0312550D02*
X0079822Y0312550D01*
X0079892Y0312548D01*
X0079963Y0312542D01*
X0080032Y0312533D01*
X0080101Y0312519D01*
X0080170Y0312502D01*
X0080237Y0312481D01*
X0080303Y0312456D01*
X0080367Y0312428D01*
X0080430Y0312396D01*
X0080491Y0312361D01*
X0080550Y0312322D01*
X0080607Y0312281D01*
X0080661Y0312236D01*
X0080713Y0312188D01*
X0080762Y0312138D01*
X0080809Y0312084D01*
X0080852Y0312029D01*
X0080892Y0311971D01*
X0080929Y0311911D01*
X0080962Y0311849D01*
X0080992Y0311785D01*
X0081019Y0311720D01*
X0081042Y0311654D01*
X0081061Y0311586D01*
X0081076Y0311517D01*
X0081088Y0311448D01*
X0081096Y0311378D01*
X0081100Y0311307D01*
X0081100Y0311237D01*
X0081096Y0311166D01*
X0081088Y0311096D01*
X0081076Y0311027D01*
X0081061Y0310958D01*
X0081042Y0310890D01*
X0081019Y0310824D01*
X0080992Y0310759D01*
X0080962Y0310695D01*
X0080929Y0310633D01*
X0080892Y0310573D01*
X0080852Y0310515D01*
X0080809Y0310460D01*
X0080762Y0310406D01*
X0080713Y0310356D01*
X0080661Y0310308D01*
X0080607Y0310263D01*
X0080550Y0310222D01*
X0080491Y0310183D01*
X0080430Y0310148D01*
X0080367Y0310116D01*
X0080303Y0310088D01*
X0080237Y0310063D01*
X0080170Y0310042D01*
X0080101Y0310025D01*
X0080032Y0310011D01*
X0079963Y0310002D01*
X0079892Y0309996D01*
X0079822Y0309994D01*
X0078417Y0314983D02*
X0078800Y0315622D01*
X0079183Y0316261D01*
X0077267Y0316645D02*
X0077224Y0316570D01*
X0077185Y0316494D01*
X0077148Y0316416D01*
X0077116Y0316337D01*
X0077086Y0316256D01*
X0077060Y0316174D01*
X0077038Y0316091D01*
X0077019Y0316007D01*
X0077003Y0315923D01*
X0076992Y0315838D01*
X0076984Y0315752D01*
X0076979Y0315667D01*
X0076978Y0315581D01*
X0076981Y0315495D01*
X0076987Y0315409D01*
X0076997Y0315324D01*
X0077011Y0315239D01*
X0076500Y0315622D02*
X0081100Y0315622D01*
X0080589Y0316005D02*
X0080577Y0316058D01*
X0080562Y0316110D01*
X0080542Y0316161D01*
X0080520Y0316210D01*
X0080494Y0316258D01*
X0080464Y0316304D01*
X0080432Y0316347D01*
X0080396Y0316388D01*
X0080358Y0316427D01*
X0080317Y0316462D01*
X0080273Y0316495D01*
X0080228Y0316524D01*
X0080180Y0316550D01*
X0080131Y0316573D01*
X0080080Y0316592D01*
X0080028Y0316607D01*
X0079974Y0316619D01*
X0079921Y0316626D01*
X0079867Y0316630D01*
X0079812Y0316631D01*
X0079758Y0316627D01*
X0079704Y0316619D01*
X0079651Y0316608D01*
X0079599Y0316593D01*
X0079548Y0316574D01*
X0079499Y0316551D01*
X0079451Y0316526D01*
X0079405Y0316496D01*
X0079362Y0316464D01*
X0079320Y0316429D01*
X0079282Y0316390D01*
X0079246Y0316349D01*
X0079213Y0316306D01*
X0079184Y0316261D01*
X0080589Y0316006D02*
X0080603Y0315921D01*
X0080613Y0315836D01*
X0080619Y0315750D01*
X0080622Y0315664D01*
X0080621Y0315578D01*
X0080616Y0315493D01*
X0080608Y0315407D01*
X0080597Y0315322D01*
X0080581Y0315238D01*
X0080562Y0315154D01*
X0080540Y0315071D01*
X0080514Y0314989D01*
X0080484Y0314908D01*
X0080452Y0314829D01*
X0080415Y0314751D01*
X0080376Y0314675D01*
X0080333Y0314600D01*
X0078416Y0314983D02*
X0078387Y0314938D01*
X0078354Y0314895D01*
X0078318Y0314854D01*
X0078280Y0314815D01*
X0078238Y0314780D01*
X0078195Y0314748D01*
X0078149Y0314718D01*
X0078101Y0314693D01*
X0078052Y0314670D01*
X0078001Y0314651D01*
X0077949Y0314636D01*
X0077896Y0314625D01*
X0077842Y0314617D01*
X0077788Y0314613D01*
X0077733Y0314614D01*
X0077679Y0314617D01*
X0077626Y0314625D01*
X0077572Y0314637D01*
X0077520Y0314652D01*
X0077470Y0314671D01*
X0077420Y0314694D01*
X0077372Y0314720D01*
X0077327Y0314749D01*
X0077283Y0314782D01*
X0077242Y0314817D01*
X0077204Y0314856D01*
X0077168Y0314897D01*
X0077136Y0314940D01*
X0077106Y0314986D01*
X0077080Y0315034D01*
X0077058Y0315083D01*
X0077038Y0315134D01*
X0077023Y0315186D01*
X0077011Y0315239D01*
X0076500Y0318544D02*
X0076500Y0320078D01*
X0076502Y0320141D01*
X0076508Y0320204D01*
X0076517Y0320266D01*
X0076531Y0320327D01*
X0076548Y0320388D01*
X0076569Y0320447D01*
X0076594Y0320505D01*
X0076622Y0320562D01*
X0076653Y0320616D01*
X0076688Y0320668D01*
X0076726Y0320719D01*
X0076767Y0320767D01*
X0076811Y0320812D01*
X0076857Y0320854D01*
X0076906Y0320894D01*
X0076957Y0320930D01*
X0077011Y0320963D01*
X0077066Y0320993D01*
X0077124Y0321019D01*
X0077182Y0321042D01*
X0077242Y0321061D01*
X0077303Y0321076D01*
X0077365Y0321088D01*
X0077428Y0321096D01*
X0077491Y0321100D01*
X0077553Y0321100D01*
X0077616Y0321096D01*
X0077679Y0321088D01*
X0077741Y0321076D01*
X0077802Y0321061D01*
X0077862Y0321042D01*
X0077920Y0321019D01*
X0077978Y0320993D01*
X0078033Y0320963D01*
X0078087Y0320930D01*
X0078138Y0320894D01*
X0078187Y0320854D01*
X0078233Y0320812D01*
X0078277Y0320767D01*
X0078318Y0320719D01*
X0078356Y0320668D01*
X0078391Y0320616D01*
X0078422Y0320562D01*
X0078450Y0320505D01*
X0078475Y0320447D01*
X0078496Y0320388D01*
X0078513Y0320327D01*
X0078527Y0320266D01*
X0078536Y0320204D01*
X0078542Y0320141D01*
X0078544Y0320078D01*
X0078544Y0319056D01*
X0078544Y0319822D02*
X0078546Y0319892D01*
X0078552Y0319963D01*
X0078561Y0320032D01*
X0078575Y0320101D01*
X0078592Y0320170D01*
X0078613Y0320237D01*
X0078638Y0320303D01*
X0078666Y0320367D01*
X0078698Y0320430D01*
X0078733Y0320491D01*
X0078772Y0320550D01*
X0078813Y0320607D01*
X0078858Y0320661D01*
X0078906Y0320713D01*
X0078956Y0320762D01*
X0079010Y0320809D01*
X0079065Y0320852D01*
X0079123Y0320892D01*
X0079183Y0320929D01*
X0079245Y0320962D01*
X0079309Y0320992D01*
X0079374Y0321019D01*
X0079440Y0321042D01*
X0079508Y0321061D01*
X0079577Y0321076D01*
X0079646Y0321088D01*
X0079716Y0321096D01*
X0079787Y0321100D01*
X0079857Y0321100D01*
X0079928Y0321096D01*
X0079998Y0321088D01*
X0080067Y0321076D01*
X0080136Y0321061D01*
X0080204Y0321042D01*
X0080270Y0321019D01*
X0080335Y0320992D01*
X0080399Y0320962D01*
X0080461Y0320929D01*
X0080521Y0320892D01*
X0080579Y0320852D01*
X0080634Y0320809D01*
X0080688Y0320762D01*
X0080738Y0320713D01*
X0080786Y0320661D01*
X0080831Y0320607D01*
X0080872Y0320550D01*
X0080911Y0320491D01*
X0080946Y0320430D01*
X0080978Y0320367D01*
X0081006Y0320303D01*
X0081031Y0320237D01*
X0081052Y0320170D01*
X0081069Y0320101D01*
X0081083Y0320032D01*
X0081092Y0319963D01*
X0081098Y0319892D01*
X0081100Y0319822D01*
X0081100Y0318544D01*
X0046100Y0319056D02*
X0041500Y0319056D01*
X0041500Y0321100D01*
X0043544Y0320589D02*
X0043544Y0319056D01*
X0042778Y0316802D02*
X0044822Y0316802D01*
X0044891Y0316800D01*
X0044960Y0316795D01*
X0045029Y0316785D01*
X0045097Y0316772D01*
X0045164Y0316755D01*
X0045230Y0316735D01*
X0045295Y0316711D01*
X0045359Y0316684D01*
X0045421Y0316653D01*
X0045481Y0316619D01*
X0045539Y0316582D01*
X0045595Y0316541D01*
X0045649Y0316498D01*
X0045701Y0316452D01*
X0045750Y0316403D01*
X0045796Y0316351D01*
X0045839Y0316297D01*
X0045880Y0316241D01*
X0045917Y0316183D01*
X0045951Y0316123D01*
X0045982Y0316061D01*
X0046009Y0315997D01*
X0046033Y0315932D01*
X0046053Y0315866D01*
X0046070Y0315799D01*
X0046083Y0315731D01*
X0046093Y0315662D01*
X0046098Y0315593D01*
X0046100Y0315524D01*
X0046100Y0314247D01*
X0041500Y0314247D01*
X0041500Y0315524D01*
X0041502Y0315593D01*
X0041507Y0315662D01*
X0041517Y0315731D01*
X0041530Y0315799D01*
X0041547Y0315866D01*
X0041567Y0315932D01*
X0041591Y0315997D01*
X0041618Y0316061D01*
X0041649Y0316123D01*
X0041683Y0316183D01*
X0041720Y0316241D01*
X0041761Y0316297D01*
X0041804Y0316351D01*
X0041850Y0316403D01*
X0041899Y0316452D01*
X0041951Y0316498D01*
X0042005Y0316541D01*
X0042061Y0316582D01*
X0042119Y0316619D01*
X0042179Y0316653D01*
X0042241Y0316684D01*
X0042305Y0316711D01*
X0042370Y0316735D01*
X0042436Y0316755D01*
X0042503Y0316772D01*
X0042571Y0316785D01*
X0042640Y0316795D01*
X0042709Y0316800D01*
X0042778Y0316802D01*
X0046100Y0319056D02*
X0046100Y0321100D01*
X0046100Y0312286D02*
X0046100Y0311263D01*
X0046100Y0311774D02*
X0041500Y0311774D01*
X0041500Y0311263D02*
X0041500Y0312286D01*
X0041500Y0307656D02*
X0046100Y0307656D01*
X0046100Y0309700D01*
X0044183Y0305191D02*
X0043417Y0303786D01*
X0041500Y0304297D02*
X0041502Y0304379D01*
X0041507Y0304461D01*
X0041516Y0304543D01*
X0041528Y0304624D01*
X0041544Y0304705D01*
X0041563Y0304785D01*
X0041586Y0304864D01*
X0041612Y0304942D01*
X0041641Y0305019D01*
X0041674Y0305094D01*
X0041710Y0305168D01*
X0041748Y0305241D01*
X0041790Y0305312D01*
X0041835Y0305380D01*
X0041883Y0305447D01*
X0043416Y0303786D02*
X0043382Y0303732D01*
X0043345Y0303681D01*
X0043305Y0303632D01*
X0043262Y0303585D01*
X0043216Y0303542D01*
X0043168Y0303501D01*
X0043117Y0303463D01*
X0043064Y0303428D01*
X0043009Y0303396D01*
X0042952Y0303368D01*
X0042894Y0303344D01*
X0042834Y0303323D01*
X0042773Y0303306D01*
X0042711Y0303292D01*
X0042648Y0303283D01*
X0042585Y0303277D01*
X0042522Y0303275D01*
X0042460Y0303277D01*
X0042399Y0303282D01*
X0042338Y0303292D01*
X0042277Y0303305D01*
X0042218Y0303321D01*
X0042160Y0303341D01*
X0042103Y0303365D01*
X0042047Y0303392D01*
X0041993Y0303422D01*
X0041941Y0303456D01*
X0041892Y0303492D01*
X0041844Y0303532D01*
X0041799Y0303574D01*
X0041757Y0303619D01*
X0041717Y0303667D01*
X0041681Y0303716D01*
X0041647Y0303768D01*
X0041617Y0303822D01*
X0041590Y0303878D01*
X0041566Y0303935D01*
X0041546Y0303993D01*
X0041530Y0304052D01*
X0041517Y0304113D01*
X0041507Y0304174D01*
X0041502Y0304235D01*
X0041500Y0304297D01*
X0045461Y0303147D02*
X0045524Y0303211D01*
X0045583Y0303279D01*
X0045640Y0303348D01*
X0045694Y0303420D01*
X0045745Y0303494D01*
X0045793Y0303570D01*
X0045837Y0303647D01*
X0045878Y0303727D01*
X0045916Y0303808D01*
X0045951Y0303891D01*
X0045982Y0303975D01*
X0046009Y0304061D01*
X0046033Y0304147D01*
X0046054Y0304235D01*
X0046070Y0304323D01*
X0046083Y0304412D01*
X0046093Y0304501D01*
X0046098Y0304590D01*
X0046100Y0304680D01*
X0046098Y0304742D01*
X0046093Y0304803D01*
X0046083Y0304864D01*
X0046070Y0304925D01*
X0046054Y0304984D01*
X0046034Y0305042D01*
X0046010Y0305099D01*
X0045983Y0305155D01*
X0045953Y0305209D01*
X0045919Y0305261D01*
X0045883Y0305310D01*
X0045843Y0305358D01*
X0045801Y0305403D01*
X0045756Y0305445D01*
X0045708Y0305485D01*
X0045659Y0305521D01*
X0045607Y0305555D01*
X0045553Y0305585D01*
X0045497Y0305612D01*
X0045440Y0305636D01*
X0045382Y0305656D01*
X0045323Y0305672D01*
X0045262Y0305685D01*
X0045201Y0305695D01*
X0045140Y0305700D01*
X0045078Y0305702D01*
X0045015Y0305700D01*
X0044952Y0305694D01*
X0044889Y0305685D01*
X0044827Y0305671D01*
X0044766Y0305654D01*
X0044706Y0305633D01*
X0044648Y0305609D01*
X0044591Y0305581D01*
X0044536Y0305549D01*
X0044483Y0305514D01*
X0044432Y0305476D01*
X0044384Y0305435D01*
X0044338Y0305392D01*
X0044295Y0305345D01*
X0044255Y0305296D01*
X0044218Y0305245D01*
X0044184Y0305191D01*
X0024822Y0324994D02*
X0021500Y0324994D01*
X0021500Y0327550D02*
X0024822Y0327550D01*
X0024892Y0327548D01*
X0024963Y0327542D01*
X0025032Y0327533D01*
X0025101Y0327519D01*
X0025170Y0327502D01*
X0025237Y0327481D01*
X0025303Y0327456D01*
X0025367Y0327428D01*
X0025430Y0327396D01*
X0025491Y0327361D01*
X0025550Y0327322D01*
X0025607Y0327281D01*
X0025661Y0327236D01*
X0025713Y0327188D01*
X0025762Y0327138D01*
X0025809Y0327084D01*
X0025852Y0327029D01*
X0025892Y0326971D01*
X0025929Y0326911D01*
X0025962Y0326849D01*
X0025992Y0326785D01*
X0026019Y0326720D01*
X0026042Y0326654D01*
X0026061Y0326586D01*
X0026076Y0326517D01*
X0026088Y0326448D01*
X0026096Y0326378D01*
X0026100Y0326307D01*
X0026100Y0326237D01*
X0026096Y0326166D01*
X0026088Y0326096D01*
X0026076Y0326027D01*
X0026061Y0325958D01*
X0026042Y0325890D01*
X0026019Y0325824D01*
X0025992Y0325759D01*
X0025962Y0325695D01*
X0025929Y0325633D01*
X0025892Y0325573D01*
X0025852Y0325515D01*
X0025809Y0325460D01*
X0025762Y0325406D01*
X0025713Y0325356D01*
X0025661Y0325308D01*
X0025607Y0325263D01*
X0025550Y0325222D01*
X0025491Y0325183D01*
X0025430Y0325148D01*
X0025367Y0325116D01*
X0025303Y0325088D01*
X0025237Y0325063D01*
X0025170Y0325042D01*
X0025101Y0325025D01*
X0025032Y0325011D01*
X0024963Y0325002D01*
X0024892Y0324996D01*
X0024822Y0324994D01*
X0023417Y0329983D02*
X0023800Y0330622D01*
X0024183Y0331261D01*
X0022267Y0331645D02*
X0022224Y0331570D01*
X0022185Y0331494D01*
X0022148Y0331416D01*
X0022116Y0331337D01*
X0022086Y0331256D01*
X0022060Y0331174D01*
X0022038Y0331091D01*
X0022019Y0331007D01*
X0022003Y0330923D01*
X0021992Y0330838D01*
X0021984Y0330752D01*
X0021979Y0330667D01*
X0021978Y0330581D01*
X0021981Y0330495D01*
X0021987Y0330409D01*
X0021997Y0330324D01*
X0022011Y0330239D01*
X0021500Y0330622D02*
X0026100Y0330622D01*
X0025589Y0331005D02*
X0025577Y0331058D01*
X0025562Y0331110D01*
X0025542Y0331161D01*
X0025520Y0331210D01*
X0025494Y0331258D01*
X0025464Y0331304D01*
X0025432Y0331347D01*
X0025396Y0331388D01*
X0025358Y0331427D01*
X0025317Y0331462D01*
X0025273Y0331495D01*
X0025228Y0331524D01*
X0025180Y0331550D01*
X0025131Y0331573D01*
X0025080Y0331592D01*
X0025028Y0331607D01*
X0024974Y0331619D01*
X0024921Y0331626D01*
X0024867Y0331630D01*
X0024812Y0331631D01*
X0024758Y0331627D01*
X0024704Y0331619D01*
X0024651Y0331608D01*
X0024599Y0331593D01*
X0024548Y0331574D01*
X0024499Y0331551D01*
X0024451Y0331526D01*
X0024405Y0331496D01*
X0024362Y0331464D01*
X0024320Y0331429D01*
X0024282Y0331390D01*
X0024246Y0331349D01*
X0024213Y0331306D01*
X0024184Y0331261D01*
X0025589Y0331006D02*
X0025603Y0330921D01*
X0025613Y0330836D01*
X0025619Y0330750D01*
X0025622Y0330664D01*
X0025621Y0330578D01*
X0025616Y0330493D01*
X0025608Y0330407D01*
X0025597Y0330322D01*
X0025581Y0330238D01*
X0025562Y0330154D01*
X0025540Y0330071D01*
X0025514Y0329989D01*
X0025484Y0329908D01*
X0025452Y0329829D01*
X0025415Y0329751D01*
X0025376Y0329675D01*
X0025333Y0329600D01*
X0023416Y0329983D02*
X0023387Y0329938D01*
X0023354Y0329895D01*
X0023318Y0329854D01*
X0023280Y0329815D01*
X0023238Y0329780D01*
X0023195Y0329748D01*
X0023149Y0329718D01*
X0023101Y0329693D01*
X0023052Y0329670D01*
X0023001Y0329651D01*
X0022949Y0329636D01*
X0022896Y0329625D01*
X0022842Y0329617D01*
X0022788Y0329613D01*
X0022733Y0329614D01*
X0022679Y0329617D01*
X0022626Y0329625D01*
X0022572Y0329637D01*
X0022520Y0329652D01*
X0022470Y0329671D01*
X0022420Y0329694D01*
X0022372Y0329720D01*
X0022327Y0329749D01*
X0022283Y0329782D01*
X0022242Y0329817D01*
X0022204Y0329856D01*
X0022168Y0329897D01*
X0022136Y0329940D01*
X0022106Y0329986D01*
X0022080Y0330034D01*
X0022058Y0330083D01*
X0022038Y0330134D01*
X0022023Y0330186D01*
X0022011Y0330239D01*
X0023544Y0335717D02*
X0023497Y0335764D01*
X0023447Y0335808D01*
X0023395Y0335850D01*
X0023341Y0335889D01*
X0023285Y0335924D01*
X0023227Y0335957D01*
X0023167Y0335987D01*
X0023106Y0336013D01*
X0023043Y0336036D01*
X0022979Y0336055D01*
X0022915Y0336071D01*
X0022849Y0336084D01*
X0022783Y0336093D01*
X0022717Y0336098D01*
X0022650Y0336100D01*
X0023544Y0335717D02*
X0026100Y0333544D01*
X0026100Y0336100D01*
X0022522Y0333545D02*
X0022452Y0333570D01*
X0022383Y0333598D01*
X0022316Y0333629D01*
X0022250Y0333664D01*
X0022187Y0333702D01*
X0022125Y0333744D01*
X0022065Y0333788D01*
X0022008Y0333835D01*
X0021953Y0333885D01*
X0021901Y0333938D01*
X0021851Y0333994D01*
X0021805Y0334051D01*
X0021761Y0334112D01*
X0021720Y0334174D01*
X0021683Y0334238D01*
X0021649Y0334304D01*
X0021618Y0334372D01*
X0021591Y0334441D01*
X0021567Y0334511D01*
X0021546Y0334582D01*
X0021530Y0334655D01*
X0021517Y0334728D01*
X0021507Y0334802D01*
X0021502Y0334876D01*
X0021500Y0334950D01*
X0021502Y0335017D01*
X0021508Y0335084D01*
X0021517Y0335150D01*
X0021531Y0335215D01*
X0021548Y0335280D01*
X0021569Y0335343D01*
X0021594Y0335405D01*
X0021622Y0335466D01*
X0021654Y0335525D01*
X0021689Y0335582D01*
X0021728Y0335637D01*
X0021769Y0335689D01*
X0021814Y0335739D01*
X0021861Y0335786D01*
X0021911Y0335831D01*
X0021963Y0335872D01*
X0022018Y0335911D01*
X0022075Y0335946D01*
X0022134Y0335978D01*
X0022195Y0336006D01*
X0022257Y0336031D01*
X0022320Y0336052D01*
X0022385Y0336069D01*
X0022450Y0336083D01*
X0022516Y0336092D01*
X0022583Y0336098D01*
X0022650Y0336100D01*
X0016100Y0334822D02*
X0016100Y0333544D01*
X0011500Y0333544D01*
X0011500Y0334822D01*
X0011502Y0334885D01*
X0011508Y0334948D01*
X0011517Y0335010D01*
X0011531Y0335071D01*
X0011548Y0335132D01*
X0011569Y0335191D01*
X0011594Y0335249D01*
X0011622Y0335306D01*
X0011653Y0335360D01*
X0011688Y0335412D01*
X0011726Y0335463D01*
X0011767Y0335511D01*
X0011811Y0335556D01*
X0011857Y0335598D01*
X0011906Y0335638D01*
X0011957Y0335674D01*
X0012011Y0335707D01*
X0012066Y0335737D01*
X0012124Y0335763D01*
X0012182Y0335786D01*
X0012242Y0335805D01*
X0012303Y0335820D01*
X0012365Y0335832D01*
X0012428Y0335840D01*
X0012491Y0335844D01*
X0012553Y0335844D01*
X0012616Y0335840D01*
X0012679Y0335832D01*
X0012741Y0335820D01*
X0012802Y0335805D01*
X0012862Y0335786D01*
X0012920Y0335763D01*
X0012978Y0335737D01*
X0013033Y0335707D01*
X0013087Y0335674D01*
X0013138Y0335638D01*
X0013187Y0335598D01*
X0013233Y0335556D01*
X0013277Y0335511D01*
X0013318Y0335463D01*
X0013356Y0335412D01*
X0013391Y0335360D01*
X0013422Y0335306D01*
X0013450Y0335249D01*
X0013475Y0335191D01*
X0013496Y0335132D01*
X0013513Y0335071D01*
X0013527Y0335010D01*
X0013536Y0334948D01*
X0013542Y0334885D01*
X0013544Y0334822D01*
X0013544Y0333544D01*
X0013544Y0334822D02*
X0013546Y0334892D01*
X0013552Y0334963D01*
X0013561Y0335032D01*
X0013575Y0335101D01*
X0013592Y0335170D01*
X0013613Y0335237D01*
X0013638Y0335303D01*
X0013666Y0335367D01*
X0013698Y0335430D01*
X0013733Y0335491D01*
X0013772Y0335550D01*
X0013813Y0335607D01*
X0013858Y0335661D01*
X0013906Y0335713D01*
X0013956Y0335762D01*
X0014010Y0335809D01*
X0014065Y0335852D01*
X0014123Y0335892D01*
X0014183Y0335929D01*
X0014245Y0335962D01*
X0014309Y0335992D01*
X0014374Y0336019D01*
X0014440Y0336042D01*
X0014508Y0336061D01*
X0014577Y0336076D01*
X0014646Y0336088D01*
X0014716Y0336096D01*
X0014787Y0336100D01*
X0014857Y0336100D01*
X0014928Y0336096D01*
X0014998Y0336088D01*
X0015067Y0336076D01*
X0015136Y0336061D01*
X0015204Y0336042D01*
X0015270Y0336019D01*
X0015335Y0335992D01*
X0015399Y0335962D01*
X0015461Y0335929D01*
X0015521Y0335892D01*
X0015579Y0335852D01*
X0015634Y0335809D01*
X0015688Y0335762D01*
X0015738Y0335713D01*
X0015786Y0335661D01*
X0015831Y0335607D01*
X0015872Y0335550D01*
X0015911Y0335491D01*
X0015946Y0335430D01*
X0015978Y0335367D01*
X0016006Y0335303D01*
X0016031Y0335237D01*
X0016052Y0335170D01*
X0016069Y0335101D01*
X0016083Y0335032D01*
X0016092Y0334963D01*
X0016098Y0334892D01*
X0016100Y0334822D01*
X0014183Y0331022D02*
X0013417Y0329617D01*
X0011500Y0330128D02*
X0011502Y0330210D01*
X0011507Y0330292D01*
X0011516Y0330374D01*
X0011528Y0330455D01*
X0011544Y0330536D01*
X0011563Y0330616D01*
X0011586Y0330695D01*
X0011612Y0330773D01*
X0011641Y0330850D01*
X0011674Y0330925D01*
X0011710Y0330999D01*
X0011748Y0331072D01*
X0011790Y0331143D01*
X0011835Y0331211D01*
X0011883Y0331278D01*
X0013416Y0329617D02*
X0013382Y0329563D01*
X0013345Y0329512D01*
X0013305Y0329463D01*
X0013262Y0329416D01*
X0013216Y0329373D01*
X0013168Y0329332D01*
X0013117Y0329294D01*
X0013064Y0329259D01*
X0013009Y0329227D01*
X0012952Y0329199D01*
X0012894Y0329175D01*
X0012834Y0329154D01*
X0012773Y0329137D01*
X0012711Y0329123D01*
X0012648Y0329114D01*
X0012585Y0329108D01*
X0012522Y0329106D01*
X0012460Y0329108D01*
X0012399Y0329113D01*
X0012338Y0329123D01*
X0012277Y0329136D01*
X0012218Y0329152D01*
X0012160Y0329172D01*
X0012103Y0329196D01*
X0012047Y0329223D01*
X0011993Y0329253D01*
X0011941Y0329287D01*
X0011892Y0329323D01*
X0011844Y0329363D01*
X0011799Y0329405D01*
X0011757Y0329450D01*
X0011717Y0329498D01*
X0011681Y0329547D01*
X0011647Y0329599D01*
X0011617Y0329653D01*
X0011590Y0329709D01*
X0011566Y0329766D01*
X0011546Y0329824D01*
X0011530Y0329883D01*
X0011517Y0329944D01*
X0011507Y0330005D01*
X0011502Y0330066D01*
X0011500Y0330128D01*
X0015461Y0328978D02*
X0015524Y0329042D01*
X0015583Y0329110D01*
X0015640Y0329179D01*
X0015694Y0329251D01*
X0015745Y0329325D01*
X0015793Y0329401D01*
X0015837Y0329478D01*
X0015878Y0329558D01*
X0015916Y0329639D01*
X0015951Y0329722D01*
X0015982Y0329806D01*
X0016009Y0329892D01*
X0016033Y0329978D01*
X0016054Y0330066D01*
X0016070Y0330154D01*
X0016083Y0330243D01*
X0016093Y0330332D01*
X0016098Y0330421D01*
X0016100Y0330511D01*
X0016098Y0330573D01*
X0016093Y0330634D01*
X0016083Y0330695D01*
X0016070Y0330756D01*
X0016054Y0330815D01*
X0016034Y0330873D01*
X0016010Y0330930D01*
X0015983Y0330986D01*
X0015953Y0331040D01*
X0015919Y0331092D01*
X0015883Y0331141D01*
X0015843Y0331189D01*
X0015801Y0331234D01*
X0015756Y0331276D01*
X0015708Y0331316D01*
X0015659Y0331352D01*
X0015607Y0331386D01*
X0015553Y0331416D01*
X0015497Y0331443D01*
X0015440Y0331467D01*
X0015382Y0331487D01*
X0015323Y0331503D01*
X0015262Y0331516D01*
X0015201Y0331526D01*
X0015140Y0331531D01*
X0015078Y0331533D01*
X0015015Y0331531D01*
X0014952Y0331525D01*
X0014889Y0331516D01*
X0014827Y0331502D01*
X0014766Y0331485D01*
X0014706Y0331464D01*
X0014648Y0331440D01*
X0014591Y0331412D01*
X0014536Y0331380D01*
X0014483Y0331345D01*
X0014432Y0331307D01*
X0014384Y0331266D01*
X0014338Y0331223D01*
X0014295Y0331176D01*
X0014255Y0331127D01*
X0014218Y0331076D01*
X0014184Y0331022D01*
X0014822Y0327033D02*
X0011500Y0327033D01*
X0011500Y0324478D02*
X0014822Y0324478D01*
X0014892Y0324480D01*
X0014963Y0324486D01*
X0015032Y0324495D01*
X0015101Y0324509D01*
X0015170Y0324526D01*
X0015237Y0324547D01*
X0015303Y0324572D01*
X0015367Y0324600D01*
X0015430Y0324632D01*
X0015491Y0324667D01*
X0015550Y0324706D01*
X0015607Y0324747D01*
X0015661Y0324792D01*
X0015713Y0324840D01*
X0015762Y0324890D01*
X0015809Y0324944D01*
X0015852Y0324999D01*
X0015892Y0325057D01*
X0015929Y0325117D01*
X0015962Y0325179D01*
X0015992Y0325243D01*
X0016019Y0325308D01*
X0016042Y0325374D01*
X0016061Y0325442D01*
X0016076Y0325511D01*
X0016088Y0325580D01*
X0016096Y0325650D01*
X0016100Y0325721D01*
X0016100Y0325791D01*
X0016096Y0325862D01*
X0016088Y0325932D01*
X0016076Y0326001D01*
X0016061Y0326070D01*
X0016042Y0326138D01*
X0016019Y0326204D01*
X0015992Y0326269D01*
X0015962Y0326333D01*
X0015929Y0326395D01*
X0015892Y0326455D01*
X0015852Y0326513D01*
X0015809Y0326568D01*
X0015762Y0326622D01*
X0015713Y0326672D01*
X0015661Y0326720D01*
X0015607Y0326765D01*
X0015550Y0326806D01*
X0015491Y0326845D01*
X0015430Y0326880D01*
X0015367Y0326912D01*
X0015303Y0326940D01*
X0015237Y0326965D01*
X0015170Y0326986D01*
X0015101Y0327003D01*
X0015032Y0327017D01*
X0014963Y0327026D01*
X0014892Y0327032D01*
X0014822Y0327034D01*
X0014822Y0322383D02*
X0012778Y0322383D01*
X0012778Y0322384D02*
X0012708Y0322382D01*
X0012637Y0322376D01*
X0012568Y0322367D01*
X0012499Y0322353D01*
X0012430Y0322336D01*
X0012363Y0322315D01*
X0012297Y0322290D01*
X0012233Y0322262D01*
X0012170Y0322230D01*
X0012109Y0322195D01*
X0012050Y0322156D01*
X0011993Y0322115D01*
X0011939Y0322070D01*
X0011887Y0322022D01*
X0011838Y0321972D01*
X0011791Y0321918D01*
X0011748Y0321863D01*
X0011708Y0321805D01*
X0011671Y0321745D01*
X0011638Y0321683D01*
X0011608Y0321619D01*
X0011581Y0321554D01*
X0011558Y0321488D01*
X0011539Y0321420D01*
X0011524Y0321351D01*
X0011512Y0321282D01*
X0011504Y0321212D01*
X0011500Y0321141D01*
X0011500Y0321071D01*
X0011504Y0321000D01*
X0011512Y0320930D01*
X0011524Y0320861D01*
X0011539Y0320792D01*
X0011558Y0320724D01*
X0011581Y0320658D01*
X0011608Y0320593D01*
X0011638Y0320529D01*
X0011671Y0320467D01*
X0011708Y0320407D01*
X0011748Y0320349D01*
X0011791Y0320294D01*
X0011838Y0320240D01*
X0011887Y0320190D01*
X0011939Y0320142D01*
X0011993Y0320097D01*
X0012050Y0320056D01*
X0012109Y0320017D01*
X0012170Y0319982D01*
X0012233Y0319950D01*
X0012297Y0319922D01*
X0012363Y0319897D01*
X0012430Y0319876D01*
X0012499Y0319859D01*
X0012568Y0319845D01*
X0012637Y0319836D01*
X0012708Y0319830D01*
X0012778Y0319828D01*
X0014822Y0319828D01*
X0014892Y0319830D01*
X0014963Y0319836D01*
X0015032Y0319845D01*
X0015101Y0319859D01*
X0015170Y0319876D01*
X0015237Y0319897D01*
X0015303Y0319922D01*
X0015367Y0319950D01*
X0015430Y0319982D01*
X0015491Y0320017D01*
X0015550Y0320056D01*
X0015607Y0320097D01*
X0015661Y0320142D01*
X0015713Y0320190D01*
X0015762Y0320240D01*
X0015809Y0320294D01*
X0015852Y0320349D01*
X0015892Y0320407D01*
X0015929Y0320467D01*
X0015962Y0320529D01*
X0015992Y0320593D01*
X0016019Y0320658D01*
X0016042Y0320724D01*
X0016061Y0320792D01*
X0016076Y0320861D01*
X0016088Y0320930D01*
X0016096Y0321000D01*
X0016100Y0321071D01*
X0016100Y0321141D01*
X0016096Y0321212D01*
X0016088Y0321282D01*
X0016076Y0321351D01*
X0016061Y0321420D01*
X0016042Y0321488D01*
X0016019Y0321554D01*
X0015992Y0321619D01*
X0015962Y0321683D01*
X0015929Y0321745D01*
X0015892Y0321805D01*
X0015852Y0321863D01*
X0015809Y0321918D01*
X0015762Y0321972D01*
X0015713Y0322022D01*
X0015661Y0322070D01*
X0015607Y0322115D01*
X0015550Y0322156D01*
X0015491Y0322195D01*
X0015430Y0322230D01*
X0015367Y0322262D01*
X0015303Y0322290D01*
X0015237Y0322315D01*
X0015170Y0322336D01*
X0015101Y0322353D01*
X0015032Y0322367D01*
X0014963Y0322376D01*
X0014892Y0322382D01*
X0014822Y0322384D01*
X0016100Y0317912D02*
X0014056Y0316890D01*
X0014056Y0316635D02*
X0014056Y0315357D01*
X0014056Y0316635D02*
X0014054Y0316705D01*
X0014048Y0316776D01*
X0014039Y0316845D01*
X0014025Y0316914D01*
X0014008Y0316983D01*
X0013987Y0317050D01*
X0013962Y0317116D01*
X0013934Y0317180D01*
X0013902Y0317243D01*
X0013867Y0317304D01*
X0013828Y0317363D01*
X0013787Y0317420D01*
X0013742Y0317474D01*
X0013694Y0317526D01*
X0013644Y0317575D01*
X0013590Y0317622D01*
X0013535Y0317665D01*
X0013477Y0317705D01*
X0013417Y0317742D01*
X0013355Y0317775D01*
X0013291Y0317805D01*
X0013226Y0317832D01*
X0013160Y0317855D01*
X0013092Y0317874D01*
X0013023Y0317889D01*
X0012954Y0317901D01*
X0012884Y0317909D01*
X0012813Y0317913D01*
X0012743Y0317913D01*
X0012672Y0317909D01*
X0012602Y0317901D01*
X0012533Y0317889D01*
X0012464Y0317874D01*
X0012396Y0317855D01*
X0012330Y0317832D01*
X0012265Y0317805D01*
X0012201Y0317775D01*
X0012139Y0317742D01*
X0012079Y0317705D01*
X0012021Y0317665D01*
X0011966Y0317622D01*
X0011912Y0317575D01*
X0011862Y0317526D01*
X0011814Y0317474D01*
X0011769Y0317420D01*
X0011728Y0317363D01*
X0011689Y0317304D01*
X0011654Y0317243D01*
X0011622Y0317180D01*
X0011594Y0317116D01*
X0011569Y0317050D01*
X0011548Y0316983D01*
X0011531Y0316914D01*
X0011517Y0316845D01*
X0011508Y0316776D01*
X0011502Y0316705D01*
X0011500Y0316635D01*
X0011500Y0315357D01*
X0016100Y0315357D01*
X0016100Y0313459D02*
X0016100Y0312437D01*
X0016098Y0312375D01*
X0016093Y0312314D01*
X0016083Y0312253D01*
X0016070Y0312192D01*
X0016054Y0312133D01*
X0016034Y0312075D01*
X0016010Y0312018D01*
X0015983Y0311962D01*
X0015953Y0311908D01*
X0015919Y0311856D01*
X0015883Y0311807D01*
X0015843Y0311759D01*
X0015801Y0311714D01*
X0015756Y0311672D01*
X0015708Y0311632D01*
X0015659Y0311596D01*
X0015607Y0311562D01*
X0015553Y0311532D01*
X0015497Y0311505D01*
X0015440Y0311481D01*
X0015382Y0311461D01*
X0015323Y0311445D01*
X0015262Y0311432D01*
X0015201Y0311422D01*
X0015140Y0311417D01*
X0015078Y0311415D01*
X0012522Y0311415D01*
X0012460Y0311417D01*
X0012399Y0311422D01*
X0012338Y0311432D01*
X0012277Y0311445D01*
X0012218Y0311461D01*
X0012160Y0311481D01*
X0012103Y0311505D01*
X0012047Y0311532D01*
X0011993Y0311562D01*
X0011941Y0311596D01*
X0011892Y0311632D01*
X0011844Y0311672D01*
X0011799Y0311714D01*
X0011757Y0311759D01*
X0011718Y0311807D01*
X0011681Y0311856D01*
X0011647Y0311908D01*
X0011617Y0311962D01*
X0011590Y0312018D01*
X0011566Y0312075D01*
X0011546Y0312133D01*
X0011530Y0312192D01*
X0011517Y0312253D01*
X0011507Y0312314D01*
X0011502Y0312375D01*
X0011500Y0312437D01*
X0011500Y0313459D01*
X0011500Y0309617D02*
X0011500Y0308595D01*
X0011500Y0309106D02*
X0016100Y0309106D01*
X0016100Y0308595D02*
X0016100Y0309617D01*
X0016100Y0306589D02*
X0011500Y0306589D01*
X0014056Y0305056D01*
X0011500Y0303522D01*
X0016100Y0303522D01*
D18*
X0239450Y0267350D02*
X0240417Y0264450D01*
X0241383Y0267350D01*
X0242491Y0266544D02*
X0242491Y0265256D01*
X0242493Y0265201D01*
X0242499Y0265146D01*
X0242508Y0265092D01*
X0242521Y0265039D01*
X0242538Y0264986D01*
X0242558Y0264935D01*
X0242581Y0264885D01*
X0242608Y0264837D01*
X0242639Y0264791D01*
X0242672Y0264747D01*
X0242708Y0264706D01*
X0242747Y0264667D01*
X0242788Y0264631D01*
X0242832Y0264598D01*
X0242878Y0264567D01*
X0242926Y0264540D01*
X0242976Y0264517D01*
X0243027Y0264497D01*
X0243080Y0264480D01*
X0243133Y0264467D01*
X0243187Y0264458D01*
X0243242Y0264452D01*
X0243297Y0264450D01*
X0243352Y0264452D01*
X0243407Y0264458D01*
X0243461Y0264467D01*
X0243514Y0264480D01*
X0243567Y0264497D01*
X0243618Y0264517D01*
X0243668Y0264540D01*
X0243716Y0264567D01*
X0243762Y0264598D01*
X0243806Y0264631D01*
X0243847Y0264667D01*
X0243886Y0264706D01*
X0243922Y0264747D01*
X0243955Y0264791D01*
X0243986Y0264837D01*
X0244013Y0264885D01*
X0244036Y0264935D01*
X0244056Y0264986D01*
X0244073Y0265039D01*
X0244086Y0265092D01*
X0244095Y0265146D01*
X0244101Y0265201D01*
X0244103Y0265256D01*
X0244102Y0265256D02*
X0244102Y0266544D01*
X0244103Y0266544D02*
X0244101Y0266599D01*
X0244095Y0266654D01*
X0244086Y0266708D01*
X0244073Y0266761D01*
X0244056Y0266814D01*
X0244036Y0266865D01*
X0244013Y0266915D01*
X0243986Y0266963D01*
X0243955Y0267009D01*
X0243922Y0267053D01*
X0243886Y0267094D01*
X0243847Y0267133D01*
X0243806Y0267169D01*
X0243762Y0267202D01*
X0243716Y0267233D01*
X0243668Y0267260D01*
X0243618Y0267283D01*
X0243567Y0267303D01*
X0243514Y0267320D01*
X0243461Y0267333D01*
X0243407Y0267342D01*
X0243352Y0267348D01*
X0243297Y0267350D01*
X0243242Y0267348D01*
X0243187Y0267342D01*
X0243133Y0267333D01*
X0243080Y0267320D01*
X0243027Y0267303D01*
X0242976Y0267283D01*
X0242926Y0267260D01*
X0242878Y0267233D01*
X0242832Y0267202D01*
X0242788Y0267169D01*
X0242747Y0267133D01*
X0242708Y0267094D01*
X0242672Y0267053D01*
X0242639Y0267009D01*
X0242608Y0266963D01*
X0242581Y0266915D01*
X0242558Y0266865D01*
X0242538Y0266814D01*
X0242521Y0266761D01*
X0242508Y0266708D01*
X0242499Y0266654D01*
X0242493Y0266599D01*
X0242491Y0266544D01*
X0245467Y0267350D02*
X0245467Y0265256D01*
X0245469Y0265201D01*
X0245475Y0265146D01*
X0245484Y0265092D01*
X0245497Y0265039D01*
X0245514Y0264986D01*
X0245534Y0264935D01*
X0245557Y0264885D01*
X0245584Y0264837D01*
X0245615Y0264791D01*
X0245648Y0264747D01*
X0245684Y0264706D01*
X0245723Y0264667D01*
X0245764Y0264631D01*
X0245808Y0264598D01*
X0245854Y0264567D01*
X0245902Y0264540D01*
X0245952Y0264517D01*
X0246003Y0264497D01*
X0246056Y0264480D01*
X0246109Y0264467D01*
X0246163Y0264458D01*
X0246218Y0264452D01*
X0246273Y0264450D01*
X0246328Y0264452D01*
X0246383Y0264458D01*
X0246437Y0264467D01*
X0246490Y0264480D01*
X0246543Y0264497D01*
X0246594Y0264517D01*
X0246644Y0264540D01*
X0246692Y0264567D01*
X0246738Y0264598D01*
X0246782Y0264631D01*
X0246823Y0264667D01*
X0246862Y0264706D01*
X0246898Y0264747D01*
X0246931Y0264791D01*
X0246962Y0264837D01*
X0246989Y0264885D01*
X0247012Y0264935D01*
X0247032Y0264986D01*
X0247049Y0265039D01*
X0247062Y0265092D01*
X0247071Y0265146D01*
X0247077Y0265201D01*
X0247079Y0265256D01*
X0247078Y0265256D02*
X0247078Y0267350D01*
X0248251Y0267350D02*
X0249862Y0267350D01*
X0249057Y0267350D02*
X0249057Y0264450D01*
X0248900Y0257850D02*
X0248094Y0257850D01*
X0248094Y0254950D01*
X0248900Y0254950D01*
X0248955Y0254952D01*
X0249010Y0254958D01*
X0249064Y0254967D01*
X0249117Y0254980D01*
X0249170Y0254997D01*
X0249221Y0255017D01*
X0249271Y0255040D01*
X0249319Y0255067D01*
X0249365Y0255098D01*
X0249409Y0255131D01*
X0249450Y0255167D01*
X0249489Y0255206D01*
X0249525Y0255247D01*
X0249558Y0255291D01*
X0249589Y0255337D01*
X0249616Y0255385D01*
X0249639Y0255435D01*
X0249659Y0255486D01*
X0249676Y0255539D01*
X0249689Y0255592D01*
X0249698Y0255646D01*
X0249704Y0255701D01*
X0249706Y0255756D01*
X0249705Y0255756D02*
X0249705Y0257044D01*
X0249706Y0257044D02*
X0249704Y0257099D01*
X0249698Y0257154D01*
X0249689Y0257208D01*
X0249676Y0257261D01*
X0249659Y0257314D01*
X0249639Y0257365D01*
X0249616Y0257415D01*
X0249589Y0257463D01*
X0249558Y0257509D01*
X0249525Y0257553D01*
X0249489Y0257594D01*
X0249450Y0257633D01*
X0249409Y0257669D01*
X0249365Y0257702D01*
X0249319Y0257733D01*
X0249271Y0257760D01*
X0249221Y0257783D01*
X0249170Y0257803D01*
X0249117Y0257820D01*
X0249064Y0257833D01*
X0249010Y0257842D01*
X0248955Y0257848D01*
X0248900Y0257850D01*
X0246633Y0257850D02*
X0246633Y0254950D01*
X0245022Y0257850D01*
X0245022Y0254950D01*
X0243561Y0254950D02*
X0242594Y0254950D01*
X0242546Y0254952D01*
X0242498Y0254957D01*
X0242451Y0254966D01*
X0242404Y0254979D01*
X0242359Y0254995D01*
X0242315Y0255014D01*
X0242272Y0255036D01*
X0242231Y0255062D01*
X0242192Y0255091D01*
X0242156Y0255122D01*
X0242122Y0255156D01*
X0242091Y0255192D01*
X0242062Y0255231D01*
X0242036Y0255272D01*
X0242014Y0255315D01*
X0241995Y0255359D01*
X0241979Y0255404D01*
X0241966Y0255451D01*
X0241957Y0255498D01*
X0241952Y0255546D01*
X0241950Y0255594D01*
X0241950Y0257206D01*
X0241952Y0257257D01*
X0241958Y0257307D01*
X0241968Y0257356D01*
X0241982Y0257405D01*
X0241999Y0257452D01*
X0242020Y0257498D01*
X0242045Y0257542D01*
X0242073Y0257585D01*
X0242104Y0257624D01*
X0242139Y0257661D01*
X0242176Y0257696D01*
X0242215Y0257727D01*
X0242258Y0257755D01*
X0242302Y0257780D01*
X0242348Y0257801D01*
X0242395Y0257818D01*
X0242444Y0257832D01*
X0242493Y0257842D01*
X0242543Y0257848D01*
X0242594Y0257850D01*
X0243561Y0257850D01*
X0243561Y0256561D02*
X0243561Y0254950D01*
X0243561Y0256561D02*
X0243078Y0256561D01*
X0244450Y0247850D02*
X0245417Y0244950D01*
X0246383Y0247850D01*
X0247398Y0247850D02*
X0248043Y0247850D01*
X0247721Y0247850D02*
X0247721Y0244950D01*
X0248043Y0244950D02*
X0247398Y0244950D01*
X0249315Y0244950D02*
X0249315Y0247850D01*
X0250926Y0244950D01*
X0250926Y0247850D01*
X0250085Y0237350D02*
X0250085Y0234450D01*
X0248474Y0237350D01*
X0248474Y0234450D01*
X0247013Y0235256D02*
X0247013Y0236544D01*
X0247014Y0236544D02*
X0247012Y0236599D01*
X0247006Y0236654D01*
X0246997Y0236708D01*
X0246984Y0236761D01*
X0246967Y0236814D01*
X0246947Y0236865D01*
X0246924Y0236915D01*
X0246897Y0236963D01*
X0246866Y0237009D01*
X0246833Y0237053D01*
X0246797Y0237094D01*
X0246758Y0237133D01*
X0246717Y0237169D01*
X0246673Y0237202D01*
X0246627Y0237233D01*
X0246579Y0237260D01*
X0246529Y0237283D01*
X0246478Y0237303D01*
X0246425Y0237320D01*
X0246372Y0237333D01*
X0246318Y0237342D01*
X0246263Y0237348D01*
X0246208Y0237350D01*
X0245402Y0237350D01*
X0245402Y0234450D01*
X0246208Y0234450D01*
X0246263Y0234452D01*
X0246318Y0234458D01*
X0246372Y0234467D01*
X0246425Y0234480D01*
X0246478Y0234497D01*
X0246529Y0234517D01*
X0246579Y0234540D01*
X0246627Y0234567D01*
X0246673Y0234598D01*
X0246717Y0234631D01*
X0246758Y0234667D01*
X0246797Y0234706D01*
X0246833Y0234747D01*
X0246866Y0234791D01*
X0246897Y0234837D01*
X0246924Y0234885D01*
X0246947Y0234935D01*
X0246967Y0234986D01*
X0246984Y0235039D01*
X0246997Y0235092D01*
X0247006Y0235146D01*
X0247012Y0235201D01*
X0247014Y0235256D01*
X0243941Y0236061D02*
X0242330Y0236061D01*
X0242330Y0237350D02*
X0242330Y0234450D01*
X0243941Y0234450D02*
X0243941Y0237350D01*
X0240739Y0235658D02*
X0239853Y0236142D01*
X0240175Y0237350D02*
X0240240Y0237348D01*
X0240304Y0237343D01*
X0240369Y0237334D01*
X0240432Y0237322D01*
X0240495Y0237307D01*
X0240557Y0237288D01*
X0240618Y0237266D01*
X0240677Y0237241D01*
X0240736Y0237212D01*
X0240792Y0237180D01*
X0240847Y0237146D01*
X0240900Y0237108D01*
X0239852Y0236142D02*
X0239812Y0236168D01*
X0239773Y0236197D01*
X0239736Y0236229D01*
X0239702Y0236264D01*
X0239671Y0236301D01*
X0239642Y0236340D01*
X0239616Y0236381D01*
X0239594Y0236424D01*
X0239575Y0236469D01*
X0239559Y0236515D01*
X0239546Y0236561D01*
X0239537Y0236609D01*
X0239532Y0236657D01*
X0239530Y0236706D01*
X0239531Y0236706D02*
X0239533Y0236754D01*
X0239538Y0236802D01*
X0239547Y0236849D01*
X0239560Y0236896D01*
X0239576Y0236941D01*
X0239595Y0236985D01*
X0239617Y0237028D01*
X0239643Y0237069D01*
X0239672Y0237108D01*
X0239703Y0237144D01*
X0239737Y0237178D01*
X0239773Y0237210D01*
X0239812Y0237238D01*
X0239853Y0237264D01*
X0239896Y0237286D01*
X0239940Y0237305D01*
X0239985Y0237321D01*
X0240032Y0237334D01*
X0240079Y0237343D01*
X0240127Y0237348D01*
X0240175Y0237350D01*
X0239451Y0234853D02*
X0239502Y0234803D01*
X0239557Y0234756D01*
X0239613Y0234713D01*
X0239672Y0234672D01*
X0239733Y0234634D01*
X0239796Y0234600D01*
X0239861Y0234569D01*
X0239927Y0234541D01*
X0239994Y0234517D01*
X0240063Y0234497D01*
X0240133Y0234480D01*
X0240203Y0234467D01*
X0240274Y0234458D01*
X0240345Y0234452D01*
X0240417Y0234450D01*
X0240465Y0234452D01*
X0240513Y0234457D01*
X0240560Y0234466D01*
X0240607Y0234479D01*
X0240652Y0234495D01*
X0240696Y0234514D01*
X0240739Y0234536D01*
X0240780Y0234562D01*
X0240819Y0234591D01*
X0240855Y0234622D01*
X0240889Y0234656D01*
X0240920Y0234692D01*
X0240949Y0234731D01*
X0240975Y0234772D01*
X0240997Y0234815D01*
X0241016Y0234859D01*
X0241032Y0234904D01*
X0241045Y0234951D01*
X0241054Y0234998D01*
X0241059Y0235046D01*
X0241061Y0235094D01*
X0241062Y0235094D02*
X0241060Y0235143D01*
X0241055Y0235191D01*
X0241046Y0235239D01*
X0241033Y0235285D01*
X0241017Y0235331D01*
X0240998Y0235376D01*
X0240976Y0235419D01*
X0240950Y0235460D01*
X0240921Y0235499D01*
X0240890Y0235536D01*
X0240856Y0235571D01*
X0240819Y0235603D01*
X0240780Y0235632D01*
X0240740Y0235658D01*
M02*
