G75*
%MOIN*%
%OFA0B0*%
%FSLAX25Y25*%
%IPPOS*%
%LPD*%
%AMOC8*
5,1,8,0,0,1.08239X$1,22.5*
%
%ADD10C,0.08200*%
%ADD11OC8,0.06000*%
%ADD12C,0.06000*%
%ADD13R,0.08200X0.08200*%
%ADD14C,0.06000*%
%ADD15C,0.08182*%
%ADD16C,0.09658*%
%ADD17C,0.05162*%
%ADD18C,0.04800*%
%ADD19C,0.06737*%
%ADD20C,0.03778*%
D10*
X0256300Y0236300D03*
X0256300Y0246300D03*
X0256300Y0256300D03*
X0256300Y0266300D03*
X0321300Y0186300D03*
X0331300Y0136300D03*
X0256300Y0376300D03*
X0246300Y0376300D03*
X0236300Y0376300D03*
X0226300Y0376300D03*
X0216300Y0376300D03*
X0206300Y0376300D03*
X0016300Y0296300D03*
X0016300Y0286300D03*
D11*
X0056300Y0051300D03*
X0056300Y0091300D03*
X0056300Y0201300D03*
X0046300Y0201300D03*
X0201300Y0061300D03*
X0241300Y0061300D03*
X0256300Y0056300D03*
X0266300Y0056300D03*
X0306300Y0051300D03*
X0316300Y0051300D03*
X0301300Y0106300D03*
X0291300Y0106300D03*
X0306300Y0301300D03*
D12*
X0286300Y0301300D03*
D13*
X0321300Y0176300D03*
X0321300Y0136300D03*
D14*
X0238900Y0131300D02*
X0233700Y0131300D01*
X0233700Y0141300D02*
X0238900Y0141300D01*
X0238900Y0151300D02*
X0233700Y0151300D01*
X0233700Y0161300D02*
X0238900Y0161300D01*
X0238900Y0171300D02*
X0233700Y0171300D01*
X0233700Y0181300D02*
X0238900Y0181300D01*
X0238900Y0191300D02*
X0233700Y0191300D01*
X0233700Y0201300D02*
X0238900Y0201300D01*
X0238900Y0211300D02*
X0233700Y0211300D01*
X0208900Y0211300D02*
X0203700Y0211300D01*
X0203700Y0201300D02*
X0208900Y0201300D01*
X0208900Y0191300D02*
X0203700Y0191300D01*
X0203700Y0181300D02*
X0208900Y0181300D01*
X0208900Y0171300D02*
X0203700Y0171300D01*
X0203700Y0161300D02*
X0208900Y0161300D01*
X0208900Y0151300D02*
X0203700Y0151300D01*
X0203700Y0141300D02*
X0208900Y0141300D01*
X0208900Y0131300D02*
X0203700Y0131300D01*
X0203700Y0121300D02*
X0208900Y0121300D01*
X0208900Y0111300D02*
X0203700Y0111300D01*
X0203700Y0101300D02*
X0208900Y0101300D01*
X0208900Y0091300D02*
X0203700Y0091300D01*
X0203700Y0081300D02*
X0208900Y0081300D01*
X0233700Y0081300D02*
X0238900Y0081300D01*
X0238900Y0091300D02*
X0233700Y0091300D01*
X0233700Y0101300D02*
X0238900Y0101300D01*
X0238900Y0111300D02*
X0233700Y0111300D01*
X0233700Y0121300D02*
X0238900Y0121300D01*
X0153900Y0121300D02*
X0148700Y0121300D01*
X0148700Y0111300D02*
X0153900Y0111300D01*
X0153900Y0101300D02*
X0148700Y0101300D01*
X0148700Y0091300D02*
X0153900Y0091300D01*
X0153900Y0081300D02*
X0148700Y0081300D01*
X0123900Y0081300D02*
X0118700Y0081300D01*
X0118700Y0091300D02*
X0123900Y0091300D01*
X0123900Y0101300D02*
X0118700Y0101300D01*
X0118700Y0111300D02*
X0123900Y0111300D01*
X0123900Y0121300D02*
X0118700Y0121300D01*
X0118700Y0131300D02*
X0123900Y0131300D01*
X0123900Y0141300D02*
X0118700Y0141300D01*
X0118700Y0151300D02*
X0123900Y0151300D01*
X0123900Y0161300D02*
X0118700Y0161300D01*
X0118700Y0171300D02*
X0123900Y0171300D01*
X0123900Y0181300D02*
X0118700Y0181300D01*
X0118700Y0191300D02*
X0123900Y0191300D01*
X0123900Y0201300D02*
X0118700Y0201300D01*
X0118700Y0211300D02*
X0123900Y0211300D01*
X0148700Y0211300D02*
X0153900Y0211300D01*
X0153900Y0201300D02*
X0148700Y0201300D01*
X0148700Y0191300D02*
X0153900Y0191300D01*
X0153900Y0181300D02*
X0148700Y0181300D01*
X0148700Y0171300D02*
X0153900Y0171300D01*
X0153900Y0161300D02*
X0148700Y0161300D01*
X0148700Y0151300D02*
X0153900Y0151300D01*
X0153900Y0141300D02*
X0148700Y0141300D01*
X0148700Y0131300D02*
X0153900Y0131300D01*
D15*
X0021930Y0351457D03*
X0021930Y0371143D03*
D16*
X0011300Y0375080D03*
X0011300Y0347520D03*
D17*
X0061300Y0321143D03*
X0061300Y0311300D03*
X0061300Y0301457D03*
X0271300Y0201300D03*
X0271300Y0191300D03*
X0271300Y0181300D03*
X0271300Y0171300D03*
X0271300Y0161300D03*
X0271300Y0151300D03*
X0271300Y0141300D03*
X0301300Y0141300D03*
X0301300Y0151300D03*
X0301300Y0161300D03*
X0301300Y0171300D03*
X0301300Y0181300D03*
X0301300Y0191300D03*
X0301300Y0201300D03*
D18*
X0091300Y0201300D03*
X0091300Y0196300D03*
X0091300Y0191300D03*
X0091300Y0186300D03*
X0091300Y0181300D03*
D19*
X0166457Y0041300D03*
X0186143Y0041300D03*
D20*
X0206300Y0276300D03*
X0206300Y0316300D03*
M02*
