G75*
%MOIN*%
%OFA0B0*%
%FSLAX25Y25*%
%IPPOS*%
%LPD*%
%AMOC8*
5,1,8,0,0,1.08239X$1,22.5*
%
%ADD10C,0.07400*%
%ADD11OC8,0.05200*%
%ADD12C,0.05200*%
%ADD13R,0.07400X0.07400*%
%ADD14C,0.05200*%
%ADD15C,0.07382*%
%ADD16C,0.08858*%
%ADD17C,0.04362*%
%ADD18C,0.04000*%
%ADD19C,0.05937*%
%ADD20C,0.00600*%
%ADD21C,0.02978*%
D10*
X0256300Y0236300D03*
X0256300Y0246300D03*
X0256300Y0256300D03*
X0256300Y0266300D03*
X0321300Y0186300D03*
X0331300Y0136300D03*
X0256300Y0376300D03*
X0246300Y0376300D03*
X0236300Y0376300D03*
X0226300Y0376300D03*
X0216300Y0376300D03*
X0206300Y0376300D03*
X0016300Y0296300D03*
X0016300Y0286300D03*
D11*
X0046300Y0201300D03*
X0056300Y0201300D03*
X0056300Y0091300D03*
X0056300Y0051300D03*
X0201300Y0061300D03*
X0241300Y0061300D03*
X0256300Y0056300D03*
X0266300Y0056300D03*
X0306300Y0051300D03*
X0316300Y0051300D03*
X0301300Y0106300D03*
X0291300Y0106300D03*
X0306300Y0301300D03*
D12*
X0286300Y0301300D03*
D13*
X0321300Y0176300D03*
X0321300Y0136300D03*
D14*
X0238900Y0131300D02*
X0233700Y0131300D01*
X0233700Y0141300D02*
X0238900Y0141300D01*
X0238900Y0151300D02*
X0233700Y0151300D01*
X0233700Y0161300D02*
X0238900Y0161300D01*
X0238900Y0171300D02*
X0233700Y0171300D01*
X0233700Y0181300D02*
X0238900Y0181300D01*
X0238900Y0191300D02*
X0233700Y0191300D01*
X0233700Y0201300D02*
X0238900Y0201300D01*
X0238900Y0211300D02*
X0233700Y0211300D01*
X0208900Y0211300D02*
X0203700Y0211300D01*
X0203700Y0201300D02*
X0208900Y0201300D01*
X0208900Y0191300D02*
X0203700Y0191300D01*
X0203700Y0181300D02*
X0208900Y0181300D01*
X0208900Y0171300D02*
X0203700Y0171300D01*
X0203700Y0161300D02*
X0208900Y0161300D01*
X0208900Y0151300D02*
X0203700Y0151300D01*
X0203700Y0141300D02*
X0208900Y0141300D01*
X0208900Y0131300D02*
X0203700Y0131300D01*
X0203700Y0121300D02*
X0208900Y0121300D01*
X0208900Y0111300D02*
X0203700Y0111300D01*
X0203700Y0101300D02*
X0208900Y0101300D01*
X0208900Y0091300D02*
X0203700Y0091300D01*
X0203700Y0081300D02*
X0208900Y0081300D01*
X0233700Y0081300D02*
X0238900Y0081300D01*
X0238900Y0091300D02*
X0233700Y0091300D01*
X0233700Y0101300D02*
X0238900Y0101300D01*
X0238900Y0111300D02*
X0233700Y0111300D01*
X0233700Y0121300D02*
X0238900Y0121300D01*
X0153900Y0121300D02*
X0148700Y0121300D01*
X0148700Y0111300D02*
X0153900Y0111300D01*
X0153900Y0101300D02*
X0148700Y0101300D01*
X0148700Y0091300D02*
X0153900Y0091300D01*
X0153900Y0081300D02*
X0148700Y0081300D01*
X0123900Y0081300D02*
X0118700Y0081300D01*
X0118700Y0091300D02*
X0123900Y0091300D01*
X0123900Y0101300D02*
X0118700Y0101300D01*
X0118700Y0111300D02*
X0123900Y0111300D01*
X0123900Y0121300D02*
X0118700Y0121300D01*
X0118700Y0131300D02*
X0123900Y0131300D01*
X0123900Y0141300D02*
X0118700Y0141300D01*
X0118700Y0151300D02*
X0123900Y0151300D01*
X0123900Y0161300D02*
X0118700Y0161300D01*
X0118700Y0171300D02*
X0123900Y0171300D01*
X0123900Y0181300D02*
X0118700Y0181300D01*
X0118700Y0191300D02*
X0123900Y0191300D01*
X0123900Y0201300D02*
X0118700Y0201300D01*
X0118700Y0211300D02*
X0123900Y0211300D01*
X0148700Y0211300D02*
X0153900Y0211300D01*
X0153900Y0201300D02*
X0148700Y0201300D01*
X0148700Y0191300D02*
X0153900Y0191300D01*
X0153900Y0181300D02*
X0148700Y0181300D01*
X0148700Y0171300D02*
X0153900Y0171300D01*
X0153900Y0161300D02*
X0148700Y0161300D01*
X0148700Y0151300D02*
X0153900Y0151300D01*
X0153900Y0141300D02*
X0148700Y0141300D01*
X0148700Y0131300D02*
X0153900Y0131300D01*
D15*
X0021930Y0351457D03*
X0021930Y0371143D03*
D16*
X0011300Y0375080D03*
X0011300Y0347520D03*
D17*
X0061300Y0321143D03*
X0061300Y0311300D03*
X0061300Y0301457D03*
X0271300Y0201300D03*
X0271300Y0191300D03*
X0271300Y0181300D03*
X0271300Y0171300D03*
X0271300Y0161300D03*
X0271300Y0151300D03*
X0271300Y0141300D03*
X0301300Y0141300D03*
X0301300Y0151300D03*
X0301300Y0161300D03*
X0301300Y0171300D03*
X0301300Y0181300D03*
X0301300Y0191300D03*
X0301300Y0201300D03*
D18*
X0091300Y0201300D03*
X0091300Y0196300D03*
X0091300Y0191300D03*
X0091300Y0186300D03*
X0091300Y0181300D03*
D19*
X0166457Y0041300D03*
X0186143Y0041300D03*
D20*
X0005600Y0005600D02*
X0005600Y0390701D01*
X0390701Y0390701D01*
X0390701Y0005600D01*
X0005600Y0005600D01*
X0005600Y0006088D02*
X0390701Y0006088D01*
X0390701Y0006687D02*
X0005600Y0006687D01*
X0005600Y0007285D02*
X0390701Y0007285D01*
X0390701Y0007884D02*
X0005600Y0007884D01*
X0005600Y0008482D02*
X0390701Y0008482D01*
X0390701Y0009081D02*
X0005600Y0009081D01*
X0005600Y0009679D02*
X0390701Y0009679D01*
X0390701Y0010278D02*
X0005600Y0010278D01*
X0005600Y0010876D02*
X0390701Y0010876D01*
X0390701Y0011475D02*
X0005600Y0011475D01*
X0005600Y0012073D02*
X0390701Y0012073D01*
X0390701Y0012672D02*
X0005600Y0012672D01*
X0005600Y0013270D02*
X0390701Y0013270D01*
X0390701Y0013869D02*
X0005600Y0013869D01*
X0005600Y0014467D02*
X0390701Y0014467D01*
X0390701Y0015066D02*
X0005600Y0015066D01*
X0005600Y0015664D02*
X0390701Y0015664D01*
X0390701Y0016263D02*
X0005600Y0016263D01*
X0005600Y0016861D02*
X0390701Y0016861D01*
X0390701Y0017460D02*
X0005600Y0017460D01*
X0005600Y0018058D02*
X0390701Y0018058D01*
X0390701Y0018657D02*
X0005600Y0018657D01*
X0005600Y0019255D02*
X0390701Y0019255D01*
X0390701Y0019854D02*
X0005600Y0019854D01*
X0005600Y0020452D02*
X0390701Y0020452D01*
X0390701Y0021051D02*
X0005600Y0021051D01*
X0005600Y0021649D02*
X0390701Y0021649D01*
X0390701Y0022248D02*
X0005600Y0022248D01*
X0005600Y0022846D02*
X0390701Y0022846D01*
X0390701Y0023445D02*
X0005600Y0023445D01*
X0005600Y0024043D02*
X0390701Y0024043D01*
X0390701Y0024642D02*
X0005600Y0024642D01*
X0005600Y0025240D02*
X0390701Y0025240D01*
X0390701Y0025839D02*
X0005600Y0025839D01*
X0005600Y0026437D02*
X0390701Y0026437D01*
X0390701Y0027036D02*
X0005600Y0027036D01*
X0005600Y0027634D02*
X0390701Y0027634D01*
X0390701Y0028233D02*
X0005600Y0028233D01*
X0005600Y0028832D02*
X0390701Y0028832D01*
X0390701Y0029430D02*
X0005600Y0029430D01*
X0005600Y0030029D02*
X0390701Y0030029D01*
X0390701Y0030627D02*
X0005600Y0030627D01*
X0005600Y0031226D02*
X0390701Y0031226D01*
X0390701Y0031824D02*
X0005600Y0031824D01*
X0005600Y0032423D02*
X0390701Y0032423D01*
X0390701Y0033021D02*
X0005600Y0033021D01*
X0005600Y0033620D02*
X0390701Y0033620D01*
X0390701Y0034218D02*
X0005600Y0034218D01*
X0005600Y0034817D02*
X0390701Y0034817D01*
X0390701Y0035415D02*
X0005600Y0035415D01*
X0005600Y0036014D02*
X0390701Y0036014D01*
X0390701Y0036612D02*
X0005600Y0036612D01*
X0005600Y0037211D02*
X0165230Y0037211D01*
X0165458Y0037137D02*
X0166122Y0037031D01*
X0166157Y0037031D01*
X0166157Y0041000D01*
X0162189Y0041000D01*
X0162189Y0040964D01*
X0162294Y0040300D01*
X0162502Y0039661D01*
X0162807Y0039063D01*
X0163202Y0038519D01*
X0163677Y0038044D01*
X0164220Y0037649D01*
X0164819Y0037344D01*
X0165458Y0037137D01*
X0166157Y0037211D02*
X0166757Y0037211D01*
X0166757Y0037031D02*
X0166793Y0037031D01*
X0167457Y0037137D01*
X0168096Y0037344D01*
X0168695Y0037649D01*
X0169238Y0038044D01*
X0169713Y0038519D01*
X0170108Y0039063D01*
X0170413Y0039661D01*
X0170621Y0040300D01*
X0170726Y0040964D01*
X0170726Y0041000D01*
X0166758Y0041000D01*
X0166758Y0041600D01*
X0170726Y0041600D01*
X0170726Y0041636D01*
X0170621Y0042300D01*
X0170413Y0042939D01*
X0170108Y0043537D01*
X0169713Y0044081D01*
X0169238Y0044556D01*
X0168695Y0044951D01*
X0168096Y0045256D01*
X0167457Y0045463D01*
X0166793Y0045568D01*
X0166757Y0045568D01*
X0166757Y0041600D01*
X0166157Y0041600D01*
X0166157Y0041000D01*
X0166757Y0041000D01*
X0166757Y0037031D01*
X0166757Y0037809D02*
X0166157Y0037809D01*
X0166157Y0038408D02*
X0166757Y0038408D01*
X0166757Y0039006D02*
X0166157Y0039006D01*
X0166157Y0039605D02*
X0166757Y0039605D01*
X0166757Y0040203D02*
X0166157Y0040203D01*
X0166157Y0040802D02*
X0166757Y0040802D01*
X0166758Y0041400D02*
X0182274Y0041400D01*
X0182274Y0040802D02*
X0170700Y0040802D01*
X0170589Y0040203D02*
X0182410Y0040203D01*
X0182274Y0040530D02*
X0182863Y0039109D01*
X0183951Y0038020D01*
X0185373Y0037431D01*
X0186912Y0037431D01*
X0188334Y0038020D01*
X0189422Y0039109D01*
X0190011Y0040530D01*
X0190011Y0042069D01*
X0189422Y0043491D01*
X0188334Y0044580D01*
X0186912Y0045168D01*
X0185373Y0045168D01*
X0183951Y0044580D01*
X0182863Y0043491D01*
X0182274Y0042069D01*
X0182274Y0040530D01*
X0182657Y0039605D02*
X0170384Y0039605D01*
X0170067Y0039006D02*
X0182965Y0039006D01*
X0183564Y0038408D02*
X0169602Y0038408D01*
X0168915Y0037809D02*
X0184461Y0037809D01*
X0187824Y0037809D02*
X0390701Y0037809D01*
X0390701Y0037211D02*
X0167685Y0037211D01*
X0164000Y0037809D02*
X0005600Y0037809D01*
X0005600Y0038408D02*
X0163313Y0038408D01*
X0162848Y0039006D02*
X0005600Y0039006D01*
X0005600Y0039605D02*
X0162531Y0039605D01*
X0162326Y0040203D02*
X0005600Y0040203D01*
X0005600Y0040802D02*
X0162215Y0040802D01*
X0162189Y0041600D02*
X0166157Y0041600D01*
X0166157Y0045568D01*
X0166122Y0045568D01*
X0165458Y0045463D01*
X0164819Y0045256D01*
X0164220Y0044951D01*
X0163677Y0044556D01*
X0163202Y0044081D01*
X0162807Y0043537D01*
X0162502Y0042939D01*
X0162294Y0042300D01*
X0162189Y0041636D01*
X0162189Y0041600D01*
X0162246Y0041999D02*
X0005600Y0041999D01*
X0005600Y0042597D02*
X0162391Y0042597D01*
X0162633Y0043196D02*
X0005600Y0043196D01*
X0005600Y0043794D02*
X0162994Y0043794D01*
X0163514Y0044393D02*
X0005600Y0044393D01*
X0005600Y0044991D02*
X0164300Y0044991D01*
X0166157Y0044991D02*
X0166757Y0044991D01*
X0166757Y0044393D02*
X0166157Y0044393D01*
X0166157Y0043794D02*
X0166757Y0043794D01*
X0166757Y0043196D02*
X0166157Y0043196D01*
X0166157Y0042597D02*
X0166757Y0042597D01*
X0166757Y0041999D02*
X0166157Y0041999D01*
X0166157Y0041400D02*
X0005600Y0041400D01*
X0005600Y0045590D02*
X0390701Y0045590D01*
X0390701Y0046188D02*
X0005600Y0046188D01*
X0005600Y0046787D02*
X0390701Y0046787D01*
X0390701Y0047385D02*
X0005600Y0047385D01*
X0005600Y0047984D02*
X0054101Y0047984D01*
X0054685Y0047400D02*
X0052400Y0049685D01*
X0052400Y0051000D01*
X0056000Y0051000D01*
X0056000Y0051600D01*
X0056000Y0055200D01*
X0054685Y0055200D01*
X0052400Y0052915D01*
X0052400Y0051600D01*
X0056000Y0051600D01*
X0056600Y0051600D01*
X0056600Y0055200D01*
X0057915Y0055200D01*
X0060200Y0052915D01*
X0060200Y0051600D01*
X0056600Y0051600D01*
X0056600Y0051000D01*
X0060200Y0051000D01*
X0060200Y0049685D01*
X0057915Y0047400D01*
X0056600Y0047400D01*
X0056600Y0051000D01*
X0056000Y0051000D01*
X0056000Y0047400D01*
X0054685Y0047400D01*
X0056000Y0047984D02*
X0056600Y0047984D01*
X0056600Y0048582D02*
X0056000Y0048582D01*
X0056000Y0049181D02*
X0056600Y0049181D01*
X0056600Y0049779D02*
X0056000Y0049779D01*
X0056000Y0050378D02*
X0056600Y0050378D01*
X0056600Y0050976D02*
X0056000Y0050976D01*
X0056000Y0051575D02*
X0005600Y0051575D01*
X0005600Y0052173D02*
X0052400Y0052173D01*
X0052400Y0052772D02*
X0005600Y0052772D01*
X0005600Y0053370D02*
X0052855Y0053370D01*
X0053454Y0053969D02*
X0005600Y0053969D01*
X0005600Y0054568D02*
X0054052Y0054568D01*
X0054651Y0055166D02*
X0005600Y0055166D01*
X0005600Y0055765D02*
X0252800Y0055765D01*
X0252800Y0056363D02*
X0005600Y0056363D01*
X0005600Y0056962D02*
X0252800Y0056962D01*
X0252800Y0057560D02*
X0005600Y0057560D01*
X0005600Y0058159D02*
X0199492Y0058159D01*
X0199850Y0057800D02*
X0202750Y0057800D01*
X0204800Y0059850D01*
X0204800Y0062750D01*
X0202750Y0064800D01*
X0199850Y0064800D01*
X0197800Y0062750D01*
X0197800Y0059850D01*
X0199850Y0057800D01*
X0198893Y0058757D02*
X0005600Y0058757D01*
X0005600Y0059356D02*
X0198295Y0059356D01*
X0197800Y0059954D02*
X0005600Y0059954D01*
X0005600Y0060553D02*
X0197800Y0060553D01*
X0197800Y0061151D02*
X0005600Y0061151D01*
X0005600Y0061750D02*
X0197800Y0061750D01*
X0197800Y0062348D02*
X0005600Y0062348D01*
X0005600Y0062947D02*
X0197997Y0062947D01*
X0198595Y0063545D02*
X0005600Y0063545D01*
X0005600Y0064144D02*
X0199194Y0064144D01*
X0199792Y0064742D02*
X0005600Y0064742D01*
X0005600Y0065341D02*
X0390701Y0065341D01*
X0390701Y0065939D02*
X0005600Y0065939D01*
X0005600Y0066538D02*
X0390701Y0066538D01*
X0390701Y0067136D02*
X0005600Y0067136D01*
X0005600Y0067735D02*
X0390701Y0067735D01*
X0390701Y0068333D02*
X0005600Y0068333D01*
X0005600Y0068932D02*
X0390701Y0068932D01*
X0390701Y0069530D02*
X0005600Y0069530D01*
X0005600Y0070129D02*
X0390701Y0070129D01*
X0390701Y0070727D02*
X0005600Y0070727D01*
X0005600Y0071326D02*
X0390701Y0071326D01*
X0390701Y0071924D02*
X0005600Y0071924D01*
X0005600Y0072523D02*
X0390701Y0072523D01*
X0390701Y0073121D02*
X0005600Y0073121D01*
X0005600Y0073720D02*
X0390701Y0073720D01*
X0390701Y0074318D02*
X0005600Y0074318D01*
X0005600Y0074917D02*
X0390701Y0074917D01*
X0390701Y0075515D02*
X0005600Y0075515D01*
X0005600Y0076114D02*
X0390701Y0076114D01*
X0390701Y0076712D02*
X0005600Y0076712D01*
X0005600Y0077311D02*
X0390701Y0077311D01*
X0390701Y0077909D02*
X0240845Y0077909D01*
X0240747Y0077844D02*
X0241386Y0078271D01*
X0241929Y0078814D01*
X0242356Y0079453D01*
X0242650Y0080162D01*
X0242800Y0080916D01*
X0242800Y0081000D01*
X0236600Y0081000D01*
X0236600Y0081600D01*
X0236000Y0081600D01*
X0236000Y0085200D01*
X0233316Y0085200D01*
X0232562Y0085050D01*
X0231853Y0084756D01*
X0231214Y0084329D01*
X0230671Y0083786D01*
X0230244Y0083147D01*
X0229950Y0082438D01*
X0229800Y0081684D01*
X0229800Y0081600D01*
X0236000Y0081600D01*
X0236000Y0081000D01*
X0236600Y0081000D01*
X0236600Y0077400D01*
X0239284Y0077400D01*
X0240038Y0077550D01*
X0240747Y0077844D01*
X0241623Y0078508D02*
X0390701Y0078508D01*
X0390701Y0079106D02*
X0242125Y0079106D01*
X0242461Y0079705D02*
X0390701Y0079705D01*
X0390701Y0080303D02*
X0242678Y0080303D01*
X0242797Y0080902D02*
X0390701Y0080902D01*
X0390701Y0081501D02*
X0236600Y0081501D01*
X0236600Y0081600D02*
X0242800Y0081600D01*
X0242800Y0081684D01*
X0242650Y0082438D01*
X0242356Y0083147D01*
X0241929Y0083786D01*
X0241386Y0084329D01*
X0240747Y0084756D01*
X0240038Y0085050D01*
X0239284Y0085200D01*
X0236600Y0085200D01*
X0236600Y0081600D01*
X0236600Y0082099D02*
X0236000Y0082099D01*
X0236000Y0081501D02*
X0212400Y0081501D01*
X0212400Y0081996D02*
X0211867Y0083283D01*
X0210883Y0084267D01*
X0209596Y0084800D01*
X0203004Y0084800D01*
X0201717Y0084267D01*
X0200733Y0083283D01*
X0200200Y0081996D01*
X0200200Y0080604D01*
X0200733Y0079317D01*
X0201717Y0078333D01*
X0203004Y0077800D01*
X0209596Y0077800D01*
X0210883Y0078333D01*
X0211867Y0079317D01*
X0212400Y0080604D01*
X0212400Y0081996D01*
X0212357Y0082099D02*
X0229883Y0082099D01*
X0230058Y0082698D02*
X0212109Y0082698D01*
X0211854Y0083296D02*
X0230343Y0083296D01*
X0230779Y0083895D02*
X0211255Y0083895D01*
X0210337Y0084493D02*
X0231459Y0084493D01*
X0232771Y0085092D02*
X0005600Y0085092D01*
X0005600Y0085690D02*
X0390701Y0085690D01*
X0390701Y0085092D02*
X0239829Y0085092D01*
X0241141Y0084493D02*
X0390701Y0084493D01*
X0390701Y0083895D02*
X0241821Y0083895D01*
X0242257Y0083296D02*
X0390701Y0083296D01*
X0390701Y0082698D02*
X0242542Y0082698D01*
X0242717Y0082099D02*
X0390701Y0082099D01*
X0390701Y0086289D02*
X0005600Y0086289D01*
X0005600Y0086887D02*
X0390701Y0086887D01*
X0390701Y0087486D02*
X0239715Y0087486D01*
X0240038Y0087550D02*
X0240747Y0087844D01*
X0241386Y0088271D01*
X0241929Y0088814D01*
X0242356Y0089453D01*
X0242650Y0090162D01*
X0242800Y0090916D01*
X0242800Y0091000D01*
X0236600Y0091000D01*
X0236600Y0091600D01*
X0236000Y0091600D01*
X0236000Y0095200D01*
X0233316Y0095200D01*
X0232562Y0095050D01*
X0231853Y0094756D01*
X0231214Y0094329D01*
X0230671Y0093786D01*
X0230244Y0093147D01*
X0229950Y0092438D01*
X0229800Y0091684D01*
X0229800Y0091600D01*
X0236000Y0091600D01*
X0236000Y0091000D01*
X0236600Y0091000D01*
X0236600Y0087400D01*
X0239284Y0087400D01*
X0240038Y0087550D01*
X0241107Y0088084D02*
X0390701Y0088084D01*
X0390701Y0088683D02*
X0241798Y0088683D01*
X0242242Y0089281D02*
X0390701Y0089281D01*
X0390701Y0089880D02*
X0242533Y0089880D01*
X0242713Y0090478D02*
X0390701Y0090478D01*
X0390701Y0091077D02*
X0236600Y0091077D01*
X0236600Y0091600D02*
X0242800Y0091600D01*
X0242800Y0091684D01*
X0242650Y0092438D01*
X0242356Y0093147D01*
X0241929Y0093786D01*
X0241386Y0094329D01*
X0240747Y0094756D01*
X0240038Y0095050D01*
X0239284Y0095200D01*
X0236600Y0095200D01*
X0236600Y0091600D01*
X0236600Y0091675D02*
X0236000Y0091675D01*
X0236000Y0091077D02*
X0212400Y0091077D01*
X0212400Y0090604D02*
X0212400Y0091996D01*
X0211867Y0093283D01*
X0210883Y0094267D01*
X0209596Y0094800D01*
X0203004Y0094800D01*
X0201717Y0094267D01*
X0200733Y0093283D01*
X0200200Y0091996D01*
X0200200Y0090604D01*
X0200733Y0089317D01*
X0201717Y0088333D01*
X0203004Y0087800D01*
X0209596Y0087800D01*
X0210883Y0088333D01*
X0211867Y0089317D01*
X0212400Y0090604D01*
X0212348Y0090478D02*
X0229887Y0090478D01*
X0229950Y0090162D02*
X0230244Y0089453D01*
X0230671Y0088814D01*
X0231214Y0088271D01*
X0231853Y0087844D01*
X0232562Y0087550D01*
X0233316Y0087400D01*
X0236000Y0087400D01*
X0236000Y0091000D01*
X0229800Y0091000D01*
X0229800Y0090916D01*
X0229950Y0090162D01*
X0230067Y0089880D02*
X0212100Y0089880D01*
X0211831Y0089281D02*
X0230358Y0089281D01*
X0230802Y0088683D02*
X0211232Y0088683D01*
X0210282Y0088084D02*
X0231493Y0088084D01*
X0232885Y0087486D02*
X0005600Y0087486D01*
X0005600Y0088084D02*
X0054566Y0088084D01*
X0054850Y0087800D02*
X0057750Y0087800D01*
X0059800Y0089850D01*
X0059800Y0092750D01*
X0057750Y0094800D01*
X0054850Y0094800D01*
X0052800Y0092750D01*
X0052800Y0089850D01*
X0054850Y0087800D01*
X0053968Y0088683D02*
X0005600Y0088683D01*
X0005600Y0089281D02*
X0053369Y0089281D01*
X0052800Y0089880D02*
X0005600Y0089880D01*
X0005600Y0090478D02*
X0052800Y0090478D01*
X0052800Y0091077D02*
X0005600Y0091077D01*
X0005600Y0091675D02*
X0052800Y0091675D01*
X0052800Y0092274D02*
X0005600Y0092274D01*
X0005600Y0092872D02*
X0052922Y0092872D01*
X0053521Y0093471D02*
X0005600Y0093471D01*
X0005600Y0094069D02*
X0054120Y0094069D01*
X0054718Y0094668D02*
X0005600Y0094668D01*
X0005600Y0095266D02*
X0390701Y0095266D01*
X0390701Y0094668D02*
X0240880Y0094668D01*
X0241646Y0094069D02*
X0390701Y0094069D01*
X0390701Y0093471D02*
X0242140Y0093471D01*
X0242470Y0092872D02*
X0390701Y0092872D01*
X0390701Y0092274D02*
X0242683Y0092274D01*
X0242800Y0091675D02*
X0390701Y0091675D01*
X0390701Y0095865D02*
X0005600Y0095865D01*
X0005600Y0096463D02*
X0390701Y0096463D01*
X0390701Y0097062D02*
X0005600Y0097062D01*
X0005600Y0097660D02*
X0232296Y0097660D01*
X0232562Y0097550D02*
X0233316Y0097400D01*
X0236000Y0097400D01*
X0236000Y0101000D01*
X0236600Y0101000D01*
X0236600Y0101600D01*
X0236000Y0101600D01*
X0236000Y0105200D01*
X0233316Y0105200D01*
X0232562Y0105050D01*
X0231853Y0104756D01*
X0231214Y0104329D01*
X0230671Y0103786D01*
X0230244Y0103147D01*
X0229950Y0102438D01*
X0229800Y0101684D01*
X0229800Y0101600D01*
X0236000Y0101600D01*
X0236000Y0101000D01*
X0229800Y0101000D01*
X0229800Y0100916D01*
X0229950Y0100162D01*
X0230244Y0099453D01*
X0230671Y0098814D01*
X0231214Y0098271D01*
X0231853Y0097844D01*
X0232562Y0097550D01*
X0231232Y0098259D02*
X0210704Y0098259D01*
X0210883Y0098333D02*
X0209596Y0097800D01*
X0203004Y0097800D01*
X0201717Y0098333D01*
X0200733Y0099317D01*
X0200200Y0100604D01*
X0200200Y0101996D01*
X0200733Y0103283D01*
X0201717Y0104267D01*
X0203004Y0104800D01*
X0209596Y0104800D01*
X0210883Y0104267D01*
X0211867Y0103283D01*
X0212400Y0101996D01*
X0212400Y0100604D01*
X0211867Y0099317D01*
X0210883Y0098333D01*
X0211407Y0098857D02*
X0230642Y0098857D01*
X0230243Y0099456D02*
X0211924Y0099456D01*
X0212172Y0100054D02*
X0229995Y0100054D01*
X0229852Y0100653D02*
X0212400Y0100653D01*
X0212400Y0101251D02*
X0236000Y0101251D01*
X0236000Y0100653D02*
X0236600Y0100653D01*
X0236600Y0101000D02*
X0236600Y0097400D01*
X0239284Y0097400D01*
X0240038Y0097550D01*
X0240747Y0097844D01*
X0241386Y0098271D01*
X0241929Y0098814D01*
X0242356Y0099453D01*
X0242650Y0100162D01*
X0242800Y0100916D01*
X0242800Y0101000D01*
X0236600Y0101000D01*
X0236600Y0101251D02*
X0390701Y0101251D01*
X0390701Y0100653D02*
X0242748Y0100653D01*
X0242605Y0100054D02*
X0390701Y0100054D01*
X0390701Y0099456D02*
X0242357Y0099456D01*
X0241958Y0098857D02*
X0390701Y0098857D01*
X0390701Y0098259D02*
X0241368Y0098259D01*
X0240304Y0097660D02*
X0390701Y0097660D01*
X0390701Y0101850D02*
X0242767Y0101850D01*
X0242800Y0101684D02*
X0242650Y0102438D01*
X0242356Y0103147D01*
X0241929Y0103786D01*
X0241386Y0104329D01*
X0240747Y0104756D01*
X0240038Y0105050D01*
X0239284Y0105200D01*
X0236600Y0105200D01*
X0236600Y0101600D01*
X0242800Y0101600D01*
X0242800Y0101684D01*
X0242646Y0102448D02*
X0299636Y0102448D01*
X0299685Y0102400D02*
X0301000Y0102400D01*
X0301000Y0106000D01*
X0301600Y0106000D01*
X0301600Y0106600D01*
X0305200Y0106600D01*
X0305200Y0107915D01*
X0302915Y0110200D01*
X0301600Y0110200D01*
X0301600Y0106600D01*
X0301000Y0106600D01*
X0301000Y0110200D01*
X0299685Y0110200D01*
X0297400Y0107915D01*
X0297400Y0106600D01*
X0301000Y0106600D01*
X0301000Y0106000D01*
X0297400Y0106000D01*
X0297400Y0104685D01*
X0299685Y0102400D01*
X0299038Y0103047D02*
X0292997Y0103047D01*
X0292750Y0102800D02*
X0294800Y0104850D01*
X0294800Y0107750D01*
X0292750Y0109800D01*
X0289850Y0109800D01*
X0287800Y0107750D01*
X0287800Y0104850D01*
X0289850Y0102800D01*
X0292750Y0102800D01*
X0293595Y0103645D02*
X0298439Y0103645D01*
X0297841Y0104244D02*
X0294194Y0104244D01*
X0294792Y0104842D02*
X0297400Y0104842D01*
X0297400Y0105441D02*
X0294800Y0105441D01*
X0294800Y0106039D02*
X0301000Y0106039D01*
X0301000Y0105441D02*
X0301600Y0105441D01*
X0301600Y0106000D02*
X0301600Y0102400D01*
X0302915Y0102400D01*
X0305200Y0104685D01*
X0305200Y0106000D01*
X0301600Y0106000D01*
X0301600Y0106039D02*
X0390701Y0106039D01*
X0390701Y0105441D02*
X0305200Y0105441D01*
X0305200Y0104842D02*
X0390701Y0104842D01*
X0390701Y0104244D02*
X0304759Y0104244D01*
X0304161Y0103645D02*
X0390701Y0103645D01*
X0390701Y0103047D02*
X0303562Y0103047D01*
X0302964Y0102448D02*
X0390701Y0102448D01*
X0390701Y0106638D02*
X0305200Y0106638D01*
X0305200Y0107237D02*
X0390701Y0107237D01*
X0390701Y0107835D02*
X0305200Y0107835D01*
X0304682Y0108434D02*
X0390701Y0108434D01*
X0390701Y0109032D02*
X0304083Y0109032D01*
X0303485Y0109631D02*
X0390701Y0109631D01*
X0390701Y0110229D02*
X0242245Y0110229D01*
X0242400Y0110604D02*
X0242400Y0111996D01*
X0241867Y0113283D01*
X0240883Y0114267D01*
X0239596Y0114800D01*
X0233004Y0114800D01*
X0231717Y0114267D01*
X0230733Y0113283D01*
X0230200Y0111996D01*
X0230200Y0110604D01*
X0230733Y0109317D01*
X0231717Y0108333D01*
X0233004Y0107800D01*
X0239596Y0107800D01*
X0240883Y0108333D01*
X0241867Y0109317D01*
X0242400Y0110604D01*
X0242400Y0110828D02*
X0390701Y0110828D01*
X0390701Y0111426D02*
X0242400Y0111426D01*
X0242388Y0112025D02*
X0390701Y0112025D01*
X0390701Y0112623D02*
X0242140Y0112623D01*
X0241892Y0113222D02*
X0390701Y0113222D01*
X0390701Y0113820D02*
X0241330Y0113820D01*
X0240517Y0114419D02*
X0390701Y0114419D01*
X0390701Y0115017D02*
X0005600Y0115017D01*
X0005600Y0114419D02*
X0117083Y0114419D01*
X0116717Y0114267D02*
X0115733Y0113283D01*
X0115200Y0111996D01*
X0115200Y0110604D01*
X0115733Y0109317D01*
X0116717Y0108333D01*
X0118004Y0107800D01*
X0124596Y0107800D01*
X0125883Y0108333D01*
X0126867Y0109317D01*
X0127400Y0110604D01*
X0127400Y0111996D01*
X0126867Y0113283D01*
X0125883Y0114267D01*
X0124596Y0114800D01*
X0118004Y0114800D01*
X0116717Y0114267D01*
X0116270Y0113820D02*
X0005600Y0113820D01*
X0005600Y0113222D02*
X0115708Y0113222D01*
X0115460Y0112623D02*
X0005600Y0112623D01*
X0005600Y0112025D02*
X0115212Y0112025D01*
X0115200Y0111426D02*
X0005600Y0111426D01*
X0005600Y0110828D02*
X0115200Y0110828D01*
X0115355Y0110229D02*
X0005600Y0110229D01*
X0005600Y0109631D02*
X0115603Y0109631D01*
X0116018Y0109032D02*
X0005600Y0109032D01*
X0005600Y0108434D02*
X0116617Y0108434D01*
X0117919Y0107835D02*
X0005600Y0107835D01*
X0005600Y0107237D02*
X0287800Y0107237D01*
X0287800Y0106638D02*
X0005600Y0106638D01*
X0005600Y0106039D02*
X0287800Y0106039D01*
X0287800Y0105441D02*
X0005600Y0105441D01*
X0005600Y0104842D02*
X0232061Y0104842D01*
X0231129Y0104244D02*
X0210906Y0104244D01*
X0211504Y0103645D02*
X0230577Y0103645D01*
X0230202Y0103047D02*
X0211965Y0103047D01*
X0212213Y0102448D02*
X0229954Y0102448D01*
X0229833Y0101850D02*
X0212400Y0101850D01*
X0209681Y0107835D02*
X0232919Y0107835D01*
X0231617Y0108434D02*
X0210983Y0108434D01*
X0210883Y0108333D02*
X0211867Y0109317D01*
X0212400Y0110604D01*
X0212400Y0111996D01*
X0211867Y0113283D01*
X0210883Y0114267D01*
X0209596Y0114800D01*
X0203004Y0114800D01*
X0201717Y0114267D01*
X0200733Y0113283D01*
X0200200Y0111996D01*
X0200200Y0110604D01*
X0200733Y0109317D01*
X0201717Y0108333D01*
X0203004Y0107800D01*
X0209596Y0107800D01*
X0210883Y0108333D01*
X0211582Y0109032D02*
X0231018Y0109032D01*
X0230603Y0109631D02*
X0211997Y0109631D01*
X0212245Y0110229D02*
X0230355Y0110229D01*
X0230200Y0110828D02*
X0212400Y0110828D01*
X0212400Y0111426D02*
X0230200Y0111426D01*
X0230212Y0112025D02*
X0212388Y0112025D01*
X0212140Y0112623D02*
X0230460Y0112623D01*
X0230708Y0113222D02*
X0211892Y0113222D01*
X0211330Y0113820D02*
X0231270Y0113820D01*
X0232083Y0114419D02*
X0210517Y0114419D01*
X0210038Y0117550D02*
X0210747Y0117844D01*
X0211386Y0118271D01*
X0211929Y0118814D01*
X0212356Y0119453D01*
X0212650Y0120162D01*
X0212800Y0120916D01*
X0212800Y0121000D01*
X0206600Y0121000D01*
X0206600Y0121600D01*
X0206000Y0121600D01*
X0206000Y0125200D01*
X0203316Y0125200D01*
X0202562Y0125050D01*
X0201853Y0124756D01*
X0201214Y0124329D01*
X0200671Y0123786D01*
X0200244Y0123147D01*
X0199950Y0122438D01*
X0199800Y0121684D01*
X0199800Y0121600D01*
X0206000Y0121600D01*
X0206000Y0121000D01*
X0206600Y0121000D01*
X0206600Y0117400D01*
X0209284Y0117400D01*
X0210038Y0117550D01*
X0209340Y0117411D02*
X0390701Y0117411D01*
X0390701Y0116813D02*
X0005600Y0116813D01*
X0005600Y0117411D02*
X0148260Y0117411D01*
X0148316Y0117400D02*
X0151000Y0117400D01*
X0151000Y0121000D01*
X0151600Y0121000D01*
X0151600Y0121600D01*
X0151000Y0121600D01*
X0151000Y0125200D01*
X0148316Y0125200D01*
X0147562Y0125050D01*
X0146853Y0124756D01*
X0146214Y0124329D01*
X0145671Y0123786D01*
X0145244Y0123147D01*
X0144950Y0122438D01*
X0144800Y0121684D01*
X0144800Y0121600D01*
X0151000Y0121600D01*
X0151000Y0121000D01*
X0144800Y0121000D01*
X0144800Y0120916D01*
X0144950Y0120162D01*
X0145244Y0119453D01*
X0145671Y0118814D01*
X0146214Y0118271D01*
X0146853Y0117844D01*
X0147562Y0117550D01*
X0148316Y0117400D01*
X0146604Y0118010D02*
X0125102Y0118010D01*
X0124596Y0117800D02*
X0125883Y0118333D01*
X0126867Y0119317D01*
X0127400Y0120604D01*
X0127400Y0121996D01*
X0126867Y0123283D01*
X0125883Y0124267D01*
X0124596Y0124800D01*
X0118004Y0124800D01*
X0116717Y0124267D01*
X0115733Y0123283D01*
X0115200Y0121996D01*
X0115200Y0120604D01*
X0115733Y0119317D01*
X0116717Y0118333D01*
X0118004Y0117800D01*
X0124596Y0117800D01*
X0126158Y0118608D02*
X0145876Y0118608D01*
X0145408Y0119207D02*
X0126756Y0119207D01*
X0127069Y0119805D02*
X0145098Y0119805D01*
X0144902Y0120404D02*
X0127317Y0120404D01*
X0127400Y0121002D02*
X0151000Y0121002D01*
X0151000Y0120404D02*
X0151600Y0120404D01*
X0151600Y0121000D02*
X0151600Y0117400D01*
X0154284Y0117400D01*
X0155038Y0117550D01*
X0155747Y0117844D01*
X0156386Y0118271D01*
X0156929Y0118814D01*
X0157356Y0119453D01*
X0157650Y0120162D01*
X0157800Y0120916D01*
X0157800Y0121000D01*
X0151600Y0121000D01*
X0151600Y0121002D02*
X0206000Y0121002D01*
X0206000Y0121000D02*
X0199800Y0121000D01*
X0199800Y0120916D01*
X0199950Y0120162D01*
X0200244Y0119453D01*
X0200671Y0118814D01*
X0201214Y0118271D01*
X0201853Y0117844D01*
X0202562Y0117550D01*
X0203316Y0117400D01*
X0206000Y0117400D01*
X0206000Y0121000D01*
X0206000Y0120404D02*
X0206600Y0120404D01*
X0206600Y0121002D02*
X0230200Y0121002D01*
X0230200Y0120604D02*
X0230733Y0119317D01*
X0231717Y0118333D01*
X0233004Y0117800D01*
X0239596Y0117800D01*
X0240883Y0118333D01*
X0241867Y0119317D01*
X0242400Y0120604D01*
X0242400Y0121996D01*
X0241867Y0123283D01*
X0240883Y0124267D01*
X0239596Y0124800D01*
X0233004Y0124800D01*
X0231717Y0124267D01*
X0230733Y0123283D01*
X0230200Y0121996D01*
X0230200Y0120604D01*
X0230283Y0120404D02*
X0212698Y0120404D01*
X0212502Y0119805D02*
X0230531Y0119805D01*
X0230844Y0119207D02*
X0212192Y0119207D01*
X0211724Y0118608D02*
X0231442Y0118608D01*
X0232498Y0118010D02*
X0210996Y0118010D01*
X0212800Y0121600D02*
X0212800Y0121684D01*
X0212650Y0122438D01*
X0212356Y0123147D01*
X0211929Y0123786D01*
X0211386Y0124329D01*
X0210747Y0124756D01*
X0210038Y0125050D01*
X0209284Y0125200D01*
X0206600Y0125200D01*
X0206600Y0121600D01*
X0212800Y0121600D01*
X0212800Y0121601D02*
X0230200Y0121601D01*
X0230284Y0122199D02*
X0212698Y0122199D01*
X0212501Y0122798D02*
X0230532Y0122798D01*
X0230847Y0123396D02*
X0212190Y0123396D01*
X0211721Y0123995D02*
X0231445Y0123995D01*
X0232505Y0124593D02*
X0210991Y0124593D01*
X0209325Y0125192D02*
X0390701Y0125192D01*
X0390701Y0125790D02*
X0005600Y0125790D01*
X0005600Y0125192D02*
X0148275Y0125192D01*
X0146609Y0124593D02*
X0125095Y0124593D01*
X0126155Y0123995D02*
X0145879Y0123995D01*
X0145410Y0123396D02*
X0126753Y0123396D01*
X0127068Y0122798D02*
X0145099Y0122798D01*
X0144902Y0122199D02*
X0127316Y0122199D01*
X0127400Y0121601D02*
X0144800Y0121601D01*
X0151000Y0121601D02*
X0151600Y0121601D01*
X0151600Y0121600D02*
X0151600Y0125200D01*
X0154284Y0125200D01*
X0155038Y0125050D01*
X0155747Y0124756D01*
X0156386Y0124329D01*
X0156929Y0123786D01*
X0157356Y0123147D01*
X0157650Y0122438D01*
X0157800Y0121684D01*
X0157800Y0121600D01*
X0151600Y0121600D01*
X0151600Y0122199D02*
X0151000Y0122199D01*
X0151000Y0122798D02*
X0151600Y0122798D01*
X0151600Y0123396D02*
X0151000Y0123396D01*
X0151000Y0123995D02*
X0151600Y0123995D01*
X0151600Y0124593D02*
X0151000Y0124593D01*
X0151000Y0125192D02*
X0151600Y0125192D01*
X0154325Y0125192D02*
X0203275Y0125192D01*
X0201609Y0124593D02*
X0155991Y0124593D01*
X0156721Y0123995D02*
X0200879Y0123995D01*
X0200410Y0123396D02*
X0157190Y0123396D01*
X0157501Y0122798D02*
X0200099Y0122798D01*
X0199902Y0122199D02*
X0157698Y0122199D01*
X0157800Y0121601D02*
X0199800Y0121601D01*
X0199902Y0120404D02*
X0157698Y0120404D01*
X0157502Y0119805D02*
X0200098Y0119805D01*
X0200408Y0119207D02*
X0157192Y0119207D01*
X0156724Y0118608D02*
X0200876Y0118608D01*
X0201604Y0118010D02*
X0155996Y0118010D01*
X0154340Y0117411D02*
X0203260Y0117411D01*
X0206000Y0117411D02*
X0206600Y0117411D01*
X0206600Y0118010D02*
X0206000Y0118010D01*
X0206000Y0118608D02*
X0206600Y0118608D01*
X0206600Y0119207D02*
X0206000Y0119207D01*
X0206000Y0119805D02*
X0206600Y0119805D01*
X0206600Y0121601D02*
X0206000Y0121601D01*
X0206000Y0122199D02*
X0206600Y0122199D01*
X0206600Y0122798D02*
X0206000Y0122798D01*
X0206000Y0123396D02*
X0206600Y0123396D01*
X0206600Y0123995D02*
X0206000Y0123995D01*
X0206000Y0124593D02*
X0206600Y0124593D01*
X0206600Y0125192D02*
X0206000Y0125192D01*
X0203004Y0127800D02*
X0201717Y0128333D01*
X0200733Y0129317D01*
X0200200Y0130604D01*
X0200200Y0131996D01*
X0200733Y0133283D01*
X0201717Y0134267D01*
X0203004Y0134800D01*
X0209596Y0134800D01*
X0210883Y0134267D01*
X0211867Y0133283D01*
X0212400Y0131996D01*
X0212400Y0130604D01*
X0211867Y0129317D01*
X0210883Y0128333D01*
X0209596Y0127800D01*
X0203004Y0127800D01*
X0202076Y0128184D02*
X0155524Y0128184D01*
X0155883Y0128333D02*
X0156867Y0129317D01*
X0157400Y0130604D01*
X0157400Y0131996D01*
X0156867Y0133283D01*
X0155883Y0134267D01*
X0154596Y0134800D01*
X0148004Y0134800D01*
X0146717Y0134267D01*
X0145733Y0133283D01*
X0145200Y0131996D01*
X0145200Y0130604D01*
X0145733Y0129317D01*
X0146717Y0128333D01*
X0148004Y0127800D01*
X0154596Y0127800D01*
X0155883Y0128333D01*
X0156333Y0128783D02*
X0201267Y0128783D01*
X0200706Y0129381D02*
X0156894Y0129381D01*
X0157142Y0129980D02*
X0200458Y0129980D01*
X0200210Y0130578D02*
X0157389Y0130578D01*
X0157400Y0131177D02*
X0200200Y0131177D01*
X0200200Y0131775D02*
X0157400Y0131775D01*
X0157244Y0132374D02*
X0200356Y0132374D01*
X0200604Y0132972D02*
X0156996Y0132972D01*
X0156579Y0133571D02*
X0201021Y0133571D01*
X0201620Y0134170D02*
X0155980Y0134170D01*
X0154673Y0134768D02*
X0202927Y0134768D01*
X0203004Y0137800D02*
X0201717Y0138333D01*
X0200733Y0139317D01*
X0200200Y0140604D01*
X0200200Y0141996D01*
X0200733Y0143283D01*
X0201717Y0144267D01*
X0203004Y0144800D01*
X0209596Y0144800D01*
X0210883Y0144267D01*
X0211867Y0143283D01*
X0212400Y0141996D01*
X0212400Y0140604D01*
X0211867Y0139317D01*
X0210883Y0138333D01*
X0209596Y0137800D01*
X0203004Y0137800D01*
X0201691Y0138359D02*
X0155909Y0138359D01*
X0155883Y0138333D02*
X0156867Y0139317D01*
X0157400Y0140604D01*
X0157400Y0141996D01*
X0156867Y0143283D01*
X0155883Y0144267D01*
X0154596Y0144800D01*
X0148004Y0144800D01*
X0146717Y0144267D01*
X0145733Y0143283D01*
X0145200Y0141996D01*
X0145200Y0140604D01*
X0145733Y0139317D01*
X0146717Y0138333D01*
X0148004Y0137800D01*
X0154596Y0137800D01*
X0155883Y0138333D01*
X0156507Y0138958D02*
X0201093Y0138958D01*
X0200634Y0139556D02*
X0156966Y0139556D01*
X0157214Y0140155D02*
X0200386Y0140155D01*
X0200200Y0140753D02*
X0157400Y0140753D01*
X0157400Y0141352D02*
X0200200Y0141352D01*
X0200200Y0141950D02*
X0157400Y0141950D01*
X0157171Y0142549D02*
X0200429Y0142549D01*
X0200677Y0143147D02*
X0156923Y0143147D01*
X0156404Y0143746D02*
X0201196Y0143746D01*
X0201903Y0144344D02*
X0155697Y0144344D01*
X0154596Y0147800D02*
X0155883Y0148333D01*
X0156867Y0149317D01*
X0157400Y0150604D01*
X0157400Y0151996D01*
X0156867Y0153283D01*
X0155883Y0154267D01*
X0154596Y0154800D01*
X0148004Y0154800D01*
X0146717Y0154267D01*
X0145733Y0153283D01*
X0145200Y0151996D01*
X0145200Y0150604D01*
X0145733Y0149317D01*
X0146717Y0148333D01*
X0148004Y0147800D01*
X0154596Y0147800D01*
X0154923Y0147935D02*
X0202677Y0147935D01*
X0203004Y0147800D02*
X0201717Y0148333D01*
X0200733Y0149317D01*
X0200200Y0150604D01*
X0200200Y0151996D01*
X0200733Y0153283D01*
X0201717Y0154267D01*
X0203004Y0154800D01*
X0209596Y0154800D01*
X0210883Y0154267D01*
X0211867Y0153283D01*
X0212400Y0151996D01*
X0212400Y0150604D01*
X0211867Y0149317D01*
X0210883Y0148333D01*
X0209596Y0147800D01*
X0203004Y0147800D01*
X0201516Y0148534D02*
X0156084Y0148534D01*
X0156682Y0149132D02*
X0200918Y0149132D01*
X0200562Y0149731D02*
X0157038Y0149731D01*
X0157286Y0150329D02*
X0200314Y0150329D01*
X0200200Y0150928D02*
X0157400Y0150928D01*
X0157400Y0151526D02*
X0200200Y0151526D01*
X0200253Y0152125D02*
X0157347Y0152125D01*
X0157099Y0152723D02*
X0200501Y0152723D01*
X0200772Y0153322D02*
X0156828Y0153322D01*
X0156229Y0153920D02*
X0201371Y0153920D01*
X0202325Y0154519D02*
X0155275Y0154519D01*
X0154596Y0157800D02*
X0155883Y0158333D01*
X0156867Y0159317D01*
X0157400Y0160604D01*
X0157400Y0161996D01*
X0156867Y0163283D01*
X0155883Y0164267D01*
X0154596Y0164800D01*
X0148004Y0164800D01*
X0146717Y0164267D01*
X0145733Y0163283D01*
X0145200Y0161996D01*
X0145200Y0160604D01*
X0145733Y0159317D01*
X0146717Y0158333D01*
X0148004Y0157800D01*
X0154596Y0157800D01*
X0155345Y0158110D02*
X0202255Y0158110D01*
X0201717Y0158333D02*
X0203004Y0157800D01*
X0209596Y0157800D01*
X0210883Y0158333D01*
X0211867Y0159317D01*
X0212400Y0160604D01*
X0212400Y0161996D01*
X0211867Y0163283D01*
X0210883Y0164267D01*
X0209596Y0164800D01*
X0203004Y0164800D01*
X0201717Y0164267D01*
X0200733Y0163283D01*
X0200200Y0161996D01*
X0200200Y0160604D01*
X0200733Y0159317D01*
X0201717Y0158333D01*
X0201342Y0158708D02*
X0156258Y0158708D01*
X0156857Y0159307D02*
X0200743Y0159307D01*
X0200489Y0159905D02*
X0157111Y0159905D01*
X0157359Y0160504D02*
X0200241Y0160504D01*
X0200200Y0161103D02*
X0157400Y0161103D01*
X0157400Y0161701D02*
X0200200Y0161701D01*
X0200326Y0162300D02*
X0157274Y0162300D01*
X0157026Y0162898D02*
X0200574Y0162898D01*
X0200947Y0163497D02*
X0156653Y0163497D01*
X0156055Y0164095D02*
X0201545Y0164095D01*
X0202747Y0164694D02*
X0154853Y0164694D01*
X0154596Y0167800D02*
X0148004Y0167800D01*
X0146717Y0168333D01*
X0145733Y0169317D01*
X0145200Y0170604D01*
X0145200Y0171996D01*
X0145733Y0173283D01*
X0146717Y0174267D01*
X0148004Y0174800D01*
X0154596Y0174800D01*
X0155883Y0174267D01*
X0156867Y0173283D01*
X0157400Y0171996D01*
X0157400Y0170604D01*
X0156867Y0169317D01*
X0155883Y0168333D01*
X0154596Y0167800D01*
X0155766Y0168285D02*
X0201834Y0168285D01*
X0201717Y0168333D02*
X0203004Y0167800D01*
X0209596Y0167800D01*
X0210883Y0168333D01*
X0211867Y0169317D01*
X0212400Y0170604D01*
X0212400Y0171996D01*
X0211867Y0173283D01*
X0210883Y0174267D01*
X0209596Y0174800D01*
X0203004Y0174800D01*
X0201717Y0174267D01*
X0200733Y0173283D01*
X0200200Y0171996D01*
X0200200Y0170604D01*
X0200733Y0169317D01*
X0201717Y0168333D01*
X0201167Y0168883D02*
X0156433Y0168883D01*
X0156935Y0169482D02*
X0200665Y0169482D01*
X0200417Y0170080D02*
X0157183Y0170080D01*
X0157400Y0170679D02*
X0200200Y0170679D01*
X0200200Y0171277D02*
X0157400Y0171277D01*
X0157400Y0171876D02*
X0200200Y0171876D01*
X0200398Y0172474D02*
X0157202Y0172474D01*
X0156954Y0173073D02*
X0200646Y0173073D01*
X0201122Y0173671D02*
X0156478Y0173671D01*
X0155876Y0174270D02*
X0201724Y0174270D01*
X0203004Y0177800D02*
X0201717Y0178333D01*
X0200733Y0179317D01*
X0200200Y0180604D01*
X0200200Y0181996D01*
X0200733Y0183283D01*
X0201717Y0184267D01*
X0203004Y0184800D01*
X0209596Y0184800D01*
X0210883Y0184267D01*
X0211867Y0183283D01*
X0212400Y0181996D01*
X0212400Y0180604D01*
X0211867Y0179317D01*
X0210883Y0178333D01*
X0209596Y0177800D01*
X0203004Y0177800D01*
X0202857Y0177861D02*
X0154743Y0177861D01*
X0154596Y0177800D02*
X0155883Y0178333D01*
X0156867Y0179317D01*
X0157400Y0180604D01*
X0157400Y0181996D01*
X0156867Y0183283D01*
X0155923Y0184226D01*
X0236797Y0265100D01*
X0237500Y0265803D01*
X0237500Y0371818D01*
X0238906Y0372400D01*
X0240200Y0373694D01*
X0240900Y0375385D01*
X0240900Y0376700D01*
X0241700Y0375900D01*
X0241700Y0375385D01*
X0242400Y0373694D01*
X0243694Y0372400D01*
X0245385Y0371700D01*
X0247215Y0371700D01*
X0248906Y0372400D01*
X0250200Y0373694D01*
X0250900Y0375385D01*
X0250900Y0377215D01*
X0250200Y0378906D01*
X0248906Y0380200D01*
X0247215Y0380900D01*
X0245385Y0380900D01*
X0243694Y0380200D01*
X0242400Y0378906D01*
X0242309Y0378685D01*
X0237294Y0383700D01*
X0225498Y0383700D01*
X0224795Y0382997D01*
X0220500Y0378702D01*
X0220500Y0378181D01*
X0220200Y0378906D01*
X0218906Y0380200D01*
X0217215Y0380900D01*
X0215385Y0380900D01*
X0213694Y0380200D01*
X0212400Y0378906D01*
X0211700Y0377215D01*
X0211700Y0375385D01*
X0212400Y0373694D01*
X0213694Y0372400D01*
X0215385Y0371700D01*
X0217215Y0371700D01*
X0218906Y0372400D01*
X0220200Y0373694D01*
X0220500Y0374419D01*
X0220500Y0262197D01*
X0153103Y0194800D01*
X0148004Y0194800D01*
X0146717Y0194267D01*
X0145733Y0193283D01*
X0145200Y0191996D01*
X0145200Y0190604D01*
X0145733Y0189317D01*
X0146717Y0188333D01*
X0148004Y0187800D01*
X0154596Y0187800D01*
X0155883Y0188333D01*
X0156867Y0189317D01*
X0157400Y0190604D01*
X0157400Y0191996D01*
X0156867Y0193283D01*
X0155923Y0194226D01*
X0222197Y0260500D01*
X0222900Y0261203D01*
X0222900Y0373195D01*
X0223694Y0372400D01*
X0225385Y0371700D01*
X0227215Y0371700D01*
X0228906Y0372400D01*
X0230200Y0373694D01*
X0230500Y0374419D01*
X0230500Y0373898D01*
X0231203Y0373195D01*
X0233898Y0370500D01*
X0235100Y0370500D01*
X0235100Y0266797D01*
X0153103Y0184800D01*
X0148004Y0184800D01*
X0146717Y0184267D01*
X0145733Y0183283D01*
X0145200Y0181996D01*
X0145200Y0180604D01*
X0145733Y0179317D01*
X0146717Y0178333D01*
X0148004Y0177800D01*
X0154596Y0177800D01*
X0156009Y0178459D02*
X0201591Y0178459D01*
X0200992Y0179058D02*
X0156608Y0179058D01*
X0157008Y0179656D02*
X0200592Y0179656D01*
X0200345Y0180255D02*
X0157255Y0180255D01*
X0157400Y0180853D02*
X0200200Y0180853D01*
X0200200Y0181452D02*
X0157400Y0181452D01*
X0157378Y0182050D02*
X0200222Y0182050D01*
X0200470Y0182649D02*
X0157130Y0182649D01*
X0156882Y0183247D02*
X0200718Y0183247D01*
X0201296Y0183846D02*
X0156304Y0183846D01*
X0156141Y0184444D02*
X0202145Y0184444D01*
X0203004Y0187800D02*
X0201717Y0188333D01*
X0200733Y0189317D01*
X0200200Y0190604D01*
X0200200Y0191996D01*
X0200733Y0193283D01*
X0201717Y0194267D01*
X0203004Y0194800D01*
X0209596Y0194800D01*
X0210883Y0194267D01*
X0211867Y0193283D01*
X0212400Y0191996D01*
X0212400Y0190604D01*
X0211867Y0189317D01*
X0210883Y0188333D01*
X0209596Y0187800D01*
X0203004Y0187800D01*
X0202435Y0188036D02*
X0159733Y0188036D01*
X0160331Y0188634D02*
X0201416Y0188634D01*
X0200818Y0189233D02*
X0160930Y0189233D01*
X0161528Y0189831D02*
X0200520Y0189831D01*
X0200272Y0190430D02*
X0162127Y0190430D01*
X0162725Y0191028D02*
X0200200Y0191028D01*
X0200200Y0191627D02*
X0163324Y0191627D01*
X0163922Y0192225D02*
X0200295Y0192225D01*
X0200543Y0192824D02*
X0164521Y0192824D01*
X0165119Y0193422D02*
X0200872Y0193422D01*
X0201471Y0194021D02*
X0165718Y0194021D01*
X0166316Y0194619D02*
X0202567Y0194619D01*
X0203004Y0197800D02*
X0201717Y0198333D01*
X0200733Y0199317D01*
X0200200Y0200604D01*
X0200200Y0201996D01*
X0200733Y0203283D01*
X0201717Y0204267D01*
X0203004Y0204800D01*
X0209596Y0204800D01*
X0210883Y0204267D01*
X0211867Y0203283D01*
X0212400Y0201996D01*
X0212400Y0200604D01*
X0211867Y0199317D01*
X0210883Y0198333D01*
X0209596Y0197800D01*
X0203004Y0197800D01*
X0202013Y0198210D02*
X0169907Y0198210D01*
X0169309Y0197612D02*
X0390701Y0197612D01*
X0390701Y0198210D02*
X0240587Y0198210D01*
X0240883Y0198333D02*
X0241867Y0199317D01*
X0242400Y0200604D01*
X0242400Y0201996D01*
X0241867Y0203283D01*
X0240883Y0204267D01*
X0239596Y0204800D01*
X0233004Y0204800D01*
X0231717Y0204267D01*
X0230733Y0203283D01*
X0230200Y0201996D01*
X0230200Y0200604D01*
X0230733Y0199317D01*
X0231717Y0198333D01*
X0233004Y0197800D01*
X0239596Y0197800D01*
X0240883Y0198333D01*
X0241358Y0198809D02*
X0269434Y0198809D01*
X0269555Y0198688D02*
X0268688Y0199555D01*
X0268219Y0200687D01*
X0268219Y0201913D01*
X0268688Y0203045D01*
X0269555Y0203912D01*
X0270687Y0204381D01*
X0271913Y0204381D01*
X0273045Y0203912D01*
X0273912Y0203045D01*
X0274381Y0201913D01*
X0274381Y0200687D01*
X0273912Y0199555D01*
X0273045Y0198688D01*
X0271913Y0198219D01*
X0270687Y0198219D01*
X0269555Y0198688D01*
X0268835Y0199407D02*
X0241904Y0199407D01*
X0242152Y0200006D02*
X0268501Y0200006D01*
X0268253Y0200604D02*
X0242400Y0200604D01*
X0242400Y0201203D02*
X0268219Y0201203D01*
X0268219Y0201801D02*
X0242400Y0201801D01*
X0242233Y0202400D02*
X0268421Y0202400D01*
X0268669Y0202998D02*
X0241985Y0202998D01*
X0241553Y0203597D02*
X0269239Y0203597D01*
X0270239Y0204195D02*
X0240954Y0204195D01*
X0239611Y0204794D02*
X0390701Y0204794D01*
X0390701Y0205392D02*
X0177089Y0205392D01*
X0176491Y0204794D02*
X0202989Y0204794D01*
X0201646Y0204195D02*
X0175892Y0204195D01*
X0175294Y0203597D02*
X0201047Y0203597D01*
X0200615Y0202998D02*
X0174695Y0202998D01*
X0174097Y0202400D02*
X0200367Y0202400D01*
X0200200Y0201801D02*
X0173498Y0201801D01*
X0172900Y0201203D02*
X0200200Y0201203D01*
X0200200Y0200604D02*
X0172301Y0200604D01*
X0171703Y0200006D02*
X0200448Y0200006D01*
X0200696Y0199407D02*
X0171104Y0199407D01*
X0170506Y0198809D02*
X0201242Y0198809D01*
X0203004Y0207800D02*
X0201717Y0208333D01*
X0200733Y0209317D01*
X0200200Y0210604D01*
X0200200Y0211996D01*
X0200733Y0213283D01*
X0201717Y0214267D01*
X0203004Y0214800D01*
X0209596Y0214800D01*
X0210883Y0214267D01*
X0211867Y0213283D01*
X0212400Y0211996D01*
X0212400Y0210604D01*
X0211867Y0209317D01*
X0210883Y0208333D01*
X0209596Y0207800D01*
X0203004Y0207800D01*
X0201665Y0208385D02*
X0180082Y0208385D01*
X0180680Y0208983D02*
X0201067Y0208983D01*
X0200623Y0209582D02*
X0181279Y0209582D01*
X0181877Y0210180D02*
X0200375Y0210180D01*
X0200200Y0210779D02*
X0182476Y0210779D01*
X0183075Y0211377D02*
X0200200Y0211377D01*
X0200200Y0211976D02*
X0183673Y0211976D01*
X0184272Y0212574D02*
X0200440Y0212574D01*
X0200687Y0213173D02*
X0184870Y0213173D01*
X0185469Y0213772D02*
X0201222Y0213772D01*
X0201966Y0214370D02*
X0186067Y0214370D01*
X0186666Y0214969D02*
X0390701Y0214969D01*
X0390701Y0215567D02*
X0187264Y0215567D01*
X0187863Y0216166D02*
X0390701Y0216166D01*
X0390701Y0216764D02*
X0188461Y0216764D01*
X0189060Y0217363D02*
X0390701Y0217363D01*
X0390701Y0217961D02*
X0189658Y0217961D01*
X0190257Y0218560D02*
X0390701Y0218560D01*
X0390701Y0219158D02*
X0190855Y0219158D01*
X0191454Y0219757D02*
X0390701Y0219757D01*
X0390701Y0220355D02*
X0192052Y0220355D01*
X0192651Y0220954D02*
X0390701Y0220954D01*
X0390701Y0221552D02*
X0193249Y0221552D01*
X0193848Y0222151D02*
X0390701Y0222151D01*
X0390701Y0222749D02*
X0194446Y0222749D01*
X0195045Y0223348D02*
X0390701Y0223348D01*
X0390701Y0223946D02*
X0195643Y0223946D01*
X0196242Y0224545D02*
X0390701Y0224545D01*
X0390701Y0225143D02*
X0196840Y0225143D01*
X0197439Y0225742D02*
X0390701Y0225742D01*
X0390701Y0226340D02*
X0198037Y0226340D01*
X0198636Y0226939D02*
X0390701Y0226939D01*
X0390701Y0227537D02*
X0199234Y0227537D01*
X0199833Y0228136D02*
X0390701Y0228136D01*
X0390701Y0228734D02*
X0200431Y0228734D01*
X0201030Y0229333D02*
X0390701Y0229333D01*
X0390701Y0229931D02*
X0201628Y0229931D01*
X0202227Y0230530D02*
X0390701Y0230530D01*
X0390701Y0231128D02*
X0202825Y0231128D01*
X0203424Y0231727D02*
X0255320Y0231727D01*
X0255385Y0231700D02*
X0257215Y0231700D01*
X0258906Y0232400D01*
X0260200Y0233694D01*
X0260900Y0235385D01*
X0260900Y0237215D01*
X0260200Y0238906D01*
X0258906Y0240200D01*
X0257215Y0240900D01*
X0255385Y0240900D01*
X0253694Y0240200D01*
X0252400Y0238906D01*
X0251700Y0237215D01*
X0251700Y0235385D01*
X0252400Y0233694D01*
X0253694Y0232400D01*
X0255385Y0231700D01*
X0253875Y0232325D02*
X0204022Y0232325D01*
X0204621Y0232924D02*
X0253171Y0232924D01*
X0252572Y0233522D02*
X0205219Y0233522D01*
X0205818Y0234121D02*
X0252224Y0234121D01*
X0251976Y0234719D02*
X0206416Y0234719D01*
X0207015Y0235318D02*
X0251728Y0235318D01*
X0251700Y0235916D02*
X0207613Y0235916D01*
X0208212Y0236515D02*
X0251700Y0236515D01*
X0251700Y0237113D02*
X0208810Y0237113D01*
X0209409Y0237712D02*
X0251906Y0237712D01*
X0252154Y0238310D02*
X0210008Y0238310D01*
X0210606Y0238909D02*
X0252404Y0238909D01*
X0253002Y0239508D02*
X0211205Y0239508D01*
X0211803Y0240106D02*
X0253601Y0240106D01*
X0254913Y0240705D02*
X0212402Y0240705D01*
X0213000Y0241303D02*
X0390701Y0241303D01*
X0390701Y0240705D02*
X0257687Y0240705D01*
X0257215Y0241700D02*
X0258906Y0242400D01*
X0260200Y0243694D01*
X0260900Y0245385D01*
X0260900Y0247215D01*
X0260200Y0248906D01*
X0258906Y0250200D01*
X0257215Y0250900D01*
X0255385Y0250900D01*
X0253694Y0250200D01*
X0252400Y0248906D01*
X0251700Y0247215D01*
X0251700Y0245385D01*
X0252400Y0243694D01*
X0253694Y0242400D01*
X0255385Y0241700D01*
X0257215Y0241700D01*
X0257702Y0241902D02*
X0390701Y0241902D01*
X0390701Y0242500D02*
X0259005Y0242500D01*
X0259604Y0243099D02*
X0390701Y0243099D01*
X0390701Y0243697D02*
X0260201Y0243697D01*
X0260449Y0244296D02*
X0390701Y0244296D01*
X0390701Y0244894D02*
X0260697Y0244894D01*
X0260900Y0245493D02*
X0390701Y0245493D01*
X0390701Y0246091D02*
X0260900Y0246091D01*
X0260900Y0246690D02*
X0390701Y0246690D01*
X0390701Y0247288D02*
X0260870Y0247288D01*
X0260622Y0247887D02*
X0390701Y0247887D01*
X0390701Y0248485D02*
X0260374Y0248485D01*
X0260022Y0249084D02*
X0390701Y0249084D01*
X0390701Y0249682D02*
X0259423Y0249682D01*
X0258710Y0250281D02*
X0390701Y0250281D01*
X0390701Y0250879D02*
X0257265Y0250879D01*
X0257471Y0251423D02*
X0258219Y0251666D01*
X0258921Y0252024D01*
X0259557Y0252486D01*
X0260114Y0253043D01*
X0260576Y0253679D01*
X0260934Y0254381D01*
X0261177Y0255129D01*
X0261300Y0255906D01*
X0261300Y0256000D01*
X0256600Y0256000D01*
X0256600Y0256600D01*
X0261300Y0256600D01*
X0261300Y0256694D01*
X0261177Y0257471D01*
X0260934Y0258219D01*
X0260576Y0258921D01*
X0260114Y0259557D01*
X0259557Y0260114D01*
X0258921Y0260576D01*
X0258219Y0260934D01*
X0257471Y0261177D01*
X0256694Y0261300D01*
X0256600Y0261300D01*
X0256600Y0256600D01*
X0256000Y0256600D01*
X0256000Y0261300D01*
X0255906Y0261300D01*
X0255129Y0261177D01*
X0254381Y0260934D01*
X0253679Y0260576D01*
X0253043Y0260114D01*
X0252486Y0259557D01*
X0252024Y0258921D01*
X0251666Y0258219D01*
X0251423Y0257471D01*
X0251300Y0256694D01*
X0251300Y0256600D01*
X0256000Y0256600D01*
X0256000Y0256000D01*
X0256600Y0256000D01*
X0256600Y0251300D01*
X0256694Y0251300D01*
X0257471Y0251423D01*
X0257639Y0251478D02*
X0390701Y0251478D01*
X0390701Y0252076D02*
X0258993Y0252076D01*
X0259746Y0252675D02*
X0390701Y0252675D01*
X0390701Y0253273D02*
X0260281Y0253273D01*
X0260674Y0253872D02*
X0390701Y0253872D01*
X0390701Y0254470D02*
X0260963Y0254470D01*
X0261157Y0255069D02*
X0390701Y0255069D01*
X0390701Y0255667D02*
X0261262Y0255667D01*
X0261273Y0256864D02*
X0390701Y0256864D01*
X0390701Y0256266D02*
X0256600Y0256266D01*
X0256600Y0256864D02*
X0256000Y0256864D01*
X0256000Y0256266D02*
X0227963Y0256266D01*
X0228561Y0256864D02*
X0251327Y0256864D01*
X0251422Y0257463D02*
X0229160Y0257463D01*
X0229758Y0258061D02*
X0251615Y0258061D01*
X0251891Y0258660D02*
X0230357Y0258660D01*
X0230955Y0259258D02*
X0252269Y0259258D01*
X0252786Y0259857D02*
X0231554Y0259857D01*
X0232152Y0260455D02*
X0253513Y0260455D01*
X0254751Y0261054D02*
X0232751Y0261054D01*
X0233349Y0261652D02*
X0390701Y0261652D01*
X0390701Y0261054D02*
X0257849Y0261054D01*
X0257215Y0261700D02*
X0258906Y0262400D01*
X0260200Y0263694D01*
X0260900Y0265385D01*
X0260900Y0267215D01*
X0260200Y0268906D01*
X0258906Y0270200D01*
X0257215Y0270900D01*
X0255385Y0270900D01*
X0253694Y0270200D01*
X0252400Y0268906D01*
X0251700Y0267215D01*
X0251700Y0265385D01*
X0252400Y0263694D01*
X0253694Y0262400D01*
X0255385Y0261700D01*
X0257215Y0261700D01*
X0256600Y0261054D02*
X0256000Y0261054D01*
X0256000Y0260455D02*
X0256600Y0260455D01*
X0256600Y0259857D02*
X0256000Y0259857D01*
X0256000Y0259258D02*
X0256600Y0259258D01*
X0256600Y0258660D02*
X0256000Y0258660D01*
X0256000Y0258061D02*
X0256600Y0258061D01*
X0256600Y0257463D02*
X0256000Y0257463D01*
X0256000Y0256000D02*
X0251300Y0256000D01*
X0251300Y0255906D01*
X0251423Y0255129D01*
X0251666Y0254381D01*
X0252024Y0253679D01*
X0252486Y0253043D01*
X0253043Y0252486D01*
X0253679Y0252024D01*
X0254381Y0251666D01*
X0255129Y0251423D01*
X0255906Y0251300D01*
X0256000Y0251300D01*
X0256000Y0256000D01*
X0256000Y0255667D02*
X0256600Y0255667D01*
X0256600Y0255069D02*
X0256000Y0255069D01*
X0256000Y0254470D02*
X0256600Y0254470D01*
X0256600Y0253872D02*
X0256000Y0253872D01*
X0256000Y0253273D02*
X0256600Y0253273D01*
X0256600Y0252675D02*
X0256000Y0252675D01*
X0256000Y0252076D02*
X0256600Y0252076D01*
X0256600Y0251478D02*
X0256000Y0251478D01*
X0255335Y0250879D02*
X0222576Y0250879D01*
X0221978Y0250281D02*
X0253890Y0250281D01*
X0253177Y0249682D02*
X0221379Y0249682D01*
X0220781Y0249084D02*
X0252578Y0249084D01*
X0252226Y0248485D02*
X0220182Y0248485D01*
X0219584Y0247887D02*
X0251978Y0247887D01*
X0251730Y0247288D02*
X0218985Y0247288D01*
X0218387Y0246690D02*
X0251700Y0246690D01*
X0251700Y0246091D02*
X0217788Y0246091D01*
X0217190Y0245493D02*
X0251700Y0245493D01*
X0251903Y0244894D02*
X0216591Y0244894D01*
X0215993Y0244296D02*
X0252151Y0244296D01*
X0252399Y0243697D02*
X0215394Y0243697D01*
X0214796Y0243099D02*
X0252996Y0243099D01*
X0253595Y0242500D02*
X0214197Y0242500D01*
X0213599Y0241902D02*
X0254898Y0241902D01*
X0258999Y0240106D02*
X0390701Y0240106D01*
X0390701Y0239508D02*
X0259598Y0239508D01*
X0260196Y0238909D02*
X0390701Y0238909D01*
X0390701Y0238310D02*
X0260446Y0238310D01*
X0260694Y0237712D02*
X0390701Y0237712D01*
X0390701Y0237113D02*
X0260900Y0237113D01*
X0260900Y0236515D02*
X0390701Y0236515D01*
X0390701Y0235916D02*
X0260900Y0235916D01*
X0260872Y0235318D02*
X0390701Y0235318D01*
X0390701Y0234719D02*
X0260624Y0234719D01*
X0260376Y0234121D02*
X0390701Y0234121D01*
X0390701Y0233522D02*
X0260028Y0233522D01*
X0259429Y0232924D02*
X0390701Y0232924D01*
X0390701Y0232325D02*
X0258725Y0232325D01*
X0257280Y0231727D02*
X0390701Y0231727D01*
X0390701Y0214370D02*
X0240634Y0214370D01*
X0240883Y0214267D02*
X0239596Y0214800D01*
X0233004Y0214800D01*
X0231717Y0214267D01*
X0230733Y0213283D01*
X0230200Y0211996D01*
X0230200Y0210604D01*
X0230733Y0209317D01*
X0231717Y0208333D01*
X0233004Y0207800D01*
X0239596Y0207800D01*
X0240883Y0208333D01*
X0241867Y0209317D01*
X0242400Y0210604D01*
X0242400Y0211996D01*
X0241867Y0213283D01*
X0240883Y0214267D01*
X0241378Y0213772D02*
X0390701Y0213772D01*
X0390701Y0213173D02*
X0241913Y0213173D01*
X0242160Y0212574D02*
X0390701Y0212574D01*
X0390701Y0211976D02*
X0242400Y0211976D01*
X0242400Y0211377D02*
X0390701Y0211377D01*
X0390701Y0210779D02*
X0242400Y0210779D01*
X0242225Y0210180D02*
X0390701Y0210180D01*
X0390701Y0209582D02*
X0241977Y0209582D01*
X0241533Y0208983D02*
X0390701Y0208983D01*
X0390701Y0208385D02*
X0240935Y0208385D01*
X0232989Y0204794D02*
X0209611Y0204794D01*
X0210954Y0204195D02*
X0231646Y0204195D01*
X0231047Y0203597D02*
X0211553Y0203597D01*
X0211985Y0202998D02*
X0230615Y0202998D01*
X0230367Y0202400D02*
X0212233Y0202400D01*
X0212400Y0201801D02*
X0230200Y0201801D01*
X0230200Y0201203D02*
X0212400Y0201203D01*
X0212400Y0200604D02*
X0230200Y0200604D01*
X0230448Y0200006D02*
X0212152Y0200006D01*
X0211904Y0199407D02*
X0230696Y0199407D01*
X0231242Y0198809D02*
X0211358Y0198809D01*
X0210587Y0198210D02*
X0232013Y0198210D01*
X0233004Y0194800D02*
X0231717Y0194267D01*
X0230733Y0193283D01*
X0230200Y0191996D01*
X0230200Y0190604D01*
X0230733Y0189317D01*
X0231717Y0188333D01*
X0233004Y0187800D01*
X0239596Y0187800D01*
X0240883Y0188333D01*
X0241867Y0189317D01*
X0242400Y0190604D01*
X0242400Y0191996D01*
X0241867Y0193283D01*
X0240883Y0194267D01*
X0239596Y0194800D01*
X0233004Y0194800D01*
X0232567Y0194619D02*
X0210033Y0194619D01*
X0211129Y0194021D02*
X0231471Y0194021D01*
X0230872Y0193422D02*
X0211728Y0193422D01*
X0212057Y0192824D02*
X0230543Y0192824D01*
X0230295Y0192225D02*
X0212305Y0192225D01*
X0212400Y0191627D02*
X0230200Y0191627D01*
X0230200Y0191028D02*
X0212400Y0191028D01*
X0212328Y0190430D02*
X0230272Y0190430D01*
X0230520Y0189831D02*
X0212080Y0189831D01*
X0211782Y0189233D02*
X0230818Y0189233D01*
X0231416Y0188634D02*
X0211184Y0188634D01*
X0210165Y0188036D02*
X0232435Y0188036D01*
X0233004Y0184800D02*
X0231717Y0184267D01*
X0230733Y0183283D01*
X0230200Y0181996D01*
X0230200Y0180604D01*
X0230733Y0179317D01*
X0231717Y0178333D01*
X0233004Y0177800D01*
X0239596Y0177800D01*
X0240883Y0178333D01*
X0241867Y0179317D01*
X0242400Y0180604D01*
X0242400Y0181996D01*
X0241867Y0183283D01*
X0240883Y0184267D01*
X0239596Y0184800D01*
X0233004Y0184800D01*
X0232145Y0184444D02*
X0210455Y0184444D01*
X0211304Y0183846D02*
X0231296Y0183846D01*
X0230718Y0183247D02*
X0211882Y0183247D01*
X0212130Y0182649D02*
X0230470Y0182649D01*
X0230222Y0182050D02*
X0212378Y0182050D01*
X0212400Y0181452D02*
X0230200Y0181452D01*
X0230200Y0180853D02*
X0212400Y0180853D01*
X0212255Y0180255D02*
X0230345Y0180255D01*
X0230592Y0179656D02*
X0212008Y0179656D01*
X0211608Y0179058D02*
X0230992Y0179058D01*
X0231591Y0178459D02*
X0211009Y0178459D01*
X0209743Y0177861D02*
X0232857Y0177861D01*
X0233004Y0174800D02*
X0231717Y0174267D01*
X0230733Y0173283D01*
X0230200Y0171996D01*
X0230200Y0170604D01*
X0230733Y0169317D01*
X0231717Y0168333D01*
X0233004Y0167800D01*
X0239596Y0167800D01*
X0240883Y0168333D01*
X0241867Y0169317D01*
X0242400Y0170604D01*
X0242400Y0171996D01*
X0241867Y0173283D01*
X0240883Y0174267D01*
X0239596Y0174800D01*
X0233004Y0174800D01*
X0231724Y0174270D02*
X0210876Y0174270D01*
X0211478Y0173671D02*
X0231122Y0173671D01*
X0230646Y0173073D02*
X0211954Y0173073D01*
X0212202Y0172474D02*
X0230398Y0172474D01*
X0230200Y0171876D02*
X0212400Y0171876D01*
X0212400Y0171277D02*
X0230200Y0171277D01*
X0230200Y0170679D02*
X0212400Y0170679D01*
X0212183Y0170080D02*
X0230417Y0170080D01*
X0230665Y0169482D02*
X0211935Y0169482D01*
X0211433Y0168883D02*
X0231167Y0168883D01*
X0231834Y0168285D02*
X0210766Y0168285D01*
X0209853Y0164694D02*
X0232747Y0164694D01*
X0233004Y0164800D02*
X0231717Y0164267D01*
X0230733Y0163283D01*
X0230200Y0161996D01*
X0230200Y0160604D01*
X0230733Y0159317D01*
X0231717Y0158333D01*
X0233004Y0157800D01*
X0239596Y0157800D01*
X0240883Y0158333D01*
X0241867Y0159317D01*
X0242400Y0160604D01*
X0242400Y0161996D01*
X0241867Y0163283D01*
X0240883Y0164267D01*
X0239596Y0164800D01*
X0233004Y0164800D01*
X0231545Y0164095D02*
X0211055Y0164095D01*
X0211653Y0163497D02*
X0230947Y0163497D01*
X0230574Y0162898D02*
X0212026Y0162898D01*
X0212274Y0162300D02*
X0230326Y0162300D01*
X0230200Y0161701D02*
X0212400Y0161701D01*
X0212400Y0161103D02*
X0230200Y0161103D01*
X0230241Y0160504D02*
X0212359Y0160504D01*
X0212111Y0159905D02*
X0230489Y0159905D01*
X0230743Y0159307D02*
X0211857Y0159307D01*
X0211258Y0158708D02*
X0231342Y0158708D01*
X0232255Y0158110D02*
X0210345Y0158110D01*
X0210275Y0154519D02*
X0232325Y0154519D01*
X0231717Y0154267D02*
X0230733Y0153283D01*
X0230200Y0151996D01*
X0230200Y0150604D01*
X0230733Y0149317D01*
X0231717Y0148333D01*
X0233004Y0147800D01*
X0239596Y0147800D01*
X0240883Y0148333D01*
X0241867Y0149317D01*
X0242400Y0150604D01*
X0242400Y0151996D01*
X0241867Y0153283D01*
X0240883Y0154267D01*
X0239596Y0154800D01*
X0233004Y0154800D01*
X0231717Y0154267D01*
X0231371Y0153920D02*
X0211229Y0153920D01*
X0211828Y0153322D02*
X0230772Y0153322D01*
X0230501Y0152723D02*
X0212099Y0152723D01*
X0212347Y0152125D02*
X0230253Y0152125D01*
X0230200Y0151526D02*
X0212400Y0151526D01*
X0212400Y0150928D02*
X0230200Y0150928D01*
X0230314Y0150329D02*
X0212286Y0150329D01*
X0212038Y0149731D02*
X0230562Y0149731D01*
X0230918Y0149132D02*
X0211682Y0149132D01*
X0211084Y0148534D02*
X0231516Y0148534D01*
X0232677Y0147935D02*
X0209923Y0147935D01*
X0210697Y0144344D02*
X0231903Y0144344D01*
X0231717Y0144267D02*
X0230733Y0143283D01*
X0230200Y0141996D01*
X0230200Y0140604D01*
X0230733Y0139317D01*
X0231717Y0138333D01*
X0233004Y0137800D01*
X0239596Y0137800D01*
X0240883Y0138333D01*
X0241867Y0139317D01*
X0242400Y0140604D01*
X0242400Y0141996D01*
X0241867Y0143283D01*
X0240883Y0144267D01*
X0239596Y0144800D01*
X0233004Y0144800D01*
X0231717Y0144267D01*
X0231196Y0143746D02*
X0211404Y0143746D01*
X0211923Y0143147D02*
X0230677Y0143147D01*
X0230429Y0142549D02*
X0212171Y0142549D01*
X0212400Y0141950D02*
X0230200Y0141950D01*
X0230200Y0141352D02*
X0212400Y0141352D01*
X0212400Y0140753D02*
X0230200Y0140753D01*
X0230386Y0140155D02*
X0212214Y0140155D01*
X0211966Y0139556D02*
X0230634Y0139556D01*
X0231093Y0138958D02*
X0211507Y0138958D01*
X0210909Y0138359D02*
X0231691Y0138359D01*
X0233004Y0134800D02*
X0231717Y0134267D01*
X0230733Y0133283D01*
X0230200Y0131996D01*
X0230200Y0130604D01*
X0230733Y0129317D01*
X0231717Y0128333D01*
X0233004Y0127800D01*
X0239596Y0127800D01*
X0240883Y0128333D01*
X0241867Y0129317D01*
X0242400Y0130604D01*
X0242400Y0131996D01*
X0241867Y0133283D01*
X0240883Y0134267D01*
X0239596Y0134800D01*
X0233004Y0134800D01*
X0232927Y0134768D02*
X0209673Y0134768D01*
X0210980Y0134170D02*
X0231620Y0134170D01*
X0231021Y0133571D02*
X0211579Y0133571D01*
X0211996Y0132972D02*
X0230604Y0132972D01*
X0230356Y0132374D02*
X0212244Y0132374D01*
X0212400Y0131775D02*
X0230200Y0131775D01*
X0230200Y0131177D02*
X0212400Y0131177D01*
X0212389Y0130578D02*
X0230210Y0130578D01*
X0230458Y0129980D02*
X0212142Y0129980D01*
X0211894Y0129381D02*
X0230706Y0129381D01*
X0231267Y0128783D02*
X0211333Y0128783D01*
X0210524Y0128184D02*
X0232076Y0128184D01*
X0240524Y0128184D02*
X0390701Y0128184D01*
X0390701Y0127586D02*
X0005600Y0127586D01*
X0005600Y0128184D02*
X0117076Y0128184D01*
X0116717Y0128333D02*
X0118004Y0127800D01*
X0124596Y0127800D01*
X0125883Y0128333D01*
X0126867Y0129317D01*
X0127400Y0130604D01*
X0127400Y0131996D01*
X0126867Y0133283D01*
X0125883Y0134267D01*
X0124596Y0134800D01*
X0118004Y0134800D01*
X0116717Y0134267D01*
X0115733Y0133283D01*
X0115200Y0131996D01*
X0115200Y0130604D01*
X0115733Y0129317D01*
X0116717Y0128333D01*
X0116267Y0128783D02*
X0005600Y0128783D01*
X0005600Y0129381D02*
X0115706Y0129381D01*
X0115458Y0129980D02*
X0005600Y0129980D01*
X0005600Y0130578D02*
X0115210Y0130578D01*
X0115200Y0131177D02*
X0005600Y0131177D01*
X0005600Y0131775D02*
X0115200Y0131775D01*
X0115356Y0132374D02*
X0005600Y0132374D01*
X0005600Y0132972D02*
X0115604Y0132972D01*
X0116021Y0133571D02*
X0005600Y0133571D01*
X0005600Y0134170D02*
X0116620Y0134170D01*
X0117927Y0134768D02*
X0005600Y0134768D01*
X0005600Y0135367D02*
X0316700Y0135367D01*
X0316700Y0135965D02*
X0005600Y0135965D01*
X0005600Y0136564D02*
X0316700Y0136564D01*
X0316700Y0137162D02*
X0005600Y0137162D01*
X0005600Y0137761D02*
X0117054Y0137761D01*
X0116853Y0137844D02*
X0117562Y0137550D01*
X0118316Y0137400D01*
X0121000Y0137400D01*
X0121000Y0141000D01*
X0121600Y0141000D01*
X0121600Y0141600D01*
X0121000Y0141600D01*
X0121000Y0145200D01*
X0118316Y0145200D01*
X0117562Y0145050D01*
X0116853Y0144756D01*
X0116214Y0144329D01*
X0115671Y0143786D01*
X0115244Y0143147D01*
X0005600Y0143147D01*
X0005600Y0142549D02*
X0114996Y0142549D01*
X0114950Y0142438D02*
X0114800Y0141684D01*
X0114800Y0141600D01*
X0121000Y0141600D01*
X0121000Y0141000D01*
X0114800Y0141000D01*
X0114800Y0140916D01*
X0114950Y0140162D01*
X0115244Y0139453D01*
X0115671Y0138814D01*
X0116214Y0138271D01*
X0116853Y0137844D01*
X0116125Y0138359D02*
X0005600Y0138359D01*
X0005600Y0138958D02*
X0115575Y0138958D01*
X0115201Y0139556D02*
X0005600Y0139556D01*
X0005600Y0140155D02*
X0114953Y0140155D01*
X0114832Y0140753D02*
X0005600Y0140753D01*
X0005600Y0141352D02*
X0121000Y0141352D01*
X0121000Y0141950D02*
X0121600Y0141950D01*
X0121600Y0141600D02*
X0121600Y0145200D01*
X0124284Y0145200D01*
X0125038Y0145050D01*
X0125747Y0144756D01*
X0126386Y0144329D01*
X0126929Y0143786D01*
X0127356Y0143147D01*
X0145677Y0143147D01*
X0145429Y0142549D02*
X0127604Y0142549D01*
X0127650Y0142438D02*
X0127356Y0143147D01*
X0126956Y0143746D02*
X0146196Y0143746D01*
X0146903Y0144344D02*
X0126364Y0144344D01*
X0125297Y0144943D02*
X0390701Y0144943D01*
X0390701Y0145541D02*
X0005600Y0145541D01*
X0005600Y0144943D02*
X0117303Y0144943D01*
X0116236Y0144344D02*
X0005600Y0144344D01*
X0005600Y0143746D02*
X0115644Y0143746D01*
X0115244Y0143147D02*
X0114950Y0142438D01*
X0114853Y0141950D02*
X0005600Y0141950D01*
X0005600Y0146140D02*
X0390701Y0146140D01*
X0390701Y0146738D02*
X0005600Y0146738D01*
X0005600Y0147337D02*
X0390701Y0147337D01*
X0390701Y0147935D02*
X0239923Y0147935D01*
X0241084Y0148534D02*
X0269927Y0148534D01*
X0269555Y0148688D02*
X0270687Y0148219D01*
X0271913Y0148219D01*
X0273045Y0148688D01*
X0273912Y0149555D01*
X0274381Y0150687D01*
X0274381Y0151913D01*
X0273912Y0153045D01*
X0273045Y0153912D01*
X0271913Y0154381D01*
X0270687Y0154381D01*
X0269555Y0153912D01*
X0268688Y0153045D01*
X0268219Y0151913D01*
X0268219Y0150687D01*
X0268688Y0149555D01*
X0269555Y0148688D01*
X0269110Y0149132D02*
X0241682Y0149132D01*
X0242038Y0149731D02*
X0268615Y0149731D01*
X0268367Y0150329D02*
X0242286Y0150329D01*
X0242400Y0150928D02*
X0268219Y0150928D01*
X0268219Y0151526D02*
X0242400Y0151526D01*
X0242347Y0152125D02*
X0268307Y0152125D01*
X0268555Y0152723D02*
X0242099Y0152723D01*
X0241828Y0153322D02*
X0268965Y0153322D01*
X0269575Y0153920D02*
X0241229Y0153920D01*
X0240275Y0154519D02*
X0390701Y0154519D01*
X0390701Y0155117D02*
X0005600Y0155117D01*
X0005600Y0154519D02*
X0117325Y0154519D01*
X0116717Y0154267D02*
X0115733Y0153283D01*
X0115200Y0151996D01*
X0115200Y0150604D01*
X0115733Y0149317D01*
X0116717Y0148333D01*
X0118004Y0147800D01*
X0124596Y0147800D01*
X0125883Y0148333D01*
X0126867Y0149317D01*
X0127400Y0150604D01*
X0127400Y0151996D01*
X0126867Y0153283D01*
X0125883Y0154267D01*
X0124596Y0154800D01*
X0118004Y0154800D01*
X0116717Y0154267D01*
X0116371Y0153920D02*
X0005600Y0153920D01*
X0005600Y0153322D02*
X0115772Y0153322D01*
X0115501Y0152723D02*
X0005600Y0152723D01*
X0005600Y0152125D02*
X0115253Y0152125D01*
X0115200Y0151526D02*
X0005600Y0151526D01*
X0005600Y0150928D02*
X0115200Y0150928D01*
X0115314Y0150329D02*
X0005600Y0150329D01*
X0005600Y0149731D02*
X0115562Y0149731D01*
X0115918Y0149132D02*
X0005600Y0149132D01*
X0005600Y0148534D02*
X0116516Y0148534D01*
X0117677Y0147935D02*
X0005600Y0147935D01*
X0005600Y0155716D02*
X0390701Y0155716D01*
X0390701Y0156314D02*
X0005600Y0156314D01*
X0005600Y0156913D02*
X0390701Y0156913D01*
X0390701Y0157511D02*
X0005600Y0157511D01*
X0005600Y0158110D02*
X0117255Y0158110D01*
X0116717Y0158333D02*
X0118004Y0157800D01*
X0124596Y0157800D01*
X0125883Y0158333D01*
X0126867Y0159317D01*
X0127400Y0160604D01*
X0127400Y0161996D01*
X0126867Y0163283D01*
X0125883Y0164267D01*
X0124596Y0164800D01*
X0118004Y0164800D01*
X0116717Y0164267D01*
X0115733Y0163283D01*
X0115200Y0161996D01*
X0115200Y0160604D01*
X0115733Y0159317D01*
X0116717Y0158333D01*
X0116342Y0158708D02*
X0005600Y0158708D01*
X0005600Y0159307D02*
X0115743Y0159307D01*
X0115489Y0159905D02*
X0005600Y0159905D01*
X0005600Y0160504D02*
X0115241Y0160504D01*
X0115200Y0161103D02*
X0005600Y0161103D01*
X0005600Y0161701D02*
X0115200Y0161701D01*
X0115326Y0162300D02*
X0005600Y0162300D01*
X0005600Y0162898D02*
X0115574Y0162898D01*
X0115947Y0163497D02*
X0005600Y0163497D01*
X0005600Y0164095D02*
X0116545Y0164095D01*
X0117747Y0164694D02*
X0005600Y0164694D01*
X0005600Y0165292D02*
X0390701Y0165292D01*
X0390701Y0164694D02*
X0239853Y0164694D01*
X0241055Y0164095D02*
X0269997Y0164095D01*
X0269555Y0163912D02*
X0268688Y0163045D01*
X0268219Y0161913D01*
X0268219Y0160687D01*
X0268688Y0159555D01*
X0269555Y0158688D01*
X0270687Y0158219D01*
X0271913Y0158219D01*
X0273045Y0158688D01*
X0273912Y0159555D01*
X0274381Y0160687D01*
X0274381Y0161913D01*
X0273912Y0163045D01*
X0273045Y0163912D01*
X0271913Y0164381D01*
X0270687Y0164381D01*
X0269555Y0163912D01*
X0269139Y0163497D02*
X0241653Y0163497D01*
X0242026Y0162898D02*
X0268627Y0162898D01*
X0268379Y0162300D02*
X0242274Y0162300D01*
X0242400Y0161701D02*
X0268219Y0161701D01*
X0268219Y0161103D02*
X0242400Y0161103D01*
X0242359Y0160504D02*
X0268295Y0160504D01*
X0268543Y0159905D02*
X0242111Y0159905D01*
X0241857Y0159307D02*
X0268936Y0159307D01*
X0269534Y0158708D02*
X0241258Y0158708D01*
X0240345Y0158110D02*
X0390701Y0158110D01*
X0390701Y0158708D02*
X0303066Y0158708D01*
X0303045Y0158688D02*
X0303912Y0159555D01*
X0304381Y0160687D01*
X0304381Y0161913D01*
X0303912Y0163045D01*
X0303045Y0163912D01*
X0301913Y0164381D01*
X0300687Y0164381D01*
X0299555Y0163912D01*
X0298688Y0163045D01*
X0298219Y0161913D01*
X0298219Y0160687D01*
X0298688Y0159555D01*
X0299555Y0158688D01*
X0300687Y0158219D01*
X0301913Y0158219D01*
X0303045Y0158688D01*
X0303664Y0159307D02*
X0390701Y0159307D01*
X0390701Y0159905D02*
X0304057Y0159905D01*
X0304305Y0160504D02*
X0390701Y0160504D01*
X0390701Y0161103D02*
X0304381Y0161103D01*
X0304381Y0161701D02*
X0390701Y0161701D01*
X0390701Y0162300D02*
X0304221Y0162300D01*
X0303973Y0162898D02*
X0390701Y0162898D01*
X0390701Y0163497D02*
X0303461Y0163497D01*
X0302603Y0164095D02*
X0390701Y0164095D01*
X0390701Y0165891D02*
X0005600Y0165891D01*
X0005600Y0166489D02*
X0390701Y0166489D01*
X0390701Y0167088D02*
X0005600Y0167088D01*
X0005600Y0167686D02*
X0390701Y0167686D01*
X0390701Y0168285D02*
X0302072Y0168285D01*
X0301913Y0168219D02*
X0303045Y0168688D01*
X0303912Y0169555D01*
X0304381Y0170687D01*
X0304381Y0171913D01*
X0303912Y0173045D01*
X0303045Y0173912D01*
X0301913Y0174381D01*
X0300687Y0174381D01*
X0299555Y0173912D01*
X0298688Y0173045D01*
X0298219Y0171913D01*
X0298219Y0170687D01*
X0298688Y0169555D01*
X0299555Y0168688D01*
X0300687Y0168219D01*
X0301913Y0168219D01*
X0300528Y0168285D02*
X0272072Y0168285D01*
X0271913Y0168219D02*
X0273045Y0168688D01*
X0273912Y0169555D01*
X0274381Y0170687D01*
X0274381Y0171913D01*
X0273912Y0173045D01*
X0273045Y0173912D01*
X0271913Y0174381D01*
X0270687Y0174381D01*
X0269555Y0173912D01*
X0268688Y0173045D01*
X0268219Y0171913D01*
X0268219Y0170687D01*
X0268688Y0169555D01*
X0269555Y0168688D01*
X0270687Y0168219D01*
X0271913Y0168219D01*
X0270528Y0168285D02*
X0240766Y0168285D01*
X0241433Y0168883D02*
X0269359Y0168883D01*
X0268761Y0169482D02*
X0241935Y0169482D01*
X0242183Y0170080D02*
X0268470Y0170080D01*
X0268222Y0170679D02*
X0242400Y0170679D01*
X0242400Y0171277D02*
X0268219Y0171277D01*
X0268219Y0171876D02*
X0242400Y0171876D01*
X0242202Y0172474D02*
X0268451Y0172474D01*
X0268715Y0173073D02*
X0241954Y0173073D01*
X0241478Y0173671D02*
X0269314Y0173671D01*
X0270418Y0174270D02*
X0240876Y0174270D01*
X0239743Y0177861D02*
X0316700Y0177861D01*
X0316700Y0178459D02*
X0302493Y0178459D01*
X0303045Y0178688D02*
X0303912Y0179555D01*
X0304381Y0180687D01*
X0304381Y0181913D01*
X0303912Y0183045D01*
X0303045Y0183912D01*
X0301913Y0184381D01*
X0300687Y0184381D01*
X0299555Y0183912D01*
X0298688Y0183045D01*
X0298219Y0181913D01*
X0298219Y0180687D01*
X0298688Y0179555D01*
X0299555Y0178688D01*
X0300687Y0178219D01*
X0301913Y0178219D01*
X0303045Y0178688D01*
X0303415Y0179058D02*
X0316700Y0179058D01*
X0316700Y0179656D02*
X0303954Y0179656D01*
X0304202Y0180255D02*
X0316700Y0180255D01*
X0316700Y0180373D02*
X0316700Y0172227D01*
X0317227Y0171700D01*
X0325373Y0171700D01*
X0325900Y0172227D01*
X0325900Y0180373D01*
X0325373Y0180900D01*
X0317227Y0180900D01*
X0316700Y0180373D01*
X0317181Y0180853D02*
X0304381Y0180853D01*
X0304381Y0181452D02*
X0390701Y0181452D01*
X0390701Y0182050D02*
X0323061Y0182050D01*
X0323906Y0182400D02*
X0325200Y0183694D01*
X0325900Y0185385D01*
X0325900Y0187215D01*
X0325200Y0188906D01*
X0323906Y0190200D01*
X0322215Y0190900D01*
X0320385Y0190900D01*
X0318694Y0190200D01*
X0317400Y0188906D01*
X0316700Y0187215D01*
X0316700Y0185385D01*
X0317400Y0183694D01*
X0318694Y0182400D01*
X0320385Y0181700D01*
X0322215Y0181700D01*
X0323906Y0182400D01*
X0324154Y0182649D02*
X0390701Y0182649D01*
X0390701Y0183247D02*
X0324753Y0183247D01*
X0325262Y0183846D02*
X0390701Y0183846D01*
X0390701Y0184444D02*
X0325510Y0184444D01*
X0325758Y0185043D02*
X0390701Y0185043D01*
X0390701Y0185641D02*
X0325900Y0185641D01*
X0325900Y0186240D02*
X0390701Y0186240D01*
X0390701Y0186839D02*
X0325900Y0186839D01*
X0325808Y0187437D02*
X0390701Y0187437D01*
X0390701Y0188036D02*
X0325560Y0188036D01*
X0325312Y0188634D02*
X0390701Y0188634D01*
X0390701Y0189233D02*
X0324873Y0189233D01*
X0324274Y0189831D02*
X0390701Y0189831D01*
X0390701Y0190430D02*
X0323351Y0190430D01*
X0319249Y0190430D02*
X0304274Y0190430D01*
X0304381Y0190687D02*
X0303912Y0189555D01*
X0303045Y0188688D01*
X0301913Y0188219D01*
X0300687Y0188219D01*
X0299555Y0188688D01*
X0298688Y0189555D01*
X0298219Y0190687D01*
X0298219Y0191913D01*
X0298688Y0193045D01*
X0299555Y0193912D01*
X0300687Y0194381D01*
X0301913Y0194381D01*
X0303045Y0193912D01*
X0303912Y0193045D01*
X0304381Y0191913D01*
X0304381Y0190687D01*
X0304381Y0191028D02*
X0390701Y0191028D01*
X0390701Y0191627D02*
X0304381Y0191627D01*
X0304252Y0192225D02*
X0390701Y0192225D01*
X0390701Y0192824D02*
X0304004Y0192824D01*
X0303535Y0193422D02*
X0390701Y0193422D01*
X0390701Y0194021D02*
X0302783Y0194021D01*
X0299817Y0194021D02*
X0272783Y0194021D01*
X0273045Y0193912D02*
X0271913Y0194381D01*
X0270687Y0194381D01*
X0269555Y0193912D01*
X0268688Y0193045D01*
X0268219Y0191913D01*
X0268219Y0190687D01*
X0268688Y0189555D01*
X0269555Y0188688D01*
X0270687Y0188219D01*
X0271913Y0188219D01*
X0273045Y0188688D01*
X0273912Y0189555D01*
X0274381Y0190687D01*
X0274381Y0191913D01*
X0273912Y0193045D01*
X0273045Y0193912D01*
X0273535Y0193422D02*
X0299065Y0193422D01*
X0298596Y0192824D02*
X0274004Y0192824D01*
X0274252Y0192225D02*
X0298348Y0192225D01*
X0298219Y0191627D02*
X0274381Y0191627D01*
X0274381Y0191028D02*
X0298219Y0191028D01*
X0298326Y0190430D02*
X0274274Y0190430D01*
X0274026Y0189831D02*
X0298573Y0189831D01*
X0299010Y0189233D02*
X0273590Y0189233D01*
X0272915Y0188634D02*
X0299685Y0188634D01*
X0302915Y0188634D02*
X0317288Y0188634D01*
X0317040Y0188036D02*
X0240165Y0188036D01*
X0241184Y0188634D02*
X0269685Y0188634D01*
X0269010Y0189233D02*
X0241782Y0189233D01*
X0242080Y0189831D02*
X0268573Y0189831D01*
X0268326Y0190430D02*
X0242328Y0190430D01*
X0242400Y0191028D02*
X0268219Y0191028D01*
X0268219Y0191627D02*
X0242400Y0191627D01*
X0242305Y0192225D02*
X0268348Y0192225D01*
X0268596Y0192824D02*
X0242057Y0192824D01*
X0241728Y0193422D02*
X0269065Y0193422D01*
X0269817Y0194021D02*
X0241129Y0194021D01*
X0240033Y0194619D02*
X0390701Y0194619D01*
X0390701Y0195218D02*
X0166915Y0195218D01*
X0167513Y0195816D02*
X0390701Y0195816D01*
X0390701Y0196415D02*
X0168112Y0196415D01*
X0168710Y0197013D02*
X0390701Y0197013D01*
X0390701Y0198809D02*
X0303166Y0198809D01*
X0303045Y0198688D02*
X0303912Y0199555D01*
X0304381Y0200687D01*
X0304381Y0201913D01*
X0303912Y0203045D01*
X0303045Y0203912D01*
X0301913Y0204381D01*
X0300687Y0204381D01*
X0299555Y0203912D01*
X0298688Y0203045D01*
X0298219Y0201913D01*
X0298219Y0200687D01*
X0298688Y0199555D01*
X0299555Y0198688D01*
X0300687Y0198219D01*
X0301913Y0198219D01*
X0303045Y0198688D01*
X0303765Y0199407D02*
X0390701Y0199407D01*
X0390701Y0200006D02*
X0304099Y0200006D01*
X0304347Y0200604D02*
X0390701Y0200604D01*
X0390701Y0201203D02*
X0304381Y0201203D01*
X0304381Y0201801D02*
X0390701Y0201801D01*
X0390701Y0202400D02*
X0304179Y0202400D01*
X0303931Y0202998D02*
X0390701Y0202998D01*
X0390701Y0203597D02*
X0303360Y0203597D01*
X0302361Y0204195D02*
X0390701Y0204195D01*
X0390701Y0205991D02*
X0177688Y0205991D01*
X0178286Y0206589D02*
X0390701Y0206589D01*
X0390701Y0207188D02*
X0178885Y0207188D01*
X0179483Y0207786D02*
X0390701Y0207786D01*
X0390701Y0180853D02*
X0325419Y0180853D01*
X0325900Y0180255D02*
X0390701Y0180255D01*
X0390701Y0179656D02*
X0325900Y0179656D01*
X0325900Y0179058D02*
X0390701Y0179058D01*
X0390701Y0178459D02*
X0325900Y0178459D01*
X0325900Y0177861D02*
X0390701Y0177861D01*
X0390701Y0177262D02*
X0325900Y0177262D01*
X0325900Y0176664D02*
X0390701Y0176664D01*
X0390701Y0176065D02*
X0325900Y0176065D01*
X0325900Y0175467D02*
X0390701Y0175467D01*
X0390701Y0174868D02*
X0325900Y0174868D01*
X0325900Y0174270D02*
X0390701Y0174270D01*
X0390701Y0173671D02*
X0325900Y0173671D01*
X0325900Y0173073D02*
X0390701Y0173073D01*
X0390701Y0172474D02*
X0325900Y0172474D01*
X0325549Y0171876D02*
X0390701Y0171876D01*
X0390701Y0171277D02*
X0304381Y0171277D01*
X0304378Y0170679D02*
X0390701Y0170679D01*
X0390701Y0170080D02*
X0304130Y0170080D01*
X0303839Y0169482D02*
X0390701Y0169482D01*
X0390701Y0168883D02*
X0303241Y0168883D01*
X0304381Y0171876D02*
X0317051Y0171876D01*
X0316700Y0172474D02*
X0304149Y0172474D01*
X0303885Y0173073D02*
X0316700Y0173073D01*
X0316700Y0173671D02*
X0303286Y0173671D01*
X0302182Y0174270D02*
X0316700Y0174270D01*
X0316700Y0174868D02*
X0005600Y0174868D01*
X0005600Y0174270D02*
X0116724Y0174270D01*
X0116717Y0174267D02*
X0115733Y0173283D01*
X0115200Y0171996D01*
X0115200Y0170604D01*
X0115733Y0169317D01*
X0116717Y0168333D01*
X0118004Y0167800D01*
X0124596Y0167800D01*
X0125883Y0168333D01*
X0126867Y0169317D01*
X0127400Y0170604D01*
X0127400Y0171996D01*
X0126867Y0173283D01*
X0125883Y0174267D01*
X0124596Y0174800D01*
X0118004Y0174800D01*
X0116717Y0174267D01*
X0116122Y0173671D02*
X0005600Y0173671D01*
X0005600Y0173073D02*
X0115646Y0173073D01*
X0115398Y0172474D02*
X0005600Y0172474D01*
X0005600Y0171876D02*
X0115200Y0171876D01*
X0115200Y0171277D02*
X0005600Y0171277D01*
X0005600Y0170679D02*
X0115200Y0170679D01*
X0115417Y0170080D02*
X0005600Y0170080D01*
X0005600Y0169482D02*
X0115665Y0169482D01*
X0116167Y0168883D02*
X0005600Y0168883D01*
X0005600Y0168285D02*
X0116834Y0168285D01*
X0124853Y0164694D02*
X0147747Y0164694D01*
X0146545Y0164095D02*
X0126055Y0164095D01*
X0126653Y0163497D02*
X0145947Y0163497D01*
X0145574Y0162898D02*
X0127026Y0162898D01*
X0127274Y0162300D02*
X0145326Y0162300D01*
X0145200Y0161701D02*
X0127400Y0161701D01*
X0127400Y0161103D02*
X0145200Y0161103D01*
X0145241Y0160504D02*
X0127359Y0160504D01*
X0127111Y0159905D02*
X0145489Y0159905D01*
X0145743Y0159307D02*
X0126857Y0159307D01*
X0126258Y0158708D02*
X0146342Y0158708D01*
X0147255Y0158110D02*
X0125345Y0158110D01*
X0125275Y0154519D02*
X0147325Y0154519D01*
X0146371Y0153920D02*
X0126229Y0153920D01*
X0126828Y0153322D02*
X0145772Y0153322D01*
X0145501Y0152723D02*
X0127099Y0152723D01*
X0127347Y0152125D02*
X0145253Y0152125D01*
X0145200Y0151526D02*
X0127400Y0151526D01*
X0127400Y0150928D02*
X0145200Y0150928D01*
X0145314Y0150329D02*
X0127286Y0150329D01*
X0127038Y0149731D02*
X0145562Y0149731D01*
X0145918Y0149132D02*
X0126682Y0149132D01*
X0126084Y0148534D02*
X0146516Y0148534D01*
X0147677Y0147935D02*
X0124923Y0147935D01*
X0121600Y0144943D02*
X0121000Y0144943D01*
X0121000Y0144344D02*
X0121600Y0144344D01*
X0121600Y0143746D02*
X0121000Y0143746D01*
X0121000Y0143147D02*
X0121600Y0143147D01*
X0121600Y0142549D02*
X0121000Y0142549D01*
X0121600Y0141600D02*
X0127800Y0141600D01*
X0127800Y0141684D01*
X0127650Y0142438D01*
X0127747Y0141950D02*
X0145200Y0141950D01*
X0145200Y0141352D02*
X0121600Y0141352D01*
X0121600Y0141000D02*
X0127800Y0141000D01*
X0127800Y0140916D01*
X0127650Y0140162D01*
X0127356Y0139453D01*
X0126929Y0138814D01*
X0126386Y0138271D01*
X0125747Y0137844D01*
X0125038Y0137550D01*
X0124284Y0137400D01*
X0121600Y0137400D01*
X0121600Y0141000D01*
X0121600Y0140753D02*
X0121000Y0140753D01*
X0121000Y0140155D02*
X0121600Y0140155D01*
X0121600Y0139556D02*
X0121000Y0139556D01*
X0121000Y0138958D02*
X0121600Y0138958D01*
X0121600Y0138359D02*
X0121000Y0138359D01*
X0121000Y0137761D02*
X0121600Y0137761D01*
X0125546Y0137761D02*
X0316700Y0137761D01*
X0316700Y0138359D02*
X0302251Y0138359D01*
X0301913Y0138219D02*
X0303045Y0138688D01*
X0303912Y0139555D01*
X0304381Y0140687D01*
X0304381Y0141913D01*
X0303912Y0143045D01*
X0303045Y0143912D01*
X0301913Y0144381D01*
X0300687Y0144381D01*
X0299555Y0143912D01*
X0298688Y0143045D01*
X0298219Y0141913D01*
X0298219Y0140687D01*
X0298688Y0139555D01*
X0299555Y0138688D01*
X0300687Y0138219D01*
X0301913Y0138219D01*
X0300349Y0138359D02*
X0272251Y0138359D01*
X0271913Y0138219D02*
X0273045Y0138688D01*
X0273912Y0139555D01*
X0274381Y0140687D01*
X0274381Y0141913D01*
X0273912Y0143045D01*
X0273045Y0143912D01*
X0271913Y0144381D01*
X0270687Y0144381D01*
X0269555Y0143912D01*
X0268688Y0143045D01*
X0268219Y0141913D01*
X0268219Y0140687D01*
X0268688Y0139555D01*
X0269555Y0138688D01*
X0270687Y0138219D01*
X0271913Y0138219D01*
X0270349Y0138359D02*
X0240909Y0138359D01*
X0241507Y0138958D02*
X0269285Y0138958D01*
X0268687Y0139556D02*
X0241966Y0139556D01*
X0242214Y0140155D02*
X0268439Y0140155D01*
X0268219Y0140753D02*
X0242400Y0140753D01*
X0242400Y0141352D02*
X0268219Y0141352D01*
X0268234Y0141950D02*
X0242400Y0141950D01*
X0242171Y0142549D02*
X0268482Y0142549D01*
X0268790Y0143147D02*
X0241923Y0143147D01*
X0241404Y0143746D02*
X0269388Y0143746D01*
X0270598Y0144344D02*
X0240697Y0144344D01*
X0239673Y0134768D02*
X0316700Y0134768D01*
X0316700Y0134170D02*
X0240980Y0134170D01*
X0241579Y0133571D02*
X0316700Y0133571D01*
X0316700Y0132972D02*
X0241996Y0132972D01*
X0242244Y0132374D02*
X0316700Y0132374D01*
X0316700Y0132227D02*
X0317227Y0131700D01*
X0325373Y0131700D01*
X0325900Y0132227D01*
X0325900Y0140373D01*
X0325373Y0140900D01*
X0317227Y0140900D01*
X0316700Y0140373D01*
X0316700Y0132227D01*
X0317152Y0131775D02*
X0242400Y0131775D01*
X0242400Y0131177D02*
X0390701Y0131177D01*
X0390701Y0131775D02*
X0332397Y0131775D01*
X0332215Y0131700D02*
X0333906Y0132400D01*
X0335200Y0133694D01*
X0335900Y0135385D01*
X0335900Y0137215D01*
X0335200Y0138906D01*
X0333906Y0140200D01*
X0332215Y0140900D01*
X0330385Y0140900D01*
X0328694Y0140200D01*
X0327400Y0138906D01*
X0326700Y0137215D01*
X0326700Y0135385D01*
X0327400Y0133694D01*
X0328694Y0132400D01*
X0330385Y0131700D01*
X0332215Y0131700D01*
X0333842Y0132374D02*
X0390701Y0132374D01*
X0390701Y0132972D02*
X0334478Y0132972D01*
X0335076Y0133571D02*
X0390701Y0133571D01*
X0390701Y0134170D02*
X0335397Y0134170D01*
X0335644Y0134768D02*
X0390701Y0134768D01*
X0390701Y0135367D02*
X0335892Y0135367D01*
X0335900Y0135965D02*
X0390701Y0135965D01*
X0390701Y0136564D02*
X0335900Y0136564D01*
X0335900Y0137162D02*
X0390701Y0137162D01*
X0390701Y0137761D02*
X0335674Y0137761D01*
X0335426Y0138359D02*
X0390701Y0138359D01*
X0390701Y0138958D02*
X0335148Y0138958D01*
X0334549Y0139556D02*
X0390701Y0139556D01*
X0390701Y0140155D02*
X0333951Y0140155D01*
X0332570Y0140753D02*
X0390701Y0140753D01*
X0390701Y0141352D02*
X0304381Y0141352D01*
X0304366Y0141950D02*
X0390701Y0141950D01*
X0390701Y0142549D02*
X0304118Y0142549D01*
X0303810Y0143147D02*
X0390701Y0143147D01*
X0390701Y0143746D02*
X0303212Y0143746D01*
X0302002Y0144344D02*
X0390701Y0144344D01*
X0390701Y0148534D02*
X0302673Y0148534D01*
X0303045Y0148688D02*
X0303912Y0149555D01*
X0304381Y0150687D01*
X0304381Y0151913D01*
X0303912Y0153045D01*
X0303045Y0153912D01*
X0301913Y0154381D01*
X0300687Y0154381D01*
X0299555Y0153912D01*
X0298688Y0153045D01*
X0298219Y0151913D01*
X0298219Y0150687D01*
X0298688Y0149555D01*
X0299555Y0148688D01*
X0300687Y0148219D01*
X0301913Y0148219D01*
X0303045Y0148688D01*
X0303490Y0149132D02*
X0390701Y0149132D01*
X0390701Y0149731D02*
X0303985Y0149731D01*
X0304233Y0150329D02*
X0390701Y0150329D01*
X0390701Y0150928D02*
X0304381Y0150928D01*
X0304381Y0151526D02*
X0390701Y0151526D01*
X0390701Y0152125D02*
X0304293Y0152125D01*
X0304045Y0152723D02*
X0390701Y0152723D01*
X0390701Y0153322D02*
X0303635Y0153322D01*
X0303025Y0153920D02*
X0390701Y0153920D01*
X0390701Y0130578D02*
X0242389Y0130578D01*
X0242142Y0129980D02*
X0390701Y0129980D01*
X0390701Y0129381D02*
X0241894Y0129381D01*
X0241333Y0128783D02*
X0390701Y0128783D01*
X0390701Y0126987D02*
X0005600Y0126987D01*
X0005600Y0126389D02*
X0390701Y0126389D01*
X0390701Y0124593D02*
X0240095Y0124593D01*
X0241155Y0123995D02*
X0390701Y0123995D01*
X0390701Y0123396D02*
X0241753Y0123396D01*
X0242068Y0122798D02*
X0390701Y0122798D01*
X0390701Y0122199D02*
X0242316Y0122199D01*
X0242400Y0121601D02*
X0390701Y0121601D01*
X0390701Y0121002D02*
X0242400Y0121002D01*
X0242317Y0120404D02*
X0390701Y0120404D01*
X0390701Y0119805D02*
X0242069Y0119805D01*
X0241756Y0119207D02*
X0390701Y0119207D01*
X0390701Y0118608D02*
X0241158Y0118608D01*
X0240102Y0118010D02*
X0390701Y0118010D01*
X0390701Y0116214D02*
X0005600Y0116214D01*
X0005600Y0115616D02*
X0390701Y0115616D01*
X0390701Y0064742D02*
X0242808Y0064742D01*
X0242750Y0064800D02*
X0239850Y0064800D01*
X0237800Y0062750D01*
X0237800Y0059850D01*
X0239850Y0057800D01*
X0242750Y0057800D01*
X0244800Y0059850D01*
X0244800Y0062750D01*
X0242750Y0064800D01*
X0243406Y0064144D02*
X0390701Y0064144D01*
X0390701Y0063545D02*
X0244005Y0063545D01*
X0244603Y0062947D02*
X0390701Y0062947D01*
X0390701Y0062348D02*
X0244800Y0062348D01*
X0244800Y0061750D02*
X0390701Y0061750D01*
X0390701Y0061151D02*
X0244800Y0061151D01*
X0244800Y0060553D02*
X0390701Y0060553D01*
X0390701Y0059954D02*
X0268161Y0059954D01*
X0267915Y0060200D02*
X0266600Y0060200D01*
X0266600Y0056600D01*
X0270200Y0056600D01*
X0270200Y0057915D01*
X0267915Y0060200D01*
X0268760Y0059356D02*
X0390701Y0059356D01*
X0390701Y0058757D02*
X0269358Y0058757D01*
X0269957Y0058159D02*
X0390701Y0058159D01*
X0390701Y0057560D02*
X0270200Y0057560D01*
X0270200Y0056962D02*
X0390701Y0056962D01*
X0390701Y0056363D02*
X0266600Y0056363D01*
X0266600Y0056600D02*
X0266600Y0056000D01*
X0270200Y0056000D01*
X0270200Y0054685D01*
X0267915Y0052400D01*
X0266600Y0052400D01*
X0266600Y0056000D01*
X0266000Y0056000D01*
X0266000Y0052400D01*
X0264685Y0052400D01*
X0262400Y0054685D01*
X0262400Y0056000D01*
X0266000Y0056000D01*
X0266000Y0056600D01*
X0266000Y0060200D01*
X0264685Y0060200D01*
X0262400Y0057915D01*
X0262400Y0056600D01*
X0266000Y0056600D01*
X0266600Y0056600D01*
X0266600Y0056962D02*
X0266000Y0056962D01*
X0266000Y0057560D02*
X0266600Y0057560D01*
X0266600Y0058159D02*
X0266000Y0058159D01*
X0266000Y0058757D02*
X0266600Y0058757D01*
X0266600Y0059356D02*
X0266000Y0059356D01*
X0266000Y0059954D02*
X0266600Y0059954D01*
X0264439Y0059954D02*
X0244800Y0059954D01*
X0244305Y0059356D02*
X0254406Y0059356D01*
X0254850Y0059800D02*
X0252800Y0057750D01*
X0252800Y0054850D01*
X0254850Y0052800D01*
X0257750Y0052800D01*
X0259800Y0054850D01*
X0259800Y0057750D01*
X0257750Y0059800D01*
X0254850Y0059800D01*
X0253807Y0058757D02*
X0243707Y0058757D01*
X0243108Y0058159D02*
X0253209Y0058159D01*
X0252800Y0055166D02*
X0057949Y0055166D01*
X0058548Y0054568D02*
X0253083Y0054568D01*
X0253681Y0053969D02*
X0059146Y0053969D01*
X0059745Y0053370D02*
X0254280Y0053370D01*
X0258320Y0053370D02*
X0263714Y0053370D01*
X0264313Y0052772D02*
X0060200Y0052772D01*
X0060200Y0052173D02*
X0302800Y0052173D01*
X0302800Y0052750D02*
X0302800Y0049850D01*
X0304850Y0047800D01*
X0307750Y0047800D01*
X0309800Y0049850D01*
X0309800Y0052750D01*
X0307750Y0054800D01*
X0304850Y0054800D01*
X0302800Y0052750D01*
X0302822Y0052772D02*
X0268287Y0052772D01*
X0268886Y0053370D02*
X0303421Y0053370D01*
X0304019Y0053969D02*
X0269484Y0053969D01*
X0270083Y0054568D02*
X0304618Y0054568D01*
X0307982Y0054568D02*
X0314052Y0054568D01*
X0314651Y0055166D02*
X0270200Y0055166D01*
X0270200Y0055765D02*
X0390701Y0055765D01*
X0390701Y0055166D02*
X0317949Y0055166D01*
X0317915Y0055200D02*
X0316600Y0055200D01*
X0316600Y0051600D01*
X0320200Y0051600D01*
X0320200Y0052915D01*
X0317915Y0055200D01*
X0318548Y0054568D02*
X0390701Y0054568D01*
X0390701Y0053969D02*
X0319146Y0053969D01*
X0319745Y0053370D02*
X0390701Y0053370D01*
X0390701Y0052772D02*
X0320200Y0052772D01*
X0320200Y0052173D02*
X0390701Y0052173D01*
X0390701Y0051575D02*
X0316600Y0051575D01*
X0316600Y0051600D02*
X0316600Y0051000D01*
X0320200Y0051000D01*
X0320200Y0049685D01*
X0317915Y0047400D01*
X0316600Y0047400D01*
X0316600Y0051000D01*
X0316000Y0051000D01*
X0316000Y0047400D01*
X0314685Y0047400D01*
X0312400Y0049685D01*
X0312400Y0051000D01*
X0316000Y0051000D01*
X0316000Y0051600D01*
X0316000Y0055200D01*
X0314685Y0055200D01*
X0312400Y0052915D01*
X0312400Y0051600D01*
X0316000Y0051600D01*
X0316600Y0051600D01*
X0316600Y0052173D02*
X0316000Y0052173D01*
X0316000Y0051575D02*
X0309800Y0051575D01*
X0309800Y0052173D02*
X0312400Y0052173D01*
X0312400Y0052772D02*
X0309778Y0052772D01*
X0309179Y0053370D02*
X0312855Y0053370D01*
X0313454Y0053969D02*
X0308581Y0053969D01*
X0309800Y0050976D02*
X0312400Y0050976D01*
X0312400Y0050378D02*
X0309800Y0050378D01*
X0309729Y0049779D02*
X0312400Y0049779D01*
X0312904Y0049181D02*
X0309131Y0049181D01*
X0308532Y0048582D02*
X0313502Y0048582D01*
X0314101Y0047984D02*
X0307934Y0047984D01*
X0304666Y0047984D02*
X0058499Y0047984D01*
X0059098Y0048582D02*
X0304068Y0048582D01*
X0303469Y0049181D02*
X0059696Y0049181D01*
X0060200Y0049779D02*
X0302871Y0049779D01*
X0302800Y0050378D02*
X0060200Y0050378D01*
X0060200Y0050976D02*
X0302800Y0050976D01*
X0302800Y0051575D02*
X0056600Y0051575D01*
X0056600Y0052173D02*
X0056000Y0052173D01*
X0056000Y0052772D02*
X0056600Y0052772D01*
X0056600Y0053370D02*
X0056000Y0053370D01*
X0056000Y0053969D02*
X0056600Y0053969D01*
X0056600Y0054568D02*
X0056000Y0054568D01*
X0056000Y0055166D02*
X0056600Y0055166D01*
X0052400Y0050976D02*
X0005600Y0050976D01*
X0005600Y0050378D02*
X0052400Y0050378D01*
X0052400Y0049779D02*
X0005600Y0049779D01*
X0005600Y0049181D02*
X0052904Y0049181D01*
X0053502Y0048582D02*
X0005600Y0048582D01*
X0005600Y0077909D02*
X0117740Y0077909D01*
X0118004Y0077800D02*
X0124596Y0077800D01*
X0125883Y0078333D01*
X0126867Y0079317D01*
X0127400Y0080604D01*
X0127400Y0081996D01*
X0126867Y0083283D01*
X0125883Y0084267D01*
X0124596Y0084800D01*
X0118004Y0084800D01*
X0116717Y0084267D01*
X0115733Y0083283D01*
X0115200Y0081996D01*
X0115200Y0080604D01*
X0115733Y0079317D01*
X0116717Y0078333D01*
X0118004Y0077800D01*
X0116542Y0078508D02*
X0005600Y0078508D01*
X0005600Y0079106D02*
X0115944Y0079106D01*
X0115572Y0079705D02*
X0005600Y0079705D01*
X0005600Y0080303D02*
X0115324Y0080303D01*
X0115200Y0080902D02*
X0005600Y0080902D01*
X0005600Y0081501D02*
X0115200Y0081501D01*
X0115243Y0082099D02*
X0005600Y0082099D01*
X0005600Y0082698D02*
X0115491Y0082698D01*
X0115746Y0083296D02*
X0005600Y0083296D01*
X0005600Y0083895D02*
X0116345Y0083895D01*
X0117263Y0084493D02*
X0005600Y0084493D01*
X0005600Y0098259D02*
X0116896Y0098259D01*
X0116717Y0098333D02*
X0118004Y0097800D01*
X0124596Y0097800D01*
X0125883Y0098333D01*
X0126867Y0099317D01*
X0127400Y0100604D01*
X0127400Y0101996D01*
X0126867Y0103283D01*
X0125883Y0104267D01*
X0124596Y0104800D01*
X0118004Y0104800D01*
X0116717Y0104267D01*
X0115733Y0103283D01*
X0115200Y0101996D01*
X0115200Y0100604D01*
X0115733Y0099317D01*
X0116717Y0098333D01*
X0116193Y0098857D02*
X0005600Y0098857D01*
X0005600Y0099456D02*
X0115675Y0099456D01*
X0115428Y0100054D02*
X0005600Y0100054D01*
X0005600Y0100653D02*
X0115200Y0100653D01*
X0115200Y0101251D02*
X0005600Y0101251D01*
X0005600Y0101850D02*
X0115200Y0101850D01*
X0115387Y0102448D02*
X0005600Y0102448D01*
X0005600Y0103047D02*
X0115635Y0103047D01*
X0116096Y0103645D02*
X0005600Y0103645D01*
X0005600Y0104244D02*
X0116694Y0104244D01*
X0124681Y0107835D02*
X0147919Y0107835D01*
X0148004Y0107800D02*
X0154596Y0107800D01*
X0155883Y0108333D01*
X0156867Y0109317D01*
X0157400Y0110604D01*
X0157400Y0111996D01*
X0156867Y0113283D01*
X0155883Y0114267D01*
X0154596Y0114800D01*
X0148004Y0114800D01*
X0146717Y0114267D01*
X0145733Y0113283D01*
X0145200Y0111996D01*
X0145200Y0110604D01*
X0145733Y0109317D01*
X0146717Y0108333D01*
X0148004Y0107800D01*
X0146617Y0108434D02*
X0125983Y0108434D01*
X0126582Y0109032D02*
X0146018Y0109032D01*
X0145603Y0109631D02*
X0126997Y0109631D01*
X0127245Y0110229D02*
X0145355Y0110229D01*
X0145200Y0110828D02*
X0127400Y0110828D01*
X0127400Y0111426D02*
X0145200Y0111426D01*
X0145212Y0112025D02*
X0127388Y0112025D01*
X0127140Y0112623D02*
X0145460Y0112623D01*
X0145708Y0113222D02*
X0126892Y0113222D01*
X0126330Y0113820D02*
X0146270Y0113820D01*
X0147083Y0114419D02*
X0125517Y0114419D01*
X0117498Y0118010D02*
X0005600Y0118010D01*
X0005600Y0118608D02*
X0116442Y0118608D01*
X0115844Y0119207D02*
X0005600Y0119207D01*
X0005600Y0119805D02*
X0115531Y0119805D01*
X0115283Y0120404D02*
X0005600Y0120404D01*
X0005600Y0121002D02*
X0115200Y0121002D01*
X0115200Y0121601D02*
X0005600Y0121601D01*
X0005600Y0122199D02*
X0115284Y0122199D01*
X0115532Y0122798D02*
X0005600Y0122798D01*
X0005600Y0123396D02*
X0115847Y0123396D01*
X0116445Y0123995D02*
X0005600Y0123995D01*
X0005600Y0124593D02*
X0117505Y0124593D01*
X0125524Y0128184D02*
X0147076Y0128184D01*
X0146267Y0128783D02*
X0126333Y0128783D01*
X0126894Y0129381D02*
X0145706Y0129381D01*
X0145458Y0129980D02*
X0127142Y0129980D01*
X0127389Y0130578D02*
X0145210Y0130578D01*
X0145200Y0131177D02*
X0127400Y0131177D01*
X0127400Y0131775D02*
X0145200Y0131775D01*
X0145356Y0132374D02*
X0127244Y0132374D01*
X0126996Y0132972D02*
X0145604Y0132972D01*
X0146021Y0133571D02*
X0126579Y0133571D01*
X0125980Y0134170D02*
X0146620Y0134170D01*
X0147927Y0134768D02*
X0124673Y0134768D01*
X0126475Y0138359D02*
X0146691Y0138359D01*
X0146093Y0138958D02*
X0127025Y0138958D01*
X0127399Y0139556D02*
X0145634Y0139556D01*
X0145386Y0140155D02*
X0127647Y0140155D01*
X0127768Y0140753D02*
X0145200Y0140753D01*
X0151000Y0119805D02*
X0151600Y0119805D01*
X0151600Y0119207D02*
X0151000Y0119207D01*
X0151000Y0118608D02*
X0151600Y0118608D01*
X0151600Y0118010D02*
X0151000Y0118010D01*
X0151000Y0117411D02*
X0151600Y0117411D01*
X0155517Y0114419D02*
X0202083Y0114419D01*
X0201270Y0113820D02*
X0156330Y0113820D01*
X0156892Y0113222D02*
X0200708Y0113222D01*
X0200460Y0112623D02*
X0157140Y0112623D01*
X0157388Y0112025D02*
X0200212Y0112025D01*
X0200200Y0111426D02*
X0157400Y0111426D01*
X0157400Y0110828D02*
X0200200Y0110828D01*
X0200355Y0110229D02*
X0157245Y0110229D01*
X0156997Y0109631D02*
X0200603Y0109631D01*
X0201018Y0109032D02*
X0156582Y0109032D01*
X0155983Y0108434D02*
X0201617Y0108434D01*
X0202919Y0107835D02*
X0154681Y0107835D01*
X0154596Y0104800D02*
X0148004Y0104800D01*
X0146717Y0104267D01*
X0145733Y0103283D01*
X0145200Y0101996D01*
X0145200Y0100604D01*
X0145733Y0099317D01*
X0146717Y0098333D01*
X0148004Y0097800D01*
X0154596Y0097800D01*
X0155883Y0098333D01*
X0156867Y0099317D01*
X0157400Y0100604D01*
X0157400Y0101996D01*
X0156867Y0103283D01*
X0155883Y0104267D01*
X0154596Y0104800D01*
X0155906Y0104244D02*
X0201694Y0104244D01*
X0201096Y0103645D02*
X0156504Y0103645D01*
X0156965Y0103047D02*
X0200635Y0103047D01*
X0200387Y0102448D02*
X0157213Y0102448D01*
X0157400Y0101850D02*
X0200200Y0101850D01*
X0200200Y0101251D02*
X0157400Y0101251D01*
X0157400Y0100653D02*
X0200200Y0100653D01*
X0200428Y0100054D02*
X0157172Y0100054D01*
X0156924Y0099456D02*
X0200675Y0099456D01*
X0201193Y0098857D02*
X0156407Y0098857D01*
X0155704Y0098259D02*
X0201896Y0098259D01*
X0202685Y0094668D02*
X0154915Y0094668D01*
X0154596Y0094800D02*
X0155883Y0094267D01*
X0156867Y0093283D01*
X0157400Y0091996D01*
X0157400Y0090604D01*
X0156867Y0089317D01*
X0155883Y0088333D01*
X0154596Y0087800D01*
X0148004Y0087800D01*
X0146717Y0088333D01*
X0145733Y0089317D01*
X0145200Y0090604D01*
X0145200Y0091996D01*
X0145733Y0093283D01*
X0146717Y0094267D01*
X0148004Y0094800D01*
X0154596Y0094800D01*
X0156080Y0094069D02*
X0201520Y0094069D01*
X0200921Y0093471D02*
X0156679Y0093471D01*
X0157037Y0092872D02*
X0200563Y0092872D01*
X0200315Y0092274D02*
X0157285Y0092274D01*
X0157400Y0091675D02*
X0200200Y0091675D01*
X0200200Y0091077D02*
X0157400Y0091077D01*
X0157348Y0090478D02*
X0200252Y0090478D01*
X0200500Y0089880D02*
X0157100Y0089880D01*
X0156831Y0089281D02*
X0200769Y0089281D01*
X0201368Y0088683D02*
X0156232Y0088683D01*
X0155282Y0088084D02*
X0202318Y0088084D01*
X0202263Y0084493D02*
X0155337Y0084493D01*
X0155883Y0084267D02*
X0154596Y0084800D01*
X0148004Y0084800D01*
X0146717Y0084267D01*
X0145733Y0083283D01*
X0145200Y0081996D01*
X0145200Y0080604D01*
X0145733Y0079317D01*
X0146717Y0078333D01*
X0148004Y0077800D01*
X0154596Y0077800D01*
X0155883Y0078333D01*
X0156867Y0079317D01*
X0157400Y0080604D01*
X0157400Y0081996D01*
X0156867Y0083283D01*
X0155883Y0084267D01*
X0156255Y0083895D02*
X0201345Y0083895D01*
X0200746Y0083296D02*
X0156854Y0083296D01*
X0157109Y0082698D02*
X0200491Y0082698D01*
X0200243Y0082099D02*
X0157357Y0082099D01*
X0157400Y0081501D02*
X0200200Y0081501D01*
X0200200Y0080902D02*
X0157400Y0080902D01*
X0157276Y0080303D02*
X0200324Y0080303D01*
X0200572Y0079705D02*
X0157028Y0079705D01*
X0156656Y0079106D02*
X0200944Y0079106D01*
X0201542Y0078508D02*
X0156058Y0078508D01*
X0154860Y0077909D02*
X0202740Y0077909D01*
X0209860Y0077909D02*
X0231754Y0077909D01*
X0231853Y0077844D02*
X0232562Y0077550D01*
X0233316Y0077400D01*
X0236000Y0077400D01*
X0236000Y0081000D01*
X0229800Y0081000D01*
X0229800Y0080916D01*
X0229950Y0080162D01*
X0230244Y0079453D01*
X0230671Y0078814D01*
X0231214Y0078271D01*
X0231853Y0077844D01*
X0230977Y0078508D02*
X0211058Y0078508D01*
X0211656Y0079106D02*
X0230475Y0079106D01*
X0230139Y0079705D02*
X0212028Y0079705D01*
X0212276Y0080303D02*
X0229922Y0080303D01*
X0229803Y0080902D02*
X0212400Y0080902D01*
X0212400Y0091675D02*
X0229800Y0091675D01*
X0229917Y0092274D02*
X0212285Y0092274D01*
X0212037Y0092872D02*
X0230130Y0092872D01*
X0230460Y0093471D02*
X0211679Y0093471D01*
X0211080Y0094069D02*
X0230954Y0094069D01*
X0231720Y0094668D02*
X0209915Y0094668D01*
X0236000Y0094668D02*
X0236600Y0094668D01*
X0236600Y0094069D02*
X0236000Y0094069D01*
X0236000Y0093471D02*
X0236600Y0093471D01*
X0236600Y0092872D02*
X0236000Y0092872D01*
X0236000Y0092274D02*
X0236600Y0092274D01*
X0236600Y0090478D02*
X0236000Y0090478D01*
X0236000Y0089880D02*
X0236600Y0089880D01*
X0236600Y0089281D02*
X0236000Y0089281D01*
X0236000Y0088683D02*
X0236600Y0088683D01*
X0236600Y0088084D02*
X0236000Y0088084D01*
X0236000Y0087486D02*
X0236600Y0087486D01*
X0236600Y0085092D02*
X0236000Y0085092D01*
X0236000Y0084493D02*
X0236600Y0084493D01*
X0236600Y0083895D02*
X0236000Y0083895D01*
X0236000Y0083296D02*
X0236600Y0083296D01*
X0236600Y0082698D02*
X0236000Y0082698D01*
X0236000Y0080902D02*
X0236600Y0080902D01*
X0236600Y0080303D02*
X0236000Y0080303D01*
X0236000Y0079705D02*
X0236600Y0079705D01*
X0236600Y0079106D02*
X0236000Y0079106D01*
X0236000Y0078508D02*
X0236600Y0078508D01*
X0236600Y0077909D02*
X0236000Y0077909D01*
X0239792Y0064742D02*
X0202808Y0064742D01*
X0203406Y0064144D02*
X0239194Y0064144D01*
X0238595Y0063545D02*
X0204005Y0063545D01*
X0204603Y0062947D02*
X0237997Y0062947D01*
X0237800Y0062348D02*
X0204800Y0062348D01*
X0204800Y0061750D02*
X0237800Y0061750D01*
X0237800Y0061151D02*
X0204800Y0061151D01*
X0204800Y0060553D02*
X0237800Y0060553D01*
X0237800Y0059954D02*
X0204800Y0059954D01*
X0204305Y0059356D02*
X0238295Y0059356D01*
X0238893Y0058757D02*
X0203707Y0058757D01*
X0203108Y0058159D02*
X0239492Y0058159D01*
X0258194Y0059356D02*
X0263840Y0059356D01*
X0263242Y0058757D02*
X0258793Y0058757D01*
X0259391Y0058159D02*
X0262643Y0058159D01*
X0262400Y0057560D02*
X0259800Y0057560D01*
X0259800Y0056962D02*
X0262400Y0056962D01*
X0262400Y0055765D02*
X0259800Y0055765D01*
X0259800Y0056363D02*
X0266000Y0056363D01*
X0266000Y0055765D02*
X0266600Y0055765D01*
X0266600Y0055166D02*
X0266000Y0055166D01*
X0266000Y0054568D02*
X0266600Y0054568D01*
X0266600Y0053969D02*
X0266000Y0053969D01*
X0266000Y0053370D02*
X0266600Y0053370D01*
X0266600Y0052772D02*
X0266000Y0052772D01*
X0263116Y0053969D02*
X0258919Y0053969D01*
X0259517Y0054568D02*
X0262517Y0054568D01*
X0262400Y0055166D02*
X0259800Y0055166D01*
X0236600Y0097660D02*
X0236000Y0097660D01*
X0236000Y0098259D02*
X0236600Y0098259D01*
X0236600Y0098857D02*
X0236000Y0098857D01*
X0236000Y0099456D02*
X0236600Y0099456D01*
X0236600Y0100054D02*
X0236000Y0100054D01*
X0236000Y0101850D02*
X0236600Y0101850D01*
X0236600Y0102448D02*
X0236000Y0102448D01*
X0236000Y0103047D02*
X0236600Y0103047D01*
X0236600Y0103645D02*
X0236000Y0103645D01*
X0236000Y0104244D02*
X0236600Y0104244D01*
X0236600Y0104842D02*
X0236000Y0104842D01*
X0240539Y0104842D02*
X0287808Y0104842D01*
X0288406Y0104244D02*
X0241471Y0104244D01*
X0242023Y0103645D02*
X0289005Y0103645D01*
X0289603Y0103047D02*
X0242398Y0103047D01*
X0239681Y0107835D02*
X0287885Y0107835D01*
X0288484Y0108434D02*
X0240983Y0108434D01*
X0241582Y0109032D02*
X0289082Y0109032D01*
X0289681Y0109631D02*
X0241997Y0109631D01*
X0273315Y0138958D02*
X0299285Y0138958D01*
X0298687Y0139556D02*
X0273913Y0139556D01*
X0274161Y0140155D02*
X0298439Y0140155D01*
X0298219Y0140753D02*
X0274381Y0140753D01*
X0274381Y0141352D02*
X0298219Y0141352D01*
X0298234Y0141950D02*
X0274366Y0141950D01*
X0274118Y0142549D02*
X0298482Y0142549D01*
X0298790Y0143147D02*
X0273810Y0143147D01*
X0273212Y0143746D02*
X0299388Y0143746D01*
X0300598Y0144344D02*
X0272002Y0144344D01*
X0272673Y0148534D02*
X0299927Y0148534D01*
X0299110Y0149132D02*
X0273490Y0149132D01*
X0273985Y0149731D02*
X0298615Y0149731D01*
X0298367Y0150329D02*
X0274233Y0150329D01*
X0274381Y0150928D02*
X0298219Y0150928D01*
X0298219Y0151526D02*
X0274381Y0151526D01*
X0274293Y0152125D02*
X0298307Y0152125D01*
X0298555Y0152723D02*
X0274045Y0152723D01*
X0273635Y0153322D02*
X0298965Y0153322D01*
X0299575Y0153920D02*
X0273025Y0153920D01*
X0273066Y0158708D02*
X0299534Y0158708D01*
X0298936Y0159307D02*
X0273664Y0159307D01*
X0274057Y0159905D02*
X0298543Y0159905D01*
X0298295Y0160504D02*
X0274305Y0160504D01*
X0274381Y0161103D02*
X0298219Y0161103D01*
X0298219Y0161701D02*
X0274381Y0161701D01*
X0274221Y0162300D02*
X0298379Y0162300D01*
X0298627Y0162898D02*
X0273973Y0162898D01*
X0273461Y0163497D02*
X0299139Y0163497D01*
X0299997Y0164095D02*
X0272603Y0164095D01*
X0273241Y0168883D02*
X0299359Y0168883D01*
X0298761Y0169482D02*
X0273839Y0169482D01*
X0274130Y0170080D02*
X0298470Y0170080D01*
X0298222Y0170679D02*
X0274378Y0170679D01*
X0274381Y0171277D02*
X0298219Y0171277D01*
X0298219Y0171876D02*
X0274381Y0171876D01*
X0274149Y0172474D02*
X0298451Y0172474D01*
X0298715Y0173073D02*
X0273885Y0173073D01*
X0273286Y0173671D02*
X0299314Y0173671D01*
X0300418Y0174270D02*
X0272182Y0174270D01*
X0271913Y0178219D02*
X0273045Y0178688D01*
X0273912Y0179555D01*
X0274381Y0180687D01*
X0274381Y0181913D01*
X0273912Y0183045D01*
X0273045Y0183912D01*
X0271913Y0184381D01*
X0270687Y0184381D01*
X0269555Y0183912D01*
X0268688Y0183045D01*
X0268219Y0181913D01*
X0268219Y0180687D01*
X0268688Y0179555D01*
X0269555Y0178688D01*
X0270687Y0178219D01*
X0271913Y0178219D01*
X0272493Y0178459D02*
X0300107Y0178459D01*
X0299185Y0179058D02*
X0273415Y0179058D01*
X0273954Y0179656D02*
X0298646Y0179656D01*
X0298398Y0180255D02*
X0274202Y0180255D01*
X0274381Y0180853D02*
X0298219Y0180853D01*
X0298219Y0181452D02*
X0274381Y0181452D01*
X0274324Y0182050D02*
X0298276Y0182050D01*
X0298524Y0182649D02*
X0274076Y0182649D01*
X0273710Y0183247D02*
X0298890Y0183247D01*
X0299489Y0183846D02*
X0273111Y0183846D01*
X0269489Y0183846D02*
X0241304Y0183846D01*
X0241882Y0183247D02*
X0268890Y0183247D01*
X0268524Y0182649D02*
X0242130Y0182649D01*
X0242378Y0182050D02*
X0268276Y0182050D01*
X0268219Y0181452D02*
X0242400Y0181452D01*
X0242400Y0180853D02*
X0268219Y0180853D01*
X0268398Y0180255D02*
X0242255Y0180255D01*
X0242008Y0179656D02*
X0268646Y0179656D01*
X0269185Y0179058D02*
X0241608Y0179058D01*
X0241009Y0178459D02*
X0270107Y0178459D01*
X0273166Y0198809D02*
X0299434Y0198809D01*
X0298835Y0199407D02*
X0273765Y0199407D01*
X0274099Y0200006D02*
X0298501Y0200006D01*
X0298253Y0200604D02*
X0274347Y0200604D01*
X0274381Y0201203D02*
X0298219Y0201203D01*
X0298219Y0201801D02*
X0274381Y0201801D01*
X0274179Y0202400D02*
X0298421Y0202400D01*
X0298669Y0202998D02*
X0273931Y0202998D01*
X0273360Y0203597D02*
X0299239Y0203597D01*
X0300239Y0204195D02*
X0272361Y0204195D01*
X0303590Y0189233D02*
X0317727Y0189233D01*
X0318326Y0189831D02*
X0304026Y0189831D01*
X0303111Y0183846D02*
X0317337Y0183846D01*
X0317090Y0184444D02*
X0240455Y0184444D01*
X0231665Y0208385D02*
X0210935Y0208385D01*
X0211533Y0208983D02*
X0231067Y0208983D01*
X0230623Y0209582D02*
X0211977Y0209582D01*
X0212225Y0210180D02*
X0230375Y0210180D01*
X0230200Y0210779D02*
X0212400Y0210779D01*
X0212400Y0211377D02*
X0230200Y0211377D01*
X0230200Y0211976D02*
X0212400Y0211976D01*
X0212160Y0212574D02*
X0230440Y0212574D01*
X0230687Y0213173D02*
X0211913Y0213173D01*
X0211378Y0213772D02*
X0231222Y0213772D01*
X0231966Y0214370D02*
X0210634Y0214370D01*
X0196439Y0228136D02*
X0189833Y0228136D01*
X0190431Y0228734D02*
X0197037Y0228734D01*
X0197636Y0229333D02*
X0191030Y0229333D01*
X0191628Y0229931D02*
X0198234Y0229931D01*
X0198833Y0230530D02*
X0192227Y0230530D01*
X0192825Y0231128D02*
X0199431Y0231128D01*
X0200030Y0231727D02*
X0193424Y0231727D01*
X0194022Y0232325D02*
X0200628Y0232325D01*
X0201227Y0232924D02*
X0194621Y0232924D01*
X0195219Y0233522D02*
X0201825Y0233522D01*
X0202424Y0234121D02*
X0195818Y0234121D01*
X0196416Y0234719D02*
X0203022Y0234719D01*
X0203621Y0235318D02*
X0197015Y0235318D01*
X0197613Y0235916D02*
X0204219Y0235916D01*
X0204818Y0236515D02*
X0198212Y0236515D01*
X0198810Y0237113D02*
X0205416Y0237113D01*
X0206015Y0237712D02*
X0199409Y0237712D01*
X0200008Y0238310D02*
X0206613Y0238310D01*
X0207212Y0238909D02*
X0200606Y0238909D01*
X0201205Y0239508D02*
X0207810Y0239508D01*
X0208409Y0240106D02*
X0201803Y0240106D01*
X0202402Y0240705D02*
X0209007Y0240705D01*
X0209606Y0241303D02*
X0203000Y0241303D01*
X0203599Y0241902D02*
X0210205Y0241902D01*
X0210803Y0242500D02*
X0204197Y0242500D01*
X0204796Y0243099D02*
X0211402Y0243099D01*
X0212000Y0243697D02*
X0205394Y0243697D01*
X0205993Y0244296D02*
X0212599Y0244296D01*
X0213197Y0244894D02*
X0206591Y0244894D01*
X0207190Y0245493D02*
X0213796Y0245493D01*
X0214394Y0246091D02*
X0207788Y0246091D01*
X0208387Y0246690D02*
X0214993Y0246690D01*
X0215591Y0247288D02*
X0208985Y0247288D01*
X0209584Y0247887D02*
X0216190Y0247887D01*
X0216788Y0248485D02*
X0210182Y0248485D01*
X0210781Y0249084D02*
X0217387Y0249084D01*
X0217985Y0249682D02*
X0211379Y0249682D01*
X0211978Y0250281D02*
X0218584Y0250281D01*
X0219182Y0250879D02*
X0212576Y0250879D01*
X0213175Y0251478D02*
X0219781Y0251478D01*
X0220379Y0252076D02*
X0213773Y0252076D01*
X0214372Y0252675D02*
X0220978Y0252675D01*
X0221576Y0253273D02*
X0214970Y0253273D01*
X0215569Y0253872D02*
X0222175Y0253872D01*
X0222773Y0254470D02*
X0216167Y0254470D01*
X0216766Y0255069D02*
X0223372Y0255069D01*
X0223970Y0255667D02*
X0217364Y0255667D01*
X0217963Y0256266D02*
X0224569Y0256266D01*
X0225167Y0256864D02*
X0218561Y0256864D01*
X0219160Y0257463D02*
X0225766Y0257463D01*
X0226364Y0258061D02*
X0219758Y0258061D01*
X0220357Y0258660D02*
X0226963Y0258660D01*
X0227561Y0259258D02*
X0220955Y0259258D01*
X0221554Y0259857D02*
X0228160Y0259857D01*
X0228758Y0260455D02*
X0222152Y0260455D01*
X0222751Y0261054D02*
X0229357Y0261054D01*
X0229955Y0261652D02*
X0222900Y0261652D01*
X0222900Y0262251D02*
X0230554Y0262251D01*
X0231152Y0262849D02*
X0222900Y0262849D01*
X0222900Y0263448D02*
X0231751Y0263448D01*
X0232349Y0264046D02*
X0222900Y0264046D01*
X0222900Y0264645D02*
X0232948Y0264645D01*
X0233546Y0265243D02*
X0222900Y0265243D01*
X0222900Y0265842D02*
X0234145Y0265842D01*
X0234743Y0266441D02*
X0222900Y0266441D01*
X0222900Y0267039D02*
X0235100Y0267039D01*
X0235100Y0267638D02*
X0222900Y0267638D01*
X0222900Y0268236D02*
X0235100Y0268236D01*
X0235100Y0268835D02*
X0222900Y0268835D01*
X0222900Y0269433D02*
X0235100Y0269433D01*
X0235100Y0270032D02*
X0222900Y0270032D01*
X0222900Y0270630D02*
X0235100Y0270630D01*
X0235100Y0271229D02*
X0222900Y0271229D01*
X0222900Y0271827D02*
X0235100Y0271827D01*
X0235100Y0272426D02*
X0222900Y0272426D01*
X0222900Y0273024D02*
X0235100Y0273024D01*
X0235100Y0273623D02*
X0222900Y0273623D01*
X0222900Y0274221D02*
X0235100Y0274221D01*
X0235100Y0274820D02*
X0222900Y0274820D01*
X0222900Y0275418D02*
X0235100Y0275418D01*
X0235100Y0276017D02*
X0222900Y0276017D01*
X0222900Y0276615D02*
X0235100Y0276615D01*
X0235100Y0277214D02*
X0222900Y0277214D01*
X0222900Y0277812D02*
X0235100Y0277812D01*
X0235100Y0278411D02*
X0222900Y0278411D01*
X0222900Y0279009D02*
X0235100Y0279009D01*
X0235100Y0279608D02*
X0222900Y0279608D01*
X0222900Y0280206D02*
X0235100Y0280206D01*
X0235100Y0280805D02*
X0222900Y0280805D01*
X0222900Y0281403D02*
X0235100Y0281403D01*
X0235100Y0282002D02*
X0222900Y0282002D01*
X0222900Y0282600D02*
X0235100Y0282600D01*
X0235100Y0283199D02*
X0222900Y0283199D01*
X0222900Y0283797D02*
X0235100Y0283797D01*
X0235100Y0284396D02*
X0222900Y0284396D01*
X0222900Y0284994D02*
X0235100Y0284994D01*
X0235100Y0285593D02*
X0222900Y0285593D01*
X0222900Y0286191D02*
X0235100Y0286191D01*
X0235100Y0286790D02*
X0222900Y0286790D01*
X0222900Y0287388D02*
X0235100Y0287388D01*
X0235100Y0287987D02*
X0222900Y0287987D01*
X0222900Y0288585D02*
X0235100Y0288585D01*
X0235100Y0289184D02*
X0222900Y0289184D01*
X0222900Y0289782D02*
X0235100Y0289782D01*
X0235100Y0290381D02*
X0222900Y0290381D01*
X0222900Y0290979D02*
X0235100Y0290979D01*
X0235100Y0291578D02*
X0222900Y0291578D01*
X0222900Y0292177D02*
X0235100Y0292177D01*
X0235100Y0292775D02*
X0222900Y0292775D01*
X0222900Y0293374D02*
X0235100Y0293374D01*
X0235100Y0293972D02*
X0222900Y0293972D01*
X0222900Y0294571D02*
X0235100Y0294571D01*
X0235100Y0295169D02*
X0222900Y0295169D01*
X0222900Y0295768D02*
X0235100Y0295768D01*
X0235100Y0296366D02*
X0222900Y0296366D01*
X0222900Y0296965D02*
X0235100Y0296965D01*
X0235100Y0297563D02*
X0222900Y0297563D01*
X0222900Y0298162D02*
X0235100Y0298162D01*
X0235100Y0298760D02*
X0222900Y0298760D01*
X0222900Y0299359D02*
X0235100Y0299359D01*
X0235100Y0299957D02*
X0222900Y0299957D01*
X0222900Y0300556D02*
X0235100Y0300556D01*
X0235100Y0301154D02*
X0222900Y0301154D01*
X0222900Y0301753D02*
X0235100Y0301753D01*
X0235100Y0302351D02*
X0222900Y0302351D01*
X0222900Y0302950D02*
X0235100Y0302950D01*
X0235100Y0303548D02*
X0222900Y0303548D01*
X0222900Y0304147D02*
X0235100Y0304147D01*
X0235100Y0304745D02*
X0222900Y0304745D01*
X0222900Y0305344D02*
X0235100Y0305344D01*
X0235100Y0305942D02*
X0222900Y0305942D01*
X0222900Y0306541D02*
X0235100Y0306541D01*
X0235100Y0307139D02*
X0222900Y0307139D01*
X0222900Y0307738D02*
X0235100Y0307738D01*
X0235100Y0308336D02*
X0222900Y0308336D01*
X0222900Y0308935D02*
X0235100Y0308935D01*
X0235100Y0309533D02*
X0222900Y0309533D01*
X0222900Y0310132D02*
X0235100Y0310132D01*
X0235100Y0310730D02*
X0222900Y0310730D01*
X0222900Y0311329D02*
X0235100Y0311329D01*
X0235100Y0311927D02*
X0222900Y0311927D01*
X0222900Y0312526D02*
X0235100Y0312526D01*
X0235100Y0313124D02*
X0222900Y0313124D01*
X0222900Y0313723D02*
X0235100Y0313723D01*
X0235100Y0314321D02*
X0222900Y0314321D01*
X0222900Y0314920D02*
X0235100Y0314920D01*
X0235100Y0315518D02*
X0222900Y0315518D01*
X0222900Y0316117D02*
X0235100Y0316117D01*
X0235100Y0316715D02*
X0222900Y0316715D01*
X0222900Y0317314D02*
X0235100Y0317314D01*
X0235100Y0317912D02*
X0222900Y0317912D01*
X0222900Y0318511D02*
X0235100Y0318511D01*
X0235100Y0319110D02*
X0222900Y0319110D01*
X0222900Y0319708D02*
X0235100Y0319708D01*
X0235100Y0320307D02*
X0222900Y0320307D01*
X0222900Y0320905D02*
X0235100Y0320905D01*
X0235100Y0321504D02*
X0222900Y0321504D01*
X0222900Y0322102D02*
X0235100Y0322102D01*
X0235100Y0322701D02*
X0222900Y0322701D01*
X0222900Y0323299D02*
X0235100Y0323299D01*
X0235100Y0323898D02*
X0222900Y0323898D01*
X0222900Y0324496D02*
X0235100Y0324496D01*
X0235100Y0325095D02*
X0222900Y0325095D01*
X0222900Y0325693D02*
X0235100Y0325693D01*
X0235100Y0326292D02*
X0222900Y0326292D01*
X0222900Y0326890D02*
X0235100Y0326890D01*
X0235100Y0327489D02*
X0222900Y0327489D01*
X0222900Y0328087D02*
X0235100Y0328087D01*
X0235100Y0328686D02*
X0222900Y0328686D01*
X0222900Y0329284D02*
X0235100Y0329284D01*
X0235100Y0329883D02*
X0222900Y0329883D01*
X0222900Y0330481D02*
X0235100Y0330481D01*
X0235100Y0331080D02*
X0222900Y0331080D01*
X0222900Y0331678D02*
X0235100Y0331678D01*
X0235100Y0332277D02*
X0222900Y0332277D01*
X0222900Y0332875D02*
X0235100Y0332875D01*
X0235100Y0333474D02*
X0222900Y0333474D01*
X0222900Y0334072D02*
X0235100Y0334072D01*
X0235100Y0334671D02*
X0222900Y0334671D01*
X0222900Y0335269D02*
X0235100Y0335269D01*
X0235100Y0335868D02*
X0222900Y0335868D01*
X0222900Y0336466D02*
X0235100Y0336466D01*
X0235100Y0337065D02*
X0222900Y0337065D01*
X0222900Y0337663D02*
X0235100Y0337663D01*
X0235100Y0338262D02*
X0222900Y0338262D01*
X0222900Y0338860D02*
X0235100Y0338860D01*
X0235100Y0339459D02*
X0222900Y0339459D01*
X0222900Y0340057D02*
X0235100Y0340057D01*
X0235100Y0340656D02*
X0222900Y0340656D01*
X0222900Y0341254D02*
X0235100Y0341254D01*
X0235100Y0341853D02*
X0222900Y0341853D01*
X0222900Y0342451D02*
X0235100Y0342451D01*
X0235100Y0343050D02*
X0222900Y0343050D01*
X0222900Y0343648D02*
X0235100Y0343648D01*
X0235100Y0344247D02*
X0222900Y0344247D01*
X0222900Y0344845D02*
X0235100Y0344845D01*
X0235100Y0345444D02*
X0222900Y0345444D01*
X0222900Y0346043D02*
X0235100Y0346043D01*
X0235100Y0346641D02*
X0222900Y0346641D01*
X0222900Y0347240D02*
X0235100Y0347240D01*
X0235100Y0347838D02*
X0222900Y0347838D01*
X0222900Y0348437D02*
X0235100Y0348437D01*
X0235100Y0349035D02*
X0222900Y0349035D01*
X0222900Y0349634D02*
X0235100Y0349634D01*
X0235100Y0350232D02*
X0222900Y0350232D01*
X0222900Y0350831D02*
X0235100Y0350831D01*
X0235100Y0351429D02*
X0222900Y0351429D01*
X0222900Y0352028D02*
X0235100Y0352028D01*
X0235100Y0352626D02*
X0222900Y0352626D01*
X0222900Y0353225D02*
X0235100Y0353225D01*
X0235100Y0353823D02*
X0222900Y0353823D01*
X0222900Y0354422D02*
X0235100Y0354422D01*
X0235100Y0355020D02*
X0222900Y0355020D01*
X0222900Y0355619D02*
X0235100Y0355619D01*
X0235100Y0356217D02*
X0222900Y0356217D01*
X0222900Y0356816D02*
X0235100Y0356816D01*
X0235100Y0357414D02*
X0222900Y0357414D01*
X0222900Y0358013D02*
X0235100Y0358013D01*
X0235100Y0358611D02*
X0222900Y0358611D01*
X0222900Y0359210D02*
X0235100Y0359210D01*
X0235100Y0359808D02*
X0222900Y0359808D01*
X0222900Y0360407D02*
X0235100Y0360407D01*
X0235100Y0361005D02*
X0222900Y0361005D01*
X0222900Y0361604D02*
X0235100Y0361604D01*
X0235100Y0362202D02*
X0222900Y0362202D01*
X0222900Y0362801D02*
X0235100Y0362801D01*
X0235100Y0363399D02*
X0222900Y0363399D01*
X0222900Y0363998D02*
X0235100Y0363998D01*
X0235100Y0364596D02*
X0222900Y0364596D01*
X0222900Y0365195D02*
X0235100Y0365195D01*
X0235100Y0365793D02*
X0222900Y0365793D01*
X0222900Y0366392D02*
X0235100Y0366392D01*
X0235100Y0366990D02*
X0222900Y0366990D01*
X0222900Y0367589D02*
X0235100Y0367589D01*
X0235100Y0368187D02*
X0222900Y0368187D01*
X0222900Y0368786D02*
X0235100Y0368786D01*
X0235100Y0369384D02*
X0222900Y0369384D01*
X0222900Y0369983D02*
X0235100Y0369983D01*
X0233816Y0370581D02*
X0222900Y0370581D01*
X0222900Y0371180D02*
X0233218Y0371180D01*
X0232619Y0371779D02*
X0227405Y0371779D01*
X0228849Y0372377D02*
X0232021Y0372377D01*
X0231422Y0372976D02*
X0229481Y0372976D01*
X0230079Y0373574D02*
X0230824Y0373574D01*
X0230500Y0374173D02*
X0230398Y0374173D01*
X0231700Y0374395D02*
X0234395Y0371700D01*
X0236300Y0371700D01*
X0236300Y0266300D01*
X0151300Y0181300D01*
X0153346Y0185043D02*
X0093918Y0185043D01*
X0093758Y0184657D02*
X0094200Y0185723D01*
X0094200Y0186877D01*
X0093758Y0187943D01*
X0093140Y0188561D01*
X0093404Y0188737D01*
X0093863Y0189196D01*
X0094224Y0189737D01*
X0094473Y0190337D01*
X0094600Y0190975D01*
X0094600Y0191100D01*
X0091500Y0191100D01*
X0091500Y0191500D01*
X0094600Y0191500D01*
X0094600Y0191625D01*
X0094473Y0192263D01*
X0094224Y0192863D01*
X0093863Y0193404D01*
X0093404Y0193863D01*
X0093140Y0194039D01*
X0093758Y0194657D01*
X0094200Y0195723D01*
X0094200Y0196877D01*
X0093758Y0197943D01*
X0092943Y0198758D01*
X0092842Y0198800D01*
X0092943Y0198841D01*
X0093758Y0199657D01*
X0094200Y0200723D01*
X0094200Y0201877D01*
X0093758Y0202943D01*
X0092943Y0203758D01*
X0091877Y0204200D01*
X0090723Y0204200D01*
X0089657Y0203758D01*
X0088841Y0202943D01*
X0088400Y0201877D01*
X0088400Y0200723D01*
X0088841Y0199657D01*
X0089657Y0198841D01*
X0089757Y0198800D01*
X0089657Y0198758D01*
X0088841Y0197943D01*
X0088400Y0196877D01*
X0088400Y0195723D01*
X0088841Y0194657D01*
X0089460Y0194039D01*
X0089196Y0193863D01*
X0088737Y0193404D01*
X0088376Y0192863D01*
X0088127Y0192263D01*
X0088000Y0191625D01*
X0088000Y0191500D01*
X0091100Y0191500D01*
X0091100Y0191100D01*
X0088000Y0191100D01*
X0088000Y0190975D01*
X0088127Y0190337D01*
X0088376Y0189737D01*
X0088737Y0189196D01*
X0089196Y0188737D01*
X0089460Y0188561D01*
X0088841Y0187943D01*
X0088400Y0186877D01*
X0088400Y0185723D01*
X0088841Y0184657D01*
X0089657Y0183841D01*
X0089757Y0183800D01*
X0089657Y0183758D01*
X0088841Y0182943D01*
X0088400Y0181877D01*
X0088400Y0180723D01*
X0088841Y0179657D01*
X0089657Y0178841D01*
X0090723Y0178400D01*
X0091877Y0178400D01*
X0092943Y0178841D01*
X0093758Y0179657D01*
X0094200Y0180723D01*
X0094200Y0181877D01*
X0093758Y0182943D01*
X0092943Y0183758D01*
X0092843Y0183800D01*
X0092943Y0183841D01*
X0093758Y0184657D01*
X0093546Y0184444D02*
X0117145Y0184444D01*
X0116717Y0184267D02*
X0115733Y0183283D01*
X0115200Y0181996D01*
X0115200Y0180604D01*
X0115733Y0179317D01*
X0116717Y0178333D01*
X0118004Y0177800D01*
X0124596Y0177800D01*
X0125883Y0178333D01*
X0126867Y0179317D01*
X0127400Y0180604D01*
X0127400Y0181996D01*
X0126867Y0183283D01*
X0125883Y0184267D01*
X0124596Y0184800D01*
X0118004Y0184800D01*
X0116717Y0184267D01*
X0116296Y0183846D02*
X0092947Y0183846D01*
X0093454Y0183247D02*
X0115718Y0183247D01*
X0115470Y0182649D02*
X0093880Y0182649D01*
X0094128Y0182050D02*
X0115222Y0182050D01*
X0115200Y0181452D02*
X0094200Y0181452D01*
X0094200Y0180853D02*
X0115200Y0180853D01*
X0115345Y0180255D02*
X0094006Y0180255D01*
X0093758Y0179656D02*
X0115592Y0179656D01*
X0115992Y0179058D02*
X0093159Y0179058D01*
X0092020Y0178459D02*
X0116591Y0178459D01*
X0117857Y0177861D02*
X0005600Y0177861D01*
X0005600Y0178459D02*
X0090580Y0178459D01*
X0089441Y0179058D02*
X0005600Y0179058D01*
X0005600Y0179656D02*
X0088842Y0179656D01*
X0088594Y0180255D02*
X0005600Y0180255D01*
X0005600Y0180853D02*
X0088400Y0180853D01*
X0088400Y0181452D02*
X0005600Y0181452D01*
X0005600Y0182050D02*
X0088472Y0182050D01*
X0088720Y0182649D02*
X0005600Y0182649D01*
X0005600Y0183247D02*
X0089146Y0183247D01*
X0089653Y0183846D02*
X0005600Y0183846D01*
X0005600Y0184444D02*
X0089054Y0184444D01*
X0088682Y0185043D02*
X0005600Y0185043D01*
X0005600Y0185641D02*
X0088434Y0185641D01*
X0088400Y0186240D02*
X0005600Y0186240D01*
X0005600Y0186839D02*
X0088400Y0186839D01*
X0088632Y0187437D02*
X0005600Y0187437D01*
X0005600Y0188036D02*
X0088934Y0188036D01*
X0089350Y0188634D02*
X0005600Y0188634D01*
X0005600Y0189233D02*
X0088713Y0189233D01*
X0088337Y0189831D02*
X0005600Y0189831D01*
X0005600Y0190430D02*
X0088108Y0190430D01*
X0088000Y0191028D02*
X0005600Y0191028D01*
X0005600Y0191627D02*
X0088000Y0191627D01*
X0088119Y0192225D02*
X0005600Y0192225D01*
X0005600Y0192824D02*
X0088359Y0192824D01*
X0088755Y0193422D02*
X0005600Y0193422D01*
X0005600Y0194021D02*
X0089432Y0194021D01*
X0088880Y0194619D02*
X0005600Y0194619D01*
X0005600Y0195218D02*
X0088609Y0195218D01*
X0088400Y0195816D02*
X0005600Y0195816D01*
X0005600Y0196415D02*
X0088400Y0196415D01*
X0088456Y0197013D02*
X0005600Y0197013D01*
X0005600Y0197612D02*
X0088704Y0197612D01*
X0089109Y0198210D02*
X0058160Y0198210D01*
X0057750Y0197800D02*
X0059800Y0199850D01*
X0059800Y0202750D01*
X0057750Y0204800D01*
X0054850Y0204800D01*
X0052800Y0202750D01*
X0052800Y0199850D01*
X0054850Y0197800D01*
X0057750Y0197800D01*
X0058758Y0198809D02*
X0089736Y0198809D01*
X0089092Y0199407D02*
X0059357Y0199407D01*
X0059800Y0200006D02*
X0088697Y0200006D01*
X0088449Y0200604D02*
X0059800Y0200604D01*
X0059800Y0201203D02*
X0088400Y0201203D01*
X0088400Y0201801D02*
X0059800Y0201801D01*
X0059800Y0202400D02*
X0088617Y0202400D01*
X0088897Y0202998D02*
X0059551Y0202998D01*
X0058953Y0203597D02*
X0089496Y0203597D01*
X0090712Y0204195D02*
X0058354Y0204195D01*
X0057756Y0204794D02*
X0117989Y0204794D01*
X0118004Y0204800D02*
X0116717Y0204267D01*
X0115733Y0203283D01*
X0115200Y0201996D01*
X0115200Y0200604D01*
X0115733Y0199317D01*
X0116717Y0198333D01*
X0118004Y0197800D01*
X0124596Y0197800D01*
X0125883Y0198333D01*
X0126867Y0199317D01*
X0127400Y0200604D01*
X0127400Y0201996D01*
X0126867Y0203283D01*
X0125883Y0204267D01*
X0124596Y0204800D01*
X0118004Y0204800D01*
X0116646Y0204195D02*
X0091888Y0204195D01*
X0093104Y0203597D02*
X0116047Y0203597D01*
X0115615Y0202998D02*
X0093703Y0202998D01*
X0093983Y0202400D02*
X0115367Y0202400D01*
X0115200Y0201801D02*
X0094200Y0201801D01*
X0094200Y0201203D02*
X0115200Y0201203D01*
X0115200Y0200604D02*
X0094151Y0200604D01*
X0093903Y0200006D02*
X0115448Y0200006D01*
X0115696Y0199407D02*
X0093508Y0199407D01*
X0092864Y0198809D02*
X0116242Y0198809D01*
X0117013Y0198210D02*
X0093491Y0198210D01*
X0093896Y0197612D02*
X0147413Y0197612D01*
X0147562Y0197550D02*
X0148316Y0197400D01*
X0151000Y0197400D01*
X0151000Y0201000D01*
X0151600Y0201000D01*
X0151600Y0201600D01*
X0151000Y0201600D01*
X0151000Y0205200D01*
X0148316Y0205200D01*
X0147562Y0205050D01*
X0146853Y0204756D01*
X0146214Y0204329D01*
X0145671Y0203786D01*
X0145244Y0203147D01*
X0144950Y0202438D01*
X0144800Y0201684D01*
X0144800Y0201600D01*
X0151000Y0201600D01*
X0151000Y0201000D01*
X0144800Y0201000D01*
X0144800Y0200916D01*
X0144950Y0200162D01*
X0145244Y0199453D01*
X0145671Y0198814D01*
X0146214Y0198271D01*
X0146853Y0197844D01*
X0147562Y0197550D01*
X0146304Y0198210D02*
X0125587Y0198210D01*
X0126358Y0198809D02*
X0145676Y0198809D01*
X0145274Y0199407D02*
X0126904Y0199407D01*
X0127152Y0200006D02*
X0145015Y0200006D01*
X0144862Y0200604D02*
X0127400Y0200604D01*
X0127400Y0201203D02*
X0151000Y0201203D01*
X0151000Y0201801D02*
X0151600Y0201801D01*
X0151600Y0201600D02*
X0151600Y0205200D01*
X0154284Y0205200D01*
X0155038Y0205050D01*
X0155747Y0204756D01*
X0156386Y0204329D01*
X0156929Y0203786D01*
X0157356Y0203147D01*
X0157650Y0202438D01*
X0157800Y0201684D01*
X0157800Y0201600D01*
X0151600Y0201600D01*
X0151600Y0201203D02*
X0159506Y0201203D01*
X0160104Y0201801D02*
X0157777Y0201801D01*
X0157658Y0202400D02*
X0160703Y0202400D01*
X0161301Y0202998D02*
X0157418Y0202998D01*
X0157056Y0203597D02*
X0161900Y0203597D01*
X0162498Y0204195D02*
X0156520Y0204195D01*
X0155656Y0204794D02*
X0163097Y0204794D01*
X0163695Y0205392D02*
X0005600Y0205392D01*
X0005600Y0204794D02*
X0044844Y0204794D01*
X0044850Y0204800D02*
X0042800Y0202750D01*
X0042800Y0199850D01*
X0044850Y0197800D01*
X0047750Y0197800D01*
X0049800Y0199850D01*
X0049800Y0202750D01*
X0047750Y0204800D01*
X0044850Y0204800D01*
X0044246Y0204195D02*
X0005600Y0204195D01*
X0005600Y0203597D02*
X0043647Y0203597D01*
X0043049Y0202998D02*
X0005600Y0202998D01*
X0005600Y0202400D02*
X0042800Y0202400D01*
X0042800Y0201801D02*
X0005600Y0201801D01*
X0005600Y0201203D02*
X0042800Y0201203D01*
X0042800Y0200604D02*
X0005600Y0200604D01*
X0005600Y0200006D02*
X0042800Y0200006D01*
X0043243Y0199407D02*
X0005600Y0199407D01*
X0005600Y0198809D02*
X0043842Y0198809D01*
X0044440Y0198210D02*
X0005600Y0198210D01*
X0005600Y0205991D02*
X0164294Y0205991D01*
X0164892Y0206589D02*
X0005600Y0206589D01*
X0005600Y0207188D02*
X0165491Y0207188D01*
X0166089Y0207786D02*
X0005600Y0207786D01*
X0005600Y0208385D02*
X0116665Y0208385D01*
X0116717Y0208333D02*
X0118004Y0207800D01*
X0124596Y0207800D01*
X0125883Y0208333D01*
X0126867Y0209317D01*
X0127400Y0210604D01*
X0127400Y0211996D01*
X0126867Y0213283D01*
X0125883Y0214267D01*
X0124596Y0214800D01*
X0118004Y0214800D01*
X0116717Y0214267D01*
X0115733Y0213283D01*
X0115200Y0211996D01*
X0115200Y0210604D01*
X0115733Y0209317D01*
X0116717Y0208333D01*
X0116067Y0208983D02*
X0005600Y0208983D01*
X0005600Y0209582D02*
X0115623Y0209582D01*
X0115375Y0210180D02*
X0005600Y0210180D01*
X0005600Y0210779D02*
X0115200Y0210779D01*
X0115200Y0211377D02*
X0005600Y0211377D01*
X0005600Y0211976D02*
X0115200Y0211976D01*
X0115440Y0212574D02*
X0005600Y0212574D01*
X0005600Y0213173D02*
X0115687Y0213173D01*
X0116222Y0213772D02*
X0005600Y0213772D01*
X0005600Y0214370D02*
X0116966Y0214370D01*
X0125634Y0214370D02*
X0146966Y0214370D01*
X0146717Y0214267D02*
X0145733Y0213283D01*
X0145200Y0211996D01*
X0145200Y0210604D01*
X0145733Y0209317D01*
X0146717Y0208333D01*
X0148004Y0207800D01*
X0154596Y0207800D01*
X0155883Y0208333D01*
X0156867Y0209317D01*
X0157400Y0210604D01*
X0157400Y0211996D01*
X0156867Y0213283D01*
X0155883Y0214267D01*
X0154596Y0214800D01*
X0148004Y0214800D01*
X0146717Y0214267D01*
X0146222Y0213772D02*
X0126378Y0213772D01*
X0126913Y0213173D02*
X0145687Y0213173D01*
X0145440Y0212574D02*
X0127160Y0212574D01*
X0127400Y0211976D02*
X0145200Y0211976D01*
X0145200Y0211377D02*
X0127400Y0211377D01*
X0127400Y0210779D02*
X0145200Y0210779D01*
X0145375Y0210180D02*
X0127225Y0210180D01*
X0126977Y0209582D02*
X0145623Y0209582D01*
X0146067Y0208983D02*
X0126533Y0208983D01*
X0125935Y0208385D02*
X0146665Y0208385D01*
X0146944Y0204794D02*
X0124611Y0204794D01*
X0125954Y0204195D02*
X0146080Y0204195D01*
X0145544Y0203597D02*
X0126553Y0203597D01*
X0126985Y0202998D02*
X0145182Y0202998D01*
X0144942Y0202400D02*
X0127233Y0202400D01*
X0127400Y0201801D02*
X0144823Y0201801D01*
X0151000Y0202400D02*
X0151600Y0202400D01*
X0151600Y0202998D02*
X0151000Y0202998D01*
X0151000Y0203597D02*
X0151600Y0203597D01*
X0151600Y0204195D02*
X0151000Y0204195D01*
X0151000Y0204794D02*
X0151600Y0204794D01*
X0151600Y0201000D02*
X0157800Y0201000D01*
X0157800Y0200916D01*
X0157650Y0200162D01*
X0157356Y0199453D01*
X0156929Y0198814D01*
X0156386Y0198271D01*
X0155747Y0197844D01*
X0155038Y0197550D01*
X0154284Y0197400D01*
X0151600Y0197400D01*
X0151600Y0201000D01*
X0151600Y0200604D02*
X0151000Y0200604D01*
X0151000Y0200006D02*
X0151600Y0200006D01*
X0151600Y0199407D02*
X0151000Y0199407D01*
X0151000Y0198809D02*
X0151600Y0198809D01*
X0151600Y0198210D02*
X0151000Y0198210D01*
X0151000Y0197612D02*
X0151600Y0197612D01*
X0153521Y0195218D02*
X0093991Y0195218D01*
X0094200Y0195816D02*
X0154119Y0195816D01*
X0154718Y0196415D02*
X0094200Y0196415D01*
X0094144Y0197013D02*
X0155316Y0197013D01*
X0155187Y0197612D02*
X0155915Y0197612D01*
X0156296Y0198210D02*
X0156513Y0198210D01*
X0156924Y0198809D02*
X0157112Y0198809D01*
X0157326Y0199407D02*
X0157710Y0199407D01*
X0157585Y0200006D02*
X0158309Y0200006D01*
X0157738Y0200604D02*
X0158907Y0200604D01*
X0160506Y0198809D02*
X0167112Y0198809D01*
X0167710Y0199407D02*
X0161104Y0199407D01*
X0161703Y0200006D02*
X0168309Y0200006D01*
X0168907Y0200604D02*
X0162301Y0200604D01*
X0162900Y0201203D02*
X0169506Y0201203D01*
X0170104Y0201801D02*
X0163498Y0201801D01*
X0164097Y0202400D02*
X0170703Y0202400D01*
X0171301Y0202998D02*
X0164695Y0202998D01*
X0165294Y0203597D02*
X0171900Y0203597D01*
X0172498Y0204195D02*
X0165892Y0204195D01*
X0166491Y0204794D02*
X0173097Y0204794D01*
X0173695Y0205392D02*
X0167089Y0205392D01*
X0167688Y0205991D02*
X0174294Y0205991D01*
X0174892Y0206589D02*
X0168286Y0206589D01*
X0168885Y0207188D02*
X0175491Y0207188D01*
X0176089Y0207786D02*
X0169483Y0207786D01*
X0170082Y0208385D02*
X0176688Y0208385D01*
X0177286Y0208983D02*
X0170680Y0208983D01*
X0171279Y0209582D02*
X0177885Y0209582D01*
X0178483Y0210180D02*
X0171877Y0210180D01*
X0172476Y0210779D02*
X0179082Y0210779D01*
X0179680Y0211377D02*
X0173075Y0211377D01*
X0173673Y0211976D02*
X0180279Y0211976D01*
X0180877Y0212574D02*
X0174272Y0212574D01*
X0174870Y0213173D02*
X0181476Y0213173D01*
X0182074Y0213772D02*
X0175469Y0213772D01*
X0176067Y0214370D02*
X0182673Y0214370D01*
X0183271Y0214969D02*
X0176666Y0214969D01*
X0177264Y0215567D02*
X0183870Y0215567D01*
X0184469Y0216166D02*
X0177863Y0216166D01*
X0178461Y0216764D02*
X0185067Y0216764D01*
X0185666Y0217363D02*
X0179060Y0217363D01*
X0179658Y0217961D02*
X0186264Y0217961D01*
X0186863Y0218560D02*
X0180257Y0218560D01*
X0180855Y0219158D02*
X0187461Y0219158D01*
X0188060Y0219757D02*
X0181454Y0219757D01*
X0182052Y0220355D02*
X0188658Y0220355D01*
X0189257Y0220954D02*
X0182651Y0220954D01*
X0183249Y0221552D02*
X0189855Y0221552D01*
X0190454Y0222151D02*
X0183848Y0222151D01*
X0184446Y0222749D02*
X0191052Y0222749D01*
X0191651Y0223348D02*
X0185045Y0223348D01*
X0185643Y0223946D02*
X0192249Y0223946D01*
X0192848Y0224545D02*
X0186242Y0224545D01*
X0186840Y0225143D02*
X0193446Y0225143D01*
X0194045Y0225742D02*
X0187439Y0225742D01*
X0188037Y0226340D02*
X0194643Y0226340D01*
X0195242Y0226939D02*
X0188636Y0226939D01*
X0189234Y0227537D02*
X0195840Y0227537D01*
X0191227Y0232924D02*
X0005600Y0232924D01*
X0005600Y0233522D02*
X0191825Y0233522D01*
X0192424Y0234121D02*
X0005600Y0234121D01*
X0005600Y0234719D02*
X0193022Y0234719D01*
X0193621Y0235318D02*
X0005600Y0235318D01*
X0005600Y0235916D02*
X0194219Y0235916D01*
X0194818Y0236515D02*
X0005600Y0236515D01*
X0005600Y0237113D02*
X0195416Y0237113D01*
X0196015Y0237712D02*
X0005600Y0237712D01*
X0005600Y0238310D02*
X0196613Y0238310D01*
X0197212Y0238909D02*
X0005600Y0238909D01*
X0005600Y0239508D02*
X0197810Y0239508D01*
X0198409Y0240106D02*
X0005600Y0240106D01*
X0005600Y0240705D02*
X0199007Y0240705D01*
X0199606Y0241303D02*
X0005600Y0241303D01*
X0005600Y0241902D02*
X0200205Y0241902D01*
X0200803Y0242500D02*
X0005600Y0242500D01*
X0005600Y0243099D02*
X0201402Y0243099D01*
X0202000Y0243697D02*
X0005600Y0243697D01*
X0005600Y0244296D02*
X0202599Y0244296D01*
X0203197Y0244894D02*
X0005600Y0244894D01*
X0005600Y0245493D02*
X0203796Y0245493D01*
X0204394Y0246091D02*
X0005600Y0246091D01*
X0005600Y0246690D02*
X0204993Y0246690D01*
X0205591Y0247288D02*
X0005600Y0247288D01*
X0005600Y0247887D02*
X0206190Y0247887D01*
X0206788Y0248485D02*
X0005600Y0248485D01*
X0005600Y0249084D02*
X0207387Y0249084D01*
X0207985Y0249682D02*
X0005600Y0249682D01*
X0005600Y0250281D02*
X0208584Y0250281D01*
X0209182Y0250879D02*
X0005600Y0250879D01*
X0005600Y0251478D02*
X0209781Y0251478D01*
X0210379Y0252076D02*
X0005600Y0252076D01*
X0005600Y0252675D02*
X0210978Y0252675D01*
X0211576Y0253273D02*
X0005600Y0253273D01*
X0005600Y0253872D02*
X0212175Y0253872D01*
X0212773Y0254470D02*
X0005600Y0254470D01*
X0005600Y0255069D02*
X0213372Y0255069D01*
X0213970Y0255667D02*
X0005600Y0255667D01*
X0005600Y0256266D02*
X0214569Y0256266D01*
X0215167Y0256864D02*
X0005600Y0256864D01*
X0005600Y0257463D02*
X0215766Y0257463D01*
X0216364Y0258061D02*
X0005600Y0258061D01*
X0005600Y0258660D02*
X0216963Y0258660D01*
X0217561Y0259258D02*
X0005600Y0259258D01*
X0005600Y0259857D02*
X0218160Y0259857D01*
X0218758Y0260455D02*
X0005600Y0260455D01*
X0005600Y0261054D02*
X0219357Y0261054D01*
X0219955Y0261652D02*
X0005600Y0261652D01*
X0005600Y0262251D02*
X0220500Y0262251D01*
X0220500Y0262849D02*
X0005600Y0262849D01*
X0005600Y0263448D02*
X0220500Y0263448D01*
X0220500Y0264046D02*
X0005600Y0264046D01*
X0005600Y0264645D02*
X0220500Y0264645D01*
X0220500Y0265243D02*
X0005600Y0265243D01*
X0005600Y0265842D02*
X0220500Y0265842D01*
X0220500Y0266441D02*
X0005600Y0266441D01*
X0005600Y0267039D02*
X0220500Y0267039D01*
X0220500Y0267638D02*
X0005600Y0267638D01*
X0005600Y0268236D02*
X0220500Y0268236D01*
X0220500Y0268835D02*
X0005600Y0268835D01*
X0005600Y0269433D02*
X0220500Y0269433D01*
X0220500Y0270032D02*
X0005600Y0270032D01*
X0005600Y0270630D02*
X0220500Y0270630D01*
X0220500Y0271229D02*
X0005600Y0271229D01*
X0005600Y0271827D02*
X0220500Y0271827D01*
X0220500Y0272426D02*
X0005600Y0272426D01*
X0005600Y0273024D02*
X0220500Y0273024D01*
X0220500Y0273623D02*
X0005600Y0273623D01*
X0005600Y0274221D02*
X0205000Y0274221D01*
X0205310Y0273911D02*
X0207290Y0273911D01*
X0208689Y0275310D01*
X0208689Y0277290D01*
X0207500Y0278479D01*
X0207500Y0314121D01*
X0208689Y0315310D01*
X0208689Y0317290D01*
X0207290Y0318689D01*
X0205310Y0318689D01*
X0203911Y0317290D01*
X0203911Y0315310D01*
X0205100Y0314121D01*
X0205100Y0278479D01*
X0203911Y0277290D01*
X0203911Y0275310D01*
X0205310Y0273911D01*
X0204402Y0274820D02*
X0005600Y0274820D01*
X0005600Y0275418D02*
X0203911Y0275418D01*
X0203911Y0276017D02*
X0005600Y0276017D01*
X0005600Y0276615D02*
X0203911Y0276615D01*
X0203911Y0277214D02*
X0005600Y0277214D01*
X0005600Y0277812D02*
X0204434Y0277812D01*
X0205032Y0278411D02*
X0005600Y0278411D01*
X0005600Y0279009D02*
X0205100Y0279009D01*
X0205100Y0279608D02*
X0005600Y0279608D01*
X0005600Y0280206D02*
X0205100Y0280206D01*
X0205100Y0280805D02*
X0005600Y0280805D01*
X0005600Y0281403D02*
X0015254Y0281403D01*
X0015129Y0281423D02*
X0015906Y0281300D01*
X0016000Y0281300D01*
X0016000Y0286000D01*
X0016600Y0286000D01*
X0016600Y0286600D01*
X0021300Y0286600D01*
X0021300Y0286694D01*
X0021177Y0287471D01*
X0020934Y0288219D01*
X0020576Y0288921D01*
X0020114Y0289557D01*
X0019557Y0290114D01*
X0018921Y0290576D01*
X0018219Y0290934D01*
X0017471Y0291177D01*
X0016694Y0291300D01*
X0016600Y0291300D01*
X0016600Y0286600D01*
X0016000Y0286600D01*
X0016000Y0291300D01*
X0015906Y0291300D01*
X0015129Y0291177D01*
X0014381Y0290934D01*
X0013679Y0290576D01*
X0013043Y0290114D01*
X0012486Y0289557D01*
X0012024Y0288921D01*
X0011666Y0288219D01*
X0011423Y0287471D01*
X0011300Y0286694D01*
X0011300Y0286600D01*
X0016000Y0286600D01*
X0016000Y0286000D01*
X0011300Y0286000D01*
X0011300Y0285906D01*
X0011423Y0285129D01*
X0011666Y0284381D01*
X0012024Y0283679D01*
X0012486Y0283043D01*
X0013043Y0282486D01*
X0013679Y0282024D01*
X0014381Y0281666D01*
X0015129Y0281423D01*
X0016000Y0281403D02*
X0016600Y0281403D01*
X0016600Y0281300D02*
X0016694Y0281300D01*
X0017471Y0281423D01*
X0018219Y0281666D01*
X0018921Y0282024D01*
X0019557Y0282486D01*
X0020114Y0283043D01*
X0020576Y0283679D01*
X0020934Y0284381D01*
X0021177Y0285129D01*
X0021300Y0285906D01*
X0021300Y0286000D01*
X0016600Y0286000D01*
X0016600Y0281300D01*
X0016600Y0282002D02*
X0016000Y0282002D01*
X0016000Y0282600D02*
X0016600Y0282600D01*
X0016600Y0283199D02*
X0016000Y0283199D01*
X0016000Y0283797D02*
X0016600Y0283797D01*
X0016600Y0284396D02*
X0016000Y0284396D01*
X0016000Y0284994D02*
X0016600Y0284994D01*
X0016600Y0285593D02*
X0016000Y0285593D01*
X0016000Y0286191D02*
X0005600Y0286191D01*
X0005600Y0285593D02*
X0011350Y0285593D01*
X0011467Y0284994D02*
X0005600Y0284994D01*
X0005600Y0284396D02*
X0011661Y0284396D01*
X0011964Y0283797D02*
X0005600Y0283797D01*
X0005600Y0283199D02*
X0012373Y0283199D01*
X0012929Y0282600D02*
X0005600Y0282600D01*
X0005600Y0282002D02*
X0013722Y0282002D01*
X0017346Y0281403D02*
X0205100Y0281403D01*
X0205100Y0282002D02*
X0018878Y0282002D01*
X0019671Y0282600D02*
X0205100Y0282600D01*
X0205100Y0283199D02*
X0020227Y0283199D01*
X0020636Y0283797D02*
X0205100Y0283797D01*
X0205100Y0284396D02*
X0020939Y0284396D01*
X0021133Y0284994D02*
X0205100Y0284994D01*
X0205100Y0285593D02*
X0021250Y0285593D01*
X0021285Y0286790D02*
X0205100Y0286790D01*
X0205100Y0287388D02*
X0021190Y0287388D01*
X0021009Y0287987D02*
X0205100Y0287987D01*
X0205100Y0288585D02*
X0020747Y0288585D01*
X0020385Y0289184D02*
X0205100Y0289184D01*
X0205100Y0289782D02*
X0019889Y0289782D01*
X0019190Y0290381D02*
X0205100Y0290381D01*
X0205100Y0290979D02*
X0018078Y0290979D01*
X0017215Y0291700D02*
X0018906Y0292400D01*
X0020200Y0293694D01*
X0020900Y0295385D01*
X0020900Y0297215D01*
X0020200Y0298906D01*
X0018906Y0300200D01*
X0017215Y0300900D01*
X0015385Y0300900D01*
X0013694Y0300200D01*
X0012400Y0298906D01*
X0011700Y0297215D01*
X0011700Y0295385D01*
X0012400Y0293694D01*
X0013694Y0292400D01*
X0015385Y0291700D01*
X0017215Y0291700D01*
X0016600Y0290979D02*
X0016000Y0290979D01*
X0016000Y0290381D02*
X0016600Y0290381D01*
X0016600Y0289782D02*
X0016000Y0289782D01*
X0016000Y0289184D02*
X0016600Y0289184D01*
X0016600Y0288585D02*
X0016000Y0288585D01*
X0016000Y0287987D02*
X0016600Y0287987D01*
X0016600Y0287388D02*
X0016000Y0287388D01*
X0016000Y0286790D02*
X0016600Y0286790D01*
X0016600Y0286191D02*
X0205100Y0286191D01*
X0207500Y0286191D02*
X0220500Y0286191D01*
X0220500Y0285593D02*
X0207500Y0285593D01*
X0207500Y0284994D02*
X0220500Y0284994D01*
X0220500Y0284396D02*
X0207500Y0284396D01*
X0207500Y0283797D02*
X0220500Y0283797D01*
X0220500Y0283199D02*
X0207500Y0283199D01*
X0207500Y0282600D02*
X0220500Y0282600D01*
X0220500Y0282002D02*
X0207500Y0282002D01*
X0207500Y0281403D02*
X0220500Y0281403D01*
X0220500Y0280805D02*
X0207500Y0280805D01*
X0207500Y0280206D02*
X0220500Y0280206D01*
X0220500Y0279608D02*
X0207500Y0279608D01*
X0207500Y0279009D02*
X0220500Y0279009D01*
X0220500Y0278411D02*
X0207568Y0278411D01*
X0208166Y0277812D02*
X0220500Y0277812D01*
X0220500Y0277214D02*
X0208689Y0277214D01*
X0208689Y0276615D02*
X0220500Y0276615D01*
X0220500Y0276017D02*
X0208689Y0276017D01*
X0208689Y0275418D02*
X0220500Y0275418D01*
X0220500Y0274820D02*
X0208198Y0274820D01*
X0207600Y0274221D02*
X0220500Y0274221D01*
X0221700Y0261700D02*
X0221700Y0378205D01*
X0225995Y0382500D01*
X0236797Y0382500D01*
X0242997Y0376300D01*
X0246300Y0376300D01*
X0249546Y0379559D02*
X0253054Y0379559D01*
X0253652Y0380158D02*
X0248948Y0380158D01*
X0247562Y0380756D02*
X0255038Y0380756D01*
X0255385Y0380900D02*
X0253694Y0380200D01*
X0252400Y0378906D01*
X0251700Y0377215D01*
X0251700Y0375385D01*
X0252400Y0373694D01*
X0253694Y0372400D01*
X0255385Y0371700D01*
X0257215Y0371700D01*
X0258906Y0372400D01*
X0260200Y0373694D01*
X0260900Y0375385D01*
X0260900Y0377215D01*
X0260200Y0378906D01*
X0258906Y0380200D01*
X0257215Y0380900D01*
X0255385Y0380900D01*
X0257562Y0380756D02*
X0390701Y0380756D01*
X0390701Y0380158D02*
X0258948Y0380158D01*
X0259546Y0379559D02*
X0390701Y0379559D01*
X0390701Y0378961D02*
X0260145Y0378961D01*
X0260425Y0378362D02*
X0390701Y0378362D01*
X0390701Y0377764D02*
X0260673Y0377764D01*
X0260900Y0377165D02*
X0390701Y0377165D01*
X0390701Y0376567D02*
X0260900Y0376567D01*
X0260900Y0375968D02*
X0390701Y0375968D01*
X0390701Y0375370D02*
X0260894Y0375370D01*
X0260646Y0374771D02*
X0390701Y0374771D01*
X0390701Y0374173D02*
X0260398Y0374173D01*
X0260079Y0373574D02*
X0390701Y0373574D01*
X0390701Y0372976D02*
X0259481Y0372976D01*
X0258849Y0372377D02*
X0390701Y0372377D01*
X0390701Y0371779D02*
X0257405Y0371779D01*
X0255195Y0371779D02*
X0247405Y0371779D01*
X0248849Y0372377D02*
X0253751Y0372377D01*
X0253119Y0372976D02*
X0249481Y0372976D01*
X0250079Y0373574D02*
X0252521Y0373574D01*
X0252202Y0374173D02*
X0250398Y0374173D01*
X0250646Y0374771D02*
X0251954Y0374771D01*
X0251706Y0375370D02*
X0250894Y0375370D01*
X0250900Y0375968D02*
X0251700Y0375968D01*
X0251700Y0376567D02*
X0250900Y0376567D01*
X0250900Y0377165D02*
X0251700Y0377165D01*
X0251927Y0377764D02*
X0250673Y0377764D01*
X0250425Y0378362D02*
X0252175Y0378362D01*
X0252455Y0378961D02*
X0250145Y0378961D01*
X0245038Y0380756D02*
X0240238Y0380756D01*
X0240836Y0380158D02*
X0243652Y0380158D01*
X0243054Y0379559D02*
X0241435Y0379559D01*
X0242033Y0378961D02*
X0242455Y0378961D01*
X0241033Y0376567D02*
X0240900Y0376567D01*
X0240900Y0375968D02*
X0241632Y0375968D01*
X0241706Y0375370D02*
X0240894Y0375370D01*
X0240646Y0374771D02*
X0241954Y0374771D01*
X0242202Y0374173D02*
X0240398Y0374173D01*
X0240079Y0373574D02*
X0242521Y0373574D01*
X0243119Y0372976D02*
X0239481Y0372976D01*
X0238849Y0372377D02*
X0243751Y0372377D01*
X0245195Y0371779D02*
X0237500Y0371779D01*
X0237500Y0371180D02*
X0390701Y0371180D01*
X0390701Y0370581D02*
X0237500Y0370581D01*
X0237500Y0369983D02*
X0390701Y0369983D01*
X0390701Y0369384D02*
X0237500Y0369384D01*
X0237500Y0368786D02*
X0390701Y0368786D01*
X0390701Y0368187D02*
X0237500Y0368187D01*
X0237500Y0367589D02*
X0390701Y0367589D01*
X0390701Y0366990D02*
X0237500Y0366990D01*
X0237500Y0366392D02*
X0390701Y0366392D01*
X0390701Y0365793D02*
X0237500Y0365793D01*
X0237500Y0365195D02*
X0390701Y0365195D01*
X0390701Y0364596D02*
X0237500Y0364596D01*
X0237500Y0363998D02*
X0390701Y0363998D01*
X0390701Y0363399D02*
X0237500Y0363399D01*
X0237500Y0362801D02*
X0390701Y0362801D01*
X0390701Y0362202D02*
X0237500Y0362202D01*
X0237500Y0361604D02*
X0390701Y0361604D01*
X0390701Y0361005D02*
X0237500Y0361005D01*
X0237500Y0360407D02*
X0390701Y0360407D01*
X0390701Y0359808D02*
X0237500Y0359808D01*
X0237500Y0359210D02*
X0390701Y0359210D01*
X0390701Y0358611D02*
X0237500Y0358611D01*
X0237500Y0358013D02*
X0390701Y0358013D01*
X0390701Y0357414D02*
X0237500Y0357414D01*
X0237500Y0356816D02*
X0390701Y0356816D01*
X0390701Y0356217D02*
X0237500Y0356217D01*
X0237500Y0355619D02*
X0390701Y0355619D01*
X0390701Y0355020D02*
X0237500Y0355020D01*
X0237500Y0354422D02*
X0390701Y0354422D01*
X0390701Y0353823D02*
X0237500Y0353823D01*
X0237500Y0353225D02*
X0390701Y0353225D01*
X0390701Y0352626D02*
X0237500Y0352626D01*
X0237500Y0352028D02*
X0390701Y0352028D01*
X0390701Y0351429D02*
X0237500Y0351429D01*
X0237500Y0350831D02*
X0390701Y0350831D01*
X0390701Y0350232D02*
X0237500Y0350232D01*
X0237500Y0349634D02*
X0390701Y0349634D01*
X0390701Y0349035D02*
X0237500Y0349035D01*
X0237500Y0348437D02*
X0390701Y0348437D01*
X0390701Y0347838D02*
X0237500Y0347838D01*
X0237500Y0347240D02*
X0390701Y0347240D01*
X0390701Y0346641D02*
X0237500Y0346641D01*
X0237500Y0346043D02*
X0390701Y0346043D01*
X0390701Y0345444D02*
X0237500Y0345444D01*
X0237500Y0344845D02*
X0390701Y0344845D01*
X0390701Y0344247D02*
X0237500Y0344247D01*
X0237500Y0343648D02*
X0390701Y0343648D01*
X0390701Y0343050D02*
X0237500Y0343050D01*
X0237500Y0342451D02*
X0390701Y0342451D01*
X0390701Y0341853D02*
X0237500Y0341853D01*
X0237500Y0341254D02*
X0390701Y0341254D01*
X0390701Y0340656D02*
X0237500Y0340656D01*
X0237500Y0340057D02*
X0390701Y0340057D01*
X0390701Y0339459D02*
X0237500Y0339459D01*
X0237500Y0338860D02*
X0390701Y0338860D01*
X0390701Y0338262D02*
X0237500Y0338262D01*
X0237500Y0337663D02*
X0390701Y0337663D01*
X0390701Y0337065D02*
X0237500Y0337065D01*
X0237500Y0336466D02*
X0390701Y0336466D01*
X0390701Y0335868D02*
X0237500Y0335868D01*
X0237500Y0335269D02*
X0390701Y0335269D01*
X0390701Y0334671D02*
X0237500Y0334671D01*
X0237500Y0334072D02*
X0390701Y0334072D01*
X0390701Y0333474D02*
X0237500Y0333474D01*
X0237500Y0332875D02*
X0390701Y0332875D01*
X0390701Y0332277D02*
X0237500Y0332277D01*
X0237500Y0331678D02*
X0390701Y0331678D01*
X0390701Y0331080D02*
X0237500Y0331080D01*
X0237500Y0330481D02*
X0390701Y0330481D01*
X0390701Y0329883D02*
X0237500Y0329883D01*
X0237500Y0329284D02*
X0390701Y0329284D01*
X0390701Y0328686D02*
X0237500Y0328686D01*
X0237500Y0328087D02*
X0390701Y0328087D01*
X0390701Y0327489D02*
X0237500Y0327489D01*
X0237500Y0326890D02*
X0390701Y0326890D01*
X0390701Y0326292D02*
X0237500Y0326292D01*
X0237500Y0325693D02*
X0390701Y0325693D01*
X0390701Y0325095D02*
X0237500Y0325095D01*
X0237500Y0324496D02*
X0390701Y0324496D01*
X0390701Y0323898D02*
X0237500Y0323898D01*
X0237500Y0323299D02*
X0390701Y0323299D01*
X0390701Y0322701D02*
X0237500Y0322701D01*
X0237500Y0322102D02*
X0390701Y0322102D01*
X0390701Y0321504D02*
X0237500Y0321504D01*
X0237500Y0320905D02*
X0390701Y0320905D01*
X0390701Y0320307D02*
X0237500Y0320307D01*
X0237500Y0319708D02*
X0390701Y0319708D01*
X0390701Y0319110D02*
X0237500Y0319110D01*
X0237500Y0318511D02*
X0390701Y0318511D01*
X0390701Y0317912D02*
X0237500Y0317912D01*
X0237500Y0317314D02*
X0390701Y0317314D01*
X0390701Y0316715D02*
X0237500Y0316715D01*
X0237500Y0316117D02*
X0390701Y0316117D01*
X0390701Y0315518D02*
X0237500Y0315518D01*
X0237500Y0314920D02*
X0390701Y0314920D01*
X0390701Y0314321D02*
X0237500Y0314321D01*
X0237500Y0313723D02*
X0390701Y0313723D01*
X0390701Y0313124D02*
X0237500Y0313124D01*
X0237500Y0312526D02*
X0390701Y0312526D01*
X0390701Y0311927D02*
X0237500Y0311927D01*
X0237500Y0311329D02*
X0390701Y0311329D01*
X0390701Y0310730D02*
X0237500Y0310730D01*
X0237500Y0310132D02*
X0390701Y0310132D01*
X0390701Y0309533D02*
X0237500Y0309533D01*
X0237500Y0308935D02*
X0390701Y0308935D01*
X0390701Y0308336D02*
X0237500Y0308336D01*
X0237500Y0307738D02*
X0390701Y0307738D01*
X0390701Y0307139D02*
X0237500Y0307139D01*
X0237500Y0306541D02*
X0390701Y0306541D01*
X0390701Y0305942D02*
X0237500Y0305942D01*
X0237500Y0305344D02*
X0390701Y0305344D01*
X0390701Y0304745D02*
X0308370Y0304745D01*
X0307915Y0305200D02*
X0306600Y0305200D01*
X0306600Y0301600D01*
X0310200Y0301600D01*
X0310200Y0302915D01*
X0307915Y0305200D01*
X0306600Y0304745D02*
X0306000Y0304745D01*
X0306000Y0305200D02*
X0304685Y0305200D01*
X0302400Y0302915D01*
X0302400Y0301600D01*
X0306000Y0301600D01*
X0306000Y0305200D01*
X0306000Y0304147D02*
X0306600Y0304147D01*
X0306600Y0303548D02*
X0306000Y0303548D01*
X0306000Y0302950D02*
X0306600Y0302950D01*
X0306600Y0302351D02*
X0306000Y0302351D01*
X0306000Y0301753D02*
X0306600Y0301753D01*
X0306600Y0301600D02*
X0306000Y0301600D01*
X0306000Y0301000D01*
X0306600Y0301000D01*
X0306600Y0301600D01*
X0306600Y0301154D02*
X0390701Y0301154D01*
X0390701Y0300556D02*
X0310200Y0300556D01*
X0310200Y0301000D02*
X0306600Y0301000D01*
X0306600Y0297400D01*
X0307915Y0297400D01*
X0310200Y0299685D01*
X0310200Y0301000D01*
X0310200Y0301753D02*
X0390701Y0301753D01*
X0390701Y0302351D02*
X0310200Y0302351D01*
X0310166Y0302950D02*
X0390701Y0302950D01*
X0390701Y0303548D02*
X0309567Y0303548D01*
X0308969Y0304147D02*
X0390701Y0304147D01*
X0390701Y0299957D02*
X0310200Y0299957D01*
X0309874Y0299359D02*
X0390701Y0299359D01*
X0390701Y0298760D02*
X0309276Y0298760D01*
X0308677Y0298162D02*
X0390701Y0298162D01*
X0390701Y0297563D02*
X0308079Y0297563D01*
X0306600Y0297563D02*
X0306000Y0297563D01*
X0306000Y0297400D02*
X0306000Y0301000D01*
X0302400Y0301000D01*
X0302400Y0299685D01*
X0304685Y0297400D01*
X0306000Y0297400D01*
X0306000Y0298162D02*
X0306600Y0298162D01*
X0306600Y0298760D02*
X0306000Y0298760D01*
X0306000Y0299359D02*
X0306600Y0299359D01*
X0306600Y0299957D02*
X0306000Y0299957D01*
X0306000Y0300556D02*
X0306600Y0300556D01*
X0306000Y0301154D02*
X0289800Y0301154D01*
X0289800Y0300604D02*
X0289267Y0299317D01*
X0288283Y0298333D01*
X0286996Y0297800D01*
X0285604Y0297800D01*
X0284317Y0298333D01*
X0283333Y0299317D01*
X0282800Y0300604D01*
X0282800Y0301996D01*
X0283333Y0303283D01*
X0284317Y0304267D01*
X0285604Y0304800D01*
X0286996Y0304800D01*
X0288283Y0304267D01*
X0289267Y0303283D01*
X0289800Y0301996D01*
X0289800Y0300604D01*
X0289780Y0300556D02*
X0302400Y0300556D01*
X0302400Y0299957D02*
X0289532Y0299957D01*
X0289284Y0299359D02*
X0302726Y0299359D01*
X0303324Y0298760D02*
X0288710Y0298760D01*
X0287869Y0298162D02*
X0303923Y0298162D01*
X0304521Y0297563D02*
X0237500Y0297563D01*
X0237500Y0296965D02*
X0390701Y0296965D01*
X0390701Y0296366D02*
X0237500Y0296366D01*
X0237500Y0295768D02*
X0390701Y0295768D01*
X0390701Y0295169D02*
X0237500Y0295169D01*
X0237500Y0294571D02*
X0390701Y0294571D01*
X0390701Y0293972D02*
X0237500Y0293972D01*
X0237500Y0293374D02*
X0390701Y0293374D01*
X0390701Y0292775D02*
X0237500Y0292775D01*
X0237500Y0292177D02*
X0390701Y0292177D01*
X0390701Y0291578D02*
X0237500Y0291578D01*
X0237500Y0290979D02*
X0390701Y0290979D01*
X0390701Y0290381D02*
X0237500Y0290381D01*
X0237500Y0289782D02*
X0390701Y0289782D01*
X0390701Y0289184D02*
X0237500Y0289184D01*
X0237500Y0288585D02*
X0390701Y0288585D01*
X0390701Y0287987D02*
X0237500Y0287987D01*
X0237500Y0287388D02*
X0390701Y0287388D01*
X0390701Y0286790D02*
X0237500Y0286790D01*
X0237500Y0286191D02*
X0390701Y0286191D01*
X0390701Y0285593D02*
X0237500Y0285593D01*
X0237500Y0284994D02*
X0390701Y0284994D01*
X0390701Y0284396D02*
X0237500Y0284396D01*
X0237500Y0283797D02*
X0390701Y0283797D01*
X0390701Y0283199D02*
X0237500Y0283199D01*
X0237500Y0282600D02*
X0390701Y0282600D01*
X0390701Y0282002D02*
X0237500Y0282002D01*
X0237500Y0281403D02*
X0390701Y0281403D01*
X0390701Y0280805D02*
X0237500Y0280805D01*
X0237500Y0280206D02*
X0390701Y0280206D01*
X0390701Y0279608D02*
X0237500Y0279608D01*
X0237500Y0279009D02*
X0390701Y0279009D01*
X0390701Y0278411D02*
X0237500Y0278411D01*
X0237500Y0277812D02*
X0390701Y0277812D01*
X0390701Y0277214D02*
X0237500Y0277214D01*
X0237500Y0276615D02*
X0390701Y0276615D01*
X0390701Y0276017D02*
X0237500Y0276017D01*
X0237500Y0275418D02*
X0390701Y0275418D01*
X0390701Y0274820D02*
X0237500Y0274820D01*
X0237500Y0274221D02*
X0390701Y0274221D01*
X0390701Y0273623D02*
X0237500Y0273623D01*
X0237500Y0273024D02*
X0390701Y0273024D01*
X0390701Y0272426D02*
X0237500Y0272426D01*
X0237500Y0271827D02*
X0390701Y0271827D01*
X0390701Y0271229D02*
X0237500Y0271229D01*
X0237500Y0270630D02*
X0254733Y0270630D01*
X0253526Y0270032D02*
X0237500Y0270032D01*
X0237500Y0269433D02*
X0252928Y0269433D01*
X0252371Y0268835D02*
X0237500Y0268835D01*
X0237500Y0268236D02*
X0252123Y0268236D01*
X0251875Y0267638D02*
X0237500Y0267638D01*
X0237500Y0267039D02*
X0251700Y0267039D01*
X0251700Y0266441D02*
X0237500Y0266441D01*
X0237500Y0265842D02*
X0251700Y0265842D01*
X0251759Y0265243D02*
X0236941Y0265243D01*
X0236342Y0264645D02*
X0252007Y0264645D01*
X0252254Y0264046D02*
X0235744Y0264046D01*
X0235145Y0263448D02*
X0252647Y0263448D01*
X0253245Y0262849D02*
X0234546Y0262849D01*
X0233948Y0262251D02*
X0254055Y0262251D01*
X0251338Y0255667D02*
X0227364Y0255667D01*
X0226766Y0255069D02*
X0251443Y0255069D01*
X0251637Y0254470D02*
X0226167Y0254470D01*
X0225569Y0253872D02*
X0251926Y0253872D01*
X0252319Y0253273D02*
X0224970Y0253273D01*
X0224372Y0252675D02*
X0252854Y0252675D01*
X0253607Y0252076D02*
X0223773Y0252076D01*
X0223175Y0251478D02*
X0254961Y0251478D01*
X0261178Y0257463D02*
X0390701Y0257463D01*
X0390701Y0258061D02*
X0260985Y0258061D01*
X0260709Y0258660D02*
X0390701Y0258660D01*
X0390701Y0259258D02*
X0260331Y0259258D01*
X0259814Y0259857D02*
X0390701Y0259857D01*
X0390701Y0260455D02*
X0259087Y0260455D01*
X0258545Y0262251D02*
X0390701Y0262251D01*
X0390701Y0262849D02*
X0259355Y0262849D01*
X0259953Y0263448D02*
X0390701Y0263448D01*
X0390701Y0264046D02*
X0260346Y0264046D01*
X0260593Y0264645D02*
X0390701Y0264645D01*
X0390701Y0265243D02*
X0260841Y0265243D01*
X0260900Y0265842D02*
X0390701Y0265842D01*
X0390701Y0266441D02*
X0260900Y0266441D01*
X0260900Y0267039D02*
X0390701Y0267039D01*
X0390701Y0267638D02*
X0260725Y0267638D01*
X0260477Y0268236D02*
X0390701Y0268236D01*
X0390701Y0268835D02*
X0260229Y0268835D01*
X0259672Y0269433D02*
X0390701Y0269433D01*
X0390701Y0270032D02*
X0259074Y0270032D01*
X0257867Y0270630D02*
X0390701Y0270630D01*
X0316792Y0187437D02*
X0159134Y0187437D01*
X0158536Y0186839D02*
X0316700Y0186839D01*
X0316700Y0186240D02*
X0157937Y0186240D01*
X0157339Y0185641D02*
X0316700Y0185641D01*
X0316842Y0185043D02*
X0156740Y0185043D01*
X0155141Y0186839D02*
X0094200Y0186839D01*
X0094200Y0186240D02*
X0154543Y0186240D01*
X0153944Y0185641D02*
X0094166Y0185641D01*
X0093968Y0187437D02*
X0155740Y0187437D01*
X0155165Y0188036D02*
X0156338Y0188036D01*
X0156184Y0188634D02*
X0156937Y0188634D01*
X0156782Y0189233D02*
X0157536Y0189233D01*
X0157080Y0189831D02*
X0158134Y0189831D01*
X0158733Y0190430D02*
X0157328Y0190430D01*
X0157400Y0191028D02*
X0159331Y0191028D01*
X0159930Y0191627D02*
X0157400Y0191627D01*
X0157305Y0192225D02*
X0160528Y0192225D01*
X0161127Y0192824D02*
X0157057Y0192824D01*
X0156728Y0193422D02*
X0161725Y0193422D01*
X0162324Y0194021D02*
X0156129Y0194021D01*
X0156316Y0194619D02*
X0162922Y0194619D01*
X0163521Y0195218D02*
X0156915Y0195218D01*
X0157513Y0195816D02*
X0164119Y0195816D01*
X0164718Y0196415D02*
X0158112Y0196415D01*
X0158710Y0197013D02*
X0165316Y0197013D01*
X0165915Y0197612D02*
X0159309Y0197612D01*
X0159907Y0198210D02*
X0166513Y0198210D01*
X0166688Y0208385D02*
X0155935Y0208385D01*
X0156533Y0208983D02*
X0167286Y0208983D01*
X0167885Y0209582D02*
X0156977Y0209582D01*
X0157225Y0210180D02*
X0168483Y0210180D01*
X0169082Y0210779D02*
X0157400Y0210779D01*
X0157400Y0211377D02*
X0169680Y0211377D01*
X0170279Y0211976D02*
X0157400Y0211976D01*
X0157160Y0212574D02*
X0170877Y0212574D01*
X0171476Y0213173D02*
X0156913Y0213173D01*
X0156378Y0213772D02*
X0172074Y0213772D01*
X0172673Y0214370D02*
X0155634Y0214370D01*
X0173271Y0214969D02*
X0005600Y0214969D01*
X0005600Y0215567D02*
X0173870Y0215567D01*
X0174469Y0216166D02*
X0005600Y0216166D01*
X0005600Y0216764D02*
X0175067Y0216764D01*
X0175666Y0217363D02*
X0005600Y0217363D01*
X0005600Y0217961D02*
X0176264Y0217961D01*
X0176863Y0218560D02*
X0005600Y0218560D01*
X0005600Y0219158D02*
X0177461Y0219158D01*
X0178060Y0219757D02*
X0005600Y0219757D01*
X0005600Y0220355D02*
X0178658Y0220355D01*
X0179257Y0220954D02*
X0005600Y0220954D01*
X0005600Y0221552D02*
X0179855Y0221552D01*
X0180454Y0222151D02*
X0005600Y0222151D01*
X0005600Y0222749D02*
X0181052Y0222749D01*
X0181651Y0223348D02*
X0005600Y0223348D01*
X0005600Y0223946D02*
X0182249Y0223946D01*
X0182848Y0224545D02*
X0005600Y0224545D01*
X0005600Y0225143D02*
X0183446Y0225143D01*
X0184045Y0225742D02*
X0005600Y0225742D01*
X0005600Y0226340D02*
X0184643Y0226340D01*
X0185242Y0226939D02*
X0005600Y0226939D01*
X0005600Y0227537D02*
X0185840Y0227537D01*
X0186439Y0228136D02*
X0005600Y0228136D01*
X0005600Y0228734D02*
X0187037Y0228734D01*
X0187636Y0229333D02*
X0005600Y0229333D01*
X0005600Y0229931D02*
X0188234Y0229931D01*
X0188833Y0230530D02*
X0005600Y0230530D01*
X0005600Y0231128D02*
X0189431Y0231128D01*
X0190030Y0231727D02*
X0005600Y0231727D01*
X0005600Y0232325D02*
X0190628Y0232325D01*
X0221700Y0261700D02*
X0151300Y0191300D01*
X0147567Y0194619D02*
X0125033Y0194619D01*
X0124596Y0194800D02*
X0125883Y0194267D01*
X0126867Y0193283D01*
X0127400Y0191996D01*
X0127400Y0190604D01*
X0126867Y0189317D01*
X0125883Y0188333D01*
X0124596Y0187800D01*
X0118004Y0187800D01*
X0116717Y0188333D01*
X0115733Y0189317D01*
X0115200Y0190604D01*
X0115200Y0191996D01*
X0115733Y0193283D01*
X0116717Y0194267D01*
X0118004Y0194800D01*
X0124596Y0194800D01*
X0126129Y0194021D02*
X0146471Y0194021D01*
X0145872Y0193422D02*
X0126728Y0193422D01*
X0127057Y0192824D02*
X0145543Y0192824D01*
X0145295Y0192225D02*
X0127305Y0192225D01*
X0127400Y0191627D02*
X0145200Y0191627D01*
X0145200Y0191028D02*
X0127400Y0191028D01*
X0127328Y0190430D02*
X0145272Y0190430D01*
X0145520Y0189831D02*
X0127080Y0189831D01*
X0126782Y0189233D02*
X0145818Y0189233D01*
X0146416Y0188634D02*
X0126184Y0188634D01*
X0125165Y0188036D02*
X0147435Y0188036D01*
X0147145Y0184444D02*
X0125455Y0184444D01*
X0126304Y0183846D02*
X0146296Y0183846D01*
X0145718Y0183247D02*
X0126882Y0183247D01*
X0127130Y0182649D02*
X0145470Y0182649D01*
X0145222Y0182050D02*
X0127378Y0182050D01*
X0127400Y0181452D02*
X0145200Y0181452D01*
X0145200Y0180853D02*
X0127400Y0180853D01*
X0127255Y0180255D02*
X0145345Y0180255D01*
X0145592Y0179656D02*
X0127008Y0179656D01*
X0126608Y0179058D02*
X0145992Y0179058D01*
X0146591Y0178459D02*
X0126009Y0178459D01*
X0124743Y0177861D02*
X0147857Y0177861D01*
X0146724Y0174270D02*
X0125876Y0174270D01*
X0126478Y0173671D02*
X0146122Y0173671D01*
X0145646Y0173073D02*
X0126954Y0173073D01*
X0127202Y0172474D02*
X0145398Y0172474D01*
X0145200Y0171876D02*
X0127400Y0171876D01*
X0127400Y0171277D02*
X0145200Y0171277D01*
X0145200Y0170679D02*
X0127400Y0170679D01*
X0127183Y0170080D02*
X0145417Y0170080D01*
X0145665Y0169482D02*
X0126935Y0169482D01*
X0126433Y0168883D02*
X0146167Y0168883D01*
X0146834Y0168285D02*
X0125766Y0168285D01*
X0117435Y0188036D02*
X0093666Y0188036D01*
X0093250Y0188634D02*
X0116416Y0188634D01*
X0115818Y0189233D02*
X0093887Y0189233D01*
X0094263Y0189831D02*
X0115520Y0189831D01*
X0115272Y0190430D02*
X0094491Y0190430D01*
X0094600Y0191028D02*
X0115200Y0191028D01*
X0115200Y0191627D02*
X0094600Y0191627D01*
X0094481Y0192225D02*
X0115295Y0192225D01*
X0115543Y0192824D02*
X0094241Y0192824D01*
X0093845Y0193422D02*
X0115872Y0193422D01*
X0116471Y0194021D02*
X0093168Y0194021D01*
X0093720Y0194619D02*
X0117567Y0194619D01*
X0054440Y0198210D02*
X0048160Y0198210D01*
X0048758Y0198809D02*
X0053842Y0198809D01*
X0053243Y0199407D02*
X0049357Y0199407D01*
X0049800Y0200006D02*
X0052800Y0200006D01*
X0052800Y0200604D02*
X0049800Y0200604D01*
X0049800Y0201203D02*
X0052800Y0201203D01*
X0052800Y0201801D02*
X0049800Y0201801D01*
X0049800Y0202400D02*
X0052800Y0202400D01*
X0053049Y0202998D02*
X0049551Y0202998D01*
X0048953Y0203597D02*
X0053647Y0203597D01*
X0054246Y0204195D02*
X0048354Y0204195D01*
X0047756Y0204794D02*
X0054844Y0204794D01*
X0005600Y0177262D02*
X0316700Y0177262D01*
X0316700Y0176664D02*
X0005600Y0176664D01*
X0005600Y0176065D02*
X0316700Y0176065D01*
X0316700Y0175467D02*
X0005600Y0175467D01*
X0057882Y0094668D02*
X0117685Y0094668D01*
X0118004Y0094800D02*
X0116717Y0094267D01*
X0115733Y0093283D01*
X0115200Y0091996D01*
X0115200Y0090604D01*
X0115733Y0089317D01*
X0116717Y0088333D01*
X0118004Y0087800D01*
X0124596Y0087800D01*
X0125883Y0088333D01*
X0126867Y0089317D01*
X0127400Y0090604D01*
X0127400Y0091996D01*
X0126867Y0093283D01*
X0125883Y0094267D01*
X0124596Y0094800D01*
X0118004Y0094800D01*
X0116520Y0094069D02*
X0058480Y0094069D01*
X0059079Y0093471D02*
X0115921Y0093471D01*
X0115563Y0092872D02*
X0059677Y0092872D01*
X0059800Y0092274D02*
X0115315Y0092274D01*
X0115200Y0091675D02*
X0059800Y0091675D01*
X0059800Y0091077D02*
X0115200Y0091077D01*
X0115252Y0090478D02*
X0059800Y0090478D01*
X0059800Y0089880D02*
X0115500Y0089880D01*
X0115769Y0089281D02*
X0059231Y0089281D01*
X0058632Y0088683D02*
X0116368Y0088683D01*
X0117318Y0088084D02*
X0058034Y0088084D01*
X0124915Y0094668D02*
X0147685Y0094668D01*
X0146520Y0094069D02*
X0126080Y0094069D01*
X0126679Y0093471D02*
X0145921Y0093471D01*
X0145563Y0092872D02*
X0127037Y0092872D01*
X0127285Y0092274D02*
X0145315Y0092274D01*
X0145200Y0091675D02*
X0127400Y0091675D01*
X0127400Y0091077D02*
X0145200Y0091077D01*
X0145252Y0090478D02*
X0127348Y0090478D01*
X0127100Y0089880D02*
X0145500Y0089880D01*
X0145769Y0089281D02*
X0126831Y0089281D01*
X0126232Y0088683D02*
X0146368Y0088683D01*
X0147318Y0088084D02*
X0125282Y0088084D01*
X0125337Y0084493D02*
X0147263Y0084493D01*
X0146345Y0083895D02*
X0126255Y0083895D01*
X0126854Y0083296D02*
X0145746Y0083296D01*
X0145491Y0082698D02*
X0127109Y0082698D01*
X0127357Y0082099D02*
X0145243Y0082099D01*
X0145200Y0081501D02*
X0127400Y0081501D01*
X0127400Y0080902D02*
X0145200Y0080902D01*
X0145324Y0080303D02*
X0127276Y0080303D01*
X0127028Y0079705D02*
X0145572Y0079705D01*
X0145944Y0079106D02*
X0126656Y0079106D01*
X0126058Y0078508D02*
X0146542Y0078508D01*
X0147740Y0077909D02*
X0124860Y0077909D01*
X0125704Y0098259D02*
X0146896Y0098259D01*
X0146193Y0098857D02*
X0126407Y0098857D01*
X0126924Y0099456D02*
X0145675Y0099456D01*
X0145428Y0100054D02*
X0127172Y0100054D01*
X0127400Y0100653D02*
X0145200Y0100653D01*
X0145200Y0101251D02*
X0127400Y0101251D01*
X0127400Y0101850D02*
X0145200Y0101850D01*
X0145387Y0102448D02*
X0127213Y0102448D01*
X0126965Y0103047D02*
X0145635Y0103047D01*
X0146096Y0103645D02*
X0126504Y0103645D01*
X0125906Y0104244D02*
X0146694Y0104244D01*
X0168615Y0044991D02*
X0184945Y0044991D01*
X0183764Y0044393D02*
X0169401Y0044393D01*
X0169921Y0043794D02*
X0183166Y0043794D01*
X0182741Y0043196D02*
X0170282Y0043196D01*
X0170524Y0042597D02*
X0182493Y0042597D01*
X0182274Y0041999D02*
X0170669Y0041999D01*
X0187340Y0044991D02*
X0390701Y0044991D01*
X0390701Y0044393D02*
X0188521Y0044393D01*
X0189119Y0043794D02*
X0390701Y0043794D01*
X0390701Y0043196D02*
X0189544Y0043196D01*
X0189792Y0042597D02*
X0390701Y0042597D01*
X0390701Y0041999D02*
X0190011Y0041999D01*
X0190011Y0041400D02*
X0390701Y0041400D01*
X0390701Y0040802D02*
X0190011Y0040802D01*
X0189875Y0040203D02*
X0390701Y0040203D01*
X0390701Y0039605D02*
X0189628Y0039605D01*
X0189320Y0039006D02*
X0390701Y0039006D01*
X0390701Y0038408D02*
X0188721Y0038408D01*
X0292919Y0109631D02*
X0299115Y0109631D01*
X0298517Y0109032D02*
X0293518Y0109032D01*
X0294116Y0108434D02*
X0297918Y0108434D01*
X0297400Y0107835D02*
X0294715Y0107835D01*
X0294800Y0107237D02*
X0297400Y0107237D01*
X0297400Y0106638D02*
X0294800Y0106638D01*
X0301000Y0106638D02*
X0301600Y0106638D01*
X0301600Y0107237D02*
X0301000Y0107237D01*
X0301000Y0107835D02*
X0301600Y0107835D01*
X0301600Y0108434D02*
X0301000Y0108434D01*
X0301000Y0109032D02*
X0301600Y0109032D01*
X0301600Y0109631D02*
X0301000Y0109631D01*
X0301000Y0104842D02*
X0301600Y0104842D01*
X0301600Y0104244D02*
X0301000Y0104244D01*
X0301000Y0103645D02*
X0301600Y0103645D01*
X0301600Y0103047D02*
X0301000Y0103047D01*
X0301000Y0102448D02*
X0301600Y0102448D01*
X0325448Y0131775D02*
X0330203Y0131775D01*
X0328758Y0132374D02*
X0325900Y0132374D01*
X0325900Y0132972D02*
X0328122Y0132972D01*
X0327524Y0133571D02*
X0325900Y0133571D01*
X0325900Y0134170D02*
X0327203Y0134170D01*
X0326956Y0134768D02*
X0325900Y0134768D01*
X0325900Y0135367D02*
X0326708Y0135367D01*
X0326700Y0135965D02*
X0325900Y0135965D01*
X0325900Y0136564D02*
X0326700Y0136564D01*
X0326700Y0137162D02*
X0325900Y0137162D01*
X0325900Y0137761D02*
X0326926Y0137761D01*
X0327174Y0138359D02*
X0325900Y0138359D01*
X0325900Y0138958D02*
X0327452Y0138958D01*
X0328051Y0139556D02*
X0325900Y0139556D01*
X0325900Y0140155D02*
X0328649Y0140155D01*
X0330030Y0140753D02*
X0325520Y0140753D01*
X0317080Y0140753D02*
X0304381Y0140753D01*
X0304161Y0140155D02*
X0316700Y0140155D01*
X0316700Y0139556D02*
X0303913Y0139556D01*
X0303315Y0138958D02*
X0316700Y0138958D01*
X0319539Y0182050D02*
X0304324Y0182050D01*
X0304076Y0182649D02*
X0318446Y0182649D01*
X0317847Y0183247D02*
X0303710Y0183247D01*
X0206300Y0276300D02*
X0206300Y0316300D01*
X0208066Y0317912D02*
X0220500Y0317912D01*
X0220500Y0317314D02*
X0208665Y0317314D01*
X0208689Y0316715D02*
X0220500Y0316715D01*
X0220500Y0316117D02*
X0208689Y0316117D01*
X0208689Y0315518D02*
X0220500Y0315518D01*
X0220500Y0314920D02*
X0208298Y0314920D01*
X0207700Y0314321D02*
X0220500Y0314321D01*
X0220500Y0313723D02*
X0207500Y0313723D01*
X0207500Y0313124D02*
X0220500Y0313124D01*
X0220500Y0312526D02*
X0207500Y0312526D01*
X0207500Y0311927D02*
X0220500Y0311927D01*
X0220500Y0311329D02*
X0207500Y0311329D01*
X0207500Y0310730D02*
X0220500Y0310730D01*
X0220500Y0310132D02*
X0207500Y0310132D01*
X0207500Y0309533D02*
X0220500Y0309533D01*
X0220500Y0308935D02*
X0207500Y0308935D01*
X0207500Y0308336D02*
X0220500Y0308336D01*
X0220500Y0307738D02*
X0207500Y0307738D01*
X0207500Y0307139D02*
X0220500Y0307139D01*
X0220500Y0306541D02*
X0207500Y0306541D01*
X0207500Y0305942D02*
X0220500Y0305942D01*
X0220500Y0305344D02*
X0207500Y0305344D01*
X0207500Y0304745D02*
X0220500Y0304745D01*
X0220500Y0304147D02*
X0207500Y0304147D01*
X0207500Y0303548D02*
X0220500Y0303548D01*
X0220500Y0302950D02*
X0207500Y0302950D01*
X0207500Y0302351D02*
X0220500Y0302351D01*
X0220500Y0301753D02*
X0207500Y0301753D01*
X0207500Y0301154D02*
X0220500Y0301154D01*
X0220500Y0300556D02*
X0207500Y0300556D01*
X0207500Y0299957D02*
X0220500Y0299957D01*
X0220500Y0299359D02*
X0207500Y0299359D01*
X0207500Y0298760D02*
X0220500Y0298760D01*
X0220500Y0298162D02*
X0207500Y0298162D01*
X0207500Y0297563D02*
X0220500Y0297563D01*
X0220500Y0296965D02*
X0207500Y0296965D01*
X0207500Y0296366D02*
X0220500Y0296366D01*
X0220500Y0295768D02*
X0207500Y0295768D01*
X0207500Y0295169D02*
X0220500Y0295169D01*
X0220500Y0294571D02*
X0207500Y0294571D01*
X0207500Y0293972D02*
X0220500Y0293972D01*
X0220500Y0293374D02*
X0207500Y0293374D01*
X0207500Y0292775D02*
X0220500Y0292775D01*
X0220500Y0292177D02*
X0207500Y0292177D01*
X0207500Y0291578D02*
X0220500Y0291578D01*
X0220500Y0290979D02*
X0207500Y0290979D01*
X0207500Y0290381D02*
X0220500Y0290381D01*
X0220500Y0289782D02*
X0207500Y0289782D01*
X0207500Y0289184D02*
X0220500Y0289184D01*
X0220500Y0288585D02*
X0207500Y0288585D01*
X0207500Y0287987D02*
X0220500Y0287987D01*
X0220500Y0287388D02*
X0207500Y0287388D01*
X0207500Y0286790D02*
X0220500Y0286790D01*
X0205100Y0291578D02*
X0005600Y0291578D01*
X0005600Y0292177D02*
X0014235Y0292177D01*
X0013320Y0292775D02*
X0005600Y0292775D01*
X0005600Y0293374D02*
X0012721Y0293374D01*
X0012285Y0293972D02*
X0005600Y0293972D01*
X0005600Y0294571D02*
X0012037Y0294571D01*
X0011789Y0295169D02*
X0005600Y0295169D01*
X0005600Y0295768D02*
X0011700Y0295768D01*
X0011700Y0296366D02*
X0005600Y0296366D01*
X0005600Y0296965D02*
X0011700Y0296965D01*
X0011844Y0297563D02*
X0005600Y0297563D01*
X0005600Y0298162D02*
X0012092Y0298162D01*
X0012340Y0298760D02*
X0005600Y0298760D01*
X0005600Y0299359D02*
X0012853Y0299359D01*
X0013452Y0299957D02*
X0005600Y0299957D01*
X0005600Y0300556D02*
X0014554Y0300556D01*
X0018046Y0300556D02*
X0058339Y0300556D01*
X0058219Y0300845D02*
X0058688Y0299712D01*
X0059555Y0298845D01*
X0060687Y0298376D01*
X0061913Y0298376D01*
X0063045Y0298845D01*
X0063912Y0299712D01*
X0064381Y0300845D01*
X0064381Y0302070D01*
X0063912Y0303203D01*
X0063045Y0304070D01*
X0061913Y0304539D01*
X0060687Y0304539D01*
X0059555Y0304070D01*
X0058688Y0303203D01*
X0058219Y0302070D01*
X0058219Y0300845D01*
X0058219Y0301154D02*
X0005600Y0301154D01*
X0005600Y0301753D02*
X0058219Y0301753D01*
X0058335Y0302351D02*
X0005600Y0302351D01*
X0005600Y0302950D02*
X0058583Y0302950D01*
X0059033Y0303548D02*
X0005600Y0303548D01*
X0005600Y0304147D02*
X0059741Y0304147D01*
X0062859Y0304147D02*
X0205100Y0304147D01*
X0205100Y0304745D02*
X0005600Y0304745D01*
X0005600Y0305344D02*
X0205100Y0305344D01*
X0205100Y0305942D02*
X0005600Y0305942D01*
X0005600Y0306541D02*
X0205100Y0306541D01*
X0205100Y0307139D02*
X0005600Y0307139D01*
X0005600Y0307738D02*
X0205100Y0307738D01*
X0205100Y0308336D02*
X0062196Y0308336D01*
X0061913Y0308219D02*
X0063045Y0308688D01*
X0063912Y0309555D01*
X0064381Y0310687D01*
X0064381Y0311913D01*
X0063912Y0313045D01*
X0063045Y0313912D01*
X0061913Y0314381D01*
X0060687Y0314381D01*
X0059555Y0313912D01*
X0058688Y0313045D01*
X0058219Y0311913D01*
X0058219Y0310687D01*
X0058688Y0309555D01*
X0059555Y0308688D01*
X0060687Y0308219D01*
X0061913Y0308219D01*
X0060404Y0308336D02*
X0005600Y0308336D01*
X0005600Y0308935D02*
X0059308Y0308935D01*
X0058709Y0309533D02*
X0005600Y0309533D01*
X0005600Y0310132D02*
X0058449Y0310132D01*
X0058219Y0310730D02*
X0005600Y0310730D01*
X0005600Y0311329D02*
X0058219Y0311329D01*
X0058225Y0311927D02*
X0005600Y0311927D01*
X0005600Y0312526D02*
X0058473Y0312526D01*
X0058767Y0313124D02*
X0005600Y0313124D01*
X0005600Y0313723D02*
X0059366Y0313723D01*
X0060543Y0314321D02*
X0005600Y0314321D01*
X0005600Y0314920D02*
X0204302Y0314920D01*
X0203911Y0315518D02*
X0005600Y0315518D01*
X0005600Y0316117D02*
X0203911Y0316117D01*
X0203911Y0316715D02*
X0005600Y0316715D01*
X0005600Y0317314D02*
X0203935Y0317314D01*
X0204534Y0317912D02*
X0005600Y0317912D01*
X0005600Y0318511D02*
X0059602Y0318511D01*
X0059555Y0318530D02*
X0060687Y0318061D01*
X0061913Y0318061D01*
X0063045Y0318530D01*
X0063912Y0319397D01*
X0064381Y0320530D01*
X0064381Y0321755D01*
X0063912Y0322888D01*
X0063045Y0323755D01*
X0061913Y0324224D01*
X0060687Y0324224D01*
X0059555Y0323755D01*
X0058688Y0322888D01*
X0058219Y0321755D01*
X0058219Y0320530D01*
X0058688Y0319397D01*
X0059555Y0318530D01*
X0058976Y0319110D02*
X0005600Y0319110D01*
X0005600Y0319708D02*
X0058559Y0319708D01*
X0058311Y0320307D02*
X0005600Y0320307D01*
X0005600Y0320905D02*
X0058219Y0320905D01*
X0058219Y0321504D02*
X0005600Y0321504D01*
X0005600Y0322102D02*
X0058362Y0322102D01*
X0058610Y0322701D02*
X0005600Y0322701D01*
X0005600Y0323299D02*
X0059099Y0323299D01*
X0059900Y0323898D02*
X0005600Y0323898D01*
X0005600Y0324496D02*
X0220500Y0324496D01*
X0220500Y0323898D02*
X0062700Y0323898D01*
X0063501Y0323299D02*
X0220500Y0323299D01*
X0220500Y0322701D02*
X0063990Y0322701D01*
X0064237Y0322102D02*
X0220500Y0322102D01*
X0220500Y0321504D02*
X0064381Y0321504D01*
X0064381Y0320905D02*
X0220500Y0320905D01*
X0220500Y0320307D02*
X0064289Y0320307D01*
X0064041Y0319708D02*
X0220500Y0319708D01*
X0220500Y0319110D02*
X0063624Y0319110D01*
X0062998Y0318511D02*
X0205132Y0318511D01*
X0207468Y0318511D02*
X0220500Y0318511D01*
X0220500Y0325095D02*
X0005600Y0325095D01*
X0005600Y0325693D02*
X0220500Y0325693D01*
X0220500Y0326292D02*
X0005600Y0326292D01*
X0005600Y0326890D02*
X0220500Y0326890D01*
X0220500Y0327489D02*
X0005600Y0327489D01*
X0005600Y0328087D02*
X0220500Y0328087D01*
X0220500Y0328686D02*
X0005600Y0328686D01*
X0005600Y0329284D02*
X0220500Y0329284D01*
X0220500Y0329883D02*
X0005600Y0329883D01*
X0005600Y0330481D02*
X0220500Y0330481D01*
X0220500Y0331080D02*
X0005600Y0331080D01*
X0005600Y0331678D02*
X0220500Y0331678D01*
X0220500Y0332277D02*
X0005600Y0332277D01*
X0005600Y0332875D02*
X0220500Y0332875D01*
X0220500Y0333474D02*
X0005600Y0333474D01*
X0005600Y0334072D02*
X0220500Y0334072D01*
X0220500Y0334671D02*
X0005600Y0334671D01*
X0005600Y0335269D02*
X0220500Y0335269D01*
X0220500Y0335868D02*
X0005600Y0335868D01*
X0005600Y0336466D02*
X0220500Y0336466D01*
X0220500Y0337065D02*
X0005600Y0337065D01*
X0005600Y0337663D02*
X0220500Y0337663D01*
X0220500Y0338262D02*
X0005600Y0338262D01*
X0005600Y0338860D02*
X0220500Y0338860D01*
X0220500Y0339459D02*
X0005600Y0339459D01*
X0005600Y0340057D02*
X0220500Y0340057D01*
X0220500Y0340656D02*
X0005600Y0340656D01*
X0005600Y0341254D02*
X0220500Y0341254D01*
X0220500Y0341853D02*
X0005600Y0341853D01*
X0005600Y0342451D02*
X0009612Y0342451D01*
X0010240Y0342191D02*
X0012360Y0342191D01*
X0014319Y0343003D01*
X0015818Y0344502D01*
X0016629Y0346460D01*
X0016629Y0348580D01*
X0015818Y0350539D01*
X0014319Y0352038D01*
X0012360Y0352850D01*
X0010240Y0352850D01*
X0008281Y0352038D01*
X0006782Y0350539D01*
X0005971Y0348580D01*
X0005971Y0346460D01*
X0006782Y0344502D01*
X0008281Y0343003D01*
X0010240Y0342191D01*
X0008234Y0343050D02*
X0005600Y0343050D01*
X0005600Y0343648D02*
X0007635Y0343648D01*
X0007037Y0344247D02*
X0005600Y0344247D01*
X0005600Y0344845D02*
X0006640Y0344845D01*
X0006392Y0345444D02*
X0005600Y0345444D01*
X0005600Y0346043D02*
X0006144Y0346043D01*
X0005971Y0346641D02*
X0005600Y0346641D01*
X0005600Y0347240D02*
X0005971Y0347240D01*
X0005971Y0347838D02*
X0005600Y0347838D01*
X0005600Y0348437D02*
X0005971Y0348437D01*
X0006159Y0349035D02*
X0005600Y0349035D01*
X0005600Y0349634D02*
X0006407Y0349634D01*
X0006655Y0350232D02*
X0005600Y0350232D01*
X0005600Y0350831D02*
X0007074Y0350831D01*
X0007672Y0351429D02*
X0005600Y0351429D01*
X0005600Y0352028D02*
X0008271Y0352028D01*
X0009701Y0352626D02*
X0005600Y0352626D01*
X0005600Y0353225D02*
X0017693Y0353225D01*
X0017941Y0353823D02*
X0005600Y0353823D01*
X0005600Y0354422D02*
X0018402Y0354422D01*
X0018038Y0354058D02*
X0017339Y0352371D01*
X0017339Y0350544D01*
X0018038Y0348857D01*
X0019329Y0347565D01*
X0021017Y0346867D01*
X0022843Y0346867D01*
X0024530Y0347565D01*
X0025822Y0348857D01*
X0026521Y0350544D01*
X0026521Y0352371D01*
X0025822Y0354058D01*
X0024530Y0355349D01*
X0022843Y0356048D01*
X0021017Y0356048D01*
X0019329Y0355349D01*
X0018038Y0354058D01*
X0019000Y0355020D02*
X0005600Y0355020D01*
X0005600Y0355619D02*
X0019979Y0355619D01*
X0023881Y0355619D02*
X0220500Y0355619D01*
X0220500Y0356217D02*
X0005600Y0356217D01*
X0005600Y0356816D02*
X0220500Y0356816D01*
X0220500Y0357414D02*
X0005600Y0357414D01*
X0005600Y0358013D02*
X0220500Y0358013D01*
X0220500Y0358611D02*
X0005600Y0358611D01*
X0005600Y0359210D02*
X0220500Y0359210D01*
X0220500Y0359808D02*
X0005600Y0359808D01*
X0005600Y0360407D02*
X0220500Y0360407D01*
X0220500Y0361005D02*
X0005600Y0361005D01*
X0005600Y0361604D02*
X0220500Y0361604D01*
X0220500Y0362202D02*
X0005600Y0362202D01*
X0005600Y0362801D02*
X0220500Y0362801D01*
X0220500Y0363399D02*
X0005600Y0363399D01*
X0005600Y0363998D02*
X0220500Y0363998D01*
X0220500Y0364596D02*
X0005600Y0364596D01*
X0005600Y0365195D02*
X0220500Y0365195D01*
X0220500Y0365793D02*
X0005600Y0365793D01*
X0005600Y0366392D02*
X0220500Y0366392D01*
X0220500Y0366990D02*
X0023903Y0366990D01*
X0024530Y0367251D02*
X0025822Y0368542D01*
X0026521Y0370229D01*
X0026521Y0372056D01*
X0025822Y0373743D01*
X0024530Y0375035D01*
X0022843Y0375733D01*
X0021017Y0375733D01*
X0019329Y0375035D01*
X0018038Y0373743D01*
X0017339Y0372056D01*
X0017339Y0370229D01*
X0018038Y0368542D01*
X0019329Y0367251D01*
X0021017Y0366552D01*
X0022843Y0366552D01*
X0024530Y0367251D01*
X0024869Y0367589D02*
X0220500Y0367589D01*
X0220500Y0368187D02*
X0025467Y0368187D01*
X0025923Y0368786D02*
X0220500Y0368786D01*
X0220500Y0369384D02*
X0026171Y0369384D01*
X0026419Y0369983D02*
X0220500Y0369983D01*
X0220500Y0370581D02*
X0026521Y0370581D01*
X0026521Y0371180D02*
X0220500Y0371180D01*
X0220500Y0371779D02*
X0217405Y0371779D01*
X0218849Y0372377D02*
X0220500Y0372377D01*
X0220500Y0372976D02*
X0219481Y0372976D01*
X0220079Y0373574D02*
X0220500Y0373574D01*
X0220500Y0374173D02*
X0220398Y0374173D01*
X0222900Y0372976D02*
X0223119Y0372976D01*
X0222900Y0372377D02*
X0223751Y0372377D01*
X0222900Y0371779D02*
X0225195Y0371779D01*
X0231700Y0374395D02*
X0231700Y0378205D01*
X0234395Y0380900D01*
X0235900Y0380900D01*
X0236300Y0381300D01*
X0237844Y0383150D02*
X0390701Y0383150D01*
X0390701Y0382552D02*
X0238442Y0382552D01*
X0239041Y0381953D02*
X0390701Y0381953D01*
X0390701Y0381355D02*
X0239639Y0381355D01*
X0224948Y0383150D02*
X0005600Y0383150D01*
X0005600Y0382552D02*
X0224349Y0382552D01*
X0223751Y0381953D02*
X0005600Y0381953D01*
X0005600Y0381355D02*
X0223152Y0381355D01*
X0222554Y0380756D02*
X0217562Y0380756D01*
X0218948Y0380158D02*
X0221955Y0380158D01*
X0221357Y0379559D02*
X0219546Y0379559D01*
X0220145Y0378961D02*
X0220758Y0378961D01*
X0220500Y0378362D02*
X0220425Y0378362D01*
X0215038Y0380756D02*
X0208568Y0380756D01*
X0208219Y0380934D02*
X0207471Y0381177D01*
X0206694Y0381300D01*
X0206600Y0381300D01*
X0206600Y0376600D01*
X0206000Y0376600D01*
X0206000Y0381300D01*
X0205906Y0381300D01*
X0205129Y0381177D01*
X0204381Y0380934D01*
X0203679Y0380576D01*
X0203043Y0380114D01*
X0202486Y0379557D01*
X0202024Y0378921D01*
X0201666Y0378219D01*
X0201423Y0377471D01*
X0201300Y0376694D01*
X0201300Y0376600D01*
X0206000Y0376600D01*
X0206000Y0376000D01*
X0201300Y0376000D01*
X0201300Y0375906D01*
X0201423Y0375129D01*
X0201666Y0374381D01*
X0202024Y0373679D01*
X0202486Y0373043D01*
X0203043Y0372486D01*
X0203679Y0372024D01*
X0204381Y0371666D01*
X0205129Y0371423D01*
X0205906Y0371300D01*
X0206000Y0371300D01*
X0206000Y0376000D01*
X0206600Y0376000D01*
X0206600Y0376600D01*
X0211300Y0376600D01*
X0211300Y0376694D01*
X0211177Y0377471D01*
X0210934Y0378219D01*
X0210576Y0378921D01*
X0210114Y0379557D01*
X0209557Y0380114D01*
X0208921Y0380576D01*
X0208219Y0380934D01*
X0209497Y0380158D02*
X0213652Y0380158D01*
X0213054Y0379559D02*
X0210112Y0379559D01*
X0210547Y0378961D02*
X0212455Y0378961D01*
X0212175Y0378362D02*
X0210861Y0378362D01*
X0211082Y0377764D02*
X0211927Y0377764D01*
X0211700Y0377165D02*
X0211225Y0377165D01*
X0211700Y0376567D02*
X0206600Y0376567D01*
X0206600Y0376000D02*
X0211300Y0376000D01*
X0211300Y0375906D01*
X0211177Y0375129D01*
X0210934Y0374381D01*
X0210576Y0373679D01*
X0210114Y0373043D01*
X0209557Y0372486D01*
X0208921Y0372024D01*
X0208219Y0371666D01*
X0207471Y0371423D01*
X0206694Y0371300D01*
X0206600Y0371300D01*
X0206600Y0376000D01*
X0206600Y0375968D02*
X0206000Y0375968D01*
X0206000Y0375370D02*
X0206600Y0375370D01*
X0206600Y0374771D02*
X0206000Y0374771D01*
X0206000Y0374173D02*
X0206600Y0374173D01*
X0206600Y0373574D02*
X0206000Y0373574D01*
X0206000Y0372976D02*
X0206600Y0372976D01*
X0206600Y0372377D02*
X0206000Y0372377D01*
X0206000Y0371779D02*
X0206600Y0371779D01*
X0208440Y0371779D02*
X0215195Y0371779D01*
X0213751Y0372377D02*
X0209407Y0372377D01*
X0210047Y0372976D02*
X0213119Y0372976D01*
X0212521Y0373574D02*
X0210500Y0373574D01*
X0210828Y0374173D02*
X0212202Y0374173D01*
X0211954Y0374771D02*
X0211061Y0374771D01*
X0211215Y0375370D02*
X0211706Y0375370D01*
X0211700Y0375968D02*
X0211300Y0375968D01*
X0206600Y0377165D02*
X0206000Y0377165D01*
X0206000Y0376567D02*
X0016452Y0376567D01*
X0016629Y0376140D02*
X0015818Y0378098D01*
X0014319Y0379597D01*
X0012360Y0380409D01*
X0010240Y0380409D01*
X0008281Y0379597D01*
X0006782Y0378098D01*
X0005971Y0376140D01*
X0005971Y0374019D01*
X0006782Y0372061D01*
X0008281Y0370562D01*
X0010240Y0369750D01*
X0012360Y0369750D01*
X0014319Y0370562D01*
X0015818Y0372061D01*
X0016629Y0374019D01*
X0016629Y0376140D01*
X0016629Y0375968D02*
X0201300Y0375968D01*
X0201385Y0375370D02*
X0023722Y0375370D01*
X0024794Y0374771D02*
X0201539Y0374771D01*
X0201772Y0374173D02*
X0025392Y0374173D01*
X0025892Y0373574D02*
X0202100Y0373574D01*
X0202553Y0372976D02*
X0026140Y0372976D01*
X0026388Y0372377D02*
X0203193Y0372377D01*
X0204160Y0371779D02*
X0026521Y0371779D01*
X0020138Y0375370D02*
X0016629Y0375370D01*
X0016629Y0374771D02*
X0019066Y0374771D01*
X0018467Y0374173D02*
X0016629Y0374173D01*
X0016445Y0373574D02*
X0017968Y0373574D01*
X0017720Y0372976D02*
X0016197Y0372976D01*
X0015949Y0372377D02*
X0017472Y0372377D01*
X0017339Y0371779D02*
X0015536Y0371779D01*
X0014937Y0371180D02*
X0017339Y0371180D01*
X0017339Y0370581D02*
X0014338Y0370581D01*
X0012922Y0369983D02*
X0017441Y0369983D01*
X0017689Y0369384D02*
X0005600Y0369384D01*
X0005600Y0368786D02*
X0017937Y0368786D01*
X0018392Y0368187D02*
X0005600Y0368187D01*
X0005600Y0367589D02*
X0018991Y0367589D01*
X0019957Y0366990D02*
X0005600Y0366990D01*
X0005600Y0369983D02*
X0009678Y0369983D01*
X0008262Y0370581D02*
X0005600Y0370581D01*
X0005600Y0371180D02*
X0007663Y0371180D01*
X0007064Y0371779D02*
X0005600Y0371779D01*
X0005600Y0372377D02*
X0006651Y0372377D01*
X0006403Y0372976D02*
X0005600Y0372976D01*
X0005600Y0373574D02*
X0006155Y0373574D01*
X0005971Y0374173D02*
X0005600Y0374173D01*
X0005600Y0374771D02*
X0005971Y0374771D01*
X0005971Y0375370D02*
X0005600Y0375370D01*
X0005600Y0375968D02*
X0005971Y0375968D01*
X0006148Y0376567D02*
X0005600Y0376567D01*
X0005600Y0377165D02*
X0006396Y0377165D01*
X0006644Y0377764D02*
X0005600Y0377764D01*
X0005600Y0378362D02*
X0007046Y0378362D01*
X0007645Y0378961D02*
X0005600Y0378961D01*
X0005600Y0379559D02*
X0008243Y0379559D01*
X0009634Y0380158D02*
X0005600Y0380158D01*
X0005600Y0380756D02*
X0204032Y0380756D01*
X0203103Y0380158D02*
X0012966Y0380158D01*
X0014357Y0379559D02*
X0202488Y0379559D01*
X0202053Y0378961D02*
X0014955Y0378961D01*
X0015554Y0378362D02*
X0201739Y0378362D01*
X0201518Y0377764D02*
X0015956Y0377764D01*
X0016204Y0377165D02*
X0201375Y0377165D01*
X0206000Y0377764D02*
X0206600Y0377764D01*
X0206600Y0378362D02*
X0206000Y0378362D01*
X0206000Y0378961D02*
X0206600Y0378961D01*
X0206600Y0379559D02*
X0206000Y0379559D01*
X0206000Y0380158D02*
X0206600Y0380158D01*
X0206600Y0380756D02*
X0206000Y0380756D01*
X0220500Y0355020D02*
X0024860Y0355020D01*
X0025458Y0354422D02*
X0220500Y0354422D01*
X0220500Y0353823D02*
X0025919Y0353823D01*
X0026167Y0353225D02*
X0220500Y0353225D01*
X0220500Y0352626D02*
X0026415Y0352626D01*
X0026521Y0352028D02*
X0220500Y0352028D01*
X0220500Y0351429D02*
X0026521Y0351429D01*
X0026521Y0350831D02*
X0220500Y0350831D01*
X0220500Y0350232D02*
X0026392Y0350232D01*
X0026144Y0349634D02*
X0220500Y0349634D01*
X0220500Y0349035D02*
X0025896Y0349035D01*
X0025402Y0348437D02*
X0220500Y0348437D01*
X0220500Y0347838D02*
X0024803Y0347838D01*
X0023744Y0347240D02*
X0220500Y0347240D01*
X0220500Y0346641D02*
X0016629Y0346641D01*
X0016629Y0347240D02*
X0020116Y0347240D01*
X0019057Y0347838D02*
X0016629Y0347838D01*
X0016629Y0348437D02*
X0018458Y0348437D01*
X0017964Y0349035D02*
X0016441Y0349035D01*
X0016193Y0349634D02*
X0017716Y0349634D01*
X0017468Y0350232D02*
X0015945Y0350232D01*
X0015526Y0350831D02*
X0017339Y0350831D01*
X0017339Y0351429D02*
X0014928Y0351429D01*
X0014329Y0352028D02*
X0017339Y0352028D01*
X0017445Y0352626D02*
X0012899Y0352626D01*
X0016456Y0346043D02*
X0220500Y0346043D01*
X0220500Y0345444D02*
X0016208Y0345444D01*
X0015960Y0344845D02*
X0220500Y0344845D01*
X0220500Y0344247D02*
X0015563Y0344247D01*
X0014965Y0343648D02*
X0220500Y0343648D01*
X0220500Y0343050D02*
X0014366Y0343050D01*
X0012988Y0342451D02*
X0220500Y0342451D01*
X0204900Y0314321D02*
X0062057Y0314321D01*
X0063234Y0313723D02*
X0205100Y0313723D01*
X0205100Y0313124D02*
X0063833Y0313124D01*
X0064127Y0312526D02*
X0205100Y0312526D01*
X0205100Y0311927D02*
X0064375Y0311927D01*
X0064381Y0311329D02*
X0205100Y0311329D01*
X0205100Y0310730D02*
X0064381Y0310730D01*
X0064151Y0310132D02*
X0205100Y0310132D01*
X0205100Y0309533D02*
X0063891Y0309533D01*
X0063292Y0308935D02*
X0205100Y0308935D01*
X0205100Y0303548D02*
X0063567Y0303548D01*
X0064017Y0302950D02*
X0205100Y0302950D01*
X0205100Y0302351D02*
X0064265Y0302351D01*
X0064381Y0301753D02*
X0205100Y0301753D01*
X0205100Y0301154D02*
X0064381Y0301154D01*
X0064261Y0300556D02*
X0205100Y0300556D01*
X0205100Y0299957D02*
X0064013Y0299957D01*
X0063558Y0299359D02*
X0205100Y0299359D01*
X0205100Y0298760D02*
X0062839Y0298760D01*
X0059761Y0298760D02*
X0020260Y0298760D01*
X0020508Y0298162D02*
X0205100Y0298162D01*
X0205100Y0297563D02*
X0020756Y0297563D01*
X0020900Y0296965D02*
X0205100Y0296965D01*
X0205100Y0296366D02*
X0020900Y0296366D01*
X0020900Y0295768D02*
X0205100Y0295768D01*
X0205100Y0295169D02*
X0020811Y0295169D01*
X0020563Y0294571D02*
X0205100Y0294571D01*
X0205100Y0293972D02*
X0020315Y0293972D01*
X0019879Y0293374D02*
X0205100Y0293374D01*
X0205100Y0292775D02*
X0019280Y0292775D01*
X0018365Y0292177D02*
X0205100Y0292177D01*
X0237500Y0298162D02*
X0284731Y0298162D01*
X0283890Y0298760D02*
X0237500Y0298760D01*
X0237500Y0299359D02*
X0283316Y0299359D01*
X0283068Y0299957D02*
X0237500Y0299957D01*
X0237500Y0300556D02*
X0282820Y0300556D01*
X0282800Y0301154D02*
X0237500Y0301154D01*
X0237500Y0301753D02*
X0282800Y0301753D01*
X0282947Y0302351D02*
X0237500Y0302351D01*
X0237500Y0302950D02*
X0283195Y0302950D01*
X0283598Y0303548D02*
X0237500Y0303548D01*
X0237500Y0304147D02*
X0284197Y0304147D01*
X0285472Y0304745D02*
X0237500Y0304745D01*
X0287128Y0304745D02*
X0304230Y0304745D01*
X0303631Y0304147D02*
X0288403Y0304147D01*
X0289002Y0303548D02*
X0303033Y0303548D01*
X0302434Y0302950D02*
X0289405Y0302950D01*
X0289653Y0302351D02*
X0302400Y0302351D01*
X0302400Y0301753D02*
X0289800Y0301753D01*
X0390701Y0383749D02*
X0005600Y0383749D01*
X0005600Y0384347D02*
X0390701Y0384347D01*
X0390701Y0384946D02*
X0005600Y0384946D01*
X0005600Y0385544D02*
X0390701Y0385544D01*
X0390701Y0386143D02*
X0005600Y0386143D01*
X0005600Y0386741D02*
X0390701Y0386741D01*
X0390701Y0387340D02*
X0005600Y0387340D01*
X0005600Y0387938D02*
X0390701Y0387938D01*
X0390701Y0388537D02*
X0005600Y0388537D01*
X0005600Y0389135D02*
X0390701Y0389135D01*
X0390701Y0389734D02*
X0005600Y0389734D01*
X0005600Y0390332D02*
X0390701Y0390332D01*
X0059041Y0299359D02*
X0019747Y0299359D01*
X0019148Y0299957D02*
X0058586Y0299957D01*
X0014522Y0290979D02*
X0005600Y0290979D01*
X0005600Y0290381D02*
X0013410Y0290381D01*
X0012711Y0289782D02*
X0005600Y0289782D01*
X0005600Y0289184D02*
X0012215Y0289184D01*
X0011853Y0288585D02*
X0005600Y0288585D01*
X0005600Y0287987D02*
X0011591Y0287987D01*
X0011410Y0287388D02*
X0005600Y0287388D01*
X0005600Y0286790D02*
X0011315Y0286790D01*
X0316000Y0055166D02*
X0316600Y0055166D01*
X0316600Y0054568D02*
X0316000Y0054568D01*
X0316000Y0053969D02*
X0316600Y0053969D01*
X0316600Y0053370D02*
X0316000Y0053370D01*
X0316000Y0052772D02*
X0316600Y0052772D01*
X0316600Y0050976D02*
X0316000Y0050976D01*
X0316000Y0050378D02*
X0316600Y0050378D01*
X0316600Y0049779D02*
X0316000Y0049779D01*
X0316000Y0049181D02*
X0316600Y0049181D01*
X0316600Y0048582D02*
X0316000Y0048582D01*
X0316000Y0047984D02*
X0316600Y0047984D01*
X0318499Y0047984D02*
X0390701Y0047984D01*
X0390701Y0048582D02*
X0319098Y0048582D01*
X0319696Y0049181D02*
X0390701Y0049181D01*
X0390701Y0049779D02*
X0320200Y0049779D01*
X0320200Y0050378D02*
X0390701Y0050378D01*
X0390701Y0050976D02*
X0320200Y0050976D01*
D21*
X0206300Y0276300D03*
X0206300Y0316300D03*
M02*
