%
M48
M72
T01C0.01378
T02C0.02000
T03C0.02362
T04C0.03200
T05C0.03937
T06C0.04000
T07C0.04921
T08C0.05906
%
T01
X206300Y276300
X206300Y316300
T02
X91300Y201300
X91300Y196300
X91300Y191300
X91300Y186300
X91300Y181300
T03
X61300Y301457
X61300Y311300
X61300Y321143
X271300Y201300
X271300Y191300
X271300Y181300
X271300Y171300
X271300Y161300
X271300Y151300
X271300Y141300
X301300Y141300
X301300Y151300
X301300Y161300
X301300Y171300
X301300Y181300
X301300Y191300
X301300Y201300
T04
X56300Y51300
X56300Y91300
X121300Y91300
X121300Y81300
X121300Y101300
X121300Y111300
X121300Y121300
X121300Y131300
X121300Y141300
X121300Y151300
X121300Y161300
X121300Y171300
X121300Y181300
X121300Y191300
X121300Y201300
X121300Y211300
X151300Y211300
X151300Y201300
X151300Y191300
X151300Y181300
X151300Y171300
X151300Y161300
X151300Y151300
X151300Y141300
X151300Y131300
X151300Y121300
X151300Y111300
X151300Y101300
X151300Y91300
X151300Y81300
X201300Y61300
X206300Y81300
X206300Y91300
X206300Y101300
X206300Y111300
X206300Y121300
X206300Y131300
X206300Y141300
X206300Y151300
X206300Y161300
X206300Y171300
X206300Y181300
X206300Y191300
X206300Y201300
X206300Y211300
X236300Y211300
X236300Y201300
X236300Y191300
X236300Y181300
X236300Y171300
X236300Y161300
X236300Y151300
X236300Y141300
X236300Y131300
X236300Y121300
X236300Y111300
X236300Y101300
X236300Y91300
X236300Y81300
X241300Y61300
X256300Y56300
X266300Y56300
X306300Y51300
X316300Y51300
X301300Y106300
X291300Y106300
X286300Y301300
X306300Y301300
X56300Y201300
X46300Y201300
T05
X166457Y41300
X186143Y41300
T06
X321300Y136300
X331300Y136300
X321300Y176300
X321300Y186300
X256300Y236300
X256300Y246300
X256300Y256300
X256300Y266300
X256300Y376300
X246300Y376300
X236300Y376300
X226300Y376300
X216300Y376300
X206300Y376300
X16300Y296300
X16300Y286300
T07
X21930Y351457
X21930Y371143
T08
X11300Y375080
X11300Y347520
M30
