G75*
%MOIN*%
%OFA0B0*%
%FSLAX25Y25*%
%IPPOS*%
%LPD*%
%AMOC8*
5,1,8,0,0,1.08239X$1,22.5*
%
%ADD10C,0.00000*%
%ADD11C,0.07400*%
%ADD12OC8,0.05200*%
%ADD13C,0.05200*%
%ADD14R,0.07400X0.07400*%
%ADD15R,0.05118X0.06299*%
%ADD16C,0.05200*%
%ADD17R,0.05315X0.01575*%
%ADD18C,0.07382*%
%ADD19C,0.08858*%
%ADD20C,0.04362*%
%ADD21C,0.04000*%
%ADD22C,0.05937*%
%ADD23C,0.00600*%
%ADD24C,0.02978*%
D10*
X0001300Y0001300D02*
X0001300Y0395001D01*
X0395001Y0395001D01*
X0395001Y0001300D01*
X0001300Y0001300D01*
D11*
X0256300Y0236300D03*
X0256300Y0246300D03*
X0256300Y0256300D03*
X0256300Y0266300D03*
X0321300Y0186300D03*
X0331300Y0136300D03*
X0256300Y0376300D03*
X0246300Y0376300D03*
X0236300Y0376300D03*
X0226300Y0376300D03*
X0216300Y0376300D03*
X0206300Y0376300D03*
X0016300Y0296300D03*
X0016300Y0286300D03*
D12*
X0046300Y0201300D03*
X0056300Y0201300D03*
X0056300Y0091300D03*
X0056300Y0051300D03*
X0201300Y0061300D03*
X0241300Y0061300D03*
X0256300Y0056300D03*
X0266300Y0056300D03*
X0306300Y0051300D03*
X0316300Y0051300D03*
X0301300Y0106300D03*
X0291300Y0106300D03*
X0306300Y0301300D03*
D13*
X0286300Y0301300D03*
D14*
X0321300Y0176300D03*
X0321300Y0136300D03*
D15*
X0240040Y0016300D03*
X0232560Y0016300D03*
X0185040Y0076300D03*
X0177560Y0076300D03*
D16*
X0153900Y0081300D02*
X0148700Y0081300D01*
X0148700Y0091300D02*
X0153900Y0091300D01*
X0153900Y0101300D02*
X0148700Y0101300D01*
X0148700Y0111300D02*
X0153900Y0111300D01*
X0153900Y0121300D02*
X0148700Y0121300D01*
X0148700Y0131300D02*
X0153900Y0131300D01*
X0153900Y0141300D02*
X0148700Y0141300D01*
X0148700Y0151300D02*
X0153900Y0151300D01*
X0153900Y0161300D02*
X0148700Y0161300D01*
X0148700Y0171300D02*
X0153900Y0171300D01*
X0153900Y0181300D02*
X0148700Y0181300D01*
X0148700Y0191300D02*
X0153900Y0191300D01*
X0153900Y0201300D02*
X0148700Y0201300D01*
X0148700Y0211300D02*
X0153900Y0211300D01*
X0123900Y0211300D02*
X0118700Y0211300D01*
X0118700Y0201300D02*
X0123900Y0201300D01*
X0123900Y0191300D02*
X0118700Y0191300D01*
X0118700Y0181300D02*
X0123900Y0181300D01*
X0123900Y0171300D02*
X0118700Y0171300D01*
X0118700Y0161300D02*
X0123900Y0161300D01*
X0123900Y0151300D02*
X0118700Y0151300D01*
X0118700Y0141300D02*
X0123900Y0141300D01*
X0123900Y0131300D02*
X0118700Y0131300D01*
X0118700Y0121300D02*
X0123900Y0121300D01*
X0123900Y0111300D02*
X0118700Y0111300D01*
X0118700Y0101300D02*
X0123900Y0101300D01*
X0123900Y0091300D02*
X0118700Y0091300D01*
X0118700Y0081300D02*
X0123900Y0081300D01*
X0203700Y0081300D02*
X0208900Y0081300D01*
X0208900Y0091300D02*
X0203700Y0091300D01*
X0203700Y0101300D02*
X0208900Y0101300D01*
X0208900Y0111300D02*
X0203700Y0111300D01*
X0203700Y0121300D02*
X0208900Y0121300D01*
X0208900Y0131300D02*
X0203700Y0131300D01*
X0203700Y0141300D02*
X0208900Y0141300D01*
X0208900Y0151300D02*
X0203700Y0151300D01*
X0203700Y0161300D02*
X0208900Y0161300D01*
X0208900Y0171300D02*
X0203700Y0171300D01*
X0203700Y0181300D02*
X0208900Y0181300D01*
X0208900Y0191300D02*
X0203700Y0191300D01*
X0203700Y0201300D02*
X0208900Y0201300D01*
X0208900Y0211300D02*
X0203700Y0211300D01*
X0233700Y0211300D02*
X0238900Y0211300D01*
X0238900Y0201300D02*
X0233700Y0201300D01*
X0233700Y0191300D02*
X0238900Y0191300D01*
X0238900Y0181300D02*
X0233700Y0181300D01*
X0233700Y0171300D02*
X0238900Y0171300D01*
X0238900Y0161300D02*
X0233700Y0161300D01*
X0233700Y0151300D02*
X0238900Y0151300D01*
X0238900Y0141300D02*
X0233700Y0141300D01*
X0233700Y0131300D02*
X0238900Y0131300D01*
X0238900Y0121300D02*
X0233700Y0121300D01*
X0233700Y0111300D02*
X0238900Y0111300D01*
X0238900Y0101300D02*
X0233700Y0101300D01*
X0233700Y0091300D02*
X0238900Y0091300D01*
X0238900Y0081300D02*
X0233700Y0081300D01*
D17*
X0021930Y0356182D03*
X0021930Y0358741D03*
X0021930Y0361300D03*
X0021930Y0363859D03*
X0021930Y0366418D03*
D18*
X0021930Y0371143D03*
X0021930Y0351457D03*
D19*
X0011300Y0347520D03*
X0011300Y0375080D03*
D20*
X0061300Y0321143D03*
X0061300Y0311300D03*
X0061300Y0301457D03*
X0271300Y0201300D03*
X0271300Y0191300D03*
X0271300Y0181300D03*
X0271300Y0171300D03*
X0271300Y0161300D03*
X0271300Y0151300D03*
X0271300Y0141300D03*
X0301300Y0141300D03*
X0301300Y0151300D03*
X0301300Y0161300D03*
X0301300Y0171300D03*
X0301300Y0181300D03*
X0301300Y0191300D03*
X0301300Y0201300D03*
D21*
X0091300Y0201300D03*
X0091300Y0196300D03*
X0091300Y0191300D03*
X0091300Y0186300D03*
X0091300Y0181300D03*
D22*
X0166457Y0041300D03*
X0186143Y0041300D03*
D23*
X0201300Y0056457D01*
X0201300Y0061300D01*
X0081300Y0061300D01*
X0061300Y0041300D01*
X0041300Y0041300D01*
X0021300Y0061300D01*
X0021300Y0191300D01*
X0041300Y0211300D01*
X0121300Y0211300D01*
X0126300Y0211300D01*
X0121300Y0211300D02*
X0101300Y0211300D01*
X0091300Y0201300D01*
X0091300Y0196300D02*
X0051300Y0196300D01*
X0046300Y0201300D01*
X0044850Y0204800D02*
X0041350Y0201300D01*
X0036300Y0201300D01*
X0036300Y0111300D01*
X0056300Y0091300D01*
X0121300Y0091300D02*
X0136300Y0076300D01*
X0177560Y0076300D01*
X0185040Y0076300D02*
X0191300Y0076300D01*
X0206300Y0091300D01*
X0206300Y0101300D02*
X0161300Y0101300D01*
X0151300Y0111300D01*
X0145200Y0115200D02*
X0145200Y0122750D01*
X0151300Y0128850D01*
X0151300Y0131300D01*
X0151300Y0133750D01*
X0145200Y0139850D01*
X0145200Y0202750D01*
X0151300Y0208850D01*
X0151300Y0211300D01*
X0136300Y0196300D01*
X0091300Y0196300D01*
X0091300Y0186300D02*
X0116300Y0186300D01*
X0121300Y0181300D01*
X0111300Y0181300D02*
X0121300Y0171300D01*
X0111300Y0181300D02*
X0091300Y0181300D01*
X0056300Y0201300D02*
X0051250Y0201300D01*
X0047750Y0204800D01*
X0044850Y0204800D01*
X0016300Y0286300D02*
X0016300Y0289795D01*
X0011700Y0294395D01*
X0011700Y0298205D01*
X0026521Y0313026D01*
X0026521Y0353359D01*
X0023832Y0356048D01*
X0022063Y0356048D01*
X0021930Y0356182D01*
X0022802Y0365546D02*
X0024960Y0365546D01*
X0061300Y0329207D01*
X0061300Y0321143D01*
X0061300Y0311300D02*
X0191300Y0311300D01*
X0256300Y0246300D01*
X0260900Y0250900D01*
X0260900Y0258205D01*
X0257405Y0261700D01*
X0254395Y0261700D01*
X0251700Y0264395D01*
X0251700Y0271650D01*
X0284850Y0304800D01*
X0287750Y0304800D01*
X0289800Y0302750D01*
X0289800Y0208443D01*
X0301300Y0196943D01*
X0301300Y0191300D01*
X0306300Y0186300D02*
X0321300Y0186300D01*
X0321300Y0176300D02*
X0306300Y0176300D01*
X0301300Y0171300D01*
X0301300Y0181300D02*
X0306300Y0186300D01*
X0291300Y0171300D02*
X0291300Y0106300D01*
X0241300Y0106300D01*
X0242400Y0105200D01*
X0242400Y0079850D01*
X0241300Y0078750D01*
X0241300Y0061300D01*
X0251300Y0061300D01*
X0256300Y0056300D01*
X0256300Y0032560D01*
X0240040Y0016300D01*
X0232560Y0016300D02*
X0216300Y0032560D01*
X0216300Y0101300D01*
X0206300Y0101300D01*
X0226300Y0111300D02*
X0206300Y0131300D01*
X0151300Y0131300D01*
X0145200Y0115200D02*
X0121300Y0091300D01*
X0151300Y0101300D02*
X0159603Y0101300D01*
X0160803Y0100100D01*
X0161240Y0100100D01*
X0185040Y0076300D01*
X0226300Y0111300D02*
X0236300Y0111300D01*
X0241300Y0106300D01*
X0264850Y0059800D02*
X0297800Y0059800D01*
X0306300Y0051300D01*
X0264850Y0059800D02*
X0261350Y0056300D01*
X0256300Y0056300D01*
X0321300Y0136300D02*
X0306300Y0151300D01*
X0301300Y0151300D01*
X0301300Y0161300D02*
X0306300Y0161300D01*
X0331300Y0136300D01*
X0291300Y0171300D02*
X0271300Y0191300D01*
X0271300Y0196943D01*
X0274381Y0200024D01*
X0274381Y0253219D01*
X0261300Y0266300D01*
X0256300Y0266300D01*
X0271300Y0266300D01*
X0271300Y0286300D01*
X0286300Y0301300D01*
X0236300Y0346300D02*
X0236300Y0376300D01*
X0236300Y0346300D02*
X0206300Y0316300D01*
X0206300Y0276300D02*
X0206300Y0226300D01*
X0151300Y0171300D01*
X0236300Y0171300D02*
X0271300Y0171300D01*
X0271300Y0181300D02*
X0236300Y0181300D01*
X0236300Y0161300D02*
X0271300Y0161300D01*
X0271300Y0151300D02*
X0236300Y0151300D01*
X0061300Y0301457D02*
X0056143Y0296300D01*
X0016300Y0296300D01*
X0022802Y0365546D02*
X0021930Y0366418D01*
D24*
X0206300Y0316300D03*
X0206300Y0276300D03*
M02*
